<svg xmlns="http://www.w3.org/2000/svg" xmlns:xlink="http://www.w3.org/1999/xlink" width="500" zoomAndPan="magnify" viewBox="0 0 375 374.999991" height="500" preserveAspectRatio="xMidYMid meet" version="1.0"><defs><clipPath id="id1"><path d="M 3.007812 30.667969 L 375 30.667969 L 375 368.035156 L 3.007812 368.035156 Z M 3.007812 30.667969 " clip-rule="nonzero"/></clipPath></defs><path fill="rgb(45.489502%, 78.819275%, 83.918762%)" d="M 20.078125 64.828125 L 357.570312 64.828125 L 357.570312 279.957031 L 20.078125 279.957031 Z M 20.078125 64.828125 " fill-opacity="1" fill-rule="nonzero"/><path fill="rgb(91.758728%, 46.269226%, 18.818665%)" d="M 12.441406 39.882812 L 365.570312 39.882812 L 365.570312 55.480469 L 12.441406 55.480469 Z M 12.441406 39.882812 " fill-opacity="1" fill-rule="nonzero"/><path fill="rgb(91.758728%, 46.269226%, 18.818665%)" d="M 12.441406 289.304688 L 365.570312 289.304688 L 365.570312 304.902344 L 12.441406 304.902344 Z M 12.441406 289.304688 " fill-opacity="1" fill-rule="nonzero"/><g clip-path="url(#id1)"><path fill="rgb(0%, 33.729553%, 54.899597%)" d="M 370.25 64.828125 C 372.832031 64.828125 374.925781 62.734375 374.925781 60.152344 L 374.925781 35.207031 C 374.925781 32.628906 372.832031 30.535156 370.25 30.535156 L 7.761719 30.535156 C 6.523438 30.535156 5.332031 31.027344 4.457031 31.902344 C 3.578125 32.78125 3.085938 33.96875 3.085938 35.207031 L 3.085938 60.152344 C 3.085938 62.734375 5.179688 64.828125 7.761719 64.828125 L 10.722656 64.828125 L 10.722656 279.957031 L 7.761719 279.957031 C 6.523438 279.957031 5.332031 280.449219 4.457031 281.328125 C 3.578125 282.203125 3.085938 283.390625 3.085938 284.628906 L 3.085938 309.578125 C 3.085938 312.160156 5.179688 314.25 7.761719 314.25 L 183.898438 314.25 L 183.898438 324.808594 C 174.074219 326.957031 166.691406 335.714844 166.691406 346.167969 C 166.691406 358.226562 176.507812 368.035156 188.578125 368.035156 C 200.644531 368.035156 210.460938 358.226562 210.460938 346.167969 C 210.460938 335.714844 203.082031 326.957031 193.253906 324.808594 L 193.253906 314.25 L 370.25 314.25 C 372.832031 314.25 374.925781 312.160156 374.925781 309.578125 L 374.925781 284.632812 C 374.925781 282.050781 372.832031 279.957031 370.25 279.957031 L 366.925781 279.957031 L 366.925781 64.828125 Z M 201.105469 346.167969 C 201.105469 353.070312 195.484375 358.6875 188.578125 358.6875 C 181.667969 358.6875 176.046875 353.070312 176.046875 346.167969 C 176.046875 339.265625 181.667969 333.648438 188.578125 333.648438 C 195.484375 333.648438 201.105469 339.265625 201.105469 346.167969 Z M 12.441406 39.882812 L 365.570312 39.882812 L 365.570312 55.480469 L 12.441406 55.480469 Z M 365.570312 304.902344 L 12.441406 304.902344 L 12.441406 289.304688 L 365.570312 289.304688 Z M 357.570312 279.957031 L 20.078125 279.957031 L 20.078125 64.828125 L 357.570312 64.828125 Z M 357.570312 279.957031 " fill-opacity="1" fill-rule="nonzero"/></g></svg>