<svg xmlns="http://www.w3.org/2000/svg" xmlns:xlink="http://www.w3.org/1999/xlink" width="500" zoomAndPan="magnify" viewBox="0 0 375 374.999991" height="500" preserveAspectRatio="xMidYMid meet" version="1.0"><defs><g/><clipPath id="id1"><path d="M 153 5.1875 L 360.082031 5.1875 L 360.082031 321.6875 L 153 321.6875 Z M 153 5.1875 " clip-rule="nonzero"/></clipPath><clipPath id="id2"><path d="M 15.082031 79 L 273 79 L 273 321.6875 L 15.082031 321.6875 Z M 15.082031 79 " clip-rule="nonzero"/></clipPath><clipPath id="id3"><path d="M 15.082031 330.207031 L 30.082031 330.207031 L 30.082031 344.457031 L 15.082031 344.457031 Z M 15.082031 330.207031 " clip-rule="nonzero"/></clipPath><clipPath id="id4"><path d="M 344.601562 330.207031 L 359.601562 330.207031 L 359.601562 344.457031 L 344.601562 344.457031 Z M 344.601562 330.207031 " clip-rule="nonzero"/></clipPath></defs><g clip-path="url(#id1)"><path fill="#ddab34" d="M 268.265625 254.699219 L 153.199219 251.152344 L 360.058594 321.65625 L 187.5625 5.253906 L 160.289062 55.285156 L 187.5625 105.65625 L 268.265625 254.699219 " fill-opacity="1" fill-rule="nonzero"/></g><g clip-path="url(#id2)"><path fill="#ddab34" d="M 94.324219 276.671875 L 149.097656 176.210938 L 174.136719 130.28125 L 146.847656 79.933594 L 15.066406 321.65625 L 272.902344 321.65625 L 94.324219 276.671875 " fill-opacity="1" fill-rule="nonzero"/></g><path fill="#ddab34" d="M 174.136719 130.28125 L 149.097656 176.210938 L 181.644531 236.324219 L 232.457031 237.886719 L 174.136719 130.28125 " fill-opacity="1" fill-rule="nonzero"/><g clip-path="url(#id3)"><path fill="#ffb703" d="M 22.601562 330.253906 L 24.910156 334.929688 L 30.082031 335.675781 L 26.339844 339.316406 L 27.226562 344.453125 L 22.601562 342.027344 L 17.972656 344.453125 L 18.855469 339.316406 L 15.117188 335.675781 L 20.285156 334.929688 Z M 22.601562 330.253906 " fill-opacity="1" fill-rule="nonzero"/><path fill="#ffb703" d="M 22.566406 330.210938 L 24.878906 334.882812 L 30.046875 335.632812 L 26.304688 339.273438 L 27.191406 344.40625 L 22.566406 341.984375 L 17.941406 344.40625 L 18.824219 339.273438 L 15.082031 335.632812 L 20.25 334.882812 Z M 22.566406 330.210938 " fill-opacity="1" fill-rule="nonzero"/><path fill="#ffb703" d="M 22.566406 330.210938 L 24.878906 334.882812 L 30.046875 335.632812 L 26.304688 339.273438 L 27.191406 344.40625 L 22.566406 341.984375 L 17.941406 344.40625 L 18.824219 339.273438 L 15.082031 335.632812 L 20.25 334.882812 Z M 22.566406 330.210938 " fill-opacity="1" fill-rule="nonzero"/><path fill="#ffb703" d="M 22.566406 330.210938 L 24.878906 334.882812 L 30.046875 335.632812 L 26.304688 339.273438 L 27.191406 344.40625 L 22.566406 341.984375 L 17.941406 344.40625 L 18.824219 339.273438 L 15.082031 335.632812 L 20.25 334.882812 Z M 22.566406 330.210938 " fill-opacity="1" fill-rule="nonzero"/></g><g fill="#f6e7d8" fill-opacity="1"><g transform="translate(38.576731, 358.549168)"><g><path d="M 1.546875 -25 C 1.546875 -25.59375 1.566406 -26.035156 1.609375 -26.328125 C 1.648438 -26.628906 1.769531 -26.972656 1.96875 -27.359375 C 2.332031 -28.054688 3.34375 -28.40625 5 -28.40625 C 6.8125 -28.40625 7.882812 -27.925781 8.21875 -26.96875 C 8.34375 -26.53125 8.40625 -25.859375 8.40625 -24.953125 L 8.40625 -3.40625 C 8.40625 -2.789062 8.382812 -2.335938 8.34375 -2.046875 C 8.3125 -1.765625 8.191406 -1.429688 7.984375 -1.046875 C 7.617188 -0.347656 6.609375 0 4.953125 0 C 3.148438 0 2.09375 -0.488281 1.78125 -1.46875 C 1.625 -1.882812 1.546875 -2.546875 1.546875 -3.453125 Z M 1.546875 -25 "/></g></g></g><g fill="#f6e7d8" fill-opacity="1"><g transform="translate(48.536022, 358.549168)"><g><path d="M 19.890625 -27.21875 C 20.140625 -27.675781 20.507812 -27.976562 21 -28.125 C 21.488281 -28.28125 22.101562 -28.359375 22.84375 -28.359375 C 23.582031 -28.359375 24.175781 -28.296875 24.625 -28.171875 C 25.070312 -28.046875 25.40625 -27.890625 25.625 -27.703125 C 25.851562 -27.523438 26.019531 -27.253906 26.125 -26.890625 C 26.269531 -26.472656 26.34375 -25.816406 26.34375 -24.921875 L 26.34375 -3.40625 C 26.34375 -2.789062 26.320312 -2.335938 26.28125 -2.046875 C 26.25 -1.765625 26.128906 -1.429688 25.921875 -1.046875 C 25.554688 -0.347656 24.550781 0 22.90625 0 C 21.894531 0 21.195312 -0.078125 20.8125 -0.234375 C 20.425781 -0.390625 20.101562 -0.632812 19.84375 -0.96875 C 14.03125 -8.71875 10.207031 -13.78125 8.375 -16.15625 L 8.375 -3.40625 C 8.375 -2.789062 8.351562 -2.335938 8.3125 -2.046875 C 8.269531 -1.765625 8.144531 -1.429688 7.9375 -1.046875 C 7.582031 -0.347656 6.578125 0 4.921875 0 C 3.316406 0 2.332031 -0.347656 1.96875 -1.046875 C 1.769531 -1.429688 1.648438 -1.78125 1.609375 -2.09375 C 1.566406 -2.40625 1.546875 -2.859375 1.546875 -3.453125 L 1.546875 -25.078125 C 1.546875 -26.054688 1.664062 -26.769531 1.90625 -27.21875 C 2.15625 -27.675781 2.523438 -27.976562 3.015625 -28.125 C 3.515625 -28.28125 4.148438 -28.359375 4.921875 -28.359375 C 5.691406 -28.359375 6.300781 -28.285156 6.75 -28.140625 C 7.207031 -28.003906 7.53125 -27.847656 7.71875 -27.671875 C 7.8125 -27.585938 8.109375 -27.25 8.609375 -26.65625 C 14.054688 -19.238281 17.695312 -14.34375 19.53125 -11.96875 L 19.53125 -25.078125 C 19.53125 -26.054688 19.648438 -26.769531 19.890625 -27.21875 Z M 19.890625 -27.21875 "/></g></g></g><g fill="#f6e7d8" fill-opacity="1"><g transform="translate(76.437561, 358.549168)"><g><path d="M 3.40625 -28.4375 L 24.953125 -28.4375 C 25.773438 -28.4375 26.378906 -28.335938 26.765625 -28.140625 C 27.160156 -27.953125 27.421875 -27.648438 27.546875 -27.234375 C 27.679688 -26.828125 27.75 -26.285156 27.75 -25.609375 C 27.75 -24.941406 27.679688 -24.40625 27.546875 -24 C 27.421875 -23.601562 27.203125 -23.328125 26.890625 -23.171875 C 26.421875 -22.941406 25.765625 -22.828125 24.921875 -22.828125 L 17.515625 -22.828125 L 17.515625 -3.328125 C 17.515625 -2.734375 17.492188 -2.296875 17.453125 -2.015625 C 17.421875 -1.734375 17.304688 -1.40625 17.109375 -1.03125 C 16.910156 -0.65625 16.566406 -0.390625 16.078125 -0.234375 C 15.585938 -0.078125 14.941406 0 14.140625 0 C 13.335938 0 12.695312 -0.078125 12.21875 -0.234375 C 11.75 -0.390625 11.414062 -0.65625 11.21875 -1.03125 C 11.019531 -1.40625 10.898438 -1.738281 10.859375 -2.03125 C 10.828125 -2.332031 10.8125 -2.78125 10.8125 -3.375 L 10.8125 -22.828125 L 3.375 -22.828125 C 2.539062 -22.828125 1.929688 -22.921875 1.546875 -23.109375 C 1.160156 -23.304688 0.898438 -23.609375 0.765625 -24.015625 C 0.640625 -24.429688 0.578125 -24.972656 0.578125 -25.640625 C 0.578125 -26.316406 0.640625 -26.851562 0.765625 -27.25 C 0.898438 -27.65625 1.125 -27.9375 1.4375 -28.09375 C 1.894531 -28.320312 2.550781 -28.4375 3.40625 -28.4375 Z M 3.40625 -28.4375 "/></g></g></g><g fill="#f6e7d8" fill-opacity="1"><g transform="translate(104.765366, 358.549168)"><g><path d="M 1.546875 -25 C 1.546875 -25.59375 1.566406 -26.035156 1.609375 -26.328125 C 1.648438 -26.628906 1.769531 -26.972656 1.96875 -27.359375 C 2.332031 -28.054688 3.34375 -28.40625 5 -28.40625 C 6.8125 -28.40625 7.882812 -27.925781 8.21875 -26.96875 C 8.34375 -26.53125 8.40625 -25.859375 8.40625 -24.953125 L 8.40625 -3.40625 C 8.40625 -2.789062 8.382812 -2.335938 8.34375 -2.046875 C 8.3125 -1.765625 8.191406 -1.429688 7.984375 -1.046875 C 7.617188 -0.347656 6.609375 0 4.953125 0 C 3.148438 0 2.09375 -0.488281 1.78125 -1.46875 C 1.625 -1.882812 1.546875 -2.546875 1.546875 -3.453125 Z M 1.546875 -25 "/></g></g></g><g fill="#f6e7d8" fill-opacity="1"><g transform="translate(114.724658, 358.549168)"><g><path d="M 3.40625 -28.4375 L 24.953125 -28.4375 C 25.773438 -28.4375 26.378906 -28.335938 26.765625 -28.140625 C 27.160156 -27.953125 27.421875 -27.648438 27.546875 -27.234375 C 27.679688 -26.828125 27.75 -26.285156 27.75 -25.609375 C 27.75 -24.941406 27.679688 -24.40625 27.546875 -24 C 27.421875 -23.601562 27.203125 -23.328125 26.890625 -23.171875 C 26.421875 -22.941406 25.765625 -22.828125 24.921875 -22.828125 L 17.515625 -22.828125 L 17.515625 -3.328125 C 17.515625 -2.734375 17.492188 -2.296875 17.453125 -2.015625 C 17.421875 -1.734375 17.304688 -1.40625 17.109375 -1.03125 C 16.910156 -0.65625 16.566406 -0.390625 16.078125 -0.234375 C 15.585938 -0.078125 14.941406 0 14.140625 0 C 13.335938 0 12.695312 -0.078125 12.21875 -0.234375 C 11.75 -0.390625 11.414062 -0.65625 11.21875 -1.03125 C 11.019531 -1.40625 10.898438 -1.738281 10.859375 -2.03125 C 10.828125 -2.332031 10.8125 -2.78125 10.8125 -3.375 L 10.8125 -22.828125 L 3.375 -22.828125 C 2.539062 -22.828125 1.929688 -22.921875 1.546875 -23.109375 C 1.160156 -23.304688 0.898438 -23.609375 0.765625 -24.015625 C 0.640625 -24.429688 0.578125 -24.972656 0.578125 -25.640625 C 0.578125 -26.316406 0.640625 -26.851562 0.765625 -27.25 C 0.898438 -27.65625 1.125 -27.9375 1.4375 -28.09375 C 1.894531 -28.320312 2.550781 -28.4375 3.40625 -28.4375 Z M 3.40625 -28.4375 "/></g></g></g><g fill="#f6e7d8" fill-opacity="1"><g transform="translate(143.052464, 358.549168)"><g><path d="M 20.109375 -27.359375 C 20.367188 -27.773438 20.742188 -28.054688 21.234375 -28.203125 C 21.722656 -28.359375 22.335938 -28.4375 23.078125 -28.4375 C 23.816406 -28.4375 24.40625 -28.375 24.84375 -28.25 C 25.28125 -28.125 25.613281 -27.96875 25.84375 -27.78125 C 26.070312 -27.601562 26.238281 -27.332031 26.34375 -26.96875 C 26.5 -26.53125 26.578125 -25.859375 26.578125 -24.953125 L 26.578125 -13.25 C 26.578125 -9.84375 25.519531 -6.742188 23.40625 -3.953125 C 22.375 -2.628906 21.039062 -1.5625 19.40625 -0.75 C 17.78125 0.0625 15.976562 0.46875 14 0.46875 C 12.03125 0.46875 10.238281 0.0546875 8.625 -0.765625 C 7.007812 -1.597656 5.695312 -2.6875 4.6875 -4.03125 C 2.59375 -6.769531 1.546875 -9.867188 1.546875 -13.328125 L 1.546875 -25 C 1.546875 -25.613281 1.566406 -26.066406 1.609375 -26.359375 C 1.648438 -26.660156 1.769531 -27.003906 1.96875 -27.390625 C 2.175781 -27.785156 2.523438 -28.054688 3.015625 -28.203125 C 3.515625 -28.359375 4.175781 -28.4375 5 -28.4375 C 5.820312 -28.4375 6.476562 -28.359375 6.96875 -28.203125 C 7.46875 -28.054688 7.804688 -27.785156 7.984375 -27.390625 C 8.296875 -26.796875 8.453125 -25.984375 8.453125 -24.953125 L 8.453125 -13.328125 C 8.453125 -11.753906 8.835938 -10.253906 9.609375 -8.828125 C 9.992188 -8.109375 10.570312 -7.53125 11.34375 -7.09375 C 12.125 -6.65625 13.046875 -6.4375 14.109375 -6.4375 C 15.992188 -6.4375 17.398438 -7.132812 18.328125 -8.53125 C 19.253906 -9.925781 19.71875 -11.539062 19.71875 -13.375 L 19.71875 -25.21875 C 19.71875 -26.226562 19.847656 -26.941406 20.109375 -27.359375 Z M 20.109375 -27.359375 "/></g></g></g><g fill="#f6e7d8" fill-opacity="1"><g transform="translate(171.186509, 358.549168)"><g><path d="M 3.40625 -28.4375 L 24.953125 -28.4375 C 25.773438 -28.4375 26.378906 -28.335938 26.765625 -28.140625 C 27.160156 -27.953125 27.421875 -27.648438 27.546875 -27.234375 C 27.679688 -26.828125 27.75 -26.285156 27.75 -25.609375 C 27.75 -24.941406 27.679688 -24.40625 27.546875 -24 C 27.421875 -23.601562 27.203125 -23.328125 26.890625 -23.171875 C 26.421875 -22.941406 25.765625 -22.828125 24.921875 -22.828125 L 17.515625 -22.828125 L 17.515625 -3.328125 C 17.515625 -2.734375 17.492188 -2.296875 17.453125 -2.015625 C 17.421875 -1.734375 17.304688 -1.40625 17.109375 -1.03125 C 16.910156 -0.65625 16.566406 -0.390625 16.078125 -0.234375 C 15.585938 -0.078125 14.941406 0 14.140625 0 C 13.335938 0 12.695312 -0.078125 12.21875 -0.234375 C 11.75 -0.390625 11.414062 -0.65625 11.21875 -1.03125 C 11.019531 -1.40625 10.898438 -1.738281 10.859375 -2.03125 C 10.828125 -2.332031 10.8125 -2.78125 10.8125 -3.375 L 10.8125 -22.828125 L 3.375 -22.828125 C 2.539062 -22.828125 1.929688 -22.921875 1.546875 -23.109375 C 1.160156 -23.304688 0.898438 -23.609375 0.765625 -24.015625 C 0.640625 -24.429688 0.578125 -24.972656 0.578125 -25.640625 C 0.578125 -26.316406 0.640625 -26.851562 0.765625 -27.25 C 0.898438 -27.65625 1.125 -27.9375 1.4375 -28.09375 C 1.894531 -28.320312 2.550781 -28.4375 3.40625 -28.4375 Z M 3.40625 -28.4375 "/></g></g></g><g fill="#f6e7d8" fill-opacity="1"><g transform="translate(199.514315, 358.549168)"><g><path d="M 14.875 -28.75 C 18.695312 -28.75 22.015625 -27.363281 24.828125 -24.59375 C 27.648438 -21.832031 29.0625 -18.40625 29.0625 -14.3125 C 29.0625 -10.21875 27.71875 -6.726562 25.03125 -3.84375 C 22.34375 -0.96875 19.035156 0.46875 15.109375 0.46875 C 11.179688 0.46875 7.84375 -0.953125 5.09375 -3.796875 C 2.34375 -6.640625 0.96875 -10.023438 0.96875 -13.953125 C 0.96875 -16.097656 1.351562 -18.101562 2.125 -19.96875 C 2.90625 -21.84375 3.941406 -23.410156 5.234375 -24.671875 C 6.523438 -25.941406 8.007812 -26.9375 9.6875 -27.65625 C 11.363281 -28.382812 13.09375 -28.75 14.875 -28.75 Z M 7.828125 -14.140625 C 7.828125 -11.835938 8.566406 -9.96875 10.046875 -8.53125 C 11.535156 -7.101562 13.195312 -6.390625 15.03125 -6.390625 C 16.863281 -6.390625 18.515625 -7.085938 19.984375 -8.484375 C 21.460938 -9.878906 22.203125 -11.75 22.203125 -14.09375 C 22.203125 -16.445312 21.457031 -18.332031 19.96875 -19.75 C 18.488281 -21.175781 16.832031 -21.890625 15 -21.890625 C 13.164062 -21.890625 11.507812 -21.171875 10.03125 -19.734375 C 8.5625 -18.304688 7.828125 -16.441406 7.828125 -14.140625 Z M 7.828125 -14.140625 "/></g></g></g><g fill="#f6e7d8" fill-opacity="1"><g transform="translate(229.547216, 358.549168)"><g/></g></g><g fill="#f6e7d8" fill-opacity="1"><g transform="translate(239.351507, 358.549168)"><g><path d="M 19.296875 -7.4375 L 20 -7.9375 C 20.875 -8.457031 21.492188 -8.71875 21.859375 -8.71875 C 22.660156 -8.71875 23.523438 -7.992188 24.453125 -6.546875 C 25.015625 -5.640625 25.296875 -4.914062 25.296875 -4.375 C 25.296875 -3.832031 25.117188 -3.378906 24.765625 -3.015625 C 24.421875 -2.660156 24.015625 -2.335938 23.546875 -2.046875 C 23.085938 -1.765625 22.644531 -1.492188 22.21875 -1.234375 C 21.789062 -0.984375 20.914062 -0.648438 19.59375 -0.234375 C 18.28125 0.179688 17.007812 0.390625 15.78125 0.390625 C 14.5625 0.390625 13.320312 0.226562 12.0625 -0.09375 C 10.8125 -0.414062 9.519531 -0.957031 8.1875 -1.71875 C 6.863281 -2.488281 5.671875 -3.421875 4.609375 -4.515625 C 3.546875 -5.609375 2.671875 -7.015625 1.984375 -8.734375 C 1.304688 -10.453125 0.96875 -12.316406 0.96875 -14.328125 C 0.96875 -16.347656 1.300781 -18.175781 1.96875 -19.8125 C 2.644531 -21.457031 3.503906 -22.816406 4.546875 -23.890625 C 5.597656 -24.960938 6.796875 -25.859375 8.140625 -26.578125 C 10.671875 -27.972656 13.210938 -28.671875 15.765625 -28.671875 C 16.984375 -28.671875 18.21875 -28.484375 19.46875 -28.109375 C 20.71875 -27.734375 21.664062 -27.351562 22.3125 -26.96875 L 23.25 -26.421875 C 23.71875 -26.140625 24.078125 -25.910156 24.328125 -25.734375 C 25.003906 -25.191406 25.34375 -24.578125 25.34375 -23.890625 C 25.34375 -23.203125 25.070312 -22.484375 24.53125 -21.734375 C 23.519531 -20.335938 22.613281 -19.640625 21.8125 -19.640625 C 21.351562 -19.640625 20.695312 -19.925781 19.84375 -20.5 C 18.757812 -21.375 17.3125 -21.8125 15.5 -21.8125 C 13.820312 -21.8125 12.171875 -21.234375 10.546875 -20.078125 C 9.765625 -19.503906 9.113281 -18.703125 8.59375 -17.671875 C 8.082031 -16.640625 7.828125 -15.46875 7.828125 -14.15625 C 7.828125 -12.851562 8.082031 -11.6875 8.59375 -10.65625 C 9.113281 -9.625 9.773438 -8.8125 10.578125 -8.21875 C 12.148438 -7.082031 13.789062 -6.515625 15.5 -6.515625 C 16.300781 -6.515625 17.054688 -6.613281 17.765625 -6.8125 C 18.472656 -7.019531 18.984375 -7.226562 19.296875 -7.4375 Z M 19.296875 -7.4375 "/></g></g></g><g fill="#f6e7d8" fill-opacity="1"><g transform="translate(265.664192, 358.549168)"><g><path d="M 1.546875 -25 C 1.546875 -25.59375 1.566406 -26.035156 1.609375 -26.328125 C 1.648438 -26.628906 1.769531 -26.972656 1.96875 -27.359375 C 2.332031 -28.054688 3.34375 -28.40625 5 -28.40625 C 6.8125 -28.40625 7.882812 -27.925781 8.21875 -26.96875 C 8.34375 -26.53125 8.40625 -25.859375 8.40625 -24.953125 L 8.40625 -3.40625 C 8.40625 -2.789062 8.382812 -2.335938 8.34375 -2.046875 C 8.3125 -1.765625 8.191406 -1.429688 7.984375 -1.046875 C 7.617188 -0.347656 6.609375 0 4.953125 0 C 3.148438 0 2.09375 -0.488281 1.78125 -1.46875 C 1.625 -1.882812 1.546875 -2.546875 1.546875 -3.453125 Z M 1.546875 -25 "/></g></g></g><g fill="#f6e7d8" fill-opacity="1"><g transform="translate(275.623483, 358.549168)"><g><path d="M 31.734375 -27.3125 C 31.941406 -26.925781 32.0625 -26.578125 32.09375 -26.265625 C 32.132812 -25.960938 32.15625 -25.515625 32.15625 -24.921875 L 32.15625 -3.40625 C 32.15625 -1.625 31.664062 -0.578125 30.6875 -0.265625 C 30.195312 -0.109375 29.578125 -0.03125 28.828125 -0.03125 C 28.078125 -0.03125 27.484375 -0.09375 27.046875 -0.21875 C 26.609375 -0.351562 26.269531 -0.507812 26.03125 -0.6875 C 25.800781 -0.875 25.625 -1.132812 25.5 -1.46875 C 25.363281 -1.90625 25.296875 -2.578125 25.296875 -3.484375 L 25.296875 -16.46875 C 24.648438 -15.664062 23.707031 -14.390625 22.46875 -12.640625 C 21.226562 -10.898438 20.441406 -9.8125 20.109375 -9.375 C 19.773438 -8.9375 19.539062 -8.632812 19.40625 -8.46875 C 19.28125 -8.300781 18.960938 -8.066406 18.453125 -7.765625 C 17.953125 -7.472656 17.410156 -7.328125 16.828125 -7.328125 C 16.253906 -7.328125 15.726562 -7.460938 15.25 -7.734375 C 14.769531 -8.003906 14.425781 -8.269531 14.21875 -8.53125 L 13.90625 -8.953125 C 13.394531 -9.597656 12.375 -10.972656 10.84375 -13.078125 C 9.320312 -15.179688 8.5 -16.3125 8.375 -16.46875 L 8.375 -3.40625 C 8.375 -2.8125 8.351562 -2.363281 8.3125 -2.0625 C 8.269531 -1.769531 8.144531 -1.441406 7.9375 -1.078125 C 7.550781 -0.378906 6.546875 -0.03125 4.921875 -0.03125 C 3.347656 -0.03125 2.363281 -0.378906 1.96875 -1.078125 C 1.769531 -1.441406 1.648438 -1.78125 1.609375 -2.09375 C 1.566406 -2.40625 1.546875 -2.867188 1.546875 -3.484375 L 1.546875 -25 C 1.546875 -25.59375 1.566406 -26.035156 1.609375 -26.328125 C 1.648438 -26.628906 1.769531 -26.972656 1.96875 -27.359375 C 2.363281 -28.023438 3.375 -28.359375 5 -28.359375 C 5.695312 -28.359375 6.296875 -28.273438 6.796875 -28.109375 C 7.304688 -27.941406 7.632812 -27.769531 7.78125 -27.59375 L 8.015625 -27.359375 L 16.8125 -15.8125 C 21.207031 -21.625 24.140625 -25.457031 25.609375 -27.3125 C 26.046875 -28.007812 27.082031 -28.359375 28.71875 -28.359375 C 30.363281 -28.359375 31.367188 -28.007812 31.734375 -27.3125 Z M 31.734375 -27.3125 "/></g></g></g><g fill="#f6e7d8" fill-opacity="1"><g transform="translate(309.337842, 358.549168)"><g><path d="M 17.9375 -26.390625 L 28.40625 -4.765625 C 28.84375 -3.890625 29.0625 -3.234375 29.0625 -2.796875 C 29.0625 -1.859375 28.3125 -1.015625 26.8125 -0.265625 C 25.9375 0.171875 25.242188 0.390625 24.734375 0.390625 C 24.234375 0.390625 23.820312 0.269531 23.5 0.03125 C 23.175781 -0.195312 22.941406 -0.4375 22.796875 -0.6875 C 22.660156 -0.945312 22.460938 -1.335938 22.203125 -1.859375 L 20.1875 -6.046875 L 9.453125 -6.046875 L 7.4375 -1.859375 C 7.175781 -1.335938 6.972656 -0.960938 6.828125 -0.734375 C 6.691406 -0.503906 6.460938 -0.265625 6.140625 -0.015625 C 5.816406 0.222656 5.398438 0.34375 4.890625 0.34375 C 4.390625 0.34375 3.703125 0.125 2.828125 -0.3125 C 1.328125 -1.03125 0.578125 -1.859375 0.578125 -2.796875 C 0.578125 -3.234375 0.796875 -3.890625 1.234375 -4.765625 L 11.703125 -26.421875 C 11.984375 -27.015625 12.414062 -27.492188 13 -27.859375 C 13.582031 -28.222656 14.195312 -28.40625 14.84375 -28.40625 C 16.238281 -28.40625 17.269531 -27.734375 17.9375 -26.390625 Z M 14.796875 -17.09375 L 12.25 -11.78125 L 17.40625 -11.78125 Z M 14.796875 -17.09375 "/></g></g></g><g clip-path="url(#id4)"><path fill="#ffb703" d="M 352.121094 330.253906 L 354.433594 334.929688 L 359.601562 335.675781 L 355.863281 339.316406 L 356.746094 344.453125 L 352.121094 342.027344 L 347.496094 344.453125 L 348.378906 339.316406 L 344.640625 335.675781 L 349.808594 334.929688 Z M 352.121094 330.253906 " fill-opacity="1" fill-rule="nonzero"/><path fill="#ffb703" d="M 352.085938 330.210938 L 354.402344 334.882812 L 359.570312 335.632812 L 355.828125 339.273438 L 356.710938 344.40625 L 352.085938 341.984375 L 347.460938 344.40625 L 348.34375 339.273438 L 344.601562 335.632812 L 349.773438 334.882812 Z M 352.085938 330.210938 " fill-opacity="1" fill-rule="nonzero"/><path fill="#ffb703" d="M 352.085938 330.210938 L 354.402344 334.882812 L 359.570312 335.632812 L 355.828125 339.273438 L 356.710938 344.40625 L 352.085938 341.984375 L 347.460938 344.40625 L 348.34375 339.273438 L 344.601562 335.632812 L 349.773438 334.882812 Z M 352.085938 330.210938 " fill-opacity="1" fill-rule="nonzero"/><path fill="#ffb703" d="M 352.085938 330.210938 L 354.402344 334.882812 L 359.570312 335.632812 L 355.828125 339.273438 L 356.710938 344.40625 L 352.085938 341.984375 L 347.460938 344.40625 L 348.34375 339.273438 L 344.601562 335.632812 L 349.773438 334.882812 Z M 352.085938 330.210938 " fill-opacity="1" fill-rule="nonzero"/></g></svg>