<svg xmlns="http://www.w3.org/2000/svg" xmlns:xlink="http://www.w3.org/1999/xlink" width="100" zoomAndPan="magnify" viewBox="0 0 75 74.999997" height="100" preserveAspectRatio="xMidYMid meet" version="1.0"><defs><clipPath id="id1"><path d="M 9.789062 0.996094 L 67.4375 0.996094 L 67.4375 53.234375 L 9.789062 53.234375 Z M 9.789062 0.996094 " clip-rule="nonzero"/></clipPath><clipPath id="id2"><path d="M 7.5 16 L 62 16 L 62 73.746094 L 7.5 73.746094 Z M 7.5 16 " clip-rule="nonzero"/></clipPath></defs><path fill="#cb5c15" d="M 41.929688 20.226562 C 43.828125 20.613281 45.621094 21.347656 47.480469 21.859375 C 47.648438 21.902344 47.679688 21.828125 47.742188 21.734375 C 48.628906 20.390625 49.75 19.257812 50.9375 18.183594 C 50.964844 18.160156 51 18.136719 51.03125 18.113281 C 51.195312 17.996094 51.390625 17.910156 51.554688 18.066406 C 51.710938 18.210938 51.628906 18.398438 51.53125 18.558594 C 51.398438 18.773438 51.253906 18.984375 51.113281 19.199219 C 50.289062 20.414062 49.445312 21.617188 48.492188 22.742188 C 48.308594 22.960938 48.128906 22.980469 47.828125 22.996094 C 46.726562 23.0625 45.777344 22.574219 44.773438 22.300781 C 43.757812 22.027344 42.753906 21.722656 41.75 21.417969 C 41.335938 21.292969 40.933594 21.117188 40.496094 21.0625 C 40.09375 21.015625 39.84375 20.667969 39.46875 20.550781 C 39.347656 20.515625 39.414062 20.300781 39.515625 20.183594 C 39.730469 19.9375 40 19.820312 40.171875 19.835938 C 40.894531 19.851562 41.390625 20.121094 41.929688 20.226562 Z M 33.546875 28.304688 C 32.15625 28.886719 30.886719 29.675781 29.566406 30.375 C 29.296875 30.519531 29.007812 30.640625 28.714844 30.71875 C 28.28125 30.832031 27.835938 30.941406 27.460938 30.539062 C 27.339844 30.410156 27.121094 30.480469 26.957031 30.382812 C 26.515625 30.121094 26.226562 29.730469 26.0625 29.269531 C 25.265625 27.011719 25.078125 24.761719 26.195312 22.539062 C 26.292969 22.34375 26.410156 22.15625 26.570312 22.007812 C 26.753906 21.84375 26.945312 21.703125 27.152344 21.972656 C 27.199219 22.027344 27.25 22.042969 27.320312 22.039062 C 28.3125 21.945312 29.203125 22.335938 30.109375 22.628906 C 30.417969 22.726562 30.503906 22.960938 30.597656 23.277344 C 30.777344 23.878906 30.800781 24.46875 30.804688 25.078125 C 30.808594 25.269531 30.953125 25.214844 31.058594 25.191406 C 31.8125 25.035156 32.558594 24.859375 33.316406 24.71875 C 33.859375 24.621094 34.417969 24.480469 34.953125 24.535156 C 35.492188 24.597656 35.957031 24.578125 36.414062 24.28125 C 36.550781 24.191406 36.738281 24.238281 36.902344 24.277344 C 37.628906 24.453125 38.316406 24.726562 39.003906 25.011719 C 39.28125 25.128906 39.453125 25.371094 39.691406 25.535156 C 39.878906 25.667969 39.808594 25.921875 39.601562 26.046875 C 39.46875 26.125 39.449219 26.175781 39.472656 26.335938 C 39.523438 26.726562 39.183594 26.710938 38.894531 26.765625 C 39.207031 27.191406 39.113281 27.425781 38.648438 27.527344 C 38.390625 27.585938 38.136719 27.566406 37.882812 27.550781 C 37.777344 27.546875 37.660156 27.570312 37.640625 27.691406 C 37.621094 27.820312 37.75 27.804688 37.828125 27.832031 C 38.117188 27.929688 38.355469 28.097656 38.289062 28.4375 C 38.226562 28.773438 37.945312 28.847656 37.640625 28.851562 C 37.113281 28.855469 36.625 28.742188 36.171875 28.464844 C 34.890625 27.6875 34.90625 27.734375 33.546875 28.304688 Z M 30.859375 11.128906 C 30.65625 10.203125 30.773438 9.347656 31.503906 8.65625 C 31.792969 8.378906 32.125 8.222656 32.546875 8.289062 C 32.949219 8.355469 33.136719 8.554688 33.191406 8.960938 C 33.246094 9.386719 33.332031 9.8125 33.414062 10.234375 C 33.441406 10.371094 33.492188 10.535156 33.648438 10.558594 C 33.808594 10.578125 33.894531 10.429688 33.945312 10.300781 C 34.074219 9.996094 34.171875 9.679688 34.296875 9.371094 C 34.597656 8.644531 35.179688 8.335938 35.902344 8.636719 C 36.457031 8.867188 36.824219 8.714844 37.199219 8.339844 C 37.621094 7.921875 38.078125 7.5625 38.667969 7.394531 C 39.066406 7.277344 39.425781 7.328125 39.773438 7.53125 C 40.050781 7.691406 40.320312 7.761719 40.652344 7.664062 C 41 7.5625 41.300781 7.703125 41.429688 8.050781 C 41.578125 8.445312 41.8125 8.765625 42.09375 9.066406 C 42.472656 9.476562 42.570312 9.984375 42.5625 10.527344 C 42.550781 11.71875 42.203125 12.8125 41.628906 13.84375 C 41.515625 14.046875 41.398438 14.246094 41.320312 14.460938 C 40.871094 15.714844 39.890625 16.347656 38.679688 16.695312 C 38.441406 16.761719 38.324219 16.832031 38.363281 17.101562 C 38.394531 17.3125 38.371094 17.535156 38.359375 17.75 C 38.328125 18.410156 38.121094 18.597656 37.445312 18.597656 C 36.921875 18.597656 36.394531 18.597656 35.871094 18.597656 C 35.871094 18.589844 35.871094 18.582031 35.871094 18.574219 C 35.320312 18.574219 34.765625 18.578125 34.214844 18.574219 C 34.035156 18.574219 33.859375 18.574219 33.757812 18.769531 C 33.695312 18.886719 33.578125 18.914062 33.457031 18.875 C 33.347656 18.84375 33.328125 18.742188 33.285156 18.644531 C 32.945312 17.902344 33.179688 17.234375 33.539062 16.582031 C 33.574219 16.515625 33.59375 16.4375 33.632812 16.371094 C 33.867188 15.960938 33.875 15.632812 33.527344 15.21875 C 32.953125 14.539062 32.644531 13.703125 32.476562 12.824219 C 32.445312 12.644531 32.503906 12.398438 32.222656 12.324219 C 31.570312 12.152344 31.015625 11.847656 30.859375 11.128906 Z M 57.953125 65.140625 C 57.792969 66.207031 58 67.203125 58.367188 68.175781 C 58.507812 68.542969 58.496094 68.917969 58.589844 69.285156 C 58.65625 69.550781 58.320312 69.640625 58.164062 69.53125 C 57.648438 69.164062 57.171875 69.449219 56.691406 69.554688 C 55.144531 69.898438 53.574219 70.019531 52.007812 70.199219 C 47.613281 70.710938 43.21875 71.207031 38.824219 71.695312 C 36.851562 71.914062 34.871094 72.105469 32.894531 72.304688 C 31.941406 72.398438 31.175781 72.113281 30.75 71.183594 C 30.714844 71.101562 30.671875 71.019531 30.613281 70.953125 C 29.480469 69.691406 29.964844 66.941406 30.925781 65.789062 C 31.007812 65.695312 31.097656 65.597656 31.199219 65.523438 C 31.371094 65.398438 31.558594 65.363281 31.722656 65.53125 C 31.886719 65.699219 31.777344 65.847656 31.671875 66.003906 C 30.980469 67.023438 30.757812 68.152344 30.929688 69.363281 C 30.9375 69.414062 30.957031 69.464844 30.976562 69.507812 C 30.984375 69.527344 31.015625 69.539062 31.0625 69.574219 C 31.121094 68.453125 31.554688 67.460938 32.007812 66.476562 C 32.050781 66.382812 32.089844 66.289062 32.148438 66.203125 C 32.273438 66.015625 32.386719 65.773438 32.675781 65.855469 C 32.949219 65.929688 32.839844 66.175781 32.824219 66.410156 C 33.726562 65.960938 34.621094 65.632812 35.554688 65.394531 C 36.476562 65.15625 37.417969 65.058594 38.363281 64.972656 C 40.800781 64.746094 43.234375 64.460938 45.683594 64.347656 C 48.132812 64.238281 50.558594 63.890625 52.980469 63.53125 C 54.386719 63.324219 55.789062 63.085938 57.191406 62.847656 C 57.496094 62.796875 57.761719 62.628906 57.992188 62.429688 C 58.144531 62.300781 58.300781 62.140625 58.496094 62.261719 C 58.71875 62.398438 58.621094 62.625 58.546875 62.8125 C 58.253906 63.566406 58.074219 64.339844 57.953125 65.140625 Z M 65.097656 52.339844 C 64.492188 53.792969 64.203125 55.292969 64.402344 56.867188 C 64.449219 57.261719 64.554688 57.644531 64.722656 58.003906 C 64.765625 58.097656 64.8125 58.191406 64.851562 58.285156 C 65.140625 58.953125 64.96875 59.25 64.25 59.277344 C 63.992188 59.285156 63.753906 59.269531 63.570312 59.503906 C 63.492188 59.597656 63.34375 59.617188 63.210938 59.609375 C 61.746094 59.546875 60.332031 59.910156 58.898438 60.09375 C 57.789062 60.234375 56.667969 60.214844 55.566406 60.363281 C 52.535156 60.773438 49.488281 60.859375 46.441406 61.03125 C 44.984375 61.109375 43.542969 61.410156 42.078125 61.429688 C 41.5 61.4375 40.929688 61.433594 40.355469 61.347656 C 40.027344 61.296875 39.664062 61.46875 39.394531 61.136719 C 39.355469 61.085938 39.28125 61.152344 39.21875 61.171875 C 38.871094 61.289062 38.691406 61.167969 38.671875 60.796875 C 38.648438 60.386719 38.707031 59.980469 38.753906 59.574219 C 38.917969 58.117188 39.089844 56.664062 39.65625 55.289062 C 39.691406 55.207031 39.722656 55.125 39.753906 55.039062 C 39.972656 54.445312 40.273438 54.019531 41.039062 54.101562 C 41.847656 54.1875 42.632812 53.890625 43.429688 53.785156 C 43.8125 53.734375 44.195312 53.640625 44.574219 53.644531 C 46.164062 53.675781 47.710938 53.371094 49.25 53.03125 C 50.316406 52.792969 51.402344 52.710938 52.492188 52.640625 C 55.535156 52.441406 58.578125 52.203125 61.628906 52.070312 C 62.394531 52.035156 63.148438 51.828125 63.921875 51.84375 C 64.042969 51.847656 64.113281 51.792969 64.179688 51.710938 C 64.253906 51.621094 64.316406 51.523438 64.398438 51.445312 C 64.550781 51.296875 64.640625 50.949219 64.917969 51.125 C 65.183594 51.289062 64.847656 51.492188 64.839844 51.691406 C 65.230469 51.835938 65.269531 51.929688 65.097656 52.339844 Z M 46.5625 42.71875 C 45.515625 42.8125 45.6875 42.933594 45.855469 41.9375 C 46 41.109375 46.398438 40.359375 46.660156 39.546875 C 46.6875 40.0625 46.710938 40.578125 46.742188 41.09375 C 46.769531 41.523438 46.792969 41.957031 46.839844 42.386719 C 46.867188 42.625 46.789062 42.695312 46.5625 42.71875 Z M 65.480469 40.339844 C 65.359375 40.175781 65.171875 40.230469 65.023438 40.308594 C 64.738281 40.457031 64.566406 40.714844 64.398438 40.972656 C 64.269531 41.167969 64.164062 41.324219 63.867188 41.289062 C 63.515625 41.246094 63.15625 41.285156 62.800781 41.3125 C 62.125 41.363281 61.445312 41.429688 60.769531 41.488281 C 58.394531 41.695312 56.019531 41.902344 53.640625 42.113281 C 52.75 42.191406 51.855469 42.269531 50.960938 42.339844 C 50.847656 42.347656 50.625 42.433594 50.710938 42.164062 C 51.066406 41.027344 51.09375 39.847656 51.214844 38.679688 C 51.394531 36.988281 51.589844 35.292969 51.269531 33.597656 C 51.164062 33.027344 51.09375 32.417969 50.847656 31.90625 C 50.410156 31.007812 48.691406 30.339844 47.695312 30.574219 C 47.5 30.617188 47.371094 30.738281 47.335938 30.929688 C 47.300781 31.128906 47.457031 31.214844 47.597656 31.3125 C 47.6875 31.371094 47.835938 31.339844 47.875 31.523438 C 47.523438 31.761719 47.160156 31.988281 46.832031 32.289062 C 46.496094 32.59375 46.070312 32.785156 46.082031 33.394531 C 45.691406 33.148438 45.414062 33.316406 45.074219 33.441406 C 44.117188 33.800781 43.257812 34.265625 42.589844 35.050781 C 42.546875 35.105469 42.480469 35.238281 42.394531 35.089844 C 42.316406 34.957031 42.214844 34.898438 42.078125 34.960938 C 41.917969 35.027344 41.925781 35.1875 41.929688 35.324219 C 41.949219 35.804688 41.742188 36.207031 41.433594 36.53125 C 41.230469 36.75 41.183594 36.953125 41.214844 37.21875 C 41.308594 38.097656 41.378906 38.972656 41.359375 39.855469 C 41.339844 40.828125 41.328125 41.800781 41.355469 42.769531 C 41.363281 43.117188 41.246094 43.199219 40.929688 43.226562 C 38.5 43.410156 36.074219 43.648438 33.652344 43.914062 C 33.363281 43.945312 33.0625 43.953125 32.792969 44.089844 C 32.554688 44.214844 32.457031 44.402344 32.695312 44.597656 C 32.828125 44.703125 32.828125 44.765625 32.761719 44.902344 C 32.578125 45.277344 32.449219 45.679688 32.339844 46.085938 C 31.917969 47.628906 32 49.117188 32.824219 50.527344 C 33.089844 50.976562 33.445312 51.296875 33.941406 51.46875 C 34.632812 51.707031 35.347656 51.898438 36.0625 51.980469 C 38.105469 52.214844 40.15625 52.265625 42.203125 52.003906 C 43.960938 51.777344 45.714844 51.582031 47.492188 51.636719 C 48.441406 51.667969 49.394531 51.703125 50.339844 51.652344 C 53.027344 51.496094 55.71875 51.371094 58.386719 50.96875 C 60.21875 50.691406 62.082031 50.539062 63.847656 49.902344 C 64.074219 49.820312 64.296875 49.75 64.546875 49.878906 C 64.675781 49.945312 64.902344 49.878906 64.902344 49.753906 C 64.902344 49.417969 65.171875 49.070312 64.953125 48.761719 C 64.359375 47.925781 64.210938 46.953125 64.023438 45.988281 C 63.808594 44.875 63.828125 43.78125 64.304688 42.722656 C 64.617188 42.035156 64.949219 41.359375 65.410156 40.757812 C 65.515625 40.628906 65.582031 40.476562 65.480469 40.339844 " fill-opacity="1" fill-rule="nonzero"/><g clip-path="url(#id1)"><path fill="#ddab34" d="M 46.765625 39.65625 C 46.753906 39.53125 46.871094 39.355469 46.652344 39.308594 C 46.460938 39.269531 46.414062 39.441406 46.367188 39.558594 C 46.277344 39.792969 46.167969 40.019531 46.101562 40.265625 C 45.886719 41.039062 45.871094 41.851562 45.585938 42.605469 C 45.5 42.828125 45.617188 42.949219 45.824219 42.996094 C 46.441406 43.128906 47.136719 42.503906 46.972656 41.910156 C 46.769531 41.164062 47 40.390625 46.765625 39.65625 Z M 37.9375 18.472656 C 37.515625 18.601562 36.980469 19.332031 36.984375 19.769531 C 36.992188 20.25 37.523438 20.722656 38.027344 20.691406 C 38.582031 20.660156 39.046875 20.136719 38.984375 19.609375 C 38.960938 19.417969 38.929688 19.230469 38.894531 19.042969 C 38.808594 18.59375 38.375 18.335938 37.9375 18.472656 Z M 34.976562 19.40625 C 34.835938 18.914062 34.371094 18.769531 33.953125 19.074219 C 33.597656 19.328125 33.449219 19.703125 33.402344 20.140625 C 33.421875 20.25 33.441406 20.375 33.472656 20.5 C 33.589844 20.992188 33.855469 21.257812 34.238281 21.277344 C 34.613281 21.296875 34.882812 21.089844 35.066406 20.617188 C 35.121094 20.476562 35.1875 20.410156 35.335938 20.390625 C 35.480469 20.375 35.683594 20.386719 35.703125 20.203125 C 35.722656 20.035156 35.523438 19.972656 35.390625 19.910156 C 35.171875 19.800781 35.042969 19.652344 34.976562 19.40625 Z M 66.523438 49.25 C 66.121094 48.941406 65.699219 48.695312 65.15625 48.761719 C 64.242188 48.871094 63.316406 48.914062 62.410156 49.0625 C 60.765625 49.335938 59.113281 49.507812 57.457031 49.667969 C 56.042969 49.808594 54.628906 49.984375 53.246094 50.316406 C 51.976562 50.625 50.726562 51 49.40625 51.011719 C 49.316406 51.011719 49.222656 51.03125 49.144531 51.074219 C 48.949219 51.1875 48.683594 51.300781 48.675781 51.535156 C 48.667969 51.804688 48.933594 51.914062 49.171875 52 C 49.617188 52.15625 50.074219 52.164062 50.335938 52.128906 C 52.347656 52.027344 54.097656 51.539062 55.894531 51.351562 C 58.054688 51.125 60.207031 50.777344 62.367188 50.527344 C 63.664062 50.375 64.980469 50.410156 66.261719 50.136719 C 66.484375 50.089844 66.652344 50.011719 66.71875 49.789062 C 66.785156 49.566406 66.699219 49.382812 66.523438 49.25 Z M 29.71875 17.628906 C 30.308594 18.585938 30.71875 19.585938 30.472656 20.75 C 30.394531 21.109375 30.316406 21.503906 30.6875 21.773438 C 31.066406 22.046875 31.46875 21.945312 31.855469 21.777344 C 32.035156 21.703125 32.1875 21.589844 32.335938 21.460938 C 32.855469 21.019531 33.144531 20.445312 33.300781 19.796875 C 33.398438 19.378906 33.476562 18.957031 33.753906 18.601562 C 33.921875 18.386719 34.027344 18.117188 33.964844 17.84375 C 33.84375 17.316406 34.042969 16.902344 34.347656 16.5 C 34.585938 16.1875 34.726562 15.835938 34.71875 15.382812 C 34.722656 15.253906 34.695312 15.082031 34.640625 14.90625 C 34.441406 14.292969 34 13.835938 33.628906 13.335938 C 33.179688 12.738281 32.671875 12.242188 31.855469 12.109375 C 31.351562 12.03125 30.886719 12.078125 30.574219 12.410156 C 29.632812 13.425781 28.898438 14.546875 29.09375 16.042969 C 29.171875 16.632812 29.414062 17.136719 29.71875 17.628906 Z M 67.207031 39.832031 C 66.886719 39.503906 66.476562 39.320312 66.046875 39.179688 C 64.941406 38.816406 63.796875 38.605469 62.660156 38.367188 C 61.308594 38.082031 59.953125 37.816406 58.585938 37.660156 C 56.640625 37.433594 54.6875 37.300781 52.597656 37.113281 C 52.464844 37.113281 52.195312 37.09375 51.925781 37.117188 C 51.394531 37.167969 51.15625 37.328125 51.175781 37.648438 C 51.226562 38.558594 51.121094 39.460938 51.011719 40.359375 C 50.976562 40.660156 51.046875 41.011719 50.847656 41.242188 C 50.652344 41.46875 50.59375 41.710938 50.558594 41.96875 C 50.476562 42.601562 50.632812 42.800781 51.136719 42.742188 C 52.074219 42.628906 53.023438 42.546875 53.957031 42.40625 C 57.257812 41.914062 60.597656 41.855469 63.898438 41.386719 C 64.925781 41.238281 65.957031 41.113281 66.957031 40.828125 C 67.484375 40.679688 67.59375 40.21875 67.207031 39.832031 Z M 30.96875 9.671875 C 31.007812 9.074219 31.285156 8.742188 31.746094 8.542969 C 31.839844 8.5 31.9375 8.472656 31.96875 8.355469 C 32.035156 8.117188 32.160156 8.253906 32.25 8.324219 C 32.8125 8.769531 33.1875 9.335938 33.367188 10.035156 C 33.445312 10.335938 33.523438 10.730469 33.859375 10.789062 C 34.214844 10.851562 34.378906 10.472656 34.5625 10.214844 C 34.859375 9.796875 35.222656 9.519531 35.777344 9.542969 C 35.992188 9.554688 36.203125 9.484375 36.414062 9.421875 C 36.945312 9.273438 37.371094 8.9375 37.828125 8.660156 C 38.816406 8.066406 39.773438 8.117188 40.695312 8.804688 C 40.871094 8.933594 41.039062 9.074219 41.21875 9.195312 C 41.796875 9.589844 42.691406 9.464844 43.125 8.917969 C 43.257812 8.75 43.382812 8.5625 43.464844 8.363281 C 44.070312 6.941406 44.058594 5.546875 43.195312 4.230469 C 42.28125 2.839844 41.105469 1.675781 39.460938 1.261719 C 37.183594 0.6875 34.984375 1.039062 32.976562 2.320312 C 31.839844 3.046875 30.871094 3.90625 30.488281 5.261719 C 30.234375 6.167969 29.875 7.050781 30.109375 8.027344 C 30.25 8.621094 30.390625 9.210938 30.96875 9.671875 Z M 52.386719 19.445312 C 52.453125 19.335938 52.511719 19.21875 52.550781 19.097656 C 52.628906 18.839844 52.648438 18.625 52.324219 18.476562 C 51.9375 18.304688 51.675781 18.3125 51.359375 18.644531 C 50.519531 19.539062 49.8125 20.546875 49.066406 21.519531 C 48.707031 21.988281 48.34375 22.449219 47.875 22.816406 C 47.738281 22.921875 47.589844 23.070312 47.394531 22.996094 C 46.59375 22.699219 45.742188 22.570312 44.949219 22.222656 C 43.929688 21.78125 42.90625 21.335938 41.816406 21.082031 C 41.191406 20.9375 40.566406 20.765625 40.027344 20.417969 C 39.773438 20.253906 39.5625 20.222656 39.316406 20.3125 C 39.164062 20.367188 39.027344 20.472656 38.898438 20.574219 C 37.824219 21.429688 37.289062 22.667969 36.609375 23.804688 C 36.496094 23.996094 36.523438 24.296875 36.804688 24.324219 C 37.15625 24.355469 37.472656 24.488281 37.800781 24.574219 C 38.3125 24.710938 38.804688 24.886719 39.210938 25.285156 C 39.519531 25.582031 39.285156 25.859375 39.320312 26.140625 C 39.347656 26.363281 39.242188 26.433594 39.078125 26.5 C 38.804688 26.605469 38.675781 26.785156 38.847656 27.0625 C 38.960938 27.242188 38.867188 27.3125 38.734375 27.394531 C 38.546875 27.507812 38.34375 27.515625 38.125 27.496094 C 37.910156 27.523438 37.601562 27.394531 37.53125 27.738281 C 37.457031 28.082031 37.742188 28.152344 38 28.214844 C 38.011719 28.21875 38.023438 28.226562 38.035156 28.230469 C 38.167969 28.273438 38.28125 28.347656 38.214844 28.503906 C 38.160156 28.632812 38.125 28.851562 37.925781 28.796875 C 37.328125 28.636719 36.675781 28.617188 36.1875 28.164062 C 35.984375 27.96875 35.800781 27.988281 35.632812 28.191406 C 35.457031 28.402344 35.492188 28.636719 35.714844 28.75 C 36.113281 28.945312 36.464844 29.234375 36.898438 29.367188 C 38.941406 29.988281 40.996094 30.582031 43.027344 31.238281 C 43.917969 31.523438 44.613281 31.234375 45.125 30.589844 C 45.804688 29.730469 46.464844 28.851562 47.078125 27.933594 C 47.941406 26.640625 48.871094 25.386719 49.75 24.097656 C 50.753906 22.617188 51.476562 20.976562 52.386719 19.445312 Z M 44.535156 51.820312 C 44.535156 52.136719 44.285156 52.265625 43.992188 52.308594 C 43.242188 52.410156 42.5 52.566406 41.746094 52.613281 C 39.417969 52.757812 37.097656 53.007812 34.765625 53.078125 C 33.695312 53.109375 32.660156 52.902344 31.625 52.640625 C 29.988281 52.226562 28.296875 52.019531 26.695312 51.464844 C 24.519531 50.710938 22.273438 50.1875 20.070312 49.523438 C 18.648438 49.097656 17.164062 48.894531 15.75 48.460938 C 14.53125 48.089844 13.273438 47.816406 12.109375 47.285156 C 11.804688 47.144531 11.515625 46.988281 11.210938 46.851562 C 10.886719 46.707031 10.765625 46.40625 10.632812 46.117188 C 9.53125 43.648438 9.71875 41.203125 10.785156 38.777344 C 10.964844 38.359375 11.152344 37.941406 11.476562 37.597656 C 11.652344 37.410156 11.828125 37.320312 12.070312 37.300781 C 14.089844 37.128906 16.105469 36.957031 18.125 36.785156 C 20.460938 36.585938 22.796875 36.382812 25.136719 36.191406 C 26.285156 36.097656 27.4375 36.015625 28.589844 35.941406 C 29.078125 35.910156 29.472656 36.167969 29.867188 36.410156 C 30.949219 37.074219 32.058594 37.65625 33.300781 38.003906 C 35.316406 38.574219 37.320312 38.515625 39.335938 38.054688 C 39.71875 37.964844 40.089844 37.777344 40.5 37.882812 C 40.605469 37.910156 40.664062 37.828125 40.742188 37.789062 C 41.128906 37.574219 41.386719 37.710938 41.398438 38.164062 C 41.414062 38.855469 41.402344 39.542969 41.402344 40.234375 C 41.433594 40.835938 41.445312 41.4375 41.5 42.035156 C 41.53125 42.347656 41.410156 42.632812 41.390625 42.9375 C 41.378906 43.109375 41.203125 43.195312 41.035156 43.246094 C 40.40625 43.433594 39.753906 43.492188 39.105469 43.578125 C 37.824219 43.753906 36.523438 43.773438 35.25 43.996094 C 34.628906 44.105469 34.015625 44.230469 33.398438 44.34375 C 33.285156 44.363281 33.226562 44.414062 33.175781 44.519531 C 32.359375 46.253906 32.109375 48.011719 32.828125 49.847656 C 33.039062 50.390625 33.398438 50.820312 33.785156 51.222656 C 34.015625 51.460938 34.386719 51.476562 34.71875 51.527344 C 36.160156 51.746094 37.59375 51.691406 39.042969 51.523438 C 40.378906 51.371094 41.730469 51.324219 43.074219 51.3125 C 43.382812 51.308594 43.6875 51.324219 43.996094 51.378906 C 44.265625 51.425781 44.53125 51.507812 44.535156 51.820312 " fill-opacity="1" fill-rule="nonzero"/></g><path fill="#2153aa" d="M 31.5625 10.796875 C 31.703125 10.828125 31.785156 10.730469 31.824219 10.625 C 31.945312 10.296875 32.171875 10.148438 32.519531 10.136719 C 32.632812 10.132812 32.738281 10.050781 32.75 9.917969 C 32.765625 9.777344 32.660156 9.734375 32.542969 9.691406 C 32.035156 9.5 31.421875 9.929688 31.417969 10.496094 C 31.445312 10.597656 31.386719 10.757812 31.5625 10.796875 Z M 31.609375 12.839844 C 31.78125 12.886719 31.960938 12.902344 32.136719 12.929688 C 32.472656 12.976562 32.65625 12.804688 32.722656 12.503906 C 32.789062 12.1875 32.59375 12.035156 32.320312 11.957031 C 32.148438 11.910156 31.976562 11.859375 31.800781 11.835938 C 31.425781 11.789062 31.070312 11.953125 31.035156 12.179688 C 30.988281 12.449219 31.230469 12.738281 31.609375 12.839844 Z M 39.878906 13.675781 C 40.121094 13.59375 40.199219 13.398438 40.203125 13.164062 C 40.207031 12.960938 40.203125 12.757812 40.203125 12.554688 C 40.203125 12.554688 40.207031 12.554688 40.210938 12.554688 C 40.210938 12.3125 40.214844 12.070312 40.207031 11.828125 C 40.199219 11.605469 40.070312 11.414062 39.875 11.367188 C 39.664062 11.3125 39.621094 11.566406 39.585938 11.703125 C 39.457031 12.1875 39.246094 12.632812 39.050781 13.089844 C 38.972656 13.285156 38.996094 13.457031 39.152344 13.574219 C 39.367188 13.734375 39.621094 13.761719 39.878906 13.675781 Z M 37.15625 14.449219 C 37.523438 15.054688 38.089844 15.289062 38.816406 15.3125 C 39.164062 15.367188 39.394531 15.144531 39.578125 14.84375 C 39.632812 14.753906 39.691406 14.65625 39.605469 14.566406 C 39.519531 14.480469 39.445312 14.582031 39.363281 14.605469 C 39.230469 14.648438 39.09375 14.664062 38.949219 14.636719 C 38.40625 14.53125 37.917969 14.339844 37.605469 13.84375 C 37.503906 13.675781 37.367188 13.515625 37.140625 13.621094 C 36.929688 13.722656 36.992188 13.929688 37.015625 14.097656 C 37.035156 14.21875 37.089844 14.34375 37.15625 14.449219 Z M 39.625 25.886719 C 39.738281 25.730469 39.734375 25.570312 39.59375 25.4375 C 39.503906 25.355469 39.390625 25.300781 39.285156 25.410156 C 39.050781 25.65625 38.75 25.617188 38.460938 25.589844 C 38.066406 25.554688 37.675781 25.464844 37.28125 25.449219 C 37.074219 25.441406 36.726562 25.296875 36.671875 25.5625 C 36.609375 25.875 36.992188 25.898438 37.21875 25.972656 C 37.71875 26.136719 38.242188 26.207031 38.855469 26.214844 C 38.476562 26.480469 38.152344 26.4375 37.828125 26.378906 C 37.550781 26.328125 37.277344 26.25 37 26.214844 C 36.867188 26.199219 36.664062 26.109375 36.597656 26.304688 C 36.527344 26.507812 36.703125 26.59375 36.859375 26.667969 C 36.9375 26.703125 37.023438 26.730469 37.105469 26.757812 C 37.417969 26.859375 37.730469 26.957031 38.039062 27.054688 C 37.535156 27.253906 37.054688 27.140625 36.578125 27.015625 C 36.273438 26.933594 36.167969 27.003906 36.144531 27.324219 C 36.121094 27.597656 36.246094 27.730469 36.449219 27.835938 C 36.929688 28.078125 37.40625 28.316406 37.890625 28.550781 C 38.074219 28.640625 38.277344 28.679688 38.398438 28.472656 C 38.519531 28.269531 38.367188 28.148438 38.210938 28.039062 C 38.152344 28 38.066406 27.933594 38.066406 27.878906 C 38.066406 27.769531 38.1875 27.78125 38.265625 27.742188 C 38.683594 27.535156 39.421875 27.632812 39.195312 26.792969 C 39.566406 26.597656 39.421875 26.160156 39.625 25.886719 Z M 33.761719 20.042969 C 33.765625 20.332031 33.878906 20.570312 34.210938 20.605469 C 34.492188 20.636719 34.730469 20.382812 34.730469 20.078125 C 34.730469 19.789062 34.488281 19.542969 34.152344 19.535156 C 33.875 19.550781 33.761719 19.765625 33.761719 20.042969 Z M 37.472656 19.679688 C 37.457031 20.015625 37.726562 20.304688 38.058594 20.316406 C 38.386719 20.324219 38.660156 20.078125 38.671875 19.761719 C 38.683594 19.40625 38.375 19.042969 38.0625 19.042969 C 37.753906 19.042969 37.484375 19.332031 37.472656 19.679688 Z M 32.269531 21.6875 C 32.320312 21.234375 32.460938 20.890625 32.757812 20.582031 C 33.0625 20.269531 33.191406 19.894531 33.1875 19.46875 C 33.179688 18.773438 33.730469 18.328125 34.292969 18.210938 C 35.433594 17.976562 36.582031 17.953125 37.738281 18 C 38.003906 18.011719 38.097656 17.960938 38.097656 17.679688 C 38.101562 17.429688 37.972656 17.085938 38.417969 17.027344 C 39.050781 16.941406 39.4375 17.085938 39.554688 17.535156 C 39.71875 18.171875 39.679688 18.832031 39.59375 19.476562 C 39.527344 19.957031 39.597656 20.140625 40.054688 20.210938 C 41.871094 20.496094 43.605469 21.070312 45.34375 21.632812 C 45.921875 21.820312 46.433594 22.125 46.855469 22.578125 C 47.195312 22.9375 47.527344 22.878906 47.800781 22.445312 C 48.28125 21.675781 48.816406 20.941406 49.371094 20.226562 C 49.832031 19.628906 50.375 19.136719 51.09375 18.859375 C 51.289062 18.78125 51.570312 18.683594 51.65625 18.832031 C 51.78125 19.046875 51.484375 19.164062 51.332031 19.265625 C 50.640625 19.722656 50.09375 20.324219 49.609375 20.992188 C 49.175781 21.59375 48.769531 22.226562 48.253906 22.753906 C 47.921875 23.089844 47.78125 23.441406 47.671875 23.867188 C 47.417969 24.832031 46.855469 25.652344 46.386719 26.515625 C 45.785156 27.636719 45.179688 28.757812 44.683594 29.929688 C 44.621094 30.078125 44.589844 30.277344 44.347656 30.335938 C 44.316406 29.707031 44.542969 29.15625 44.742188 28.605469 C 45.183594 27.378906 45.796875 26.230469 46.417969 25.085938 C 46.675781 24.617188 46.925781 24.140625 47.101562 23.632812 C 47.167969 23.441406 47.152344 23.34375 46.929688 23.226562 C 46.242188 22.863281 45.617188 22.398438 44.851562 22.183594 C 43.203125 21.71875 41.5625 21.226562 39.917969 20.746094 C 39.847656 20.722656 39.773438 20.699219 39.703125 20.671875 C 39.234375 20.484375 39.085938 20.519531 38.734375 20.925781 C 38.230469 21.507812 37.929688 22.226562 37.5 22.859375 C 37.210938 23.292969 36.957031 23.75 36.671875 24.1875 C 36.53125 24.402344 36.273438 24.449219 36.058594 24.554688 C 35.042969 25.042969 33.917969 25.078125 32.839844 25.304688 C 32.148438 25.453125 31.972656 25.265625 31.988281 24.542969 C 32.011719 23.585938 32.164062 22.640625 32.269531 21.6875 Z M 28.582031 36.25 C 29.148438 37.335938 29.996094 38.097656 31.179688 38.433594 C 32.515625 38.8125 33.894531 38.957031 34.988281 39.019531 C 37.230469 39.03125 39.078125 38.53125 40.898438 37.890625 C 41.160156 37.796875 41.28125 37.59375 41.210938 37.3125 C 41.183594 37.195312 41.160156 37.09375 41.253906 36.992188 C 41.988281 36.210938 42.597656 35.285156 43.542969 34.738281 C 45.125 33.832031 46.652344 32.804688 48.421875 32.265625 C 48.6875 32.183594 48.894531 32.054688 48.863281 31.730469 C 48.8125 31.273438 48.535156 30.992188 48.066406 30.875 C 47.292969 30.679688 46.496094 30.648438 45.707031 30.59375 C 45.3125 30.570312 44.9375 30.644531 44.59375 30.921875 C 44.179688 31.25 43.703125 31.480469 43.140625 31.210938 C 42.980469 31.136719 42.800781 31.101562 42.628906 31.050781 C 41.636719 30.742188 40.695312 30.300781 39.6875 30.039062 C 38.421875 29.707031 37.191406 29.273438 36.03125 28.652344 C 35.894531 28.582031 35.765625 28.519531 35.714844 28.347656 C 35.476562 27.542969 34.941406 27.261719 34.109375 27.464844 C 33.679688 27.570312 33.28125 27.746094 32.921875 27.988281 C 31.457031 28.957031 29.921875 29.800781 28.320312 30.527344 C 27.988281 30.679688 27.632812 30.910156 27.519531 31.285156 C 27.425781 31.585938 27.414062 31.917969 27.425781 32.234375 C 27.476562 33.667969 27.925781 34.988281 28.582031 36.25 Z M 39.792969 57.027344 C 39.695312 58.273438 39.621094 59.519531 39.953125 60.757812 C 40.035156 61.066406 40.121094 61.21875 40.449219 61.148438 C 40.523438 61.132812 40.605469 61.144531 40.679688 61.144531 C 42.1875 61.015625 43.691406 60.941406 45.191406 60.738281 C 46.242188 60.59375 47.3125 60.570312 48.371094 60.480469 C 49.429688 60.394531 50.484375 60.296875 51.542969 60.191406 C 52.089844 60.140625 52.640625 60.125 53.1875 60.070312 C 54.398438 59.953125 55.617188 59.933594 56.828125 59.820312 C 57.550781 59.753906 58.261719 59.597656 58.976562 59.460938 C 59.691406 59.328125 60.421875 59.28125 61.140625 59.171875 C 62.429688 58.976562 63.738281 59.003906 65.03125 58.847656 C 65.5 58.789062 65.949219 58.914062 66.40625 58.96875 C 66.664062 59.003906 66.796875 59.421875 66.652344 59.660156 C 66.640625 59.683594 66.621094 59.707031 66.621094 59.730469 C 66.621094 60.457031 66.089844 60.597656 65.53125 60.722656 C 64.457031 60.964844 63.375 61.128906 62.28125 61.253906 C 61.191406 61.378906 60.101562 61.53125 59.007812 61.652344 C 58.128906 61.75 57.25 61.820312 56.371094 61.90625 C 55.949219 61.945312 55.53125 62.015625 55.109375 62.019531 C 54.074219 62.019531 53.058594 62.234375 52.03125 62.304688 C 51.183594 62.363281 50.378906 62.640625 49.535156 62.71875 C 48.988281 62.769531 48.445312 62.882812 47.890625 62.882812 C 46.890625 62.886719 45.898438 63.015625 44.902344 63.101562 C 43.5 63.222656 42.089844 63.273438 40.691406 63.445312 C 39.222656 63.621094 37.765625 63.503906 36.355469 63.167969 C 34.445312 62.707031 32.578125 62.074219 30.695312 61.492188 C 28.667969 60.863281 26.609375 60.332031 24.535156 59.867188 C 22.136719 59.328125 19.761719 58.703125 17.390625 58.050781 C 16.378906 57.769531 15.332031 57.636719 14.324219 57.335938 C 13.972656 57.230469 13.761719 57.050781 13.640625 56.695312 C 13.394531 55.992188 13.273438 55.289062 13.25 54.53125 C 13.183594 52.398438 13.886719 50.519531 14.929688 48.722656 C 15.34375 48.007812 15.121094 48.066406 15.960938 48.246094 C 17.941406 48.667969 19.863281 49.308594 21.816406 49.820312 C 23.234375 50.191406 24.585938 50.734375 25.988281 51.144531 C 27.785156 51.671875 29.625 51.957031 31.457031 52.308594 C 32.488281 52.503906 33.511719 52.726562 34.539062 52.933594 C 35.371094 53.101562 36.203125 52.957031 37.03125 52.921875 C 38.339844 52.871094 39.628906 52.679688 40.917969 52.449219 C 41.320312 52.378906 41.734375 52.402344 42.144531 52.359375 C 42.832031 52.289062 43.515625 52.195312 44.203125 52.125 C 44.789062 52.0625 45.367188 52.0625 45.964844 52.152344 C 46.878906 52.285156 47.8125 52.1875 48.71875 52.019531 C 49.171875 51.9375 49.601562 52.058594 50.046875 51.976562 C 51.457031 51.714844 52.902344 51.734375 54.324219 51.527344 C 55.210938 51.398438 56.09375 51.234375 56.980469 51.113281 C 57.890625 50.988281 58.816406 50.925781 59.722656 50.765625 C 60.769531 50.582031 61.824219 50.460938 62.875 50.292969 C 63.699219 50.160156 64.535156 49.953125 65.390625 50.09375 C 65.441406 50.101562 65.507812 50.117188 65.539062 50.09375 C 65.992188 49.738281 66.171875 50.125 66.375 50.40625 C 66.519531 50.601562 66.636719 50.8125 66.761719 51.023438 C 67.027344 51.472656 66.828125 51.882812 66.304688 51.980469 C 65.570312 52.117188 64.824219 52.136719 64.082031 52.167969 C 61.777344 52.269531 59.472656 52.417969 57.175781 52.644531 C 55.058594 52.851562 52.949219 53.125 50.832031 53.339844 C 48.664062 53.554688 46.519531 53.9375 44.339844 54.0625 C 43.203125 54.125 42.078125 54.347656 40.945312 54.488281 C 40.632812 54.527344 40.519531 54.753906 40.410156 54.980469 C 40.105469 55.632812 39.851562 56.308594 39.792969 57.027344 " fill-opacity="1" fill-rule="nonzero"/><g clip-path="url(#id2)"><path fill="#ea7630" d="M 39.445312 18.628906 C 39.453125 19.007812 39.492188 19.386719 39.402344 19.769531 C 39.371094 19.902344 39.402344 20.058594 39.550781 20.136719 C 39.714844 20.226562 39.816406 20.117188 39.90625 20.003906 C 39.988281 19.898438 40.058594 19.835938 40.222656 19.863281 C 40.632812 19.921875 40.816406 19.75 40.832031 19.273438 C 40.8125 19.125 40.796875 18.90625 40.742188 18.699219 C 40.589844 18.082031 40.234375 17.621094 39.644531 17.355469 C 39.511719 17.296875 39.363281 17.28125 39.246094 17.390625 C 39.144531 17.484375 39.152344 17.628906 39.234375 17.707031 C 39.515625 17.972656 39.441406 18.300781 39.445312 18.628906 Z M 26.113281 57.082031 C 26.457031 57.105469 26.765625 56.972656 27.066406 56.828125 C 27.53125 56.609375 27.96875 56.34375 28.460938 56.191406 C 28.914062 56.050781 29.300781 56.109375 29.667969 56.4375 C 30.125 56.84375 30.554688 57.289062 31.082031 57.613281 C 31.90625 58.121094 32.511719 58.089844 33.269531 57.5 C 33.46875 57.339844 33.671875 57.183594 33.863281 57.015625 C 34.109375 56.804688 34.351562 56.804688 34.59375 57.007812 C 34.847656 57.21875 35.085938 57.449219 35.335938 57.667969 C 35.621094 57.910156 35.9375 58.054688 36.324219 57.992188 C 36.796875 57.917969 36.980469 57.519531 36.679688 57.160156 C 36.242188 56.640625 35.757812 56.160156 35.15625 55.824219 C 34.457031 55.429688 33.785156 55.496094 33.148438 55.984375 C 32.96875 56.121094 32.789062 56.273438 32.609375 56.414062 C 32.191406 56.742188 32.066406 56.753906 31.628906 56.441406 C 31.171875 56.113281 30.734375 55.753906 30.28125 55.421875 C 29.742188 55.023438 29.140625 54.945312 28.492188 55.074219 C 27.917969 55.1875 27.40625 55.449219 26.898438 55.714844 C 26.027344 56.171875 25.929688 56.117188 25.875 55.128906 C 25.855469 54.730469 25.863281 54.335938 25.742188 53.953125 C 25.667969 53.722656 25.535156 53.5625 25.273438 53.585938 C 25.011719 53.609375 24.941406 53.792969 24.933594 54.015625 C 24.917969 54.324219 24.902344 54.628906 24.886719 54.933594 C 24.886719 54.933594 24.878906 54.933594 24.875 54.933594 C 24.875 55.242188 24.851562 55.550781 24.882812 55.851562 C 24.949219 56.589844 25.40625 57.039062 26.113281 57.082031 Z M 17.097656 54.699219 C 17.144531 54.691406 17.199219 54.714844 17.25 54.726562 C 18.332031 54.921875 19.417969 55.117188 20.5 55.3125 C 20.621094 55.335938 20.761719 55.398438 20.785156 55.1875 C 20.855469 54.574219 21.0625 53.992188 21.195312 53.398438 C 21.25 53.167969 21.207031 53.074219 20.949219 53.0625 C 19.578125 53 18.421875 52.460938 17.507812 51.433594 C 17.347656 51.253906 17.265625 51.238281 17.175781 51.484375 C 16.859375 52.351562 16.660156 53.242188 16.609375 54.316406 C 16.570312 54.53125 16.65625 54.773438 17.097656 54.699219 Z M 15.570312 54.171875 C 15.652344 53.09375 15.921875 52.058594 16.445312 51.105469 C 16.828125 50.410156 17.371094 50.285156 18.046875 50.699219 C 18.230469 50.8125 18.40625 50.945312 18.585938 51.066406 C 19.386719 51.625 20.28125 51.890625 21.257812 51.898438 C 21.460938 51.902344 21.667969 51.921875 21.867188 51.953125 C 22.300781 52.023438 22.511719 52.332031 22.503906 52.886719 C 22.457031 53.730469 22.253906 54.570312 22.035156 55.414062 C 22.019531 55.472656 22.007812 55.546875 21.964844 55.585938 C 21.6875 55.847656 21.507812 56.136719 21.398438 56.519531 C 21.308594 56.835938 20.933594 56.863281 20.636719 56.789062 C 19.472656 56.492188 18.273438 56.332031 17.136719 55.925781 C 16.707031 55.769531 16.3125 55.558594 15.960938 55.289062 C 15.613281 55.019531 15.539062 54.585938 15.570312 54.171875 Z M 26.679688 21.835938 C 27.796875 22.3125 28.921875 22.769531 30.074219 23.164062 C 30.566406 23.332031 30.589844 23.394531 30.507812 23.921875 C 30.449219 24.273438 30.378906 24.628906 30.359375 24.980469 C 30.339844 25.375 30.550781 25.574219 30.945312 25.574219 C 31.175781 25.574219 31.390625 25.496094 31.613281 25.4375 C 31.949219 25.347656 32.085938 25.171875 32.132812 24.832031 C 32.273438 23.808594 32.273438 22.769531 32.507812 21.757812 C 32.589844 21.390625 32.335938 21.210938 31.96875 21.324219 C 31.773438 21.382812 31.582031 21.464844 31.382812 21.5 C 31.136719 21.542969 30.988281 21.484375 31.0625 21.167969 C 31.144531 20.808594 31.175781 20.4375 31.226562 20.105469 C 31.203125 19.929688 31.191406 19.789062 31.164062 19.652344 C 31.027344 18.921875 30.625 18.304688 30.292969 17.660156 C 30.066406 17.214844 29.796875 16.792969 29.457031 16.425781 C 29.140625 16.089844 28.832031 16.117188 28.558594 16.484375 C 28.425781 16.660156 28.316406 16.847656 28.179688 17.015625 C 27.246094 18.148438 26.621094 19.433594 26.214844 20.835938 C 26.058594 21.390625 26.144531 21.605469 26.679688 21.835938 Z M 40.5 48.375 C 40.539062 48.933594 40.789062 49.378906 41.34375 49.535156 C 41.921875 49.699219 42.375 50.03125 42.8125 50.40625 C 43.230469 50.769531 43.660156 51.113281 44.066406 51.484375 C 44.8125 52.15625 45.671875 52.625 46.632812 52.898438 C 47.207031 53.058594 47.796875 53.113281 48.382812 52.960938 C 48.910156 52.824219 49.394531 52.59375 49.480469 51.976562 C 49.539062 51.5625 49.542969 51.136719 49.453125 50.71875 C 49.304688 50.003906 48.953125 49.390625 48.511719 48.800781 C 49.105469 48.929688 49.683594 49.027344 50.226562 49.261719 C 51.476562 49.800781 52.757812 50.164062 54.140625 50.023438 C 54.269531 50.011719 54.359375 50.078125 54.460938 50.125 C 55.136719 50.453125 56.214844 50.03125 56.464844 49.332031 C 56.65625 48.789062 56.402344 48.351562 56.070312 47.964844 C 55.628906 47.449219 55.089844 47.027344 54.554688 46.617188 C 53.449219 45.769531 52.277344 45.019531 51.519531 43.785156 C 51.089844 43.082031 50.320312 42.859375 49.503906 42.890625 C 48.902344 42.914062 48.304688 42.964844 47.703125 43.019531 C 46.941406 43.089844 46.691406 43.378906 46.625 44.144531 C 46.558594 44.847656 46.515625 45.554688 46.523438 46.277344 C 46.332031 46.226562 46.292969 46.09375 46.238281 45.984375 C 46.070312 45.65625 45.910156 45.324219 45.753906 44.988281 C 45.589844 44.632812 45.339844 44.4375 44.929688 44.398438 C 44.113281 44.316406 43.296875 44.257812 42.476562 44.351562 C 42.300781 44.371094 42.117188 44.355469 41.941406 44.335938 C 41.324219 44.269531 41.199219 44.335938 40.996094 44.910156 C 40.605469 46.03125 40.417969 47.183594 40.5 48.375 Z M 37.460938 66.074219 C 36.605469 67.566406 36.203125 69.128906 36.683594 70.839844 C 36.761719 71.109375 36.90625 71.285156 37.15625 71.40625 C 37.824219 71.726562 38.515625 71.679688 39.222656 71.589844 C 41.21875 71.34375 43.214844 71.109375 45.195312 70.75 C 48.109375 70.222656 51.050781 69.878906 53.980469 69.480469 C 55.988281 69.207031 57.96875 68.765625 59.984375 68.574219 C 60.613281 68.515625 60.972656 68.78125 61.039062 69.351562 C 61.085938 69.75 60.726562 70.226562 60.328125 70.253906 C 58.164062 70.410156 56.019531 70.722656 53.867188 70.976562 C 52.226562 71.167969 50.59375 71.441406 48.957031 71.644531 C 46.753906 71.921875 44.542969 72.128906 42.359375 72.511719 C 41.039062 72.742188 39.710938 72.945312 38.417969 73.3125 C 37.996094 73.433594 37.554688 73.40625 37.121094 73.441406 C 36.75 73.46875 36.378906 73.476562 36.03125 73.636719 C 35.78125 73.75 35.550781 73.617188 35.328125 73.539062 C 33.054688 72.75 30.785156 71.945312 28.511719 71.164062 C 23.246094 69.351562 17.925781 67.707031 12.632812 65.972656 C 11.5625 65.621094 10.5 65.25 9.425781 64.914062 C 8.574219 64.644531 8.152344 64.011719 8.003906 63.210938 C 7.554688 60.785156 8.207031 58.636719 9.777344 56.753906 C 10.027344 56.457031 10.210938 56.058594 10.710938 56.117188 C 11.230469 56.171875 11.734375 56.320312 12.242188 56.441406 C 13.769531 56.816406 15.324219 57.0625 16.863281 57.378906 C 18.632812 57.742188 20.34375 58.339844 22.097656 58.753906 C 26.25 59.730469 30.296875 61.089844 34.433594 62.125 C 35.734375 62.449219 37.023438 62.839844 38.296875 63.265625 C 39.050781 63.515625 39.789062 63.460938 40.539062 63.394531 C 41.382812 63.324219 42.21875 63.183594 43.058594 63.113281 C 44.054688 63.027344 45.039062 62.875 46.027344 62.730469 C 48.574219 62.367188 51.121094 61.984375 53.695312 61.808594 C 55.40625 61.691406 57.113281 61.484375 58.816406 61.300781 C 59.441406 61.234375 60.074219 61.289062 60.691406 61.144531 C 60.925781 61.089844 61.191406 61.046875 61.40625 61.1875 C 61.707031 61.394531 61.421875 61.613281 61.382812 61.832031 C 61.265625 62.429688 60.71875 63 60.121094 63.09375 C 59.742188 63.152344 59.359375 63.175781 58.976562 63.21875 C 55.601562 63.574219 52.203125 63.675781 48.847656 64.277344 C 46.945312 64.621094 45.011719 64.769531 43.085938 64.964844 C 41.367188 65.144531 39.660156 65.433594 37.960938 65.761719 C 37.757812 65.800781 37.574219 65.871094 37.460938 66.074219 " fill-opacity="1" fill-rule="nonzero"/></g><path fill="#2153aa" d="M 41.722656 11.535156 C 41.71875 11.429688 41.664062 11.253906 41.414062 11.242188 C 41.203125 11.230469 40.886719 11.699219 40.882812 12.035156 C 40.878906 12.238281 40.988281 12.378906 41.203125 12.386719 C 41.453125 12.394531 41.71875 12 41.722656 11.535156 Z M 42.355469 10.542969 C 42.433594 10.453125 42.386719 10.347656 42.316406 10.269531 C 42.019531 9.957031 41.667969 9.75 41.328125 9.703125 C 41.066406 9.703125 40.898438 9.710938 40.773438 9.847656 C 40.671875 9.964844 40.644531 10.125 40.816406 10.136719 C 41.285156 10.179688 41.667969 10.445312 42.105469 10.570312 C 42.191406 10.597656 42.296875 10.613281 42.355469 10.542969 Z M 38.195312 10.621094 C 37.992188 10.523438 37.851562 10.664062 37.742188 10.804688 C 37.597656 10.992188 37.542969 11.214844 37.554688 11.449219 C 37.550781 11.664062 37.507812 11.914062 37.789062 11.984375 C 38.082031 12.058594 38.199219 11.824219 38.289062 11.613281 C 38.359375 11.441406 38.394531 11.25 38.425781 11.0625 C 38.457031 10.867188 38.375 10.703125 38.195312 10.621094 Z M 38.683594 9.496094 C 38.261719 9.328125 37.839844 9.332031 37.410156 9.46875 C 37.160156 9.550781 36.941406 9.667969 36.792969 9.894531 C 36.746094 9.964844 36.679688 10.035156 36.753906 10.132812 C 36.820312 10.210938 36.890625 10.230469 36.988281 10.183594 C 37.523438 9.914062 38.109375 9.871094 38.691406 9.820312 C 38.785156 9.8125 38.875 9.796875 38.867188 9.671875 C 38.84375 9.570312 38.769531 9.53125 38.683594 9.496094 Z M 54.621094 46.847656 C 54.484375 46.785156 54.332031 46.78125 54.222656 46.886719 C 53.875 47.226562 53.546875 47.585938 53.339844 48.027344 C 53.257812 48.207031 53.230469 48.421875 53.429688 48.542969 C 53.625 48.660156 53.839844 48.625 53.984375 48.445312 C 54.1875 48.199219 54.371094 47.941406 54.554688 47.679688 C 54.664062 47.527344 54.785156 47.371094 54.785156 47.167969 C 54.789062 47.03125 54.753906 46.90625 54.621094 46.847656 Z M 46.582031 47.484375 C 46.527344 47.226562 46.285156 47.246094 46.101562 47.199219 C 45.886719 47.222656 45.691406 47.285156 45.519531 47.402344 C 45.242188 47.585938 45.003906 47.816406 44.785156 48.066406 C 44.589844 48.289062 44.367188 48.523438 44.605469 48.832031 C 44.761719 49.035156 45.066406 48.929688 45.382812 48.601562 C 45.648438 48.328125 45.871094 48.007812 46.261719 47.886719 C 46.453125 47.828125 46.632812 47.722656 46.582031 47.484375 Z M 47.132812 48.5 C 46.675781 48.820312 46.324219 49.238281 46.074219 49.734375 C 46.035156 49.8125 46.019531 49.902344 46.003906 49.945312 C 46.003906 50.148438 46.074219 50.265625 46.21875 50.320312 C 46.390625 50.382812 46.554688 50.339844 46.671875 50.203125 C 46.996094 49.824219 47.308594 49.441406 47.628906 49.058594 C 47.773438 48.886719 47.847656 48.695312 47.6875 48.507812 C 47.515625 48.308594 47.3125 48.375 47.132812 48.5 Z M 52.410156 45.714844 C 52.027344 46.074219 51.691406 46.472656 51.410156 46.917969 C 51.34375 47.023438 51.308594 47.148438 51.28125 47.207031 C 51.261719 47.46875 51.363281 47.585938 51.535156 47.644531 C 51.761719 47.726562 51.910156 47.59375 52.019531 47.433594 C 52.308594 47.015625 52.589844 46.589844 52.929688 46.207031 C 53.089844 46.027344 53.25 45.835938 53.015625 45.617188 C 52.792969 45.40625 52.582031 45.558594 52.410156 45.714844 Z M 23.320312 44.628906 C 23.292969 44.425781 23.210938 44.246094 22.980469 44.226562 C 22.765625 44.207031 22.679688 44.382812 22.601562 44.546875 C 22.582031 44.59375 22.566406 44.644531 22.554688 44.691406 C 22.246094 46.023438 22.21875 47.367188 22.332031 48.71875 C 22.34375 48.855469 22.40625 48.992188 22.46875 49.113281 C 22.585938 49.328125 22.757812 49.492188 23.023438 49.441406 C 23.289062 49.390625 23.3125 49.167969 23.347656 48.945312 C 23.472656 48.144531 23.445312 47.339844 23.351562 46.539062 C 23.351562 46.066406 23.355469 45.59375 23.351562 45.125 C 23.347656 44.960938 23.339844 44.792969 23.320312 44.628906 Z M 18.832031 42.742188 C 18.558594 42.660156 18.402344 42.828125 18.285156 43.046875 C 18.238281 43.136719 18.203125 43.234375 18.167969 43.328125 C 17.929688 43.972656 17.910156 44.652344 17.839844 45.4375 C 17.855469 45.988281 17.929688 46.644531 18.089844 47.289062 C 18.125 47.421875 18.203125 47.546875 18.285156 47.660156 C 18.410156 47.835938 18.601562 47.859375 18.800781 47.824219 C 19 47.785156 19.0625 47.632812 19.085938 47.460938 C 19.109375 47.296875 19.148438 47.128906 19.125 46.96875 C 18.945312 45.738281 18.914062 44.507812 19.089844 43.273438 C 19.121094 43.054688 19.097656 42.820312 18.832031 42.742188 Z M 21.257812 44.011719 C 21.253906 43.773438 21.148438 43.589844 20.898438 43.535156 C 20.640625 43.476562 20.449219 43.585938 20.335938 43.820312 C 20.285156 43.921875 20.246094 44.035156 20.230469 44.144531 C 20.085938 45.039062 19.996094 45.941406 20.0625 46.847656 C 20.09375 47.304688 20.136719 47.765625 20.285156 48.203125 C 20.375 48.460938 20.53125 48.679688 20.835938 48.636719 C 21.125 48.59375 21.136719 48.339844 21.167969 48.105469 C 21.257812 47.363281 21.160156 46.625 21.257812 45.886719 C 21.257812 45.261719 21.261719 44.636719 21.257812 44.011719 Z M 25.765625 45.457031 C 25.773438 45.160156 25.75 44.863281 25.386719 44.796875 C 25.050781 44.742188 24.921875 45 24.824219 45.261719 C 24.792969 45.347656 24.765625 45.433594 24.742188 45.519531 C 24.363281 46.851562 24.449219 48.171875 24.890625 49.472656 C 24.9375 49.617188 25.007812 49.757812 25.089844 49.882812 C 25.175781 50.019531 25.3125 50.105469 25.480469 50.074219 C 25.648438 50.046875 25.738281 49.925781 25.785156 49.765625 C 25.863281 49.503906 25.855469 49.230469 25.820312 48.96875 C 25.675781 47.796875 25.550781 46.632812 25.765625 45.457031 Z M 16.984375 45.4375 C 16.8125 44.511719 16.886719 43.582031 16.929688 42.566406 C 16.929688 42.609375 16.941406 42.570312 16.929688 42.535156 C 16.835938 42.273438 17.039062 41.816406 16.601562 41.792969 C 16.199219 41.765625 16.167969 42.1875 16.085938 42.492188 C 15.816406 43.476562 15.796875 44.488281 15.867188 45.496094 C 15.90625 46.066406 16.007812 46.640625 16.328125 47.136719 C 16.496094 47.398438 16.730469 47.609375 17.066406 47.476562 C 17.410156 47.339844 17.332031 47.015625 17.277344 46.742188 C 17.195312 46.304688 17.066406 45.875 16.984375 45.4375 Z M 30.300781 46.300781 C 30.15625 46.828125 30.21875 47.367188 30.144531 47.855469 C 30.132812 48.691406 30.1875 49.480469 30.328125 50.261719 C 30.390625 50.597656 30.53125 50.894531 30.816406 51.105469 C 31.140625 51.34375 31.445312 51.242188 31.558594 50.867188 C 31.628906 50.628906 31.632812 50.390625 31.59375 50.148438 C 31.457031 49.316406 31.332031 48.484375 31.292969 47.640625 C 31.269531 47.195312 31.234375 46.75 31.171875 46.304688 C 31.140625 46.070312 31.007812 45.859375 30.71875 45.875 C 30.460938 45.886719 30.363281 46.070312 30.300781 46.300781 Z M 28.925781 45.835938 C 28.945312 45.59375 28.84375 45.40625 28.601562 45.332031 C 28.351562 45.257812 28.183594 45.394531 28.0625 45.59375 C 28 45.6875 27.960938 45.800781 27.921875 45.90625 C 27.6875 46.542969 27.679688 47.207031 27.65625 47.871094 C 27.65625 48 27.648438 48.128906 27.65625 48.253906 C 27.699219 48.972656 27.75 49.691406 28.179688 50.304688 C 28.363281 50.566406 28.585938 50.875 28.957031 50.71875 C 29.292969 50.578125 29.214844 50.226562 29.164062 49.941406 C 29.011719 49.046875 28.78125 48.167969 28.816406 47.25 C 28.835938 46.773438 28.890625 46.308594 28.925781 45.835938 Z M 13.324219 45.574219 C 12.78125 44.550781 12.695312 43.460938 12.832031 42.195312 C 12.832031 41.828125 12.832031 41.316406 12.828125 40.808594 C 12.828125 40.625 12.753906 40.480469 12.558594 40.4375 C 12.375 40.394531 12.234375 40.484375 12.148438 40.644531 C 12.09375 40.742188 12.050781 40.851562 12.023438 40.960938 C 11.78125 42.046875 11.621094 43.144531 11.703125 44.257812 C 11.757812 45 12.015625 45.671875 12.5625 46.210938 C 12.777344 46.425781 13.039062 46.648438 13.332031 46.449219 C 13.617188 46.253906 13.457031 45.941406 13.367188 45.679688 C 13.355469 45.640625 13.339844 45.605469 13.324219 45.574219 Z M 13.914062 46.421875 C 14.023438 46.679688 14.167969 46.925781 14.414062 47.085938 C 14.59375 47.207031 14.796875 47.246094 14.996094 47.160156 C 15.1875 47.070312 15.125 46.871094 15.132812 46.714844 C 15.140625 46.554688 15.132812 46.378906 15.089844 46.222656 C 14.8125 45.21875 14.730469 44.191406 14.695312 43.152344 C 14.695312 42.605469 14.699219 42.058594 14.695312 41.507812 C 14.691406 41.269531 14.582031 41.085938 14.324219 41.050781 C 14.046875 41.011719 13.882812 41.160156 13.804688 41.402344 C 13.75 41.570312 13.703125 41.746094 13.679688 41.921875 C 13.542969 42.921875 13.515625 43.929688 13.566406 44.9375 C 13.59375 45.453125 13.710938 45.949219 13.914062 46.421875 Z M 34.980469 66.21875 C 34.621094 67.15625 34.183594 67.980469 34.285156 68.980469 C 34.863281 68.554688 35.246094 67.078125 34.980469 66.21875 Z M 35.511719 65.046875 C 35.859375 65.664062 36.375 66.238281 36.1875 66.910156 C 36.175781 67.726562 35.996094 68.371094 35.714844 68.992188 C 35.566406 69.320312 35.371094 69.621094 35.097656 69.859375 C 34.371094 70.496094 33.402344 70.179688 33.171875 69.238281 C 33.082031 68.867188 33.097656 68.496094 33.175781 68.136719 C 33.410156 67.117188 33.816406 66.175781 34.457031 65.339844 C 34.589844 65.167969 34.742188 65.015625 34.953125 64.933594 C 35.167969 64.851562 35.410156 64.871094 35.511719 65.046875 Z M 19.300781 61.121094 C 19.101562 62.304688 18.917969 63.453125 18.789062 64.632812 C 19.746094 64.097656 20.023438 62.214844 19.300781 61.121094 Z M 20.378906 60.855469 C 20.816406 61.398438 20.96875 62.027344 20.863281 62.71875 C 20.71875 63.679688 20.460938 64.585938 19.769531 65.316406 C 19.546875 65.550781 19.300781 65.75 19.003906 65.878906 C 18.355469 66.164062 17.761719 65.832031 17.691406 65.128906 C 17.640625 64.644531 17.730469 64.164062 17.824219 63.6875 C 18 62.777344 18.164062 61.863281 18.484375 60.984375 C 18.554688 60.785156 18.636719 60.601562 18.878906 60.5625 C 19.113281 60.523438 19.214844 60.695312 19.324219 60.855469 C 19.675781 60.457031 20.046875 60.445312 20.378906 60.855469 Z M 11.804688 60.351562 C 11.804688 59.753906 11.667969 59.441406 11.40625 59.277344 C 11.265625 59.1875 11.167969 59.183594 11.140625 59.375 C 11.027344 60.164062 10.828125 60.949219 10.957031 61.757812 C 10.972656 61.84375 10.96875 61.953125 11.066406 61.984375 C 11.195312 62.03125 11.246094 61.910156 11.296875 61.832031 C 11.621094 61.34375 11.773438 60.796875 11.804688 60.351562 Z M 12.988281 59.851562 C 13.050781 60.933594 12.773438 61.925781 12.054688 62.765625 C 11.710938 63.171875 11.273438 63.351562 10.75 63.214844 C 10.226562 63.078125 9.957031 62.691406 9.832031 62.183594 C 9.761719 61.894531 9.730469 61.605469 9.730469 61.308594 C 9.773438 60.453125 9.921875 59.601562 10.253906 58.816406 C 10.574219 58.0625 11.523438 57.910156 12.277344 58.460938 C 12.742188 58.800781 12.957031 59.300781 12.988281 59.851562 Z M 15.472656 60.089844 C 15.359375 59.929688 15.234375 59.921875 15.074219 59.964844 C 14.921875 60.011719 14.8125 60.082031 14.800781 60.277344 C 14.765625 60.835938 14.644531 61.386719 14.679688 61.84375 C 14.679688 62.230469 14.671875 62.511719 14.679688 62.789062 C 14.683594 62.949219 14.660156 63.148438 14.871094 63.203125 C 15.046875 63.246094 15.191406 63.140625 15.304688 63.015625 C 15.890625 62.382812 15.972656 60.773438 15.472656 60.089844 Z M 16.550781 59.699219 C 16.867188 60.171875 16.988281 60.710938 16.960938 61.265625 C 16.929688 62 16.753906 62.707031 16.417969 63.363281 C 16.027344 64.125 15.175781 64.480469 14.414062 64.238281 C 14.023438 64.113281 13.792969 63.851562 13.679688 63.472656 C 13.578125 63.125 13.5625 62.769531 13.5625 62.410156 C 13.609375 61.492188 13.707031 60.578125 14.003906 59.699219 C 14.152344 59.261719 14.296875 59.191406 14.742188 59.328125 C 14.929688 59.386719 15.117188 59.320312 15.253906 59.246094 C 15.726562 59.007812 16.277344 59.292969 16.550781 59.699219 Z M 50.875 41.945312 C 50.984375 41.6875 50.96875 41.417969 50.960938 41.152344 C 50.945312 40.753906 50.792969 40.597656 50.390625 40.589844 C 49.980469 40.578125 49.570312 40.585938 49.160156 40.585938 C 48.441406 40.554688 47.734375 40.632812 47.023438 40.757812 C 46.519531 40.84375 46.414062 40.90625 46.40625 41.417969 C 46.402344 41.867188 46.539062 42.304688 46.546875 42.746094 C 46.554688 43.007812 46.667969 43.140625 46.878906 43.25 C 47.117188 43.375 47.371094 43.386719 47.625 43.367188 C 48.355469 43.320312 49.085938 43.28125 49.8125 43.210938 C 50.105469 43.1875 50.394531 43.113281 50.675781 43.027344 C 51.015625 42.917969 51.113281 42.664062 50.929688 42.371094 C 50.832031 42.222656 50.808594 42.09375 50.875 41.945312 Z M 28.019531 63.429688 C 27.824219 64.101562 27.65625 64.667969 27.492188 65.238281 C 27.339844 65.765625 27.234375 66.300781 27.242188 66.851562 C 27.242188 67.019531 27.230469 67.277344 27.414062 67.320312 C 27.609375 67.367188 27.675781 67.113281 27.746094 66.960938 C 28.019531 66.410156 28.167969 65.8125 28.222656 65.203125 C 28.273438 64.640625 28.292969 64.066406 28.019531 63.429688 Z M 29.238281 63.609375 C 29.308594 63.960938 29.367188 64.316406 29.367188 64.675781 C 29.308594 65.625 29.144531 66.550781 28.765625 67.425781 C 28.632812 67.734375 28.449219 68.015625 28.191406 68.234375 C 27.566406 68.773438 26.785156 68.632812 26.367188 67.921875 C 26.066406 67.402344 26.070312 66.839844 26.164062 66.28125 C 26.324219 65.347656 26.609375 64.445312 27.054688 63.605469 C 27.207031 63.316406 27.382812 63.039062 27.78125 63.09375 C 27.875 63.109375 27.902344 63.046875 27.949219 62.976562 C 28.214844 62.582031 28.554688 62.554688 28.886719 62.898438 C 29.082031 63.097656 29.1875 63.34375 29.238281 63.609375 Z M 31.945312 64.863281 C 31.464844 65.863281 31.1875 66.914062 31.113281 68.015625 C 31.105469 68.125 31.039062 68.285156 31.164062 68.328125 C 31.316406 68.386719 31.359375 68.203125 31.414062 68.101562 C 31.953125 67.085938 32.015625 65.988281 31.945312 64.863281 Z M 32.996094 64.351562 C 33.089844 64.726562 33.101562 65.109375 33.101562 65.492188 C 33.082031 66.496094 32.953125 67.472656 32.53125 68.398438 C 32.40625 68.679688 32.234375 68.933594 32.027344 69.164062 C 31.695312 69.53125 31.292969 69.699219 30.820312 69.527344 C 30.339844 69.355469 30.046875 68.992188 29.992188 68.472656 C 29.914062 67.730469 30.121094 67.03125 30.3125 66.328125 C 30.53125 65.507812 30.890625 64.75 31.355469 64.039062 C 31.605469 63.65625 31.921875 63.453125 32.386719 63.554688 C 32.808594 63.648438 32.910156 63.992188 32.996094 64.351562 Z M 23.453125 62.339844 C 23.417969 62.363281 23.382812 62.371094 23.378906 62.390625 C 23.011719 63.464844 22.8125 64.578125 22.707031 65.707031 C 22.699219 65.816406 22.675781 65.953125 22.796875 66.019531 C 22.917969 66.085938 23.015625 65.980469 23.109375 65.925781 C 23.570312 65.644531 23.671875 65.160156 23.796875 64.695312 C 24.027344 63.859375 23.972656 63.066406 23.453125 62.339844 Z M 24.65625 62.191406 C 24.949219 62.574219 25.09375 63.078125 25.09375 63.941406 C 25.066406 64.449219 24.933594 65.136719 24.660156 65.789062 C 24.347656 66.539062 23.773438 66.992188 23 67.195312 C 22.378906 67.359375 21.878906 67.09375 21.660156 66.484375 C 21.472656 65.957031 21.566406 65.429688 21.65625 64.898438 C 21.839844 63.824219 22.105469 62.777344 22.585938 61.792969 C 22.683594 61.589844 22.789062 61.378906 22.992188 61.246094 C 23.265625 61.066406 23.546875 61.183594 23.570312 61.507812 C 23.585938 61.695312 23.582031 61.773438 23.820312 61.734375 C 24.1875 61.679688 24.441406 61.917969 24.65625 62.191406 Z M 45.578125 43.761719 C 45.746094 43.085938 45.710938 42.390625 45.734375 41.707031 C 45.75 41.261719 45.574219 41.09375 45.128906 41.015625 C 43.988281 40.820312 42.859375 41.03125 41.730469 41.128906 C 41.085938 41.183594 40.960938 41.367188 40.972656 42.019531 C 40.976562 42.441406 41.003906 42.863281 40.980469 43.28125 C 40.9375 44.144531 41.171875 44.390625 42.042969 44.4375 C 42.699219 44.472656 43.34375 44.332031 44 44.359375 C 44.226562 44.359375 44.476562 44.410156 44.683594 44.34375 C 45.027344 44.238281 45.464844 44.210938 45.578125 43.761719 Z M 12.359375 38.441406 C 12.441406 38.140625 12.710938 38.199219 12.96875 38.175781 C 13.792969 38.277344 14.601562 38.574219 15.429688 38.804688 C 18.296875 39.59375 21.066406 40.667969 23.84375 41.726562 C 25.695312 42.433594 27.5625 43.101562 29.429688 43.769531 C 29.902344 43.9375 30.273438 44.246094 30.574219 44.640625 C 30.636719 44.722656 30.71875 44.820312 30.640625 44.917969 C 30.539062 45.046875 30.460938 44.902344 30.386719 44.855469 C 29.859375 44.535156 29.308594 44.261719 28.6875 44.207031 C 27.410156 44.09375 26.226562 43.621094 25 43.308594 C 22.964844 42.792969 21.089844 41.847656 19.101562 41.210938 C 17.273438 40.625 15.421875 40.105469 13.628906 39.40625 C 13.320312 39.285156 13.019531 39.136719 12.722656 38.992188 C 12.492188 38.882812 12.277344 38.742188 12.359375 38.441406 " fill-opacity="1" fill-rule="nonzero"/></svg>