<svg xmlns="http://www.w3.org/2000/svg" xmlns:xlink="http://www.w3.org/1999/xlink" width="500" zoomAndPan="magnify" viewBox="0 0 375 374.999991" height="500" preserveAspectRatio="xMidYMid meet" version="1.0"><defs><filter x="0%" y="0%" width="100%" height="100%" id="id1"><feColorMatrix values="0 0 0 0 1 0 0 0 0 1 0 0 0 0 1 0 0 0 1 0" color-interpolation-filters="sRGB"/></filter><clipPath id="id2"><path d="M 20 5.378906 L 268 5.378906 L 268 174 L 20 174 Z M 20 5.378906 " clip-rule="nonzero"/></clipPath><clipPath id="id3"><path d="M 222 278 L 246 278 L 246 369.878906 L 222 369.878906 Z M 222 278 " clip-rule="nonzero"/></clipPath><clipPath id="id4"><path d="M 295 278 L 318 278 L 318 369.878906 L 295 369.878906 Z M 295 278 " clip-rule="nonzero"/></clipPath><clipPath id="id5"><path d="M 330 278 L 354 278 L 354 369.878906 L 330 369.878906 Z M 330 278 " clip-rule="nonzero"/></clipPath><clipPath id="id6"><path d="M 222 278 L 246 278 L 246 369.878906 L 222 369.878906 Z M 222 278 " clip-rule="nonzero"/></clipPath><clipPath id="id7"><path d="M 295 278 L 318 278 L 318 369.878906 L 295 369.878906 Z M 295 278 " clip-rule="nonzero"/></clipPath><clipPath id="id8"><path d="M 330 278 L 354 278 L 354 369.878906 L 330 369.878906 Z M 330 278 " clip-rule="nonzero"/></clipPath><clipPath id="id9"><path d="M 221 277 L 355 277 L 355 369.878906 L 221 369.878906 Z M 221 277 " clip-rule="nonzero"/></clipPath><mask id="id10"><g filter="url(#id1)"><rect x="-37.5" width="450" fill="#000000" y="-37.499999" height="449.999989" fill-opacity="0.3098"/></g></mask><clipPath id="id11"><path d="M 1 1 L 25 1 L 25 92.878906 L 1 92.878906 Z M 1 1 " clip-rule="nonzero"/></clipPath><clipPath id="id12"><path d="M 74 1 L 97 1 L 97 92.878906 L 74 92.878906 Z M 74 1 " clip-rule="nonzero"/></clipPath><clipPath id="id13"><path d="M 109 1 L 133 1 L 133 92.878906 L 109 92.878906 Z M 109 1 " clip-rule="nonzero"/></clipPath><clipPath id="id14"><rect x="0" width="134" y="0" height="93"/></clipPath><clipPath id="id15"><path d="M 242 347 L 257 347 L 257 357.109375 L 242 357.109375 Z M 242 347 " clip-rule="nonzero"/></clipPath><clipPath id="id16"><path d="M 268.839844 331.34375 C 268.839844 331.34375 264.53125 338.265625 258.734375 334.226562 L 242.394531 357.109375 L 276.898438 339.636719 Z M 268.839844 331.34375 " clip-rule="nonzero"/></clipPath><clipPath id="id17"><path d="M 216.238281 355 L 230 355 L 230 363.390625 L 216.238281 363.390625 Z M 216.238281 355 " clip-rule="nonzero"/></clipPath><clipPath id="id18"><path d="M 251.539062 351.363281 C 251.539062 351.363281 244.664062 355.742188 241.179688 349.59375 L 216.558594 363.160156 L 255.21875 362.324219 Z M 251.539062 351.363281 " clip-rule="nonzero"/></clipPath><mask id="id19"><g filter="url(#id1)"><rect x="-37.5" width="450" fill="#000000" y="-37.499999" height="449.999989" fill-opacity="0.2667"/></g></mask><clipPath id="id20"><path d="M 0.359375 0.238281 L 169 0.238281 L 169 7.679688 L 0.359375 7.679688 Z M 0.359375 0.238281 " clip-rule="nonzero"/></clipPath><clipPath id="id21"><rect x="0" width="170" y="0" height="8"/></clipPath><clipPath id="id22"><path d="M 186 235 L 196 235 L 196 369.878906 L 186 369.878906 Z M 186 235 " clip-rule="nonzero"/></clipPath><clipPath id="id23"><path d="M 324 235 L 334 235 L 334 369.878906 L 324 369.878906 Z M 324 235 " clip-rule="nonzero"/></clipPath></defs><path fill="#f2f2f2" d="M 291.667969 168.167969 L 350.542969 168.167969 C 359.640625 168.167969 366.433594 175.75 364.570312 183.820312 L 345.761719 265.230469 L 345.761719 272.164062 C 345.761719 276.414062 341.960938 279.859375 337.269531 279.859375 L 261.460938 279.859375 L 261.460938 250.503906 L 313.824219 246.820312 Z M 291.667969 168.167969 " fill-opacity="1" fill-rule="nonzero"/><path fill="#ddab34" d="M 310.1875 192.707031 L 319.238281 227.285156 C 320.015625 231.132812 323.929688 233.484375 327.691406 232.355469 C 330.832031 231.414062 332.820312 228.335938 332.390625 225.085938 L 327.214844 196.3125 Z M 310.1875 192.707031 " fill-opacity="1" fill-rule="nonzero"/><g clip-path="url(#id2)"><path fill="#02479c" d="M 20.722656 5.378906 L 267.058594 5.378906 L 267.058594 173.753906 L 20.722656 173.753906 Z M 20.722656 5.378906 " fill-opacity="1" fill-rule="nonzero"/></g><path fill="#f2f2f2" d="M 262.476562 9.964844 L 262.476562 169.171875 L 25.304688 169.171875 L 25.304688 9.964844 Z M 262.476562 9.964844 " fill-opacity="1" fill-rule="nonzero"/><path fill="#02479c" d="M 104.835938 356.539062 L 114.34375 361.113281 C 115.351562 361.597656 115.960938 362.710938 115.648438 363.761719 C 115.402344 364.59375 114.589844 365.230469 112.476562 365.265625 C 107.773438 365.347656 86.976562 362.316406 86.976562 362.316406 L 86.976562 364.445312 L 77.324219 363.382812 C 77.324219 363.382812 76.648438 352.613281 79.589844 351.035156 Z M 104.835938 356.539062 " fill-opacity="1" fill-rule="nonzero"/><path fill="#ddab34" d="M 92.097656 347.445312 L 104.835938 356.539062 C 104.835938 356.539062 103.199219 360.648438 95.941406 357.910156 C 88.683594 355.167969 79.589844 351.039062 79.589844 351.039062 L 80.507812 344.902344 Z M 92.097656 347.445312 " fill-opacity="1" fill-rule="nonzero"/><path fill="#ddab34" d="M 80.453125 346.28125 L 81.664062 313.269531 L 97.46875 312.371094 L 94.882812 351.695312 Z M 80.453125 346.28125 " fill-opacity="1" fill-rule="nonzero"/><path fill="#02479c" d="M 57.695312 356.539062 L 67.203125 361.113281 C 68.210938 361.597656 68.820312 362.710938 68.507812 363.761719 C 68.261719 364.59375 67.449219 365.230469 65.335938 365.265625 C 60.632812 365.347656 39.835938 362.316406 39.835938 362.316406 L 39.835938 364.445312 L 30.183594 363.382812 C 30.183594 363.382812 29.507812 352.613281 32.449219 351.035156 Z M 57.695312 356.539062 " fill-opacity="1" fill-rule="nonzero"/><path fill="#ddab34" d="M 44.960938 347.445312 L 57.699219 356.539062 C 57.699219 356.539062 56.058594 360.648438 48.800781 357.910156 C 41.542969 355.167969 32.449219 351.039062 32.449219 351.039062 L 33.367188 344.902344 Z M 44.960938 347.445312 " fill-opacity="1" fill-rule="nonzero"/><path fill="#ddab34" d="M 33.316406 346.28125 L 34.523438 313.269531 L 50.328125 312.371094 L 47.742188 351.695312 Z M 33.316406 346.28125 " fill-opacity="1" fill-rule="nonzero"/><path fill="#02479c" d="M 69.84375 29.632812 C 69.140625 29.613281 67.667969 31.503906 67.222656 32.050781 C 66.207031 33.3125 65.1875 34.578125 64.34375 35.964844 C 61.050781 41.367188 60.914062 47.359375 60.492188 53.488281 C 60.078125 59.5625 59.171875 65.726562 56.472656 71.179688 C 55.148438 73.851562 53.410156 76.320312 52.328125 79.097656 C 51.242188 81.875 50.890625 85.152344 52.351562 87.75 C 52.488281 87.988281 52.644531 88.230469 52.886719 88.367188 C 59.84375 92.351562 68.636719 93.585938 76.457031 91.796875 C 78.621094 91.300781 80.769531 90.628906 82.675781 89.484375 C 88.085938 86.238281 90.679688 79.675781 91.207031 73.390625 C 91.734375 67.105469 90.574219 60.8125 90.316406 54.511719 C 90.128906 49.914062 90.375 45.089844 88.339844 40.964844 C 87.40625 39.074219 86.039062 37.4375 84.683594 35.820312 C 83.253906 34.117188 81.785156 32.378906 79.863281 31.257812 C 77.089844 29.644531 73.050781 29.722656 69.84375 29.632812 Z M 69.84375 29.632812 " fill-opacity="1" fill-rule="nonzero"/><path fill="#446bc6" d="M 102.847656 146.109375 C 102.847656 146.109375 108.136719 149.53125 109.097656 178.101562 C 109.292969 183.972656 109.175781 192.132812 108.808594 197.996094 L 100.039062 336.683594 L 76.71875 336.683594 L 81.429688 187.632812 L 51.625 336.683594 L 28.925781 336.039062 L 54.476562 146.109375 L 77.421875 143.3125 Z M 102.847656 146.109375 " fill-opacity="1" fill-rule="nonzero"/><path fill="#02479c" d="M 80.53125 187.96875 C 80.371094 187.96875 80.230469 187.855469 80.203125 187.691406 C 80.171875 187.507812 80.296875 187.332031 80.480469 187.304688 L 93.835938 185.085938 C 94.015625 185.070312 94.191406 185.179688 94.222656 185.363281 C 94.25 185.546875 94.128906 185.71875 93.945312 185.75 L 80.589844 187.964844 C 80.570312 187.96875 80.550781 187.96875 80.53125 187.96875 Z M 80.53125 187.96875 " fill-opacity="1" fill-rule="nonzero"/><path fill="#ddab34" d="M 117.65625 152.238281 L 155.109375 114.328125 L 150.957031 108.171875 C 150.957031 108.171875 124.21875 126.957031 107.136719 140.457031 C 104.425781 142.597656 106.082031 149.089844 108.433594 151.621094 C 110.636719 153.992188 115.285156 154.441406 117.65625 152.238281 Z M 117.65625 152.238281 " fill-opacity="1" fill-rule="nonzero"/><path fill="#ddab34" d="M 151.710938 115.375 C 151.710938 115.375 158.160156 115.875 162.707031 110.695312 L 169.203125 108.894531 C 170.210938 108.613281 170.835938 107.640625 170.671875 106.609375 C 170.488281 105.492188 169.445312 104.699219 168.3125 104.8125 L 164.257812 105.222656 L 165.378906 104.382812 C 167.15625 103.046875 169.355469 102.351562 171.621094 102.414062 L 178.066406 102.585938 C 178.800781 102.605469 179.476562 102.230469 179.828125 101.605469 C 180.511719 100.402344 179.730469 98.863281 178.324219 98.652344 L 169.882812 97.367188 C 166.609375 96.871094 163.316406 97.78125 160.839844 99.871094 L 147.542969 111.085938 Z M 151.710938 115.375 " fill-opacity="1" fill-rule="nonzero"/><path fill="#ddab34" d="M 95.644531 98.242188 C 95.644531 98.242188 98.863281 126.5 105.5 148.035156 C 106.300781 150.628906 111.261719 154.128906 113.96875 154.308594 C 118.050781 154.578125 121.378906 151.078125 120.902344 147.015625 L 112.808594 96.582031 Z M 95.644531 98.242188 " fill-opacity="1" fill-rule="nonzero"/><path fill="#ea7630" d="M 103.355469 80.675781 C 103.355469 80.675781 117.082031 88.859375 119.75 111.023438 L 100.152344 121.792969 Z M 103.355469 80.675781 " fill-opacity="1" fill-rule="nonzero"/><path fill="#ea7630" d="M 100.152344 121.792969 L 122.394531 115.140625 L 120.5 108.90625 L 100.652344 114.246094 Z M 100.152344 121.792969 " fill-opacity="1" fill-rule="nonzero"/><path fill="#ea7630" d="M 77.136719 73.753906 C 70.378906 74.328125 63.714844 75.8125 57.417969 78.332031 C 55.875 78.949219 54.355469 79.628906 52.964844 80.355469 C 48.589844 82.644531 49.898438 87.59375 50.449219 92.648438 L 53.023438 160.972656 L 108.128906 159.570312 L 110.316406 94.898438 C 110.800781 87.855469 106.632812 81.382812 100.191406 79.109375 C 92.972656 76.566406 84.164062 73.714844 80.324219 73.480469 Z M 77.136719 73.753906 " fill-opacity="1" fill-rule="nonzero"/><path fill="#02479c" d="M 108.707031 118.695312 C 108.699219 118.695312 108.691406 118.691406 108.683594 118.691406 C 108.5 118.679688 108.359375 118.519531 108.371094 118.335938 L 109.742188 98.328125 C 109.757812 98.144531 109.921875 98.011719 110.101562 98.015625 C 110.285156 98.027344 110.425781 98.1875 110.414062 98.371094 L 109.039062 118.382812 C 109.027344 118.558594 108.882812 118.695312 108.707031 118.695312 Z M 108.707031 118.695312 " fill-opacity="1" fill-rule="nonzero"/><path fill="#ea7630" d="M 96.941406 77.984375 C 96.941406 77.984375 86.800781 74.007812 80.324219 73.480469 C 80.324219 73.480469 71.476562 73.855469 65.394531 75.730469 C 65.394531 75.730469 68.769531 82.933594 84.296875 84.113281 C 99.828125 85.292969 96.941406 77.984375 96.941406 77.984375 Z M 96.941406 77.984375 " fill-opacity="1" fill-rule="nonzero"/><path fill="#ddab34" d="M 22.242188 112.503906 L 48.15625 152.09375 L 41.175781 160.015625 L 12.570312 130.929688 Z M 22.242188 112.503906 " fill-opacity="1" fill-rule="nonzero"/><path fill="#ddab34" d="M 71.96875 153.894531 L 60.882812 148.046875 L 61.972656 145.523438 C 62.367188 144.601562 62.121094 143.523438 61.371094 142.882812 C 60.597656 142.222656 59.488281 142.207031 58.695312 142.839844 L 47.777344 151.734375 L 41.175781 160.015625 C 47.167969 165.335938 51.078125 165.269531 53.332031 164.238281 C 53.597656 164.328125 53.855469 164.429688 54.125 164.507812 L 63.335938 167.25 C 64.1875 167.632812 65.179688 167.261719 65.597656 166.402344 C 65.902344 165.777344 66.007812 164.777344 64.234375 163.84375 L 66.007812 164.777344 C 66.910156 165.179688 67.957031 164.773438 68.378906 163.851562 C 68.773438 163.039062 68.289062 161.964844 67.246094 161.261719 L 68.605469 161.8125 C 69.585938 162.253906 70.742188 161.753906 71.113281 160.671875 C 71.429688 159.734375 70.953125 158.699219 70.101562 158.253906 L 68.140625 157.222656 L 70.46875 157.808594 C 71.539062 158.203125 72.734375 157.609375 73.085938 156.441406 C 73.386719 155.445312 72.867188 154.371094 71.96875 153.894531 Z M 71.96875 153.894531 " fill-opacity="1" fill-rule="nonzero"/><path fill="#02479c" d="M 68.730469 157.730469 C 68.695312 157.730469 68.664062 157.722656 68.632812 157.707031 L 62.082031 154.5 C 61.972656 154.445312 61.929688 154.316406 61.980469 154.207031 C 62.035156 154.101562 62.164062 154.054688 62.273438 154.109375 L 68.824219 157.316406 C 68.933594 157.371094 68.976562 157.5 68.925781 157.609375 C 68.886719 157.6875 68.808594 157.730469 68.730469 157.730469 Z M 68.730469 157.730469 " fill-opacity="1" fill-rule="nonzero"/><path fill="#02479c" d="M 66.96875 161.359375 C 66.9375 161.359375 66.910156 161.355469 66.882812 161.339844 L 60.5625 158.609375 C 60.453125 158.5625 60.402344 158.433594 60.449219 158.324219 C 60.496094 158.214844 60.625 158.164062 60.734375 158.210938 L 67.054688 160.941406 C 67.164062 160.988281 67.214844 161.117188 67.167969 161.226562 C 67.132812 161.3125 67.050781 161.359375 66.96875 161.359375 Z M 66.96875 161.359375 " fill-opacity="1" fill-rule="nonzero"/><path fill="#02479c" d="M 64.820312 164.300781 C 64.792969 164.300781 64.765625 164.296875 64.738281 164.285156 L 59.386719 162.09375 C 59.273438 162.050781 59.21875 161.921875 59.265625 161.808594 C 59.3125 161.699219 59.441406 161.644531 59.550781 161.691406 L 64.902344 163.882812 C 65.015625 163.925781 65.070312 164.054688 65.023438 164.164062 C 64.988281 164.25 64.90625 164.300781 64.820312 164.300781 Z M 64.820312 164.300781 " fill-opacity="1" fill-rule="nonzero"/><path fill="#ddab34" d="M 58.589844 101.589844 L 25.632812 131.085938 C 22.558594 134.308594 17.703125 134.804688 14.082031 132.261719 C 9.515625 129.054688 8.730469 122.402344 12.417969 118.148438 L 43.40625 86.730469 C 47.109375 82.457031 53.386719 81.929688 57.703125 85.527344 C 62.53125 89.550781 62.941406 97.023438 58.589844 101.589844 Z M 58.589844 101.589844 " fill-opacity="1" fill-rule="nonzero"/><path fill="#ea7630" d="M 59.3125 77.605469 C 59.3125 77.605469 46.078125 80.285156 29.648438 100.679688 L 43.71875 119.570312 L 65.160156 103.636719 Z M 59.3125 77.605469 " fill-opacity="1" fill-rule="nonzero"/><path fill="#ea7630" d="M 43.300781 119.859375 L 49.019531 115.609375 L 33.605469 94.269531 L 27.765625 98.589844 Z M 43.300781 119.859375 " fill-opacity="1" fill-rule="nonzero"/><path fill="#02479c" d="M 51 114.496094 C 50.894531 114.496094 50.792969 114.449219 50.730469 114.359375 C 50.617188 114.210938 50.648438 114.003906 50.796875 113.890625 L 63.234375 104.652344 C 63.382812 104.542969 63.59375 104.570312 63.703125 104.71875 C 63.8125 104.867188 63.78125 105.078125 63.632812 105.1875 L 51.199219 114.429688 C 51.136719 114.472656 51.066406 114.496094 51 114.496094 Z M 51 114.496094 " fill-opacity="1" fill-rule="nonzero"/><path fill="#02479c" d="M 82.414062 25.058594 C 82.414062 25.058594 95.171875 21.296875 101.359375 26.792969 C 110.414062 34.84375 99.21875 40.921875 99.21875 40.921875 Z M 82.414062 25.058594 " fill-opacity="1" fill-rule="nonzero"/><path fill="#02479c" d="M 101.839844 42.960938 C 101.863281 43.570312 101.855469 44.179688 101.816406 44.789062 C 101.773438 45.394531 101.703125 46 101.601562 46.601562 C 101.496094 47.207031 101.363281 47.800781 101.199219 48.390625 C 101.035156 48.980469 100.84375 49.558594 100.621094 50.132812 C 100.394531 50.703125 100.144531 51.261719 99.863281 51.8125 C 99.582031 52.359375 99.273438 52.894531 98.9375 53.410156 C 98.601562 53.929688 98.242188 54.433594 97.851562 54.917969 C 97.464844 55.40625 97.054688 55.871094 96.621094 56.316406 C 96.183594 56.765625 95.726562 57.191406 95.25 57.59375 C 94.769531 58 94.269531 58.382812 93.753906 58.738281 C 93.234375 59.097656 92.699219 59.429688 92.148438 59.738281 C 91.597656 60.042969 91.03125 60.324219 90.449219 60.582031 C 89.867188 60.835938 89.277344 61.0625 88.671875 61.261719 C 88.070312 61.460938 87.457031 61.628906 86.835938 61.773438 C 86.214844 61.914062 85.585938 62.027344 84.953125 62.109375 C 84.320312 62.191406 83.6875 62.246094 83.046875 62.269531 C 82.410156 62.292969 81.773438 62.285156 81.136719 62.25 C 80.5 62.210938 79.867188 62.144531 79.238281 62.050781 C 78.605469 61.953125 77.984375 61.828125 77.367188 61.675781 C 76.75 61.519531 76.140625 61.335938 75.542969 61.125 C 74.945312 60.914062 74.359375 60.675781 73.789062 60.410156 C 73.214844 60.144531 72.65625 59.851562 72.113281 59.53125 C 71.570312 59.210938 71.046875 58.871094 70.539062 58.5 C 70.03125 58.132812 69.546875 57.742188 69.078125 57.328125 C 68.613281 56.914062 68.167969 56.476562 67.746094 56.023438 C 67.324219 55.566406 66.925781 55.09375 66.554688 54.597656 C 66.179688 54.105469 65.835938 53.597656 65.515625 53.070312 C 65.195312 52.542969 64.902344 52.003906 64.636719 51.449219 C 64.371094 50.898438 64.136719 50.332031 63.929688 49.757812 C 63.722656 49.179688 63.546875 48.597656 63.402344 48.003906 C 63.253906 47.410156 63.140625 46.8125 63.054688 46.207031 C 62.96875 45.605469 62.917969 45 62.894531 44.390625 C 62.871094 43.78125 62.878906 43.171875 62.921875 42.5625 C 62.960938 41.957031 63.03125 41.351562 63.136719 40.75 C 63.238281 40.148438 63.371094 39.550781 63.535156 38.960938 C 63.699219 38.371094 63.890625 37.792969 64.117188 37.21875 C 64.339844 36.648438 64.589844 36.089844 64.871094 35.539062 C 65.152344 34.992188 65.460938 34.460938 65.796875 33.941406 C 66.132812 33.421875 66.496094 32.917969 66.882812 32.433594 C 67.269531 31.945312 67.679688 31.480469 68.117188 31.035156 C 68.550781 30.585938 69.007812 30.160156 69.488281 29.757812 C 69.964844 29.351562 70.464844 28.972656 70.984375 28.613281 C 71.5 28.253906 72.035156 27.921875 72.585938 27.617188 C 73.140625 27.308594 73.707031 27.027344 74.285156 26.773438 C 74.867188 26.515625 75.460938 26.289062 76.0625 26.089844 C 76.667969 25.890625 77.28125 25.722656 77.902344 25.578125 C 78.523438 25.4375 79.148438 25.324219 79.78125 25.242188 C 80.414062 25.160156 81.050781 25.105469 81.6875 25.082031 C 82.324219 25.058594 82.960938 25.066406 83.597656 25.101562 C 84.234375 25.140625 84.871094 25.207031 85.5 25.300781 C 86.128906 25.398438 86.753906 25.523438 87.371094 25.675781 C 87.984375 25.832031 88.59375 26.015625 89.191406 26.226562 C 89.789062 26.4375 90.375 26.675781 90.945312 26.941406 C 91.519531 27.207031 92.078125 27.5 92.621094 27.820312 C 93.164062 28.140625 93.6875 28.484375 94.195312 28.851562 C 94.703125 29.21875 95.191406 29.609375 95.65625 30.023438 C 96.125 30.4375 96.566406 30.875 96.988281 31.328125 C 97.410156 31.785156 97.808594 32.261719 98.179688 32.753906 C 98.554688 33.246094 98.902344 33.757812 99.222656 34.28125 C 99.542969 34.808594 99.835938 35.347656 100.097656 35.902344 C 100.363281 36.457031 100.597656 37.019531 100.804688 37.597656 C 101.011719 38.171875 101.1875 38.757812 101.335938 39.347656 C 101.480469 39.941406 101.597656 40.539062 101.679688 41.144531 C 101.765625 41.746094 101.820312 42.351562 101.839844 42.960938 Z M 101.839844 42.960938 " fill-opacity="1" fill-rule="nonzero"/><path fill="#ddab34" d="M 105.867188 49.988281 C 105.867188 50.320312 105.835938 50.648438 105.769531 50.972656 C 105.707031 51.296875 105.609375 51.613281 105.484375 51.921875 C 105.355469 52.226562 105.203125 52.515625 105.019531 52.792969 C 104.832031 53.066406 104.625 53.324219 104.390625 53.558594 C 104.15625 53.789062 103.902344 54 103.625 54.183594 C 103.351562 54.367188 103.0625 54.523438 102.753906 54.648438 C 102.449219 54.777344 102.132812 54.871094 101.808594 54.9375 C 101.484375 55.003906 101.15625 55.035156 100.824219 55.035156 C 100.492188 55.035156 100.164062 55.003906 99.839844 54.9375 C 99.515625 54.871094 99.199219 54.777344 98.894531 54.648438 C 98.589844 54.523438 98.296875 54.367188 98.023438 54.183594 C 97.746094 54 97.492188 53.789062 97.257812 53.558594 C 97.023438 53.324219 96.816406 53.066406 96.632812 52.792969 C 96.449219 52.515625 96.292969 52.226562 96.164062 51.921875 C 96.039062 51.613281 95.945312 51.296875 95.878906 50.972656 C 95.8125 50.648438 95.78125 50.320312 95.78125 49.988281 C 95.78125 49.660156 95.8125 49.332031 95.878906 49.003906 C 95.945312 48.679688 96.039062 48.367188 96.164062 48.058594 C 96.292969 47.753906 96.449219 47.460938 96.632812 47.1875 C 96.816406 46.910156 97.023438 46.65625 97.257812 46.421875 C 97.492188 46.1875 97.746094 45.980469 98.023438 45.796875 C 98.296875 45.609375 98.589844 45.457031 98.894531 45.328125 C 99.199219 45.203125 99.515625 45.105469 99.839844 45.042969 C 100.164062 44.976562 100.492188 44.945312 100.824219 44.945312 C 101.15625 44.945312 101.484375 44.976562 101.808594 45.042969 C 102.132812 45.105469 102.449219 45.203125 102.753906 45.328125 C 103.0625 45.457031 103.351562 45.609375 103.625 45.796875 C 103.902344 45.980469 104.15625 46.1875 104.390625 46.421875 C 104.625 46.65625 104.832031 46.910156 105.019531 47.1875 C 105.203125 47.460938 105.355469 47.753906 105.484375 48.058594 C 105.609375 48.367188 105.707031 48.679688 105.769531 49.003906 C 105.835938 49.332031 105.867188 49.660156 105.867188 49.988281 Z M 105.867188 49.988281 " fill-opacity="1" fill-rule="nonzero"/><path fill="#ddab34" d="M 89.167969 61.667969 L 89.476562 80.902344 L 75.214844 80.613281 L 77.175781 51.433594 Z M 89.167969 61.667969 " fill-opacity="1" fill-rule="nonzero"/><path fill="#02479c" d="M 89.328125 71.8125 L 78.65625 60.390625 L 89.167969 61.667969 Z M 89.328125 71.8125 " fill-opacity="1" fill-rule="nonzero"/><path fill="#ddab34" d="M 98.910156 32.046875 C 100.21875 33.074219 101.085938 34.554688 101.46875 36.167969 C 102.609375 40.957031 104.8125 49.382812 103.292969 54.566406 C 101.320312 61.304688 96.085938 66.222656 87.292969 64.882812 C 87.292969 64.882812 76.789062 64.207031 74.152344 51.027344 C 69.949219 30.023438 87.6875 23.242188 98.910156 32.046875 Z M 98.910156 32.046875 " fill-opacity="1" fill-rule="nonzero"/><path fill="#02479c" d="M 97.164062 52.703125 C 97.027344 52.703125 96.902344 52.609375 96.871094 52.464844 C 96.832031 52.304688 96.9375 52.140625 97.097656 52.105469 L 98.335938 51.828125 C 98.425781 51.800781 98.492188 51.679688 98.460938 51.5625 L 97.589844 49.441406 C 97.527344 49.285156 97.601562 49.109375 97.753906 49.046875 C 97.910156 48.984375 98.085938 49.058594 98.148438 49.210938 L 99.035156 51.375 C 99.15625 51.84375 98.910156 52.28125 98.488281 52.414062 L 97.230469 52.695312 C 97.207031 52.699219 97.1875 52.703125 97.164062 52.703125 Z M 97.164062 52.703125 " fill-opacity="1" fill-rule="nonzero"/><path fill="#02479c" d="M 92.371094 47.117188 C 92.371094 47.28125 92.339844 47.4375 92.277344 47.589844 C 92.214844 47.738281 92.128906 47.875 92.011719 47.988281 C 91.898438 48.105469 91.765625 48.191406 91.613281 48.253906 C 91.460938 48.316406 91.304688 48.347656 91.140625 48.347656 C 90.980469 48.347656 90.820312 48.316406 90.671875 48.253906 C 90.519531 48.191406 90.386719 48.105469 90.273438 47.988281 C 90.15625 47.875 90.066406 47.738281 90.003906 47.589844 C 89.941406 47.4375 89.910156 47.28125 89.910156 47.117188 C 89.910156 46.953125 89.941406 46.796875 90.003906 46.648438 C 90.066406 46.496094 90.15625 46.363281 90.273438 46.246094 C 90.386719 46.132812 90.519531 46.042969 90.671875 45.980469 C 90.820312 45.917969 90.980469 45.886719 91.140625 45.886719 C 91.304688 45.886719 91.460938 45.917969 91.613281 45.980469 C 91.765625 46.042969 91.898438 46.132812 92.011719 46.246094 C 92.128906 46.363281 92.214844 46.496094 92.277344 46.648438 C 92.339844 46.796875 92.371094 46.953125 92.371094 47.117188 Z M 92.371094 47.117188 " fill-opacity="1" fill-rule="nonzero"/><path fill="#02479c" d="M 99.769531 46.695312 C 99.769531 47.324219 100.28125 47.835938 100.910156 47.835938 C 101.539062 47.835938 102.050781 47.324219 102.050781 46.695312 C 102.050781 46.0625 101.539062 45.554688 100.910156 45.554688 C 100.28125 45.554688 99.769531 46.0625 99.769531 46.695312 Z M 99.769531 46.695312 " fill-opacity="1" fill-rule="nonzero"/><path fill="#02479c" d="M 95.625 56.132812 C 94.335938 56.132812 92.792969 55.796875 91.363281 54.609375 C 91.234375 54.503906 91.21875 54.3125 91.324219 54.183594 C 91.433594 54.054688 91.621094 54.039062 91.75 54.144531 C 94.664062 56.5625 98.234375 55.039062 98.269531 55.023438 C 98.421875 54.953125 98.601562 55.023438 98.667969 55.175781 C 98.734375 55.328125 98.667969 55.507812 98.515625 55.574219 C 98.425781 55.617188 97.222656 56.132812 95.625 56.132812 Z M 95.625 56.132812 " fill-opacity="1" fill-rule="nonzero"/><path fill="#02479c" d="M 99.195312 39.953125 C 99.195312 39.953125 98.734375 41.335938 100.457031 41.621094 C 101.765625 41.835938 102.597656 41.953125 103.328125 42.269531 C 103.742188 42.449219 104.226562 42.300781 104.476562 41.925781 C 104.675781 41.621094 104.683594 41.226562 104.480469 40.921875 C 104.078125 40.300781 103.210938 39.34375 101.625 39.058594 C 99.582031 38.695312 99.195312 39.953125 99.195312 39.953125 Z M 99.195312 39.953125 " fill-opacity="1" fill-rule="nonzero"/><path fill="#02479c" d="M 93.164062 40.011719 C 93.164062 40.011719 93.691406 41.40625 91.46875 41.648438 C 89.785156 41.835938 87.769531 42.46875 86.816406 42.769531 C 86.273438 42.941406 85.660156 42.78125 85.359375 42.398438 C 85.117188 42.089844 85.125 41.695312 85.394531 41.394531 C 85.941406 40.785156 88.042969 39.308594 90.089844 39.0625 C 92.722656 38.746094 93.164062 40.011719 93.164062 40.011719 Z M 93.164062 40.011719 " fill-opacity="1" fill-rule="nonzero"/><path fill="#02479c" d="M 94.839844 28.285156 C 94.839844 28.285156 96.859375 39.222656 70.464844 37.753906 C 70.464844 37.753906 68.925781 22.46875 94.839844 28.285156 Z M 94.839844 28.285156 " fill-opacity="1" fill-rule="nonzero"/><path fill="#02479c" d="M 78.65625 35.515625 L 77.175781 51.433594 L 64.703125 40.835938 Z M 78.65625 35.515625 " fill-opacity="1" fill-rule="nonzero"/><path fill="#ddab34" d="M 67.402344 53.816406 C 68.441406 56.839844 71.730469 58.445312 74.75 57.410156 C 77.769531 56.371094 79.378906 53.082031 78.339844 50.058594 C 77.304688 47.039062 74.015625 45.429688 70.992188 46.46875 C 67.972656 47.503906 66.367188 50.796875 67.402344 53.816406 Z M 67.402344 53.816406 " fill-opacity="1" fill-rule="nonzero"/><path fill="#02479c" d="M 75.015625 53.496094 C 74.875 53.496094 74.75 53.402344 74.71875 53.261719 C 74.453125 52.039062 73.914062 51.195312 73.117188 50.761719 C 71.851562 50.074219 70.324219 50.625 70.308594 50.628906 C 70.152344 50.6875 69.980469 50.605469 69.921875 50.453125 C 69.863281 50.292969 69.941406 50.121094 70.097656 50.0625 C 70.167969 50.035156 71.890625 49.40625 73.402344 50.226562 C 74.359375 50.75 75.003906 51.726562 75.308594 53.128906 C 75.347656 53.292969 75.242188 53.453125 75.082031 53.492188 C 75.058594 53.496094 75.039062 53.496094 75.015625 53.496094 Z M 75.015625 53.496094 " fill-opacity="1" fill-rule="nonzero"/><path fill="#f2f2f2" d="M 85.992188 81.128906 L 75.828125 74.273438 L 75.929688 70.445312 L 74.175781 70.445312 C 73.453125 70.445312 72.757812 70.746094 72.246094 71.285156 L 69.058594 74.613281 L 76.375 86.09375 C 77.144531 87.296875 78.734375 87.53125 79.789062 86.601562 Z M 85.992188 81.128906 " fill-opacity="1" fill-rule="nonzero"/><path fill="#f2f2f2" d="M 89.179688 70.445312 L 90.5 70.445312 C 91.414062 70.445312 92.265625 70.925781 92.773438 71.71875 L 94.976562 75.160156 L 94.015625 85.113281 C 93.917969 86.125 92.796875 86.628906 92.027344 86.007812 L 85.992188 81.128906 L 89.390625 75.175781 Z M 89.179688 70.445312 " fill-opacity="1" fill-rule="nonzero"/><path fill="#f2f2f2" d="M 87.042969 85.871094 C 87.042969 86.480469 86.574219 86.972656 85.992188 86.972656 C 85.410156 86.972656 84.941406 86.480469 84.941406 85.871094 C 84.941406 85.261719 85.410156 84.769531 85.992188 84.769531 C 86.574219 84.769531 87.042969 85.261719 87.042969 85.871094 Z M 87.042969 85.871094 " fill-opacity="1" fill-rule="nonzero"/><path fill="#f2f2f2" d="M 87.277344 90.261719 C 87.277344 90.867188 86.808594 91.363281 86.226562 91.363281 C 85.644531 91.363281 85.175781 90.867188 85.175781 90.261719 C 85.175781 89.652344 85.644531 89.160156 86.226562 89.160156 C 86.808594 89.160156 87.277344 89.652344 87.277344 90.261719 Z M 87.277344 90.261719 " fill-opacity="1" fill-rule="nonzero"/><g clip-path="url(#id3)"><path fill="#f2f2f2" d="M 245.378906 279.859375 L 231.347656 369.902344 L 222.117188 369.902344 L 233.746094 278.550781 Z M 245.378906 279.859375 " fill-opacity="1" fill-rule="nonzero"/></g><g clip-path="url(#id4)"><path fill="#f2f2f2" d="M 295.789062 278.550781 L 306.519531 369.902344 L 317.226562 369.902344 L 308.671875 278.550781 Z M 295.789062 278.550781 " fill-opacity="1" fill-rule="nonzero"/></g><g clip-path="url(#id5)"><path fill="#f2f2f2" d="M 330.152344 279.859375 L 344.183594 369.902344 L 353.414062 369.902344 L 341.78125 278.550781 Z M 330.152344 279.859375 " fill-opacity="1" fill-rule="nonzero"/></g><g clip-path="url(#id6)"><path fill="#f2f2f2" d="M 245.378906 279.859375 L 231.347656 369.902344 L 222.117188 369.902344 L 233.746094 278.550781 Z M 245.378906 279.859375 " fill-opacity="1" fill-rule="nonzero"/></g><g clip-path="url(#id7)"><path fill="#f2f2f2" d="M 295.789062 278.550781 L 306.519531 369.902344 L 317.226562 369.902344 L 308.671875 278.550781 Z M 295.789062 278.550781 " fill-opacity="1" fill-rule="nonzero"/></g><g clip-path="url(#id8)"><path fill="#f2f2f2" d="M 330.152344 279.859375 L 344.183594 369.902344 L 353.414062 369.902344 L 341.78125 278.550781 Z M 330.152344 279.859375 " fill-opacity="1" fill-rule="nonzero"/></g><g clip-path="url(#id9)"><g mask="url(#id10)"><g transform="matrix(1, 0, 0, 1, 221, 277)"><g clip-path="url(#id14)"><g clip-path="url(#id11)"><path fill="#02479c" d="M 24.378906 2.859375 L 10.347656 92.902344 L 1.117188 92.902344 L 12.746094 1.550781 Z M 24.378906 2.859375 " fill-opacity="1" fill-rule="nonzero"/></g><g clip-path="url(#id12)"><path fill="#02479c" d="M 74.789062 1.550781 L 85.519531 92.902344 L 96.226562 92.902344 L 87.671875 1.550781 Z M 74.789062 1.550781 " fill-opacity="1" fill-rule="nonzero"/></g><g clip-path="url(#id13)"><path fill="#02479c" d="M 109.152344 2.859375 L 123.183594 92.902344 L 132.414062 92.902344 L 120.78125 1.550781 Z M 109.152344 2.859375 " fill-opacity="1" fill-rule="nonzero"/></g></g></g></g></g><path fill="#f2f2f2" d="M 227.207031 363.160156 L 233.746094 360.714844 L 251.507812 360.96875 L 255.222656 362.324219 L 249.179688 364.433594 L 229.648438 364.433594 Z M 227.207031 363.160156 " fill-opacity="1" fill-rule="nonzero"/><path fill="#f2f2f2" d="M 276.898438 339.636719 L 257.476562 347.339844 L 237.25 356.609375 L 238.695312 360.464844 L 260.730469 348.722656 L 276.613281 340.496094 Z M 276.898438 339.636719 " fill-opacity="1" fill-rule="nonzero"/><path fill="#f2f2f2" d="M 262.558594 318.3125 L 270.300781 334.863281 L 262.019531 339.386719 L 252.734375 323.210938 Z M 262.558594 318.3125 " fill-opacity="1" fill-rule="nonzero"/><path fill="#02479c" d="M 268.839844 331.34375 C 268.839844 331.34375 264.53125 338.265625 258.734375 334.226562 L 242.394531 357.109375 L 276.898438 339.636719 Z M 268.839844 331.34375 " fill-opacity="1" fill-rule="nonzero"/><g clip-path="url(#id15)"><g clip-path="url(#id16)"><path fill="#f2f2f2" d="M 242.847656 348.101562 C 242.847656 348.101562 252.027344 345.121094 256.667969 356.078125 L 239.863281 359.398438 Z M 242.847656 348.101562 " fill-opacity="1" fill-rule="nonzero"/></g></g><path fill="#f2f2f2" d="M 242.378906 357.109375 L 276.882812 339.636719 L 278.410156 342.65625 L 243.90625 360.125 Z M 242.378906 357.109375 " fill-opacity="1" fill-rule="nonzero"/><path fill="#f2f2f2" d="M 258.980469 341.3125 C 258.867188 341.320312 258.753906 341.300781 258.648438 341.25 C 256.425781 340.15625 254.640625 339.960938 254.621094 339.960938 C 254.273438 339.921875 254.027344 339.617188 254.082031 339.273438 C 254.132812 338.929688 254.464844 338.6875 254.808594 338.71875 C 254.890625 338.726562 256.824219 338.933594 259.265625 340.132812 C 259.578125 340.285156 259.691406 340.660156 259.523438 340.96875 C 259.40625 341.171875 259.199219 341.296875 258.980469 341.3125 Z M 258.980469 341.3125 " fill-opacity="1" fill-rule="nonzero"/><path fill="#f2f2f2" d="M 256.855469 344.140625 C 256.746094 344.148438 256.628906 344.128906 256.527344 344.078125 C 254.300781 342.984375 252.519531 342.789062 252.5 342.785156 C 252.148438 342.75 251.90625 342.441406 251.957031 342.097656 C 252.007812 341.757812 252.34375 341.507812 252.6875 341.542969 C 252.765625 341.550781 254.703125 341.761719 257.144531 342.957031 C 257.453125 343.113281 257.570312 343.484375 257.398438 343.792969 C 257.285156 344 257.074219 344.121094 256.855469 344.140625 Z M 256.855469 344.140625 " fill-opacity="1" fill-rule="nonzero"/><path fill="#f2f2f2" d="M 254.734375 346.964844 C 254.625 346.972656 254.507812 346.953125 254.402344 346.902344 C 252.179688 345.808594 250.398438 345.613281 250.378906 345.613281 C 250.027344 345.574219 249.785156 345.269531 249.835938 344.925781 C 249.886719 344.582031 250.21875 344.335938 250.5625 344.371094 C 250.644531 344.378906 252.578125 344.585938 255.019531 345.78125 C 255.332031 345.933594 255.445312 346.308594 255.277344 346.617188 C 255.164062 346.824219 254.953125 346.945312 254.734375 346.964844 Z M 254.734375 346.964844 " fill-opacity="1" fill-rule="nonzero"/><path fill="#f2f2f2" d="M 251.507812 336.894531 L 251.335938 355.167969 L 241.914062 355.664062 L 240.527344 337.0625 Z M 251.507812 336.894531 " fill-opacity="1" fill-rule="nonzero"/><path fill="#02479c" d="M 251.539062 351.363281 C 251.539062 351.363281 244.664062 355.742188 241.179688 349.59375 L 216.558594 363.160156 L 255.21875 362.324219 Z M 251.539062 351.363281 " fill-opacity="1" fill-rule="nonzero"/><g clip-path="url(#id17)"><g clip-path="url(#id18)"><path fill="#f2f2f2" d="M 220.859375 355.234375 C 220.859375 355.234375 230.425781 356.515625 229.875 368.398438 L 213.289062 364.125 Z M 220.859375 355.234375 " fill-opacity="1" fill-rule="nonzero"/></g></g><path fill="#f2f2f2" d="M 216.570312 363.167969 L 255.234375 362.332031 L 255.304688 365.710938 L 216.644531 366.546875 Z M 216.570312 363.167969 " fill-opacity="1" fill-rule="nonzero"/><path fill="#f2f2f2" d="M 238.339844 356.089844 C 238.234375 356.046875 238.140625 355.980469 238.066406 355.886719 C 236.535156 353.941406 235.011719 352.992188 234.996094 352.984375 C 234.695312 352.796875 234.609375 352.414062 234.804688 352.128906 C 234.996094 351.84375 235.402344 351.769531 235.699219 351.945312 C 235.769531 351.988281 237.425781 353.011719 239.109375 355.148438 C 239.324219 355.421875 239.265625 355.808594 238.976562 356.011719 C 238.785156 356.148438 238.542969 356.167969 238.339844 356.089844 Z M 238.339844 356.089844 " fill-opacity="1" fill-rule="nonzero"/><path fill="#f2f2f2" d="M 235.203125 357.71875 C 235.101562 357.679688 235.003906 357.609375 234.933594 357.519531 C 233.398438 355.570312 231.875 354.621094 231.859375 354.613281 C 231.5625 354.429688 231.472656 354.046875 231.667969 353.761719 C 231.863281 353.472656 232.269531 353.394531 232.566406 353.574219 C 232.636719 353.617188 234.289062 354.640625 235.972656 356.777344 C 236.1875 357.050781 236.128906 357.4375 235.84375 357.640625 C 235.652344 357.777344 235.410156 357.796875 235.203125 357.71875 Z M 235.203125 357.71875 " fill-opacity="1" fill-rule="nonzero"/><path fill="#f2f2f2" d="M 232.070312 359.347656 C 231.964844 359.308594 231.871094 359.238281 231.796875 359.148438 C 230.265625 357.203125 228.742188 356.253906 228.726562 356.242188 C 228.425781 356.058594 228.335938 355.675781 228.53125 355.390625 C 228.726562 355.101562 229.132812 355.023438 229.429688 355.203125 C 229.5 355.246094 231.152344 356.269531 232.835938 358.40625 C 233.050781 358.679688 232.992188 359.0625 232.707031 359.269531 C 232.515625 359.40625 232.273438 359.429688 232.070312 359.347656 Z M 232.070312 359.347656 " fill-opacity="1" fill-rule="nonzero"/><path fill="#ddab34" d="M 275.988281 228.824219 C 275.976562 229.445312 275.964844 230.0625 275.953125 230.683594 C 275.730469 240.417969 274.574219 250.046875 273.789062 259.761719 C 272.914062 265.378906 270.597656 267.128906 268.757812 267.601562 C 268.65625 267.777344 268.542969 267.945312 268.429688 268.109375 L 264.394531 273.8125 C 264.082031 274.402344 263.320312 274.660156 262.648438 274.382812 C 262.164062 274.183594 261.617188 273.710938 262.164062 272.394531 L 261.605469 273.699219 C 261.28125 274.328125 260.460938 274.585938 259.753906 274.277344 C 259.117188 274.019531 258.871094 273.222656 259.140625 272.367188 L 258.613281 273.285156 C 258.253906 273.964844 257.335938 274.226562 256.570312 273.8125 C 255.921875 273.449219 255.699219 272.675781 255.96875 272.042969 L 256.550781 270.710938 L 256.605469 270.585938 L 255.53125 271.972656 C 255.105469 272.675781 254.105469 272.902344 253.320312 272.425781 C 252.648438 272.035156 252.425781 271.21875 252.71875 270.546875 L 256.304688 262.320312 L 254.421875 261.453125 C 253.726562 261.144531 253.332031 260.441406 253.457031 259.757812 C 253.582031 259.046875 254.230469 258.53125 255.003906 258.507812 L 265.71875 258.3125 C 262.996094 238.121094 260.664062 217.972656 258.734375 197.710938 C 258.691406 193.101562 262.839844 189.300781 267.757812 189.300781 C 267.929688 189.300781 268.09375 189.300781 268.277344 189.308594 C 272.882812 189.558594 272.898438 194.359375 273.820312 198.546875 C 275.957031 208.230469 276.085938 218.335938 275.988281 228.824219 Z M 275.988281 228.824219 " fill-opacity="1" fill-rule="nonzero"/><path fill="#02479c" d="M 256.40625 271.179688 C 256.382812 271.179688 256.359375 271.171875 256.335938 271.164062 C 256.257812 271.125 256.222656 271.027344 256.261719 270.949219 L 258.507812 266.21875 C 258.546875 266.136719 258.640625 266.101562 258.722656 266.140625 C 258.800781 266.179688 258.835938 266.273438 258.796875 266.355469 L 256.550781 271.085938 C 256.523438 271.144531 256.464844 271.179688 256.40625 271.179688 Z M 256.40625 271.179688 " fill-opacity="1" fill-rule="nonzero"/><path fill="#02479c" d="M 259.238281 272.328125 C 259.214844 272.328125 259.1875 272.324219 259.160156 272.3125 C 259.082031 272.269531 259.054688 272.171875 259.097656 272.09375 L 261.441406 267.730469 C 261.484375 267.648438 261.582031 267.621094 261.660156 267.664062 C 261.738281 267.707031 261.769531 267.804688 261.726562 267.882812 L 259.378906 272.246094 C 259.351562 272.300781 259.296875 272.328125 259.238281 272.328125 Z M 259.238281 272.328125 " fill-opacity="1" fill-rule="nonzero"/><path fill="#02479c" d="M 261.953125 272.9375 C 261.925781 272.9375 261.902344 272.929688 261.875 272.914062 C 261.796875 272.871094 261.769531 272.773438 261.816406 272.695312 L 263.863281 269.0625 C 263.90625 268.988281 264.007812 268.960938 264.082031 269.003906 C 264.160156 269.046875 264.1875 269.144531 264.144531 269.222656 L 262.09375 272.855469 C 262.0625 272.90625 262.011719 272.9375 261.953125 272.9375 Z M 261.953125 272.9375 " fill-opacity="1" fill-rule="nonzero"/><path fill="#ea7630" d="M 316.101562 238.265625 L 316.101562 258.304688 C 316.101562 267.402344 308.554688 274.671875 299.46875 274.335938 L 265.566406 273.097656 L 261.359375 305.425781 L 268.332031 326.625 L 258.164062 329.984375 L 256.269531 344.59375 L 237.269531 343.148438 L 236.933594 301.828125 L 225.222656 277.925781 C 221.617188 270.574219 224.917969 261.839844 232.628906 258.316406 L 240.648438 254.65625 C 243.980469 250.425781 248.886719 247.519531 254.453125 246.753906 Z M 316.101562 238.265625 " fill-opacity="1" fill-rule="nonzero"/><path fill="#446bc6" d="M 271.300781 174.527344 C 271.300781 174.527344 259.164062 181.765625 256.804688 201.363281 L 274.132812 210.886719 Z M 271.300781 174.527344 " fill-opacity="1" fill-rule="nonzero"/><path fill="#446bc6" d="M 294.484375 168.410156 C 300.460938 168.917969 306.351562 170.230469 311.917969 172.457031 C 314.074219 173.320312 316.484375 174.371094 317.800781 176.394531 C 319.566406 179.105469 318.191406 182.167969 318.082031 185.113281 C 318.082031 185.117188 316.433594 245.527344 316.433594 245.527344 L 266.933594 245.527344 L 265.148438 187.105469 C 264.722656 180.875 268.40625 175.152344 274.101562 173.144531 C 280.484375 170.890625 288.269531 168.371094 291.667969 168.167969 Z M 294.484375 168.410156 " fill-opacity="1" fill-rule="nonzero"/><path fill="#02479c" d="M 266.128906 207.300781 C 265.980469 207.300781 265.851562 207.179688 265.851562 207.027344 L 265.402344 189.300781 C 265.398438 189.144531 265.519531 189.015625 265.675781 189.011719 C 265.824219 189.023438 265.960938 189.132812 265.964844 189.285156 L 266.410156 207.011719 C 266.414062 207.167969 266.292969 207.296875 266.136719 207.300781 C 266.136719 207.300781 266.132812 207.300781 266.128906 207.300781 Z M 266.128906 207.300781 " fill-opacity="1" fill-rule="nonzero"/><path fill="#ddab34" d="M 276.972656 172.148438 C 276.972656 172.148438 285.941406 168.636719 291.667969 168.167969 C 291.667969 168.167969 299.488281 168.5 304.867188 170.15625 C 304.867188 170.15625 301.882812 176.523438 288.152344 177.566406 C 274.421875 178.613281 276.972656 172.148438 276.972656 172.148438 Z M 276.972656 172.148438 " fill-opacity="1" fill-rule="nonzero"/><path fill="#446bc6" d="M 315.195312 174.003906 C 315.195312 174.003906 328.714844 181.292969 330.925781 209.5 L 311.078125 215.800781 L 303.902344 193.292969 Z M 315.195312 174.003906 " fill-opacity="1" fill-rule="nonzero"/><path fill="#02479c" d="M 236.621094 301.484375 C 236.621094 301.484375 236.621094 301.484375 236.617188 301.484375 C 236.449219 301.484375 236.316406 301.347656 236.316406 301.179688 C 236.320312 301.011719 236.488281 284.339844 236.304688 272.175781 C 236.117188 259.894531 240.222656 254.6875 240.394531 254.472656 C 240.5 254.339844 240.691406 254.320312 240.824219 254.429688 C 240.953125 254.535156 240.976562 254.726562 240.871094 254.855469 C 240.828125 254.90625 236.730469 260.132812 236.914062 272.164062 C 237.097656 284.339844 236.925781 301.015625 236.925781 301.183594 C 236.925781 301.351562 236.789062 301.484375 236.621094 301.484375 Z M 236.621094 301.484375 " fill-opacity="1" fill-rule="nonzero"/><path fill="#02479c" d="M 258.171875 330.285156 C 258.15625 330.285156 258.144531 330.285156 258.132812 330.285156 C 257.964844 330.261719 257.847656 330.109375 257.867188 329.941406 L 260.984375 305.960938 C 261.007812 305.796875 261.152344 305.679688 261.328125 305.699219 C 261.496094 305.71875 261.613281 305.875 261.589844 306.042969 L 258.472656 330.019531 C 258.453125 330.175781 258.320312 330.285156 258.171875 330.285156 Z M 258.171875 330.285156 " fill-opacity="1" fill-rule="nonzero"/><path fill="#02479c" d="M 311.628906 215.929688 C 311.476562 215.929688 311.34375 215.8125 311.328125 215.660156 L 308.703125 192.742188 C 308.683594 192.574219 308.804688 192.421875 308.972656 192.40625 C 309.132812 192.382812 309.292969 192.503906 309.3125 192.671875 L 311.933594 215.589844 C 311.953125 215.757812 311.832031 215.910156 311.664062 215.929688 C 311.652344 215.929688 311.640625 215.929688 311.628906 215.929688 Z M 311.628906 215.929688 " fill-opacity="1" fill-rule="nonzero"/><path fill="#f2f2f2" d="M 216.558594 363.160156 L 223.253906 361.957031 L 229.28125 362.886719 L 225.605469 364.171875 L 218.828125 364.171875 Z M 216.558594 363.160156 " fill-opacity="1" fill-rule="nonzero"/><path fill="#f2f2f2" d="M 177.746094 228.457031 L 345.441406 228.457031 L 345.441406 235.335938 L 177.746094 235.335938 Z M 177.746094 228.457031 " fill-opacity="1" fill-rule="nonzero"/><g mask="url(#id19)"><g transform="matrix(1, 0, 0, 1, 177, 228)"><g clip-path="url(#id21)"><g clip-path="url(#id20)"><path fill="#02479c" d="M 0.746094 0.457031 L 168.441406 0.457031 L 168.441406 7.335938 L 0.746094 7.335938 Z M 0.746094 0.457031 " fill-opacity="1" fill-rule="nonzero"/></g></g></g></g><path fill="#ddab34" d="M 285.886719 228.695312 L 325.507812 228.515625 C 328.648438 228.472656 331.824219 224.476562 331.738281 221.335938 C 331.636719 217.84375 327.996094 214.175781 324.570312 214.867188 L 285.820312 222.617188 Z M 285.886719 228.695312 " fill-opacity="1" fill-rule="nonzero"/><path fill="#ddab34" d="M 287.984375 222.425781 C 287.984375 222.425781 270.601562 218.265625 270.601562 228.695312 L 285.890625 228.695312 Z M 287.984375 222.425781 " fill-opacity="1" fill-rule="nonzero"/><path fill="#02479c" d="M 311.664062 140.3125 C 311.664062 140.3125 334.167969 134.601562 323.949219 158.5625 C 322.175781 162.71875 321.132812 166.101562 320.601562 168.855469 C 319.199219 176.136719 308.371094 175.5 307.976562 168.097656 C 307.785156 164.546875 308.785156 160.011719 311.644531 154.214844 C 311.644531 154.214844 316.253906 145.769531 310.90625 143.820312 Z M 311.664062 140.3125 " fill-opacity="1" fill-rule="nonzero"/><path fill="#ea7630" d="M 313.554688 141.699219 C 313.554688 141.976562 313.527344 142.25 313.472656 142.523438 C 313.417969 142.796875 313.339844 143.0625 313.230469 143.316406 C 313.125 143.574219 312.996094 143.820312 312.839844 144.050781 C 312.6875 144.28125 312.511719 144.496094 312.316406 144.691406 C 312.117188 144.886719 311.90625 145.0625 311.671875 145.21875 C 311.441406 145.371094 311.199219 145.503906 310.941406 145.609375 C 310.683594 145.714844 310.421875 145.796875 310.148438 145.851562 C 309.875 145.902344 309.601562 145.929688 309.324219 145.929688 C 309.042969 145.929688 308.769531 145.902344 308.496094 145.851562 C 308.222656 145.796875 307.960938 145.714844 307.703125 145.609375 C 307.445312 145.503906 307.203125 145.371094 306.972656 145.21875 C 306.742188 145.0625 306.527344 144.886719 306.332031 144.691406 C 306.132812 144.496094 305.957031 144.28125 305.804688 144.050781 C 305.648438 143.820312 305.519531 143.574219 305.414062 143.316406 C 305.304688 143.0625 305.226562 142.796875 305.171875 142.523438 C 305.117188 142.25 305.089844 141.976562 305.089844 141.699219 C 305.089844 141.417969 305.117188 141.144531 305.171875 140.871094 C 305.226562 140.597656 305.304688 140.335938 305.414062 140.078125 C 305.519531 139.820312 305.648438 139.578125 305.804688 139.347656 C 305.957031 139.113281 306.132812 138.902344 306.332031 138.703125 C 306.527344 138.507812 306.742188 138.332031 306.972656 138.179688 C 307.203125 138.023438 307.445312 137.894531 307.703125 137.785156 C 307.960938 137.679688 308.222656 137.601562 308.496094 137.546875 C 308.769531 137.492188 309.042969 137.464844 309.324219 137.464844 C 309.601562 137.464844 309.875 137.492188 310.148438 137.546875 C 310.421875 137.601562 310.683594 137.679688 310.941406 137.785156 C 311.199219 137.894531 311.441406 138.023438 311.671875 138.179688 C 311.90625 138.332031 312.117188 138.507812 312.316406 138.703125 C 312.511719 138.902344 312.6875 139.113281 312.839844 139.347656 C 312.996094 139.578125 313.125 139.820312 313.230469 140.078125 C 313.339844 140.335938 313.417969 140.597656 313.472656 140.871094 C 313.527344 141.144531 313.554688 141.417969 313.554688 141.699219 Z M 313.554688 141.699219 " fill-opacity="1" fill-rule="nonzero"/><path fill="#02479c" d="M 296.722656 125.09375 C 296.722656 125.09375 286.285156 119.40625 279.855469 123.042969 C 270.429688 128.367188 279.0625 135.777344 279.0625 135.777344 Z M 296.722656 125.09375 " fill-opacity="1" fill-rule="nonzero"/><path fill="#02479c" d="M 297.347656 125.246094 C 297.902344 125.386719 298.445312 125.550781 298.984375 125.742188 C 299.519531 125.933594 300.046875 126.148438 300.5625 126.390625 C 301.078125 126.632812 301.578125 126.894531 302.070312 127.183594 C 302.558594 127.472656 303.035156 127.78125 303.492188 128.113281 C 303.953125 128.445312 304.394531 128.796875 304.816406 129.167969 C 305.242188 129.542969 305.648438 129.933594 306.03125 130.34375 C 306.417969 130.753906 306.78125 131.179688 307.121094 131.621094 C 307.464844 132.066406 307.78125 132.523438 308.078125 132.996094 C 308.375 133.46875 308.644531 133.953125 308.894531 134.449219 C 309.140625 134.945312 309.359375 135.453125 309.558594 135.96875 C 309.753906 136.488281 309.921875 137.011719 310.0625 137.542969 C 310.207031 138.074219 310.320312 138.609375 310.40625 139.152344 C 310.496094 139.691406 310.554688 140.234375 310.585938 140.78125 C 310.621094 141.328125 310.625 141.871094 310.601562 142.417969 C 310.578125 142.960938 310.523438 143.503906 310.445312 144.042969 C 310.367188 144.582031 310.261719 145.113281 310.125 145.640625 C 309.992188 146.167969 309.832031 146.6875 309.644531 147.199219 C 309.457031 147.710938 309.242188 148.210938 309.003906 148.699219 C 308.765625 149.191406 308.5 149.667969 308.210938 150.132812 C 307.921875 150.59375 307.609375 151.042969 307.273438 151.476562 C 306.941406 151.910156 306.582031 152.328125 306.203125 152.726562 C 305.824219 153.125 305.425781 153.503906 305.007812 153.867188 C 304.589844 154.226562 304.152344 154.566406 303.699219 154.882812 C 303.246094 155.203125 302.777344 155.5 302.289062 155.773438 C 301.804688 156.046875 301.304688 156.296875 300.792969 156.523438 C 300.28125 156.75 299.757812 156.949219 299.226562 157.125 C 298.691406 157.300781 298.148438 157.453125 297.597656 157.578125 C 297.046875 157.703125 296.492188 157.800781 295.929688 157.871094 C 295.367188 157.945312 294.804688 157.988281 294.234375 158.007812 C 293.667969 158.027344 293.101562 158.019531 292.53125 157.984375 C 291.964844 157.949219 291.398438 157.886719 290.835938 157.800781 C 290.273438 157.710938 289.714844 157.597656 289.164062 157.457031 C 288.609375 157.316406 288.066406 157.148438 287.527344 156.957031 C 286.992188 156.765625 286.464844 156.550781 285.949219 156.308594 C 285.433594 156.070312 284.929688 155.804688 284.441406 155.515625 C 283.953125 155.230469 283.476562 154.921875 283.019531 154.589844 C 282.558594 154.257812 282.117188 153.90625 281.695312 153.53125 C 281.269531 153.160156 280.863281 152.769531 280.480469 152.359375 C 280.09375 151.949219 279.730469 151.523438 279.390625 151.078125 C 279.046875 150.636719 278.726562 150.175781 278.433594 149.707031 C 278.136719 149.234375 277.867188 148.75 277.617188 148.25 C 277.371094 147.753906 277.148438 147.246094 276.953125 146.730469 C 276.757812 146.214844 276.589844 145.691406 276.449219 145.160156 C 276.304688 144.628906 276.191406 144.089844 276.101562 143.550781 C 276.015625 143.007812 275.957031 142.464844 275.925781 141.921875 C 275.890625 141.375 275.886719 140.828125 275.910156 140.285156 C 275.933594 139.738281 275.988281 139.199219 276.066406 138.660156 C 276.144531 138.121094 276.25 137.585938 276.386719 137.058594 C 276.519531 136.53125 276.679688 136.011719 276.867188 135.503906 C 277.054688 134.992188 277.269531 134.492188 277.507812 134 C 277.746094 133.511719 278.011719 133.035156 278.300781 132.570312 C 278.589844 132.105469 278.902344 131.65625 279.234375 131.222656 C 279.570312 130.789062 279.929688 130.375 280.308594 129.972656 C 280.6875 129.574219 281.085938 129.195312 281.503906 128.835938 C 281.921875 128.476562 282.359375 128.136719 282.8125 127.816406 C 283.265625 127.496094 283.734375 127.203125 284.222656 126.929688 C 284.707031 126.65625 285.207031 126.40625 285.71875 126.179688 C 286.230469 125.953125 286.753906 125.75 287.285156 125.574219 C 287.820312 125.398438 288.363281 125.25 288.914062 125.125 C 289.464844 125 290.019531 124.902344 290.582031 124.828125 C 291.144531 124.757812 291.707031 124.710938 292.277344 124.691406 C 292.84375 124.675781 293.410156 124.683594 293.980469 124.71875 C 294.546875 124.753906 295.113281 124.8125 295.675781 124.902344 C 296.238281 124.988281 296.796875 125.105469 297.347656 125.246094 Z M 297.347656 125.246094 " fill-opacity="1" fill-rule="nonzero"/><path fill="#ddab34" d="M 284.3125 157.050781 L 284.039062 174.234375 L 296.777344 173.972656 L 295.023438 147.910156 Z M 284.3125 157.050781 " fill-opacity="1" fill-rule="nonzero"/><path fill="#02479c" d="M 284.167969 166.113281 L 293.699219 155.914062 L 284.3125 157.050781 Z M 284.167969 166.113281 " fill-opacity="1" fill-rule="nonzero"/><path fill="#ddab34" d="M 280.835938 128.167969 C 279.585938 128.792969 278.628906 129.867188 278.027344 131.128906 C 276.140625 135.078125 272.582031 142.082031 272.933594 146.925781 C 273.390625 153.179688 277.035156 158.460938 284.964844 158.945312 C 284.964844 158.945312 294.265625 160.335938 299.046875 149.320312 C 306.707031 131.691406 292.316406 122.425781 280.835938 128.167969 Z M 280.835938 128.167969 " fill-opacity="1" fill-rule="nonzero"/><path fill="#02479c" d="M 278.695312 146.457031 C 278.65625 146.457031 278.617188 146.453125 278.582031 146.433594 L 277.554688 145.960938 C 277.191406 145.753906 277.058594 145.324219 277.234375 144.972656 L 278.433594 143.21875 C 278.519531 143.09375 278.683594 143.0625 278.808594 143.148438 C 278.933594 143.234375 278.964844 143.402344 278.878906 143.523438 L 277.699219 145.246094 C 277.667969 145.308594 277.707031 145.425781 277.800781 145.480469 L 278.804688 145.941406 C 278.941406 146.003906 279 146.164062 278.9375 146.300781 C 278.894531 146.398438 278.796875 146.457031 278.695312 146.457031 Z M 278.695312 146.457031 " fill-opacity="1" fill-rule="nonzero"/><path fill="#02479c" d="M 286.046875 142.710938 C 286.046875 142.855469 286.019531 142.996094 285.960938 143.132812 C 285.90625 143.265625 285.828125 143.386719 285.722656 143.488281 C 285.621094 143.589844 285.503906 143.671875 285.367188 143.726562 C 285.234375 143.78125 285.09375 143.808594 284.949219 143.808594 C 284.800781 143.808594 284.660156 143.78125 284.527344 143.726562 C 284.390625 143.671875 284.273438 143.589844 284.171875 143.488281 C 284.066406 143.386719 283.988281 143.265625 283.933594 143.132812 C 283.875 142.996094 283.847656 142.855469 283.847656 142.710938 C 283.847656 142.566406 283.875 142.425781 283.933594 142.289062 C 283.988281 142.15625 284.066406 142.035156 284.171875 141.933594 C 284.273438 141.832031 284.390625 141.75 284.527344 141.695312 C 284.660156 141.640625 284.800781 141.613281 284.949219 141.613281 C 285.09375 141.613281 285.234375 141.640625 285.367188 141.695312 C 285.503906 141.75 285.621094 141.832031 285.722656 141.933594 C 285.828125 142.035156 285.90625 142.15625 285.960938 142.289062 C 286.019531 142.425781 286.046875 142.566406 286.046875 142.710938 Z M 286.046875 142.710938 " fill-opacity="1" fill-rule="nonzero"/><path fill="#02479c" d="M 277.492188 140.714844 C 277.375 141.265625 276.832031 141.617188 276.28125 141.496094 C 275.734375 141.378906 275.382812 140.835938 275.5 140.285156 C 275.621094 139.734375 276.160156 139.386719 276.710938 139.503906 C 277.261719 139.621094 277.613281 140.164062 277.492188 140.714844 Z M 277.492188 140.714844 " fill-opacity="1" fill-rule="nonzero"/><path fill="#02479c" d="M 280.648438 149.878906 C 278.566406 149.878906 277.007812 148.773438 276.921875 148.707031 C 276.800781 148.617188 276.773438 148.449219 276.859375 148.328125 C 276.949219 148.207031 277.117188 148.179688 277.238281 148.269531 C 277.265625 148.289062 280.101562 150.292969 283.09375 148.730469 C 283.226562 148.660156 283.386719 148.710938 283.457031 148.84375 C 283.527344 148.976562 283.472656 149.140625 283.34375 149.210938 C 282.398438 149.703125 281.480469 149.878906 280.648438 149.878906 Z M 280.648438 149.878906 " fill-opacity="1" fill-rule="nonzero"/><path fill="#02479c" d="M 279.265625 134.9375 C 279.265625 134.9375 279.40625 136.230469 277.847656 136.15625 C 276.667969 136.097656 275.917969 136.042969 275.222656 136.179688 C 274.824219 136.257812 274.429688 136.039062 274.285156 135.664062 C 274.167969 135.363281 274.234375 135.015625 274.464844 134.785156 C 274.9375 134.324219 275.875 133.648438 277.3125 133.699219 C 279.160156 133.765625 279.265625 134.9375 279.265625 134.9375 Z M 279.265625 134.9375 " fill-opacity="1" fill-rule="nonzero"/><path fill="#02479c" d="M 284.519531 136.125 C 284.519531 136.125 283.796875 137.242188 285.691406 137.875 C 287.128906 138.351562 288.765625 139.285156 289.542969 139.730469 C 289.984375 139.980469 290.550781 139.957031 290.882812 139.679688 C 291.152344 139.457031 291.21875 139.109375 291.039062 138.796875 C 290.675781 138.160156 289.121094 136.476562 287.378906 135.875 C 285.144531 135.101562 284.519531 136.125 284.519531 136.125 Z M 284.519531 136.125 " fill-opacity="1" fill-rule="nonzero"/><path fill="#02479c" d="M 285.261719 125.570312 C 285.261719 125.570312 281.441406 134.738281 304.761719 138.425781 C 304.761719 138.425781 308.984375 125.371094 285.261719 125.570312 Z M 285.261719 125.570312 " fill-opacity="1" fill-rule="nonzero"/><path fill="#02479c" d="M 298.03125 134.933594 L 296.332031 149.109375 L 309.214844 142.203125 Z M 298.03125 134.933594 " fill-opacity="1" fill-rule="nonzero"/><path fill="#ddab34" d="M 304.414062 153.03125 C 302.9375 155.476562 299.765625 156.257812 297.324219 154.785156 C 294.882812 153.308594 294.097656 150.132812 295.570312 147.691406 C 297.046875 145.246094 300.21875 144.464844 302.660156 145.9375 C 305.101562 147.414062 305.886719 150.589844 304.414062 153.03125 Z M 304.414062 153.03125 " fill-opacity="1" fill-rule="nonzero"/><path fill="#02479c" d="M 297.882812 151.324219 C 297.847656 151.324219 297.808594 151.316406 297.773438 151.300781 C 297.636719 151.238281 297.574219 151.078125 297.636719 150.941406 C 298.171875 149.773438 298.917969 149.042969 299.851562 148.765625 C 301.328125 148.335938 302.710938 149.207031 302.765625 149.246094 C 302.894531 149.324219 302.929688 149.492188 302.847656 149.617188 C 302.769531 149.742188 302.601562 149.777344 302.476562 149.699219 C 302.464844 149.691406 301.226562 148.921875 300 149.289062 C 299.222656 149.515625 298.59375 150.148438 298.128906 151.167969 C 298.082031 151.265625 297.984375 151.324219 297.882812 151.324219 Z M 297.882812 151.324219 " fill-opacity="1" fill-rule="nonzero"/><g clip-path="url(#id22)"><path fill="#02479c" d="M 186.699219 235.335938 L 195.625 235.335938 L 195.625 369.902344 L 186.699219 369.902344 Z M 186.699219 235.335938 " fill-opacity="1" fill-rule="nonzero"/></g><g clip-path="url(#id23)"><path fill="#02479c" d="M 324.753906 235.335938 L 333.683594 235.335938 L 333.683594 369.902344 L 324.753906 369.902344 Z M 324.753906 235.335938 " fill-opacity="1" fill-rule="nonzero"/></g><path fill="#02479c" d="M 149.910156 66.691406 C 150.125 66.023438 150.335938 65.378906 150.535156 64.761719 C 150.730469 64.148438 150.90625 63.578125 151.0625 63.054688 C 151.214844 62.527344 151.335938 62.066406 151.425781 61.664062 C 151.515625 61.257812 151.5625 60.941406 151.574219 60.703125 C 151.632812 60.472656 151.734375 60.292969 151.882812 60.15625 C 152.03125 60.019531 152.203125 59.949219 152.394531 59.949219 C 152.511719 59.949219 152.613281 59.976562 152.695312 60.03125 C 152.777344 60.085938 152.84375 60.152344 152.894531 60.242188 C 152.945312 60.328125 152.980469 60.425781 153.007812 60.535156 C 153.03125 60.644531 153.042969 60.757812 153.042969 60.867188 C 153.042969 60.949219 153.039062 61.023438 153.027344 61.09375 C 153.019531 61.160156 153.007812 61.226562 152.992188 61.289062 C 152.878906 61.734375 152.746094 62.195312 152.589844 62.671875 C 152.4375 63.148438 152.277344 63.628906 152.117188 64.117188 C 151.953125 64.605469 151.792969 65.09375 151.632812 65.585938 C 151.472656 66.074219 151.328125 66.554688 151.203125 67.023438 L 151.070312 67.519531 C 151.003906 67.773438 150.945312 68.011719 150.898438 68.238281 C 150.847656 68.46875 150.824219 68.652344 150.824219 68.792969 C 150.824219 68.871094 150.839844 68.933594 150.871094 68.976562 C 150.898438 69.023438 150.953125 69.046875 151.035156 69.046875 C 151.234375 69.046875 151.46875 69.015625 151.734375 68.949219 C 152 68.882812 152.277344 68.804688 152.5625 68.707031 C 152.851562 68.613281 153.136719 68.511719 153.417969 68.394531 C 153.703125 68.28125 153.964844 68.175781 154.199219 68.074219 C 154.328125 68.019531 154.433594 67.972656 154.523438 67.933594 C 154.613281 67.894531 154.726562 67.847656 154.859375 67.792969 C 154.992188 67.738281 155.171875 67.664062 155.394531 67.570312 C 155.617188 67.480469 155.925781 67.351562 156.316406 67.183594 C 156.386719 67.160156 156.445312 67.140625 156.496094 67.121094 C 156.546875 67.105469 156.59375 67.097656 156.636719 67.097656 C 156.714844 67.097656 156.78125 67.113281 156.835938 67.140625 C 156.890625 67.171875 156.9375 67.207031 156.96875 67.257812 C 157 67.304688 157.023438 67.363281 157.035156 67.425781 C 157.050781 67.488281 157.058594 67.550781 157.058594 67.613281 C 157.058594 67.71875 157.050781 67.8125 157.03125 67.894531 C 157.015625 67.972656 156.996094 68.039062 156.976562 68.09375 C 156.917969 68.1875 156.84375 68.269531 156.753906 68.34375 C 156.660156 68.421875 156.5625 68.488281 156.460938 68.542969 C 156.359375 68.597656 156.261719 68.644531 156.164062 68.683594 C 156.066406 68.722656 155.984375 68.753906 155.921875 68.773438 C 155.84375 68.800781 155.742188 68.839844 155.613281 68.886719 C 155.484375 68.9375 155.34375 68.988281 155.195312 69.046875 C 155.042969 69.105469 154.890625 69.167969 154.730469 69.226562 C 154.570312 69.285156 154.417969 69.34375 154.277344 69.398438 C 154.136719 69.449219 154.011719 69.5 153.902344 69.539062 C 153.796875 69.582031 153.71875 69.609375 153.675781 69.621094 C 153.464844 69.699219 153.234375 69.789062 152.980469 69.882812 C 152.722656 69.980469 152.472656 70.074219 152.21875 70.160156 C 151.96875 70.25 151.726562 70.324219 151.503906 70.382812 C 151.277344 70.445312 151.089844 70.476562 150.9375 70.476562 C 150.753906 70.476562 150.609375 70.460938 150.503906 70.429688 C 150.398438 70.402344 150.308594 70.363281 150.222656 70.308594 C 150.140625 70.257812 150.058594 70.199219 149.972656 70.125 C 149.886719 70.054688 149.777344 69.972656 149.636719 69.882812 C 149.511719 69.808594 149.417969 69.699219 149.367188 69.5625 C 149.3125 69.429688 149.285156 69.28125 149.285156 69.128906 C 149.285156 69.050781 149.292969 68.960938 149.304688 68.859375 C 149.316406 68.757812 149.332031 68.648438 149.351562 68.539062 C 149.371094 68.425781 149.394531 68.316406 149.417969 68.210938 C 149.441406 68.101562 149.46875 68.007812 149.496094 67.925781 Z M 149.910156 66.691406 " fill-opacity="1" fill-rule="nonzero"/><path fill="#02479c" d="M 157.84375 67.636719 C 157.84375 67.429688 157.898438 67.25 158.011719 67.105469 C 158.125 66.960938 158.269531 66.863281 158.457031 66.816406 C 158.507812 66.707031 158.59375 66.5625 158.703125 66.382812 C 158.816406 66.199219 158.953125 66 159.117188 65.789062 C 159.285156 65.574219 159.472656 65.359375 159.683594 65.144531 C 159.894531 64.929688 160.125 64.734375 160.378906 64.554688 C 160.632812 64.378906 160.910156 64.234375 161.203125 64.121094 C 161.496094 64.011719 161.808594 63.957031 162.136719 63.957031 C 162.417969 63.957031 162.664062 63.988281 162.871094 64.058594 C 163.082031 64.125 163.253906 64.21875 163.390625 64.339844 C 163.523438 64.460938 163.625 64.605469 163.695312 64.773438 C 163.761719 64.941406 163.796875 65.121094 163.796875 65.316406 C 163.796875 65.480469 163.773438 65.636719 163.730469 65.789062 C 163.660156 66.0625 163.535156 66.296875 163.351562 66.503906 C 163.167969 66.707031 162.949219 66.882812 162.699219 67.035156 C 162.453125 67.191406 162.179688 67.316406 161.886719 67.417969 C 161.59375 67.519531 161.300781 67.605469 161.007812 67.671875 C 160.710938 67.742188 160.429688 67.792969 160.160156 67.832031 C 159.886719 67.867188 159.652344 67.894531 159.453125 67.914062 C 159.410156 68 159.371094 68.113281 159.339844 68.246094 C 159.308594 68.378906 159.292969 68.507812 159.292969 68.632812 C 159.292969 68.917969 159.40625 69.132812 159.628906 69.289062 C 159.851562 69.445312 160.160156 69.523438 160.554688 69.523438 C 160.78125 69.523438 161 69.496094 161.207031 69.445312 C 161.414062 69.394531 161.613281 69.328125 161.800781 69.25 C 161.984375 69.167969 162.164062 69.082031 162.328125 68.988281 C 162.492188 68.894531 162.640625 68.800781 162.777344 68.707031 C 162.953125 68.589844 163.117188 68.492188 163.277344 68.410156 C 163.433594 68.332031 163.574219 68.292969 163.695312 68.292969 C 163.816406 68.292969 163.894531 68.324219 163.925781 68.382812 C 163.960938 68.445312 163.976562 68.507812 163.976562 68.574219 C 163.976562 68.613281 163.976562 68.652344 163.976562 68.6875 C 163.972656 68.726562 163.96875 68.757812 163.964844 68.78125 C 163.9375 68.90625 163.890625 69.03125 163.816406 69.160156 C 163.746094 69.285156 163.652344 69.394531 163.542969 69.488281 C 163.039062 69.882812 162.519531 70.167969 161.988281 70.335938 C 161.457031 70.507812 160.890625 70.59375 160.289062 70.59375 C 160.171875 70.59375 160.035156 70.585938 159.878906 70.570312 C 159.71875 70.554688 159.558594 70.527344 159.386719 70.484375 C 159.21875 70.4375 159.050781 70.375 158.886719 70.292969 C 158.71875 70.210938 158.574219 70.101562 158.445312 69.964844 C 158.316406 69.832031 158.210938 69.664062 158.132812 69.464844 C 158.054688 69.265625 158.011719 69.023438 158.011719 68.746094 C 158.011719 68.515625 158.042969 68.261719 158.109375 67.980469 C 158.042969 67.972656 157.984375 67.9375 157.929688 67.882812 C 157.875 67.824219 157.84375 67.746094 157.84375 67.636719 Z M 162.398438 65.621094 C 162.410156 65.597656 162.414062 65.574219 162.414062 65.554688 C 162.414062 65.535156 162.414062 65.515625 162.414062 65.488281 C 162.414062 65.359375 162.367188 65.261719 162.269531 65.195312 C 162.171875 65.128906 162.054688 65.097656 161.917969 65.097656 C 161.707031 65.097656 161.496094 65.152344 161.289062 65.265625 C 161.085938 65.375 160.890625 65.515625 160.707031 65.683594 C 160.527344 65.851562 160.367188 66.03125 160.226562 66.222656 C 160.085938 66.414062 159.976562 66.585938 159.898438 66.742188 C 160.246094 66.714844 160.566406 66.667969 160.859375 66.601562 C 161.148438 66.535156 161.402344 66.453125 161.617188 66.351562 C 161.832031 66.253906 162.007812 66.144531 162.144531 66.019531 C 162.273438 65.894531 162.359375 65.761719 162.398438 65.621094 Z M 162.398438 65.621094 " fill-opacity="1" fill-rule="nonzero"/><path fill="#02479c" d="M 165.484375 69.160156 C 165.523438 69.160156 165.558594 69.164062 165.589844 69.171875 C 165.621094 69.183594 165.65625 69.195312 165.695312 69.207031 C 165.734375 69.21875 165.777344 69.230469 165.824219 69.238281 C 165.875 69.25 165.9375 69.253906 166.015625 69.253906 C 166.242188 69.253906 166.496094 69.230469 166.773438 69.183594 C 167.054688 69.132812 167.316406 69.070312 167.5625 68.992188 C 167.8125 68.914062 168.023438 68.824219 168.199219 68.726562 C 168.378906 68.628906 168.480469 68.527344 168.503906 68.417969 C 168.519531 68.359375 168.523438 68.308594 168.523438 68.265625 C 168.523438 68.183594 168.484375 68.105469 168.40625 68.027344 C 168.324219 67.953125 168.222656 67.882812 168.101562 67.8125 C 167.980469 67.746094 167.851562 67.683594 167.710938 67.625 C 167.570312 67.566406 167.4375 67.511719 167.316406 67.464844 L 167.070312 67.363281 C 166.945312 67.3125 166.820312 67.253906 166.699219 67.183594 C 166.578125 67.113281 166.464844 67.03125 166.359375 66.941406 C 166.257812 66.847656 166.164062 66.742188 166.085938 66.617188 C 166.003906 66.492188 165.945312 66.351562 165.90625 66.191406 C 165.886719 66.125 165.871094 66.054688 165.859375 65.988281 C 165.847656 65.917969 165.839844 65.847656 165.839844 65.769531 C 165.839844 65.644531 165.882812 65.5 165.96875 65.335938 C 166.054688 65.171875 166.167969 65.011719 166.3125 64.851562 C 166.453125 64.691406 166.617188 64.539062 166.796875 64.394531 C 166.980469 64.25 167.167969 64.125 167.371094 64.03125 C 167.515625 63.929688 167.65625 63.835938 167.792969 63.753906 C 167.925781 63.671875 168.066406 63.601562 168.203125 63.542969 C 168.339844 63.484375 168.480469 63.4375 168.625 63.40625 C 168.769531 63.371094 168.917969 63.351562 169.078125 63.351562 C 169.222656 63.351562 169.382812 63.359375 169.550781 63.375 C 169.722656 63.390625 169.875 63.421875 170.015625 63.476562 C 170.15625 63.53125 170.277344 63.609375 170.371094 63.714844 C 170.464844 63.816406 170.511719 63.957031 170.511719 64.132812 C 170.511719 64.183594 170.503906 64.253906 170.488281 64.34375 C 170.472656 64.429688 170.449219 64.515625 170.417969 64.605469 C 170.382812 64.691406 170.339844 64.765625 170.292969 64.832031 C 170.246094 64.894531 170.1875 64.925781 170.117188 64.925781 C 170.007812 64.925781 169.914062 64.902344 169.84375 64.859375 C 169.769531 64.816406 169.703125 64.765625 169.644531 64.714844 C 169.585938 64.664062 169.527344 64.617188 169.464844 64.574219 C 169.398438 64.53125 169.324219 64.507812 169.230469 64.507812 C 169.121094 64.507812 168.988281 64.527344 168.84375 64.570312 C 168.695312 64.613281 168.542969 64.664062 168.386719 64.738281 C 168.230469 64.808594 168.082031 64.890625 167.933594 64.980469 C 167.785156 65.074219 167.652344 65.167969 167.535156 65.265625 C 167.414062 65.363281 167.320312 65.457031 167.246094 65.550781 C 167.175781 65.648438 167.136719 65.734375 167.136719 65.8125 C 167.136719 65.894531 167.164062 65.960938 167.21875 66.015625 C 167.269531 66.070312 167.335938 66.113281 167.421875 66.152344 C 167.527344 66.210938 167.648438 66.269531 167.789062 66.328125 C 167.925781 66.386719 168.066406 66.445312 168.207031 66.503906 C 168.347656 66.5625 168.484375 66.621094 168.617188 66.679688 C 168.75 66.738281 168.867188 66.789062 168.964844 66.839844 C 169.09375 66.90625 169.210938 66.972656 169.316406 67.039062 C 169.417969 67.105469 169.507812 67.175781 169.582031 67.253906 C 169.652344 67.332031 169.710938 67.417969 169.75 67.515625 C 169.785156 67.613281 169.808594 67.726562 169.808594 67.859375 C 169.808594 67.921875 169.800781 67.984375 169.792969 68.046875 C 169.78125 68.109375 169.765625 68.183594 169.75 68.265625 C 169.734375 68.339844 169.707031 68.421875 169.671875 68.519531 C 169.636719 68.617188 169.597656 68.714844 169.554688 68.808594 C 169.515625 68.902344 169.472656 68.988281 169.429688 69.0625 C 169.382812 69.136719 169.347656 69.1875 169.320312 69.210938 C 169.128906 69.386719 168.90625 69.550781 168.648438 69.703125 C 168.394531 69.855469 168.125 69.988281 167.847656 70.101562 C 167.566406 70.21875 167.289062 70.308594 167.007812 70.375 C 166.730469 70.445312 166.476562 70.476562 166.242188 70.476562 C 166.125 70.476562 165.996094 70.453125 165.855469 70.410156 C 165.714844 70.363281 165.585938 70.300781 165.46875 70.226562 C 165.347656 70.152344 165.25 70.066406 165.167969 69.96875 C 165.089844 69.871094 165.046875 69.773438 165.046875 69.675781 C 165.046875 69.628906 165.0625 69.574219 165.09375 69.511719 C 165.121094 69.453125 165.160156 69.398438 165.203125 69.34375 C 165.246094 69.292969 165.292969 69.25 165.34375 69.214844 C 165.394531 69.179688 165.441406 69.160156 165.484375 69.160156 Z M 165.484375 69.160156 " fill-opacity="1" fill-rule="nonzero"/><path fill="#02479c" d="M 171.644531 69.160156 C 171.683594 69.160156 171.71875 69.164062 171.75 69.171875 C 171.78125 69.183594 171.816406 69.195312 171.855469 69.207031 C 171.894531 69.21875 171.9375 69.230469 171.988281 69.238281 C 172.035156 69.25 172.097656 69.253906 172.175781 69.253906 C 172.402344 69.253906 172.65625 69.230469 172.9375 69.183594 C 173.214844 69.132812 173.480469 69.070312 173.726562 68.992188 C 173.972656 68.914062 174.183594 68.824219 174.363281 68.726562 C 174.539062 68.628906 174.640625 68.527344 174.664062 68.417969 C 174.679688 68.359375 174.6875 68.308594 174.6875 68.265625 C 174.6875 68.183594 174.648438 68.105469 174.566406 68.027344 C 174.488281 67.953125 174.386719 67.882812 174.265625 67.8125 C 174.144531 67.746094 174.011719 67.683594 173.871094 67.625 C 173.730469 67.566406 173.601562 67.511719 173.480469 67.464844 L 173.230469 67.363281 C 173.105469 67.3125 172.980469 67.253906 172.859375 67.183594 C 172.738281 67.113281 172.628906 67.03125 172.523438 66.941406 C 172.417969 66.847656 172.324219 66.742188 172.246094 66.617188 C 172.167969 66.492188 172.105469 66.351562 172.066406 66.191406 C 172.050781 66.125 172.03125 66.054688 172.019531 65.988281 C 172.007812 65.917969 172.003906 65.847656 172.003906 65.769531 C 172.003906 65.644531 172.046875 65.5 172.128906 65.335938 C 172.214844 65.171875 172.328125 65.011719 172.472656 64.851562 C 172.617188 64.691406 172.777344 64.539062 172.960938 64.394531 C 173.140625 64.25 173.332031 64.125 173.53125 64.03125 C 173.675781 63.929688 173.816406 63.835938 173.953125 63.753906 C 174.089844 63.671875 174.226562 63.601562 174.363281 63.542969 C 174.503906 63.484375 174.644531 63.4375 174.785156 63.40625 C 174.929688 63.371094 175.082031 63.351562 175.238281 63.351562 C 175.386719 63.351562 175.542969 63.359375 175.714844 63.375 C 175.882812 63.390625 176.039062 63.421875 176.179688 63.476562 C 176.320312 63.53125 176.4375 63.609375 176.53125 63.714844 C 176.625 63.816406 176.671875 63.957031 176.671875 64.132812 C 176.671875 64.183594 176.664062 64.253906 176.652344 64.34375 C 176.636719 64.429688 176.613281 64.515625 176.578125 64.605469 C 176.542969 64.691406 176.503906 64.765625 176.453125 64.832031 C 176.40625 64.894531 176.347656 64.925781 176.28125 64.925781 C 176.167969 64.925781 176.074219 64.902344 176.003906 64.859375 C 175.933594 64.816406 175.867188 64.765625 175.808594 64.714844 C 175.75 64.664062 175.6875 64.617188 175.625 64.574219 C 175.5625 64.53125 175.484375 64.507812 175.394531 64.507812 C 175.28125 64.507812 175.152344 64.527344 175.003906 64.570312 C 174.855469 64.613281 174.703125 64.664062 174.550781 64.738281 C 174.394531 64.808594 174.242188 64.890625 174.09375 64.980469 C 173.945312 65.074219 173.8125 65.167969 173.695312 65.265625 C 173.574219 65.363281 173.480469 65.457031 173.40625 65.550781 C 173.335938 65.648438 173.296875 65.734375 173.296875 65.8125 C 173.296875 65.894531 173.324219 65.960938 173.378906 66.015625 C 173.433594 66.070312 173.5 66.113281 173.582031 66.152344 C 173.6875 66.210938 173.8125 66.269531 173.949219 66.328125 C 174.085938 66.386719 174.226562 66.445312 174.367188 66.503906 C 174.507812 66.5625 174.644531 66.621094 174.78125 66.679688 C 174.914062 66.738281 175.027344 66.789062 175.125 66.839844 C 175.253906 66.90625 175.371094 66.972656 175.476562 67.039062 C 175.582031 67.105469 175.671875 67.175781 175.742188 67.253906 C 175.816406 67.332031 175.871094 67.417969 175.910156 67.515625 C 175.949219 67.613281 175.96875 67.726562 175.96875 67.859375 C 175.96875 67.921875 175.964844 67.984375 175.953125 68.046875 C 175.941406 68.109375 175.929688 68.183594 175.910156 68.265625 C 175.894531 68.339844 175.871094 68.421875 175.832031 68.519531 C 175.796875 68.617188 175.757812 68.714844 175.71875 68.808594 C 175.675781 68.902344 175.632812 68.988281 175.589844 69.0625 C 175.546875 69.136719 175.511719 69.1875 175.480469 69.210938 C 175.292969 69.386719 175.070312 69.550781 174.8125 69.703125 C 174.554688 69.855469 174.285156 69.988281 174.007812 70.101562 C 173.726562 70.21875 173.449219 70.308594 173.171875 70.375 C 172.890625 70.445312 172.636719 70.476562 172.402344 70.476562 C 172.289062 70.476562 172.160156 70.453125 172.019531 70.410156 C 171.878906 70.363281 171.746094 70.300781 171.628906 70.226562 C 171.511719 70.152344 171.410156 70.066406 171.332031 69.96875 C 171.25 69.871094 171.210938 69.773438 171.210938 69.675781 C 171.210938 69.628906 171.226562 69.574219 171.253906 69.511719 C 171.285156 69.453125 171.320312 69.398438 171.363281 69.34375 C 171.40625 69.292969 171.453125 69.25 171.503906 69.214844 C 171.554688 69.179688 171.601562 69.160156 171.644531 69.160156 Z M 171.644531 69.160156 " fill-opacity="1" fill-rule="nonzero"/><path fill="#02479c" d="M 177.703125 67.660156 C 177.777344 67.363281 177.890625 67.050781 178.042969 66.71875 C 178.195312 66.386719 178.394531 66.050781 178.640625 65.710938 C 178.890625 65.371094 179.1875 65.039062 179.53125 64.714844 C 179.878906 64.390625 180.28125 64.085938 180.738281 63.804688 C 180.808594 63.761719 180.921875 63.714844 181.070312 63.664062 C 181.222656 63.609375 181.378906 63.582031 181.539062 63.570312 C 181.726562 63.367188 181.980469 63.265625 182.300781 63.265625 C 182.679688 63.265625 183 63.359375 183.257812 63.554688 C 183.515625 63.746094 183.730469 64.003906 183.902344 64.335938 C 183.957031 64.441406 184.003906 64.546875 184.050781 64.648438 C 184.097656 64.75 184.136719 64.859375 184.167969 64.972656 C 184.199219 65.085938 184.226562 65.207031 184.242188 65.339844 C 184.261719 65.46875 184.273438 65.617188 184.273438 65.78125 C 184.273438 66.167969 184.210938 66.554688 184.089844 66.953125 C 183.96875 67.351562 183.796875 67.742188 183.574219 68.117188 C 183.351562 68.496094 183.082031 68.859375 182.761719 69.207031 C 182.445312 69.550781 182.09375 69.863281 181.703125 70.140625 C 181.441406 70.332031 181.152344 70.476562 180.835938 70.582031 C 180.515625 70.6875 180.164062 70.738281 179.769531 70.738281 C 179.394531 70.738281 179.070312 70.6875 178.796875 70.589844 C 178.523438 70.492188 178.296875 70.347656 178.113281 70.164062 C 177.933594 69.980469 177.796875 69.757812 177.707031 69.5 C 177.617188 69.242188 177.574219 68.957031 177.574219 68.644531 C 177.574219 68.335938 177.617188 68.007812 177.703125 67.660156 Z M 178.910156 67.753906 C 178.882812 67.867188 178.863281 67.972656 178.851562 68.070312 C 178.839844 68.167969 178.832031 68.265625 178.832031 68.359375 C 178.832031 68.519531 178.851562 68.667969 178.894531 68.804688 C 178.933594 68.945312 179 69.0625 179.09375 69.160156 C 179.1875 69.261719 179.300781 69.339844 179.4375 69.394531 C 179.578125 69.449219 179.746094 69.476562 179.945312 69.476562 C 180.3125 69.476562 180.65625 69.386719 180.972656 69.199219 C 181.292969 69.011719 181.574219 68.777344 181.820312 68.496094 C 182.070312 68.214844 182.277344 67.914062 182.445312 67.589844 C 182.609375 67.265625 182.730469 66.96875 182.796875 66.699219 C 182.839844 66.527344 182.878906 66.367188 182.910156 66.21875 C 182.941406 66.066406 182.957031 65.929688 182.957031 65.804688 C 182.957031 65.675781 182.933594 65.558594 182.886719 65.449219 C 182.839844 65.339844 182.78125 65.21875 182.710938 65.082031 C 182.664062 65 182.621094 64.914062 182.578125 64.824219 C 182.535156 64.734375 182.496094 64.644531 182.460938 64.558594 C 182.425781 64.625 182.382812 64.6875 182.339844 64.734375 C 182.296875 64.789062 182.230469 64.832031 182.140625 64.875 C 182.054688 64.917969 181.9375 64.953125 181.785156 64.988281 C 181.636719 65.023438 181.4375 65.050781 181.195312 65.074219 C 181.035156 65.128906 180.875 65.210938 180.707031 65.320312 C 180.542969 65.433594 180.382812 65.5625 180.226562 65.714844 C 180.066406 65.867188 179.917969 66.027344 179.773438 66.203125 C 179.632812 66.375 179.503906 66.554688 179.386719 66.738281 C 179.273438 66.917969 179.175781 67.097656 179.089844 67.273438 C 179.007812 67.449219 178.945312 67.609375 178.910156 67.753906 Z M 178.910156 67.753906 " fill-opacity="1" fill-rule="nonzero"/><path fill="#02479c" d="M 190.675781 64.472656 C 190.503906 64.472656 190.324219 64.511719 190.128906 64.59375 C 189.9375 64.671875 189.734375 64.78125 189.527344 64.917969 C 189.316406 65.050781 189.105469 65.207031 188.890625 65.378906 C 188.675781 65.550781 188.460938 65.730469 188.253906 65.914062 C 188.148438 66.003906 188.046875 66.089844 187.949219 66.164062 C 187.851562 66.238281 187.753906 66.296875 187.65625 66.335938 C 187.589844 66.445312 187.519531 66.59375 187.441406 66.773438 C 187.367188 66.957031 187.292969 67.15625 187.222656 67.371094 C 187.148438 67.585938 187.078125 67.808594 187.011719 68.035156 C 186.949219 68.257812 186.894531 68.46875 186.847656 68.664062 C 186.824219 68.765625 186.804688 68.863281 186.789062 68.960938 C 186.777344 69.058594 186.757812 69.160156 186.738281 69.273438 C 186.71875 69.382812 186.695312 69.5 186.671875 69.625 C 186.644531 69.75 186.609375 69.890625 186.570312 70.046875 C 186.546875 70.140625 186.507812 70.214844 186.457031 70.269531 C 186.402344 70.324219 186.347656 70.367188 186.289062 70.394531 C 186.230469 70.425781 186.175781 70.445312 186.121094 70.449219 C 186.066406 70.457031 186.027344 70.460938 185.996094 70.460938 C 185.8125 70.460938 185.664062 70.417969 185.546875 70.332031 C 185.429688 70.242188 185.371094 70.074219 185.371094 69.820312 C 185.371094 69.753906 185.375 69.679688 185.378906 69.605469 C 185.382812 69.53125 185.398438 69.445312 185.421875 69.355469 C 185.53125 68.894531 185.632812 68.480469 185.730469 68.109375 C 185.832031 67.742188 185.929688 67.398438 186.035156 67.085938 C 186.136719 66.769531 186.238281 66.472656 186.34375 66.191406 C 186.449219 65.914062 186.554688 65.632812 186.664062 65.347656 C 186.773438 65.066406 186.886719 64.773438 187.007812 64.46875 C 187.125 64.164062 187.253906 63.828125 187.386719 63.460938 C 187.417969 63.378906 187.492188 63.308594 187.617188 63.253906 C 187.742188 63.199219 187.875 63.171875 188.015625 63.171875 C 188.199219 63.171875 188.351562 63.210938 188.46875 63.292969 C 188.585938 63.375 188.644531 63.496094 188.644531 63.648438 C 188.644531 63.664062 188.640625 63.691406 188.632812 63.730469 C 188.621094 63.769531 188.605469 63.808594 188.585938 63.855469 L 188.265625 64.609375 C 188.472656 64.449219 188.683594 64.289062 188.902344 64.128906 C 189.125 63.96875 189.351562 63.824219 189.582031 63.695312 C 189.816406 63.566406 190.050781 63.464844 190.285156 63.382812 C 190.519531 63.304688 190.753906 63.261719 190.980469 63.261719 C 191.445312 63.261719 191.808594 63.386719 192.070312 63.636719 C 192.332031 63.886719 192.464844 64.273438 192.464844 64.800781 C 192.464844 65.097656 192.414062 65.441406 192.308594 65.824219 C 192.203125 66.207031 192.074219 66.621094 191.914062 67.058594 C 191.757812 67.496094 191.585938 67.957031 191.40625 68.441406 C 191.222656 68.921875 191.054688 69.414062 190.902344 69.914062 C 190.855469 70.050781 190.8125 70.164062 190.765625 70.257812 C 190.71875 70.347656 190.664062 70.421875 190.601562 70.480469 C 190.539062 70.535156 190.464844 70.574219 190.378906 70.597656 C 190.296875 70.621094 190.191406 70.636719 190.070312 70.636719 C 189.878906 70.636719 189.75 70.597656 189.675781 70.53125 C 189.605469 70.460938 189.566406 70.347656 189.566406 70.191406 C 189.566406 70.054688 189.589844 69.890625 189.628906 69.695312 C 189.671875 69.496094 189.730469 69.28125 189.804688 69.046875 C 189.878906 68.808594 189.964844 68.558594 190.066406 68.292969 C 190.164062 68.027344 190.273438 67.753906 190.390625 67.476562 C 190.480469 67.253906 190.574219 67.03125 190.664062 66.808594 C 190.75 66.585938 190.832031 66.367188 190.902344 66.160156 C 190.972656 65.953125 191.03125 65.753906 191.074219 65.5625 C 191.117188 65.375 191.140625 65.199219 191.140625 65.039062 C 191.140625 64.886719 191.105469 64.757812 191.042969 64.640625 C 190.976562 64.527344 190.855469 64.472656 190.675781 64.472656 Z M 190.675781 64.472656 " fill-opacity="1" fill-rule="nonzero"/><path fill="#02479c" d="M 204.351562 61.25 C 204.214844 61.292969 203.953125 61.386719 203.558594 61.539062 C 202.699219 61.863281 202.160156 62.027344 201.941406 62.027344 C 201.792969 62.027344 201.675781 61.980469 201.597656 61.890625 C 201.519531 61.800781 201.476562 61.695312 201.476562 61.574219 C 201.476562 61.238281 201.628906 60.980469 201.9375 60.804688 C 202.242188 60.628906 202.875 60.421875 203.839844 60.183594 C 204.804688 59.941406 205.386719 59.824219 205.585938 59.824219 C 205.886719 59.824219 206.039062 59.960938 206.039062 60.238281 C 206.039062 60.4375 205.933594 60.714844 205.726562 61.074219 C 205.230469 61.917969 204.632812 63.308594 203.929688 65.246094 C 203.226562 67.1875 202.789062 68.75 202.625 69.9375 C 202.601562 70.121094 202.519531 70.261719 202.375 70.359375 C 202.230469 70.457031 202.066406 70.503906 201.878906 70.503906 C 201.449219 70.503906 201.238281 70.3125 201.238281 69.921875 C 201.238281 69.289062 201.589844 67.976562 202.292969 65.984375 C 202.996094 63.996094 203.683594 62.417969 204.351562 61.25 Z M 204.351562 61.25 " fill-opacity="1" fill-rule="nonzero"/></svg>