<svg xmlns="http://www.w3.org/2000/svg" xmlns:xlink="http://www.w3.org/1999/xlink" width="500" zoomAndPan="magnify" viewBox="0 0 375 374.999991" height="500" preserveAspectRatio="xMidYMid meet" version="1.0"><defs><filter x="0%" y="0%" width="100%" height="100%" id="id1"><feColorMatrix values="0 0 0 0 1 0 0 0 0 1 0 0 0 0 1 0 0 0 1 0" color-interpolation-filters="sRGB"/></filter><clipPath id="id2"><path d="M 217 179 L 260.863281 179 L 260.863281 226 L 217 226 Z M 217 179 " clip-rule="nonzero"/></clipPath><clipPath id="id3"><path d="M 118 112.5 L 221 112.5 L 221 182 L 118 182 Z M 118 112.5 " clip-rule="nonzero"/></clipPath><clipPath id="id4"><path d="M 201 224 L 212 224 L 212 262.5 L 201 262.5 Z M 201 224 " clip-rule="nonzero"/></clipPath><clipPath id="id5"><path d="M 231 224 L 241 224 L 241 262.5 L 231 262.5 Z M 231 224 " clip-rule="nonzero"/></clipPath><clipPath id="id6"><path d="M 245 224 L 256 224 L 256 262.5 L 245 262.5 Z M 245 224 " clip-rule="nonzero"/></clipPath><clipPath id="id7"><path d="M 201 224 L 212 224 L 212 262.5 L 201 262.5 Z M 201 224 " clip-rule="nonzero"/></clipPath><clipPath id="id8"><path d="M 231 224 L 241 224 L 241 262.5 L 231 262.5 Z M 231 224 " clip-rule="nonzero"/></clipPath><clipPath id="id9"><path d="M 245 224 L 256 224 L 256 262.5 L 245 262.5 Z M 245 224 " clip-rule="nonzero"/></clipPath><clipPath id="id10"><path d="M 201 224 L 257 224 L 257 262.5 L 201 262.5 Z M 201 224 " clip-rule="nonzero"/></clipPath><mask id="id11"><g filter="url(#id1)"><rect x="-37.5" width="450" fill="#000000" y="-37.499999" height="449.999989" fill-opacity="0.3098"/></g></mask><clipPath id="id12"><path d="M 0.121094 0.398438 L 11 0.398438 L 11 38.5 L 0.121094 38.5 Z M 0.121094 0.398438 " clip-rule="nonzero"/></clipPath><clipPath id="id13"><path d="M 30 0.398438 L 40 0.398438 L 40 38.5 L 30 38.5 Z M 30 0.398438 " clip-rule="nonzero"/></clipPath><clipPath id="id14"><path d="M 44 0.398438 L 55 0.398438 L 55 38.5 L 44 38.5 Z M 44 0.398438 " clip-rule="nonzero"/></clipPath><clipPath id="id15"><rect x="0" width="56" y="0" height="39"/></clipPath><clipPath id="id16"><path d="M 209.464844 253 L 216 253 L 216 257.246094 L 209.464844 257.246094 Z M 209.464844 253 " clip-rule="nonzero"/></clipPath><clipPath id="id17"><path d="M 220.761719 246.640625 C 220.761719 246.640625 218.988281 249.492188 216.609375 247.828125 L 209.894531 257.242188 L 224.070312 250.054688 Z M 220.761719 246.640625 " clip-rule="nonzero"/></clipPath><clipPath id="id18"><path d="M 199.144531 256 L 205 256 L 205 259.828125 L 199.144531 259.828125 Z M 199.144531 256 " clip-rule="nonzero"/></clipPath><clipPath id="id19"><path d="M 213.652344 254.878906 C 213.652344 254.878906 210.824219 256.683594 209.394531 254.152344 L 199.277344 259.734375 L 215.164062 259.390625 Z M 213.652344 254.878906 " clip-rule="nonzero"/></clipPath><mask id="id20"><g filter="url(#id1)"><rect x="-37.5" width="450" fill="#000000" y="-37.499999" height="449.999989" fill-opacity="0.2667"/></g></mask><clipPath id="id21"><path d="M 0.121094 0.238281 L 69.480469 0.238281 L 69.480469 3.359375 L 0.121094 3.359375 Z M 0.121094 0.238281 " clip-rule="nonzero"/></clipPath><clipPath id="id22"><rect x="0" width="70" y="0" height="4"/></clipPath><clipPath id="id23"><path d="M 187 207 L 191 207 L 191 262.5 L 187 262.5 Z M 187 207 " clip-rule="nonzero"/></clipPath><clipPath id="id24"><path d="M 243 207 L 248 207 L 248 262.5 L 243 262.5 Z M 243 207 " clip-rule="nonzero"/></clipPath></defs><g clip-path="url(#id2)"><path fill="#fbc650" d="M 230.140625 179.492188 L 254.332031 179.492188 C 258.070312 179.492188 260.863281 182.609375 260.097656 185.933594 L 252.367188 219.433594 L 252.367188 222.289062 C 252.367188 224.035156 250.804688 225.453125 248.878906 225.453125 L 217.726562 225.453125 L 217.726562 213.375 L 239.246094 211.859375 Z M 230.140625 179.492188 " fill-opacity="1" fill-rule="nonzero"/></g><path fill="#f2f2f2" d="M 237.75 189.589844 L 241.46875 203.820312 C 241.789062 205.402344 243.398438 206.371094 244.945312 205.90625 C 246.234375 205.519531 247.050781 204.25 246.875 202.914062 L 244.746094 191.074219 Z M 237.75 189.589844 " fill-opacity="1" fill-rule="nonzero"/><g clip-path="url(#id3)"><path fill="#2153aa" d="M 118.804688 112.5 L 220.027344 112.5 L 220.027344 181.789062 L 118.804688 181.789062 Z M 118.804688 112.5 " fill-opacity="1" fill-rule="nonzero"/></g><path fill="#fbc650" d="M 218.144531 114.386719 L 218.144531 179.90625 L 120.6875 179.90625 L 120.6875 114.386719 Z M 218.144531 114.386719 " fill-opacity="1" fill-rule="nonzero"/><path fill="#2153aa" d="M 153.371094 257.007812 L 157.277344 258.894531 C 157.691406 259.09375 157.941406 259.550781 157.8125 259.984375 C 157.710938 260.324219 157.375 260.585938 156.507812 260.601562 C 154.578125 260.636719 146.03125 259.386719 146.03125 259.386719 L 146.03125 260.265625 L 142.0625 259.824219 C 142.0625 259.824219 141.785156 255.394531 142.996094 254.746094 Z M 153.371094 257.007812 " fill-opacity="1" fill-rule="nonzero"/><path fill="#f2f2f2" d="M 148.136719 253.265625 L 153.371094 257.007812 C 153.371094 257.007812 152.695312 258.703125 149.714844 257.574219 C 146.730469 256.445312 142.996094 254.746094 142.996094 254.746094 L 143.371094 252.222656 Z M 148.136719 253.265625 " fill-opacity="1" fill-rule="nonzero"/><path fill="#f2f2f2" d="M 143.351562 252.789062 L 143.847656 239.203125 L 150.339844 238.835938 L 149.277344 255.015625 Z M 143.351562 252.789062 " fill-opacity="1" fill-rule="nonzero"/><path fill="#2153aa" d="M 134 257.007812 L 137.90625 258.894531 C 138.320312 259.09375 138.570312 259.550781 138.441406 259.984375 C 138.339844 260.324219 138.007812 260.585938 137.136719 260.601562 C 135.207031 260.636719 126.660156 259.386719 126.660156 259.386719 L 126.660156 260.265625 L 122.691406 259.824219 C 122.691406 259.824219 122.414062 255.394531 123.625 254.746094 Z M 134 257.007812 " fill-opacity="1" fill-rule="nonzero"/><path fill="#f2f2f2" d="M 128.765625 253.265625 L 134 257.007812 C 134 257.007812 133.324219 258.703125 130.34375 257.574219 C 127.359375 256.445312 123.625 254.746094 123.625 254.746094 L 124 252.222656 Z M 128.765625 253.265625 " fill-opacity="1" fill-rule="nonzero"/><path fill="#f2f2f2" d="M 123.980469 252.789062 L 124.476562 239.203125 L 130.96875 238.835938 L 129.90625 255.015625 Z M 123.980469 252.789062 " fill-opacity="1" fill-rule="nonzero"/><path fill="#2153aa" d="M 138.988281 122.480469 C 138.699219 122.472656 138.09375 123.25 137.914062 123.476562 C 137.496094 123.996094 137.078125 124.515625 136.730469 125.085938 C 135.375 127.308594 135.320312 129.777344 135.148438 132.296875 C 134.976562 134.796875 134.605469 137.332031 133.496094 139.578125 C 132.953125 140.675781 132.238281 141.695312 131.792969 142.835938 C 131.347656 143.980469 131.203125 145.328125 131.804688 146.398438 C 131.859375 146.496094 131.921875 146.59375 132.023438 146.652344 C 134.882812 148.289062 138.496094 148.796875 141.707031 148.0625 C 142.597656 147.859375 143.480469 147.582031 144.261719 147.109375 C 146.484375 145.777344 147.550781 143.074219 147.769531 140.488281 C 147.984375 137.902344 147.507812 135.3125 147.402344 132.71875 C 147.324219 130.828125 147.425781 128.84375 146.589844 127.144531 C 146.207031 126.367188 145.644531 125.691406 145.085938 125.027344 C 144.5 124.324219 143.898438 123.609375 143.105469 123.148438 C 141.96875 122.484375 140.308594 122.519531 138.988281 122.480469 Z M 138.988281 122.480469 " fill-opacity="1" fill-rule="nonzero"/><path fill="#446bc6" d="M 152.550781 170.414062 C 152.550781 170.414062 154.726562 171.820312 155.121094 183.578125 C 155.199219 185.996094 155.152344 189.351562 155 191.765625 L 151.398438 248.839844 L 141.816406 248.839844 L 143.75 187.5 L 131.503906 248.839844 L 122.175781 248.574219 L 132.675781 170.414062 L 142.101562 169.261719 Z M 152.550781 170.414062 " fill-opacity="1" fill-rule="nonzero"/><path fill="#2153aa" d="M 143.382812 187.640625 C 143.316406 187.640625 143.257812 187.59375 143.246094 187.523438 C 143.234375 187.449219 143.285156 187.378906 143.359375 187.367188 L 148.847656 186.453125 C 148.921875 186.445312 148.996094 186.492188 149.007812 186.566406 C 149.019531 186.640625 148.96875 186.714844 148.894531 186.726562 L 143.40625 187.636719 C 143.398438 187.640625 143.390625 187.640625 143.382812 187.640625 Z M 143.382812 187.640625 " fill-opacity="1" fill-rule="nonzero"/><path fill="#f2f2f2" d="M 158.636719 172.9375 L 174.027344 157.335938 L 172.320312 154.800781 C 172.320312 154.800781 161.332031 162.53125 154.3125 168.085938 C 153.199219 168.96875 153.882812 171.640625 154.847656 172.683594 C 155.753906 173.65625 157.660156 173.84375 158.636719 172.9375 Z M 158.636719 172.9375 " fill-opacity="1" fill-rule="nonzero"/><path fill="#f2f2f2" d="M 172.628906 157.765625 C 172.628906 157.765625 175.28125 157.972656 177.148438 155.839844 L 179.816406 155.097656 C 180.234375 154.984375 180.488281 154.582031 180.421875 154.15625 C 180.347656 153.699219 179.917969 153.371094 179.453125 153.417969 L 177.785156 153.589844 L 178.246094 153.242188 C 178.976562 152.691406 179.878906 152.40625 180.8125 152.429688 L 183.460938 152.503906 C 183.761719 152.511719 184.039062 152.355469 184.183594 152.097656 C 184.464844 151.601562 184.144531 150.972656 183.566406 150.882812 L 180.097656 150.355469 C 178.753906 150.152344 177.398438 150.527344 176.382812 151.386719 L 170.917969 156 Z M 172.628906 157.765625 " fill-opacity="1" fill-rule="nonzero"/><path fill="#f2f2f2" d="M 149.589844 150.714844 C 149.589844 150.714844 150.914062 162.34375 153.640625 171.207031 C 153.96875 172.273438 156.011719 173.714844 157.121094 173.789062 C 158.800781 173.898438 160.167969 172.457031 159.972656 170.785156 L 156.644531 150.03125 Z M 149.589844 150.714844 " fill-opacity="1" fill-rule="nonzero"/><path fill="#ea7630" d="M 152.761719 143.484375 C 152.761719 143.484375 158.402344 146.851562 159.496094 155.972656 L 151.445312 160.40625 Z M 152.761719 143.484375 " fill-opacity="1" fill-rule="nonzero"/><path fill="#ea7630" d="M 151.445312 160.40625 L 160.585938 157.667969 L 159.804688 155.105469 L 151.652344 157.300781 Z M 151.445312 160.40625 " fill-opacity="1" fill-rule="nonzero"/><path fill="#ea7630" d="M 141.988281 140.636719 C 139.210938 140.875 136.472656 141.484375 133.882812 142.523438 C 133.25 142.777344 132.625 143.054688 132.054688 143.355469 C 130.257812 144.296875 130.792969 146.332031 131.019531 148.414062 L 132.078125 176.53125 L 154.722656 175.953125 L 155.621094 149.339844 C 155.820312 146.441406 154.105469 143.777344 151.460938 142.84375 C 148.496094 141.792969 144.875 140.621094 143.296875 140.527344 Z M 141.988281 140.636719 " fill-opacity="1" fill-rule="nonzero"/><path fill="#2153aa" d="M 154.960938 159.132812 C 154.957031 159.132812 154.953125 159.132812 154.949219 159.132812 C 154.875 159.125 154.816406 159.058594 154.820312 158.984375 L 155.386719 150.75 C 155.390625 150.675781 155.457031 150.621094 155.53125 150.621094 C 155.609375 150.625 155.664062 150.691406 155.660156 150.769531 L 155.097656 159.003906 C 155.089844 159.074219 155.03125 159.132812 154.960938 159.132812 Z M 154.960938 159.132812 " fill-opacity="1" fill-rule="nonzero"/><path fill="#ea7630" d="M 150.125 142.378906 C 150.125 142.378906 145.957031 140.742188 143.296875 140.523438 C 143.296875 140.523438 139.660156 140.679688 137.164062 141.453125 C 137.164062 141.453125 138.546875 144.414062 144.929688 144.898438 C 151.3125 145.386719 150.125 142.378906 150.125 142.378906 Z M 150.125 142.378906 " fill-opacity="1" fill-rule="nonzero"/><path fill="#f2f2f2" d="M 119.429688 156.582031 L 130.078125 172.875 L 127.210938 176.136719 L 115.457031 164.167969 Z M 119.429688 156.582031 " fill-opacity="1" fill-rule="nonzero"/><path fill="#f2f2f2" d="M 139.863281 173.617188 L 135.308594 171.210938 L 135.753906 170.171875 C 135.917969 169.792969 135.816406 169.347656 135.507812 169.085938 C 135.191406 168.816406 134.734375 168.808594 134.410156 169.066406 L 129.921875 172.726562 L 127.210938 176.136719 C 129.671875 178.324219 131.28125 178.296875 132.207031 177.875 C 132.3125 177.910156 132.421875 177.953125 132.53125 177.984375 L 136.316406 179.113281 C 136.667969 179.269531 137.074219 179.117188 137.246094 178.761719 C 137.371094 178.507812 137.414062 178.09375 136.683594 177.710938 L 137.414062 178.09375 C 137.785156 178.261719 138.214844 178.09375 138.386719 177.714844 C 138.550781 177.378906 138.351562 176.9375 137.921875 176.648438 L 138.480469 176.875 C 138.882812 177.058594 139.359375 176.851562 139.511719 176.40625 C 139.640625 176.019531 139.445312 175.59375 139.09375 175.410156 L 138.289062 174.988281 L 139.246094 175.226562 C 139.6875 175.390625 140.175781 175.144531 140.320312 174.664062 C 140.445312 174.253906 140.230469 173.8125 139.863281 173.617188 Z M 139.863281 173.617188 " fill-opacity="1" fill-rule="nonzero"/><path fill="#2153aa" d="M 138.53125 175.195312 C 138.519531 175.195312 138.503906 175.191406 138.492188 175.1875 L 135.800781 173.867188 C 135.757812 173.84375 135.738281 173.789062 135.757812 173.746094 C 135.78125 173.703125 135.835938 173.683594 135.878906 173.703125 L 138.570312 175.027344 C 138.617188 175.046875 138.632812 175.101562 138.613281 175.144531 C 138.597656 175.179688 138.566406 175.195312 138.53125 175.195312 Z M 138.53125 175.195312 " fill-opacity="1" fill-rule="nonzero"/><path fill="#2153aa" d="M 137.808594 176.6875 C 137.796875 176.6875 137.785156 176.6875 137.773438 176.679688 L 135.175781 175.558594 C 135.128906 175.539062 135.109375 175.484375 135.128906 175.441406 C 135.148438 175.394531 135.203125 175.375 135.246094 175.394531 L 137.84375 176.515625 C 137.890625 176.535156 137.910156 176.589844 137.890625 176.636719 C 137.875 176.667969 137.84375 176.6875 137.808594 176.6875 Z M 137.808594 176.6875 " fill-opacity="1" fill-rule="nonzero"/><path fill="#2153aa" d="M 136.925781 177.898438 C 136.914062 177.898438 136.902344 177.898438 136.890625 177.894531 L 134.691406 176.992188 C 134.648438 176.972656 134.625 176.921875 134.644531 176.875 C 134.664062 176.828125 134.714844 176.808594 134.761719 176.824219 L 136.960938 177.726562 C 137.003906 177.746094 137.027344 177.796875 137.007812 177.84375 C 136.996094 177.878906 136.960938 177.898438 136.925781 177.898438 Z M 136.925781 177.898438 " fill-opacity="1" fill-rule="nonzero"/><path fill="#f2f2f2" d="M 134.367188 152.09375 L 120.824219 164.230469 C 119.558594 165.558594 117.566406 165.761719 116.078125 164.714844 C 114.199219 163.394531 113.878906 160.65625 115.394531 158.90625 L 128.128906 145.976562 C 129.648438 144.21875 132.226562 144.003906 134 145.484375 C 135.984375 147.136719 136.152344 150.214844 134.367188 152.09375 Z M 134.367188 152.09375 " fill-opacity="1" fill-rule="nonzero"/><path fill="#ea7630" d="M 134.664062 142.222656 C 134.664062 142.222656 129.222656 143.324219 122.472656 151.71875 L 128.253906 159.492188 L 137.066406 152.933594 Z M 134.664062 142.222656 " fill-opacity="1" fill-rule="nonzero"/><path fill="#ea7630" d="M 128.085938 159.609375 L 130.433594 157.863281 L 124.101562 149.078125 L 121.699219 150.855469 Z M 128.085938 159.609375 " fill-opacity="1" fill-rule="nonzero"/><path fill="#2153aa" d="M 131.246094 157.402344 C 131.203125 157.402344 131.164062 157.382812 131.136719 157.347656 C 131.089844 157.289062 131.101562 157.199219 131.164062 157.15625 L 136.273438 153.351562 C 136.335938 153.308594 136.421875 153.320312 136.46875 153.378906 C 136.511719 153.441406 136.5 153.527344 136.4375 153.574219 L 131.328125 157.375 C 131.304688 157.394531 131.273438 157.402344 131.246094 157.402344 Z M 131.246094 157.402344 " fill-opacity="1" fill-rule="nonzero"/><path fill="#2153aa" d="M 144.15625 120.597656 C 144.15625 120.597656 149.398438 119.050781 151.941406 121.3125 C 155.660156 124.625 151.0625 127.125 151.0625 127.125 Z M 144.15625 120.597656 " fill-opacity="1" fill-rule="nonzero"/><path fill="#2153aa" d="M 152.136719 127.964844 C 152.15625 128.46875 152.125 128.96875 152.039062 129.464844 C 151.953125 129.960938 151.820312 130.445312 151.636719 130.917969 C 151.453125 131.386719 151.222656 131.839844 150.945312 132.265625 C 150.667969 132.695312 150.351562 133.09375 149.992188 133.460938 C 149.632812 133.832031 149.242188 134.164062 148.816406 134.457031 C 148.386719 134.753906 147.933594 135.007812 147.457031 135.214844 C 146.980469 135.425781 146.484375 135.589844 145.972656 135.707031 C 145.460938 135.824219 144.941406 135.890625 144.417969 135.910156 C 143.890625 135.929688 143.367188 135.898438 142.851562 135.820312 C 142.332031 135.742188 141.824219 135.617188 141.332031 135.441406 C 140.839844 135.265625 140.371094 135.046875 139.921875 134.785156 C 139.476562 134.523438 139.058594 134.21875 138.675781 133.878906 C 138.292969 133.535156 137.945312 133.160156 137.636719 132.753906 C 137.332031 132.347656 137.070312 131.914062 136.851562 131.460938 C 136.632812 131.003906 136.464844 130.53125 136.34375 130.039062 C 136.222656 129.550781 136.152344 129.054688 136.132812 128.554688 C 136.117188 128.050781 136.148438 127.550781 136.234375 127.054688 C 136.316406 126.558594 136.453125 126.074219 136.636719 125.601562 C 136.820312 125.132812 137.050781 124.679688 137.328125 124.253906 C 137.605469 123.824219 137.921875 123.425781 138.28125 123.058594 C 138.640625 122.6875 139.03125 122.355469 139.457031 122.0625 C 139.882812 121.765625 140.335938 121.511719 140.816406 121.304688 C 141.292969 121.09375 141.789062 120.929688 142.300781 120.8125 C 142.8125 120.695312 143.332031 120.628906 143.855469 120.609375 C 144.382812 120.589844 144.902344 120.617188 145.421875 120.699219 C 145.941406 120.777344 146.449219 120.902344 146.941406 121.078125 C 147.433594 121.253906 147.902344 121.472656 148.347656 121.734375 C 148.796875 121.996094 149.210938 122.300781 149.597656 122.640625 C 149.980469 122.984375 150.328125 123.359375 150.632812 123.765625 C 150.941406 124.171875 151.203125 124.605469 151.421875 125.058594 C 151.640625 125.515625 151.808594 125.988281 151.929688 126.480469 C 152.050781 126.96875 152.121094 127.464844 152.136719 127.964844 Z M 152.136719 127.964844 " fill-opacity="1" fill-rule="nonzero"/><path fill="#f2f2f2" d="M 153.792969 130.859375 C 153.792969 131.132812 153.738281 131.398438 153.636719 131.652344 C 153.53125 131.90625 153.378906 132.132812 153.1875 132.324219 C 152.992188 132.519531 152.765625 132.671875 152.511719 132.777344 C 152.257812 132.882812 151.996094 132.933594 151.71875 132.933594 C 151.445312 132.933594 151.179688 132.882812 150.925781 132.777344 C 150.671875 132.671875 150.449219 132.519531 150.253906 132.324219 C 150.0625 132.132812 149.910156 131.90625 149.804688 131.652344 C 149.699219 131.398438 149.648438 131.132812 149.648438 130.859375 C 149.648438 130.582031 149.699219 130.316406 149.804688 130.0625 C 149.910156 129.808594 150.0625 129.585938 150.253906 129.390625 C 150.449219 129.195312 150.671875 129.046875 150.925781 128.941406 C 151.179688 128.835938 151.445312 128.78125 151.71875 128.78125 C 151.996094 128.78125 152.257812 128.835938 152.511719 128.941406 C 152.765625 129.046875 152.992188 129.195312 153.1875 129.390625 C 153.378906 129.585938 153.53125 129.808594 153.636719 130.0625 C 153.738281 130.316406 153.792969 130.582031 153.792969 130.859375 Z M 153.792969 130.859375 " fill-opacity="1" fill-rule="nonzero"/><path fill="#f2f2f2" d="M 146.929688 135.664062 L 147.058594 143.578125 L 141.195312 143.460938 L 142.003906 131.453125 Z M 146.929688 135.664062 " fill-opacity="1" fill-rule="nonzero"/><path fill="#2153aa" d="M 146.996094 139.839844 L 142.609375 135.140625 L 146.929688 135.664062 Z M 146.996094 139.839844 " fill-opacity="1" fill-rule="nonzero"/><path fill="#f2f2f2" d="M 150.933594 123.472656 C 151.472656 123.898438 151.828125 124.503906 151.984375 125.171875 C 152.453125 127.140625 153.359375 130.609375 152.734375 132.742188 C 151.921875 135.515625 149.773438 137.539062 146.160156 136.988281 C 146.160156 136.988281 141.84375 136.707031 140.761719 131.285156 C 139.035156 122.640625 146.324219 119.851562 150.933594 123.472656 Z M 150.933594 123.472656 " fill-opacity="1" fill-rule="nonzero"/><path fill="#2153aa" d="M 150.214844 131.972656 C 150.160156 131.972656 150.109375 131.933594 150.09375 131.878906 C 150.082031 131.808594 150.121094 131.742188 150.1875 131.730469 L 150.695312 131.617188 C 150.734375 131.601562 150.761719 131.554688 150.75 131.507812 L 150.390625 130.632812 C 150.367188 130.570312 150.394531 130.496094 150.460938 130.46875 C 150.523438 130.445312 150.597656 130.472656 150.621094 130.539062 L 150.984375 131.425781 C 151.035156 131.621094 150.933594 131.800781 150.761719 131.855469 L 150.242188 131.972656 C 150.234375 131.972656 150.226562 131.972656 150.214844 131.972656 Z M 150.214844 131.972656 " fill-opacity="1" fill-rule="nonzero"/><path fill="#2153aa" d="M 148.246094 129.675781 C 148.246094 129.816406 148.199219 129.9375 148.097656 130.035156 C 148 130.132812 147.882812 130.183594 147.742188 130.183594 C 147.601562 130.183594 147.484375 130.132812 147.382812 130.035156 C 147.285156 129.9375 147.234375 129.816406 147.234375 129.675781 C 147.234375 129.535156 147.285156 129.417969 147.382812 129.316406 C 147.484375 129.21875 147.601562 129.167969 147.742188 129.167969 C 147.882812 129.167969 148 129.21875 148.097656 129.316406 C 148.199219 129.417969 148.246094 129.535156 148.246094 129.675781 Z M 148.246094 129.675781 " fill-opacity="1" fill-rule="nonzero"/><path fill="#2153aa" d="M 151.289062 129.5 C 151.289062 129.761719 151.496094 129.972656 151.757812 129.972656 C 152.015625 129.972656 152.222656 129.761719 152.222656 129.5 C 152.222656 129.242188 152.015625 129.03125 151.757812 129.03125 C 151.496094 129.03125 151.289062 129.242188 151.289062 129.5 Z M 151.289062 129.5 " fill-opacity="1" fill-rule="nonzero"/><path fill="#2153aa" d="M 149.582031 133.386719 C 149.054688 133.386719 148.421875 133.246094 147.832031 132.757812 C 147.78125 132.714844 147.773438 132.636719 147.816406 132.582031 C 147.863281 132.53125 147.9375 132.523438 147.992188 132.566406 C 149.1875 133.5625 150.65625 132.933594 150.671875 132.929688 C 150.734375 132.902344 150.804688 132.929688 150.835938 132.992188 C 150.863281 133.054688 150.832031 133.128906 150.769531 133.15625 C 150.734375 133.171875 150.242188 133.386719 149.582031 133.386719 Z M 149.582031 133.386719 " fill-opacity="1" fill-rule="nonzero"/><path fill="#2153aa" d="M 151.050781 126.726562 C 151.050781 126.726562 150.863281 127.296875 151.570312 127.414062 C 152.105469 127.503906 152.449219 127.550781 152.75 127.679688 C 152.917969 127.753906 153.117188 127.695312 153.222656 127.539062 C 153.304688 127.414062 153.304688 127.25 153.222656 127.125 C 153.058594 126.871094 152.699219 126.476562 152.046875 126.359375 C 151.210938 126.210938 151.050781 126.726562 151.050781 126.726562 Z M 151.050781 126.726562 " fill-opacity="1" fill-rule="nonzero"/><path fill="#2153aa" d="M 148.574219 126.753906 C 148.574219 126.753906 148.789062 127.324219 147.875 127.425781 C 147.183594 127.5 146.355469 127.761719 145.964844 127.886719 C 145.742188 127.957031 145.488281 127.890625 145.367188 127.734375 C 145.265625 127.605469 145.269531 127.445312 145.378906 127.320312 C 145.605469 127.070312 146.46875 126.460938 147.308594 126.359375 C 148.390625 126.230469 148.574219 126.753906 148.574219 126.753906 Z M 148.574219 126.753906 " fill-opacity="1" fill-rule="nonzero"/><path fill="#2153aa" d="M 149.261719 121.925781 C 149.261719 121.925781 150.089844 126.425781 139.246094 125.824219 C 139.246094 125.824219 138.613281 119.53125 149.261719 121.925781 Z M 149.261719 121.925781 " fill-opacity="1" fill-rule="nonzero"/><path fill="#2153aa" d="M 142.609375 124.902344 L 142.003906 131.453125 L 136.878906 127.089844 Z M 142.609375 124.902344 " fill-opacity="1" fill-rule="nonzero"/><path fill="#f2f2f2" d="M 137.988281 132.433594 C 138.414062 133.675781 139.765625 134.339844 141.007812 133.910156 C 142.246094 133.484375 142.90625 132.128906 142.480469 130.886719 C 142.054688 129.644531 140.703125 128.980469 139.460938 129.410156 C 138.222656 129.835938 137.5625 131.191406 137.988281 132.433594 Z M 137.988281 132.433594 " fill-opacity="1" fill-rule="nonzero"/><path fill="#2153aa" d="M 141.113281 132.300781 C 141.058594 132.300781 141.007812 132.261719 140.992188 132.203125 C 140.882812 131.699219 140.660156 131.355469 140.335938 131.175781 C 139.816406 130.890625 139.1875 131.121094 139.179688 131.121094 C 139.117188 131.144531 139.046875 131.113281 139.023438 131.046875 C 138.996094 130.984375 139.03125 130.910156 139.09375 130.886719 C 139.125 130.875 139.832031 130.617188 140.453125 130.957031 C 140.847656 131.171875 141.109375 131.574219 141.238281 132.148438 C 141.25 132.21875 141.207031 132.285156 141.140625 132.296875 C 141.132812 132.300781 141.125 132.300781 141.113281 132.300781 Z M 141.113281 132.300781 " fill-opacity="1" fill-rule="nonzero"/><path fill="#fbc650" d="M 145.625 143.671875 L 141.449219 140.851562 L 141.492188 139.277344 L 140.769531 139.277344 C 140.472656 139.277344 140.1875 139.402344 139.976562 139.621094 L 138.667969 140.992188 L 141.675781 145.714844 C 141.988281 146.210938 142.644531 146.308594 143.078125 145.925781 Z M 145.625 143.671875 " fill-opacity="1" fill-rule="nonzero"/><path fill="#fbc650" d="M 146.933594 139.277344 L 147.476562 139.277344 C 147.851562 139.277344 148.203125 139.472656 148.414062 139.800781 L 149.316406 141.214844 L 148.921875 145.3125 C 148.882812 145.726562 148.421875 145.9375 148.105469 145.679688 L 145.625 143.671875 L 147.023438 141.222656 Z M 146.933594 139.277344 " fill-opacity="1" fill-rule="nonzero"/><path fill="#fbc650" d="M 146.058594 145.625 C 146.058594 145.875 145.863281 146.078125 145.625 146.078125 C 145.386719 146.078125 145.195312 145.875 145.195312 145.625 C 145.195312 145.375 145.386719 145.171875 145.625 145.171875 C 145.863281 145.171875 146.058594 145.375 146.058594 145.625 Z M 146.058594 145.625 " fill-opacity="1" fill-rule="nonzero"/><path fill="#fbc650" d="M 146.152344 147.429688 C 146.152344 147.679688 145.960938 147.882812 145.722656 147.882812 C 145.484375 147.882812 145.289062 147.679688 145.289062 147.429688 C 145.289062 147.179688 145.484375 146.976562 145.722656 146.976562 C 145.960938 146.976562 146.152344 147.179688 146.152344 147.429688 Z M 146.152344 147.429688 " fill-opacity="1" fill-rule="nonzero"/><g clip-path="url(#id4)"><path fill="#fbc650" d="M 211.121094 225.453125 L 205.355469 262.507812 L 201.558594 262.507812 L 206.339844 224.917969 Z M 211.121094 225.453125 " fill-opacity="1" fill-rule="nonzero"/></g><g clip-path="url(#id5)"><path fill="#fbc650" d="M 231.835938 224.917969 L 236.242188 262.507812 L 240.644531 262.507812 L 237.128906 224.917969 Z M 231.835938 224.917969 " fill-opacity="1" fill-rule="nonzero"/></g><g clip-path="url(#id6)"><path fill="#fbc650" d="M 245.953125 225.453125 L 251.71875 262.507812 L 255.511719 262.507812 L 250.734375 224.917969 Z M 245.953125 225.453125 " fill-opacity="1" fill-rule="nonzero"/></g><g clip-path="url(#id7)"><path fill="#fbc650" d="M 211.121094 225.453125 L 205.355469 262.507812 L 201.558594 262.507812 L 206.339844 224.917969 Z M 211.121094 225.453125 " fill-opacity="1" fill-rule="nonzero"/></g><g clip-path="url(#id8)"><path fill="#fbc650" d="M 231.835938 224.917969 L 236.242188 262.507812 L 240.644531 262.507812 L 237.128906 224.917969 Z M 231.835938 224.917969 " fill-opacity="1" fill-rule="nonzero"/></g><g clip-path="url(#id9)"><path fill="#fbc650" d="M 245.953125 225.453125 L 251.71875 262.507812 L 255.511719 262.507812 L 250.734375 224.917969 Z M 245.953125 225.453125 " fill-opacity="1" fill-rule="nonzero"/></g><g clip-path="url(#id10)"><g mask="url(#id11)"><g transform="matrix(1, 0, 0, 1, 201, 224)"><g clip-path="url(#id15)"><g clip-path="url(#id12)"><path fill="#2153aa" d="M 10.121094 1.453125 L 4.355469 38.507812 L 0.558594 38.507812 L 5.339844 0.917969 Z M 10.121094 1.453125 " fill-opacity="1" fill-rule="nonzero"/></g><g clip-path="url(#id13)"><path fill="#2153aa" d="M 30.835938 0.917969 L 35.242188 38.507812 L 39.644531 38.507812 L 36.128906 0.917969 Z M 30.835938 0.917969 " fill-opacity="1" fill-rule="nonzero"/></g><g clip-path="url(#id14)"><path fill="#2153aa" d="M 44.953125 1.453125 L 50.71875 38.507812 L 54.511719 38.507812 L 49.734375 0.917969 Z M 44.953125 1.453125 " fill-opacity="1" fill-rule="nonzero"/></g></g></g></g></g><path fill="#fbc650" d="M 203.652344 259.734375 L 206.339844 258.730469 L 213.636719 258.832031 L 215.164062 259.390625 L 212.679688 260.257812 L 204.65625 260.257812 Z M 203.652344 259.734375 " fill-opacity="1" fill-rule="nonzero"/><path fill="#fbc650" d="M 224.070312 250.054688 L 216.089844 253.222656 L 207.78125 257.039062 L 208.375 258.625 L 217.429688 253.792969 L 223.953125 250.40625 Z M 224.070312 250.054688 " fill-opacity="1" fill-rule="nonzero"/><path fill="#fbc650" d="M 218.179688 241.277344 L 221.359375 248.089844 L 217.957031 249.949219 L 214.140625 243.296875 Z M 218.179688 241.277344 " fill-opacity="1" fill-rule="nonzero"/><path fill="#2153aa" d="M 220.761719 246.640625 C 220.761719 246.640625 218.988281 249.492188 216.609375 247.828125 L 209.894531 257.242188 L 224.070312 250.054688 Z M 220.761719 246.640625 " fill-opacity="1" fill-rule="nonzero"/><g clip-path="url(#id16)"><g clip-path="url(#id17)"><path fill="#fbc650" d="M 210.078125 253.539062 C 210.078125 253.539062 213.851562 252.3125 215.757812 256.820312 L 208.851562 258.1875 Z M 210.078125 253.539062 " fill-opacity="1" fill-rule="nonzero"/></g></g><path fill="#fbc650" d="M 209.886719 257.246094 L 224.0625 250.054688 L 224.691406 251.296875 L 210.515625 258.488281 Z M 209.886719 257.246094 " fill-opacity="1" fill-rule="nonzero"/><path fill="#fbc650" d="M 216.707031 250.746094 C 216.660156 250.746094 216.613281 250.738281 216.570312 250.71875 C 215.660156 250.269531 214.925781 250.1875 214.917969 250.1875 C 214.773438 250.171875 214.675781 250.046875 214.695312 249.90625 C 214.714844 249.765625 214.851562 249.664062 214.992188 249.675781 C 215.027344 249.679688 215.824219 249.765625 216.824219 250.257812 C 216.953125 250.320312 217 250.476562 216.929688 250.601562 C 216.882812 250.6875 216.796875 250.738281 216.707031 250.746094 Z M 216.707031 250.746094 " fill-opacity="1" fill-rule="nonzero"/><path fill="#fbc650" d="M 215.835938 251.90625 C 215.789062 251.910156 215.742188 251.902344 215.699219 251.882812 C 214.785156 251.433594 214.054688 251.351562 214.046875 251.351562 C 213.902344 251.335938 213.800781 251.210938 213.824219 251.066406 C 213.84375 250.925781 213.980469 250.824219 214.121094 250.839844 C 214.15625 250.84375 214.949219 250.929688 215.953125 251.421875 C 216.082031 251.484375 216.128906 251.636719 216.058594 251.765625 C 216.011719 251.847656 215.925781 251.902344 215.835938 251.90625 Z M 215.835938 251.90625 " fill-opacity="1" fill-rule="nonzero"/><path fill="#fbc650" d="M 214.964844 253.070312 C 214.917969 253.074219 214.871094 253.066406 214.828125 253.042969 C 213.914062 252.59375 213.179688 252.511719 213.175781 252.511719 C 213.03125 252.496094 212.929688 252.371094 212.949219 252.230469 C 212.972656 252.089844 213.109375 251.988281 213.25 252.003906 C 213.285156 252.003906 214.078125 252.089844 215.082031 252.582031 C 215.210938 252.644531 215.257812 252.800781 215.1875 252.925781 C 215.140625 253.011719 215.054688 253.0625 214.964844 253.070312 Z M 214.964844 253.070312 " fill-opacity="1" fill-rule="nonzero"/><path fill="#fbc650" d="M 213.636719 248.925781 L 213.566406 256.445312 L 209.695312 256.648438 L 209.125 248.996094 Z M 213.636719 248.925781 " fill-opacity="1" fill-rule="nonzero"/><path fill="#2153aa" d="M 213.652344 254.878906 C 213.652344 254.878906 210.824219 256.683594 209.394531 254.152344 L 199.277344 259.734375 L 215.164062 259.390625 Z M 213.652344 254.878906 " fill-opacity="1" fill-rule="nonzero"/><g clip-path="url(#id18)"><g clip-path="url(#id19)"><path fill="#fbc650" d="M 201.042969 256.472656 C 201.042969 256.472656 204.976562 257 204.75 261.890625 L 197.933594 260.132812 Z M 201.042969 256.472656 " fill-opacity="1" fill-rule="nonzero"/></g></g><path fill="#fbc650" d="M 199.28125 259.738281 L 215.167969 259.394531 L 215.199219 260.785156 L 199.3125 261.128906 Z M 199.28125 259.738281 " fill-opacity="1" fill-rule="nonzero"/><path fill="#fbc650" d="M 208.226562 256.824219 C 208.183594 256.808594 208.144531 256.78125 208.117188 256.742188 C 207.484375 255.941406 206.859375 255.550781 206.851562 255.546875 C 206.730469 255.46875 206.695312 255.3125 206.773438 255.195312 C 206.855469 255.078125 207.019531 255.046875 207.140625 255.121094 C 207.171875 255.136719 207.851562 255.558594 208.542969 256.4375 C 208.632812 256.550781 208.605469 256.707031 208.488281 256.792969 C 208.410156 256.847656 208.3125 256.855469 208.226562 256.824219 Z M 208.226562 256.824219 " fill-opacity="1" fill-rule="nonzero"/><path fill="#fbc650" d="M 206.9375 257.496094 C 206.894531 257.480469 206.855469 257.449219 206.828125 257.414062 C 206.195312 256.613281 205.570312 256.222656 205.566406 256.21875 C 205.441406 256.140625 205.40625 255.984375 205.484375 255.867188 C 205.566406 255.75 205.734375 255.714844 205.855469 255.789062 C 205.882812 255.808594 206.5625 256.230469 207.253906 257.109375 C 207.34375 257.21875 207.320312 257.378906 207.199219 257.464844 C 207.121094 257.519531 207.023438 257.527344 206.9375 257.496094 Z M 206.9375 257.496094 " fill-opacity="1" fill-rule="nonzero"/><path fill="#fbc650" d="M 205.652344 258.164062 C 205.609375 258.148438 205.570312 258.121094 205.539062 258.082031 C 204.910156 257.28125 204.28125 256.890625 204.277344 256.886719 C 204.152344 256.8125 204.117188 256.65625 204.195312 256.535156 C 204.277344 256.417969 204.445312 256.386719 204.566406 256.460938 C 204.59375 256.476562 205.273438 256.898438 205.964844 257.777344 C 206.054688 257.890625 206.03125 258.050781 205.910156 258.132812 C 205.835938 258.191406 205.734375 258.199219 205.652344 258.164062 Z M 205.652344 258.164062 " fill-opacity="1" fill-rule="nonzero"/><path fill="#f2f2f2" d="M 223.695312 204.453125 C 223.691406 204.707031 223.6875 204.960938 223.683594 205.21875 C 223.589844 209.222656 223.117188 213.1875 222.792969 217.183594 C 222.433594 219.496094 221.480469 220.214844 220.726562 220.410156 C 220.683594 220.484375 220.636719 220.550781 220.59375 220.617188 L 218.933594 222.964844 C 218.804688 223.207031 218.492188 223.316406 218.214844 223.199219 C 218.015625 223.121094 217.792969 222.925781 218.015625 222.382812 L 217.789062 222.917969 C 217.652344 223.179688 217.316406 223.285156 217.027344 223.15625 C 216.765625 223.050781 216.664062 222.722656 216.773438 222.371094 L 216.558594 222.75 C 216.410156 223.03125 216.03125 223.136719 215.71875 222.964844 C 215.453125 222.816406 215.359375 222.5 215.46875 222.238281 L 215.710938 221.691406 L 215.734375 221.640625 L 215.289062 222.207031 C 215.117188 222.496094 214.707031 222.589844 214.382812 222.394531 C 214.105469 222.234375 214.015625 221.898438 214.136719 221.621094 L 215.609375 218.238281 L 214.835938 217.878906 C 214.550781 217.753906 214.386719 217.464844 214.4375 217.183594 C 214.488281 216.890625 214.757812 216.675781 215.074219 216.667969 L 219.476562 216.585938 C 218.359375 208.277344 217.398438 199.988281 216.609375 191.648438 C 216.589844 189.753906 218.292969 188.1875 220.316406 188.1875 C 220.386719 188.1875 220.453125 188.1875 220.527344 188.191406 C 222.421875 188.292969 222.429688 190.269531 222.808594 191.992188 C 223.683594 195.976562 223.738281 200.136719 223.695312 204.453125 Z M 223.695312 204.453125 " fill-opacity="1" fill-rule="nonzero"/><path fill="#2153aa" d="M 215.652344 221.882812 C 215.640625 221.882812 215.632812 221.878906 215.621094 221.875 C 215.589844 221.859375 215.574219 221.820312 215.589844 221.789062 L 216.515625 219.839844 C 216.53125 219.808594 216.570312 219.792969 216.601562 219.808594 C 216.636719 219.824219 216.648438 219.863281 216.632812 219.898438 L 215.710938 221.84375 C 215.699219 221.867188 215.675781 221.882812 215.652344 221.882812 Z M 215.652344 221.882812 " fill-opacity="1" fill-rule="nonzero"/><path fill="#2153aa" d="M 216.816406 222.355469 C 216.804688 222.355469 216.792969 222.351562 216.785156 222.347656 C 216.75 222.332031 216.738281 222.289062 216.757812 222.257812 L 217.71875 220.460938 C 217.738281 220.429688 217.777344 220.417969 217.808594 220.4375 C 217.84375 220.453125 217.855469 220.492188 217.835938 220.527344 L 216.871094 222.320312 C 216.859375 222.34375 216.835938 222.355469 216.816406 222.355469 Z M 216.816406 222.355469 " fill-opacity="1" fill-rule="nonzero"/><path fill="#2153aa" d="M 217.929688 222.605469 C 217.917969 222.605469 217.910156 222.601562 217.898438 222.597656 C 217.867188 222.578125 217.855469 222.539062 217.875 222.507812 L 218.714844 221.011719 C 218.734375 220.980469 218.773438 220.96875 218.804688 220.988281 C 218.835938 221.003906 218.847656 221.046875 218.828125 221.078125 L 217.988281 222.570312 C 217.976562 222.59375 217.953125 222.605469 217.929688 222.605469 Z M 217.929688 222.605469 " fill-opacity="1" fill-rule="nonzero"/><path fill="#ea7630" d="M 240.179688 208.339844 L 240.179688 216.585938 C 240.179688 220.328125 237.078125 223.320312 233.347656 223.183594 L 219.414062 222.671875 L 217.6875 235.976562 L 220.550781 244.699219 L 216.375 246.082031 L 215.59375 252.09375 L 207.789062 251.5 L 207.648438 234.496094 L 202.835938 224.660156 C 201.355469 221.632812 202.710938 218.039062 205.882812 216.589844 L 209.175781 215.082031 C 210.546875 213.34375 212.558594 212.144531 214.847656 211.832031 Z M 240.179688 208.339844 " fill-opacity="1" fill-rule="nonzero"/><path fill="#446bc6" d="M 221.773438 182.109375 C 221.773438 182.109375 216.785156 185.085938 215.816406 193.152344 L 222.9375 197.070312 Z M 221.773438 182.109375 " fill-opacity="1" fill-rule="nonzero"/><path fill="#446bc6" d="M 231.296875 179.589844 C 233.753906 179.800781 236.175781 180.339844 238.460938 181.257812 C 239.347656 181.609375 240.339844 182.042969 240.878906 182.875 C 241.605469 183.992188 241.039062 185.25 240.996094 186.464844 C 240.996094 186.464844 240.316406 211.328125 240.316406 211.328125 L 219.976562 211.328125 L 219.242188 187.285156 C 219.066406 184.722656 220.582031 182.363281 222.921875 181.539062 C 225.542969 180.613281 228.746094 179.574219 230.140625 179.492188 Z M 231.296875 179.589844 " fill-opacity="1" fill-rule="nonzero"/><path fill="#2153aa" d="M 219.648438 195.59375 C 219.585938 195.59375 219.53125 195.546875 219.53125 195.484375 L 219.347656 188.1875 C 219.34375 188.125 219.394531 188.070312 219.460938 188.070312 C 219.519531 188.074219 219.578125 188.117188 219.578125 188.179688 L 219.761719 195.476562 C 219.761719 195.539062 219.710938 195.59375 219.648438 195.59375 Z M 219.648438 195.59375 " fill-opacity="1" fill-rule="nonzero"/><path fill="#f2f2f2" d="M 224.101562 181.128906 C 224.101562 181.128906 227.785156 179.683594 230.140625 179.492188 C 230.140625 179.492188 233.355469 179.628906 235.5625 180.308594 C 235.5625 180.308594 234.339844 182.929688 228.695312 183.359375 C 223.054688 183.789062 224.101562 181.128906 224.101562 181.128906 Z M 224.101562 181.128906 " fill-opacity="1" fill-rule="nonzero"/><path fill="#446bc6" d="M 239.808594 181.894531 C 239.808594 181.894531 245.363281 184.890625 246.273438 196.5 L 238.117188 199.09375 L 235.167969 189.832031 Z M 239.808594 181.894531 " fill-opacity="1" fill-rule="nonzero"/><path fill="#2153aa" d="M 207.519531 234.355469 C 207.449219 234.355469 207.394531 234.296875 207.394531 234.226562 C 207.398438 234.160156 207.46875 227.296875 207.390625 222.292969 C 207.3125 217.238281 209 215.097656 209.070312 215.007812 C 209.113281 214.953125 209.195312 214.945312 209.246094 214.988281 C 209.300781 215.03125 209.308594 215.109375 209.265625 215.164062 C 209.25 215.1875 207.566406 217.335938 207.640625 222.289062 C 207.71875 227.296875 207.648438 234.160156 207.644531 234.230469 C 207.644531 234.300781 207.589844 234.355469 207.519531 234.355469 Z M 207.519531 234.355469 " fill-opacity="1" fill-rule="nonzero"/><path fill="#2153aa" d="M 216.375 246.207031 C 216.371094 246.207031 216.367188 246.207031 216.359375 246.207031 C 216.292969 246.195312 216.242188 246.132812 216.25 246.066406 L 217.53125 236.195312 C 217.542969 236.128906 217.601562 236.082031 217.671875 236.089844 C 217.742188 236.097656 217.789062 236.160156 217.78125 236.230469 L 216.5 246.097656 C 216.492188 246.160156 216.4375 246.207031 216.375 246.207031 Z M 216.375 246.207031 " fill-opacity="1" fill-rule="nonzero"/><path fill="#2153aa" d="M 238.34375 199.144531 C 238.28125 199.144531 238.226562 199.097656 238.21875 199.035156 L 237.140625 189.605469 C 237.132812 189.535156 237.183594 189.472656 237.25 189.464844 C 237.316406 189.457031 237.382812 189.507812 237.390625 189.574219 L 238.46875 199.007812 C 238.476562 199.074219 238.425781 199.136719 238.355469 199.144531 C 238.351562 199.144531 238.347656 199.144531 238.34375 199.144531 Z M 238.34375 199.144531 " fill-opacity="1" fill-rule="nonzero"/><path fill="#fbc650" d="M 199.277344 259.734375 L 202.027344 259.238281 L 204.503906 259.621094 L 202.996094 260.152344 L 200.207031 260.152344 Z M 199.277344 259.734375 " fill-opacity="1" fill-rule="nonzero"/><path fill="#fbc650" d="M 183.328125 204.300781 L 252.234375 204.300781 L 252.234375 207.132812 L 183.328125 207.132812 Z M 183.328125 204.300781 " fill-opacity="1" fill-rule="nonzero"/><g mask="url(#id20)"><g transform="matrix(1, 0, 0, 1, 183, 204)"><g clip-path="url(#id22)"><g clip-path="url(#id21)"><path fill="#2153aa" d="M 0.328125 0.300781 L 69.234375 0.300781 L 69.234375 3.132812 L 0.328125 3.132812 Z M 0.328125 0.300781 " fill-opacity="1" fill-rule="nonzero"/></g></g></g></g><path fill="#f2f2f2" d="M 227.765625 204.398438 L 244.046875 204.324219 C 245.335938 204.308594 246.640625 202.664062 246.605469 201.371094 C 246.566406 199.933594 245.066406 198.425781 243.660156 198.710938 L 227.738281 201.898438 Z M 227.765625 204.398438 " fill-opacity="1" fill-rule="nonzero"/><path fill="#f2f2f2" d="M 228.628906 201.820312 C 228.628906 201.820312 221.484375 200.109375 221.484375 204.398438 L 227.765625 204.398438 Z M 228.628906 201.820312 " fill-opacity="1" fill-rule="nonzero"/><path fill="#2153aa" d="M 238.359375 168.027344 C 238.359375 168.027344 247.601562 165.675781 243.40625 175.539062 C 242.675781 177.25 242.246094 178.640625 242.03125 179.773438 C 241.453125 182.769531 237.003906 182.507812 236.839844 179.460938 C 236.761719 178 237.175781 176.132812 238.347656 173.75 C 238.347656 173.75 240.242188 170.273438 238.046875 169.472656 Z M 238.359375 168.027344 " fill-opacity="1" fill-rule="nonzero"/><path fill="#ea7630" d="M 239.132812 168.597656 C 239.132812 168.828125 239.089844 169.050781 239 169.265625 C 238.914062 169.476562 238.789062 169.667969 238.625 169.828125 C 238.460938 169.992188 238.273438 170.117188 238.058594 170.207031 C 237.847656 170.296875 237.625 170.339844 237.394531 170.339844 C 237.164062 170.339844 236.941406 170.296875 236.730469 170.207031 C 236.515625 170.117188 236.328125 169.992188 236.164062 169.828125 C 236.003906 169.667969 235.875 169.476562 235.789062 169.265625 C 235.699219 169.050781 235.65625 168.828125 235.65625 168.597656 C 235.65625 168.367188 235.699219 168.144531 235.789062 167.929688 C 235.875 167.71875 236.003906 167.53125 236.164062 167.367188 C 236.328125 167.203125 236.515625 167.078125 236.730469 166.988281 C 236.941406 166.898438 237.164062 166.855469 237.394531 166.855469 C 237.625 166.855469 237.847656 166.898438 238.058594 166.988281 C 238.273438 167.078125 238.460938 167.203125 238.625 167.367188 C 238.789062 167.53125 238.914062 167.71875 239 167.929688 C 239.089844 168.144531 239.132812 168.367188 239.132812 168.597656 Z M 239.132812 168.597656 " fill-opacity="1" fill-rule="nonzero"/><path fill="#2153aa" d="M 232.214844 161.765625 C 232.214844 161.765625 227.929688 159.425781 225.285156 160.921875 C 221.414062 163.113281 224.960938 166.164062 224.960938 166.164062 Z M 232.214844 161.765625 " fill-opacity="1" fill-rule="nonzero"/><path fill="#2153aa" d="M 232.476562 161.828125 C 232.929688 161.941406 233.371094 162.101562 233.792969 162.300781 C 234.21875 162.496094 234.621094 162.734375 235 163.007812 C 235.378906 163.28125 235.726562 163.585938 236.042969 163.925781 C 236.359375 164.261719 236.640625 164.628906 236.882812 165.015625 C 237.128906 165.40625 237.328125 165.816406 237.492188 166.242188 C 237.652344 166.667969 237.769531 167.101562 237.839844 167.550781 C 237.914062 167.996094 237.9375 168.445312 237.917969 168.894531 C 237.898438 169.34375 237.835938 169.785156 237.726562 170.21875 C 237.613281 170.65625 237.460938 171.074219 237.261719 171.480469 C 237.066406 171.882812 236.828125 172.265625 236.554688 172.621094 C 236.277344 172.980469 235.96875 173.308594 235.621094 173.605469 C 235.277344 173.902344 234.90625 174.164062 234.503906 174.390625 C 234.105469 174.617188 233.683594 174.800781 233.246094 174.945312 C 232.804688 175.09375 232.355469 175.195312 231.890625 175.253906 C 231.429688 175.3125 230.964844 175.328125 230.496094 175.300781 C 230.027344 175.269531 229.566406 175.199219 229.109375 175.082031 C 228.65625 174.96875 228.214844 174.808594 227.789062 174.609375 C 227.367188 174.414062 226.964844 174.175781 226.585938 173.902344 C 226.207031 173.628906 225.859375 173.324219 225.542969 172.984375 C 225.226562 172.648438 224.945312 172.28125 224.703125 171.894531 C 224.457031 171.503906 224.253906 171.09375 224.09375 170.667969 C 223.933594 170.242188 223.816406 169.808594 223.746094 169.359375 C 223.671875 168.914062 223.644531 168.464844 223.664062 168.015625 C 223.683594 167.566406 223.75 167.125 223.859375 166.6875 C 223.972656 166.253906 224.125 165.835938 224.320312 165.429688 C 224.519531 165.027344 224.753906 164.644531 225.03125 164.289062 C 225.308594 163.929688 225.617188 163.601562 225.964844 163.304688 C 226.308594 163.007812 226.679688 162.746094 227.082031 162.519531 C 227.480469 162.292969 227.898438 162.109375 228.339844 161.964844 C 228.78125 161.816406 229.230469 161.714844 229.695312 161.65625 C 230.15625 161.597656 230.621094 161.582031 231.089844 161.609375 C 231.558594 161.640625 232.019531 161.710938 232.476562 161.828125 Z M 232.476562 161.828125 " fill-opacity="1" fill-rule="nonzero"/><path fill="#f2f2f2" d="M 227.117188 174.917969 L 227.003906 181.988281 L 232.238281 181.878906 L 231.519531 171.15625 Z M 227.117188 174.917969 " fill-opacity="1" fill-rule="nonzero"/><path fill="#2153aa" d="M 227.058594 178.644531 L 230.976562 174.449219 L 227.117188 174.917969 Z M 227.058594 178.644531 " fill-opacity="1" fill-rule="nonzero"/><path fill="#f2f2f2" d="M 225.6875 163.03125 C 225.175781 163.289062 224.78125 163.730469 224.535156 164.246094 C 223.757812 165.875 222.296875 168.757812 222.441406 170.75 C 222.628906 173.324219 224.125 175.496094 227.386719 175.695312 C 227.386719 175.695312 231.207031 176.269531 233.171875 171.734375 C 236.320312 164.480469 230.40625 160.667969 225.6875 163.03125 Z M 225.6875 163.03125 " fill-opacity="1" fill-rule="nonzero"/><path fill="#2153aa" d="M 224.808594 170.558594 C 224.792969 170.558594 224.777344 170.554688 224.761719 170.546875 L 224.339844 170.351562 C 224.191406 170.269531 224.136719 170.089844 224.210938 169.945312 L 224.703125 169.222656 C 224.738281 169.171875 224.804688 169.160156 224.855469 169.195312 C 224.90625 169.230469 224.921875 169.300781 224.886719 169.351562 L 224.398438 170.058594 C 224.386719 170.085938 224.402344 170.132812 224.441406 170.152344 L 224.855469 170.34375 C 224.910156 170.371094 224.933594 170.4375 224.910156 170.492188 C 224.890625 170.53125 224.851562 170.558594 224.808594 170.558594 Z M 224.808594 170.558594 " fill-opacity="1" fill-rule="nonzero"/><path fill="#2153aa" d="M 227.832031 169.015625 C 227.832031 169.140625 227.785156 169.246094 227.699219 169.335938 C 227.609375 169.421875 227.503906 169.46875 227.378906 169.46875 C 227.253906 169.46875 227.148438 169.421875 227.058594 169.335938 C 226.972656 169.246094 226.925781 169.140625 226.925781 169.015625 C 226.925781 168.890625 226.972656 168.785156 227.058594 168.695312 C 227.148438 168.605469 227.253906 168.5625 227.378906 168.5625 C 227.503906 168.5625 227.609375 168.605469 227.699219 168.695312 C 227.785156 168.785156 227.832031 168.890625 227.832031 169.015625 Z M 227.832031 169.015625 " fill-opacity="1" fill-rule="nonzero"/><path fill="#2153aa" d="M 224.316406 168.195312 C 224.265625 168.421875 224.042969 168.5625 223.820312 168.515625 C 223.59375 168.46875 223.449219 168.242188 223.496094 168.015625 C 223.546875 167.789062 223.769531 167.648438 223.996094 167.695312 C 224.222656 167.742188 224.363281 167.96875 224.316406 168.195312 Z M 224.316406 168.195312 " fill-opacity="1" fill-rule="nonzero"/><path fill="#2153aa" d="M 225.613281 171.964844 C 224.757812 171.964844 224.117188 171.507812 224.082031 171.480469 C 224.03125 171.445312 224.019531 171.375 224.054688 171.328125 C 224.089844 171.277344 224.160156 171.265625 224.210938 171.300781 C 224.222656 171.308594 225.386719 172.136719 226.617188 171.492188 C 226.671875 171.464844 226.738281 171.484375 226.765625 171.539062 C 226.792969 171.59375 226.773438 171.660156 226.71875 171.6875 C 226.332031 171.890625 225.953125 171.964844 225.613281 171.964844 Z M 225.613281 171.964844 " fill-opacity="1" fill-rule="nonzero"/><path fill="#2153aa" d="M 225.042969 165.816406 C 225.042969 165.816406 225.101562 166.347656 224.460938 166.316406 C 223.976562 166.292969 223.667969 166.269531 223.382812 166.328125 C 223.21875 166.359375 223.054688 166.269531 222.996094 166.117188 C 222.949219 165.992188 222.976562 165.847656 223.070312 165.753906 C 223.265625 165.5625 223.648438 165.285156 224.242188 165.308594 C 225 165.332031 225.042969 165.816406 225.042969 165.816406 Z M 225.042969 165.816406 " fill-opacity="1" fill-rule="nonzero"/><path fill="#2153aa" d="M 227.203125 166.304688 C 227.203125 166.304688 226.90625 166.765625 227.683594 167.023438 C 228.273438 167.222656 228.949219 167.605469 229.265625 167.789062 C 229.449219 167.890625 229.679688 167.882812 229.816406 167.765625 C 229.929688 167.675781 229.957031 167.53125 229.882812 167.402344 C 229.734375 167.144531 229.09375 166.449219 228.378906 166.199219 C 227.460938 165.882812 227.203125 166.304688 227.203125 166.304688 Z M 227.203125 166.304688 " fill-opacity="1" fill-rule="nonzero"/><path fill="#2153aa" d="M 227.507812 161.960938 C 227.507812 161.960938 225.9375 165.734375 235.519531 167.253906 C 235.519531 167.253906 237.257812 161.878906 227.507812 161.960938 Z M 227.507812 161.960938 " fill-opacity="1" fill-rule="nonzero"/><path fill="#2153aa" d="M 232.753906 165.8125 L 232.054688 171.648438 L 237.351562 168.804688 Z M 232.753906 165.8125 " fill-opacity="1" fill-rule="nonzero"/><path fill="#f2f2f2" d="M 235.378906 173.261719 C 234.773438 174.265625 233.46875 174.589844 232.464844 173.984375 C 231.460938 173.375 231.136719 172.070312 231.746094 171.0625 C 232.351562 170.058594 233.65625 169.734375 234.65625 170.34375 C 235.660156 170.949219 235.984375 172.257812 235.378906 173.261719 Z M 235.378906 173.261719 " fill-opacity="1" fill-rule="nonzero"/><path fill="#2153aa" d="M 232.695312 172.558594 C 232.679688 172.558594 232.664062 172.554688 232.648438 172.550781 C 232.59375 172.523438 232.566406 172.457031 232.59375 172.402344 C 232.8125 171.921875 233.117188 171.621094 233.503906 171.507812 C 234.109375 171.328125 234.675781 171.6875 234.699219 171.703125 C 234.753906 171.738281 234.765625 171.804688 234.734375 171.855469 C 234.703125 171.910156 234.632812 171.921875 234.582031 171.890625 C 234.578125 171.886719 234.070312 171.570312 233.5625 171.722656 C 233.246094 171.816406 232.984375 172.074219 232.796875 172.496094 C 232.777344 172.535156 232.734375 172.558594 232.695312 172.558594 Z M 232.695312 172.558594 " fill-opacity="1" fill-rule="nonzero"/><g clip-path="url(#id23)"><path fill="#2153aa" d="M 187.007812 207.132812 L 190.675781 207.132812 L 190.675781 262.507812 L 187.007812 262.507812 Z M 187.007812 207.132812 " fill-opacity="1" fill-rule="nonzero"/></g><g clip-path="url(#id24)"><path fill="#2153aa" d="M 243.734375 207.132812 L 247.40625 207.132812 L 247.40625 262.507812 L 243.734375 262.507812 Z M 243.734375 207.132812 " fill-opacity="1" fill-rule="nonzero"/></g><path fill="#2153aa" d="M 171.890625 137.730469 C 171.980469 137.457031 172.066406 137.191406 172.144531 136.9375 C 172.226562 136.683594 172.300781 136.449219 172.363281 136.234375 C 172.425781 136.019531 172.476562 135.828125 172.511719 135.660156 C 172.550781 135.496094 172.570312 135.363281 172.574219 135.265625 C 172.597656 135.171875 172.640625 135.097656 172.699219 135.042969 C 172.761719 134.984375 172.832031 134.957031 172.910156 134.957031 C 172.960938 134.957031 173 134.96875 173.035156 134.988281 C 173.066406 135.011719 173.09375 135.039062 173.117188 135.078125 C 173.136719 135.113281 173.152344 135.152344 173.164062 135.199219 C 173.171875 135.242188 173.175781 135.289062 173.175781 135.335938 C 173.175781 135.367188 173.175781 135.398438 173.171875 135.425781 C 173.167969 135.457031 173.164062 135.480469 173.15625 135.507812 C 173.109375 135.691406 173.054688 135.882812 172.992188 136.078125 C 172.929688 136.273438 172.863281 136.472656 172.796875 136.671875 C 172.730469 136.871094 172.664062 137.074219 172.597656 137.277344 C 172.53125 137.476562 172.472656 137.675781 172.421875 137.867188 L 172.367188 138.070312 C 172.339844 138.175781 172.316406 138.273438 172.296875 138.367188 C 172.277344 138.460938 172.265625 138.539062 172.265625 138.597656 C 172.265625 138.628906 172.273438 138.652344 172.285156 138.671875 C 172.296875 138.691406 172.320312 138.699219 172.351562 138.699219 C 172.433594 138.699219 172.53125 138.6875 172.640625 138.660156 C 172.75 138.632812 172.863281 138.601562 172.980469 138.5625 C 173.097656 138.523438 173.214844 138.480469 173.332031 138.433594 C 173.449219 138.386719 173.554688 138.339844 173.652344 138.300781 C 173.707031 138.277344 173.75 138.257812 173.785156 138.242188 C 173.824219 138.226562 173.867188 138.207031 173.925781 138.183594 C 173.980469 138.160156 174.050781 138.132812 174.144531 138.09375 C 174.234375 138.054688 174.363281 138.003906 174.523438 137.933594 C 174.550781 137.925781 174.574219 137.914062 174.597656 137.910156 C 174.617188 137.902344 174.636719 137.898438 174.65625 137.898438 C 174.6875 137.898438 174.714844 137.902344 174.738281 137.914062 C 174.757812 137.929688 174.777344 137.945312 174.789062 137.964844 C 174.804688 137.984375 174.8125 138.007812 174.820312 138.03125 C 174.824219 138.058594 174.828125 138.085938 174.828125 138.109375 C 174.828125 138.15625 174.824219 138.191406 174.816406 138.226562 C 174.808594 138.257812 174.800781 138.285156 174.792969 138.308594 C 174.769531 138.347656 174.738281 138.378906 174.703125 138.410156 C 174.664062 138.441406 174.625 138.46875 174.582031 138.492188 C 174.539062 138.515625 174.5 138.535156 174.460938 138.550781 C 174.417969 138.566406 174.386719 138.578125 174.359375 138.585938 C 174.328125 138.597656 174.285156 138.613281 174.234375 138.636719 C 174.179688 138.65625 174.125 138.675781 174.0625 138.699219 C 174 138.726562 173.9375 138.75 173.871094 138.773438 C 173.804688 138.800781 173.742188 138.824219 173.683594 138.84375 C 173.628906 138.867188 173.574219 138.886719 173.53125 138.902344 C 173.488281 138.921875 173.457031 138.929688 173.4375 138.9375 C 173.351562 138.96875 173.257812 139.003906 173.152344 139.046875 C 173.046875 139.085938 172.941406 139.125 172.839844 139.160156 C 172.734375 139.195312 172.636719 139.226562 172.542969 139.25 C 172.453125 139.277344 172.375 139.289062 172.3125 139.289062 C 172.238281 139.289062 172.179688 139.28125 172.136719 139.269531 C 172.089844 139.257812 172.054688 139.242188 172.019531 139.21875 C 171.984375 139.199219 171.953125 139.175781 171.917969 139.144531 C 171.882812 139.113281 171.835938 139.082031 171.777344 139.046875 C 171.726562 139.011719 171.6875 138.96875 171.667969 138.914062 C 171.644531 138.855469 171.632812 138.796875 171.632812 138.734375 C 171.632812 138.703125 171.636719 138.664062 171.640625 138.621094 C 171.648438 138.582031 171.652344 138.535156 171.660156 138.492188 C 171.667969 138.445312 171.679688 138.398438 171.6875 138.355469 C 171.699219 138.3125 171.710938 138.273438 171.71875 138.238281 Z M 171.890625 137.730469 " fill-opacity="1" fill-rule="nonzero"/><path fill="#2153aa" d="M 175.152344 138.121094 C 175.152344 138.035156 175.171875 137.960938 175.21875 137.902344 C 175.265625 137.84375 175.324219 137.800781 175.402344 137.78125 C 175.425781 137.738281 175.457031 137.679688 175.503906 137.605469 C 175.550781 137.527344 175.605469 137.449219 175.675781 137.359375 C 175.742188 137.273438 175.820312 137.183594 175.90625 137.09375 C 175.992188 137.007812 176.089844 136.925781 176.191406 136.851562 C 176.296875 136.78125 176.410156 136.71875 176.53125 136.675781 C 176.652344 136.628906 176.777344 136.605469 176.914062 136.605469 C 177.03125 136.605469 177.132812 136.617188 177.214844 136.648438 C 177.300781 136.675781 177.371094 136.714844 177.429688 136.761719 C 177.484375 136.8125 177.527344 136.875 177.554688 136.941406 C 177.582031 137.011719 177.597656 137.085938 177.597656 137.164062 C 177.597656 137.234375 177.585938 137.296875 177.570312 137.359375 C 177.542969 137.472656 177.488281 137.570312 177.414062 137.652344 C 177.339844 137.738281 177.25 137.808594 177.144531 137.875 C 177.042969 137.9375 176.933594 137.988281 176.8125 138.03125 C 176.691406 138.074219 176.570312 138.105469 176.449219 138.136719 C 176.328125 138.164062 176.214844 138.183594 176.101562 138.199219 C 175.988281 138.214844 175.894531 138.226562 175.8125 138.234375 C 175.792969 138.269531 175.777344 138.316406 175.765625 138.371094 C 175.753906 138.425781 175.746094 138.480469 175.746094 138.53125 C 175.746094 138.648438 175.792969 138.734375 175.882812 138.800781 C 175.976562 138.863281 176.101562 138.894531 176.261719 138.894531 C 176.355469 138.894531 176.445312 138.886719 176.53125 138.863281 C 176.617188 138.84375 176.699219 138.816406 176.777344 138.785156 C 176.851562 138.75 176.925781 138.714844 176.992188 138.675781 C 177.058594 138.636719 177.121094 138.597656 177.179688 138.558594 C 177.25 138.511719 177.316406 138.472656 177.382812 138.4375 C 177.449219 138.40625 177.503906 138.390625 177.554688 138.390625 C 177.605469 138.390625 177.636719 138.402344 177.648438 138.425781 C 177.664062 138.453125 177.671875 138.480469 177.671875 138.507812 C 177.671875 138.523438 177.671875 138.539062 177.667969 138.554688 C 177.667969 138.566406 177.667969 138.582031 177.664062 138.589844 C 177.65625 138.644531 177.636719 138.695312 177.605469 138.746094 C 177.574219 138.796875 177.539062 138.84375 177.492188 138.882812 C 177.285156 139.046875 177.070312 139.160156 176.855469 139.230469 C 176.636719 139.300781 176.402344 139.335938 176.15625 139.335938 C 176.109375 139.335938 176.050781 139.332031 175.984375 139.328125 C 175.921875 139.320312 175.855469 139.308594 175.785156 139.292969 C 175.714844 139.273438 175.644531 139.246094 175.578125 139.214844 C 175.511719 139.179688 175.449219 139.132812 175.398438 139.078125 C 175.34375 139.023438 175.300781 138.953125 175.269531 138.871094 C 175.238281 138.789062 175.21875 138.691406 175.21875 138.574219 C 175.21875 138.480469 175.234375 138.378906 175.257812 138.261719 C 175.234375 138.257812 175.207031 138.242188 175.1875 138.222656 C 175.164062 138.199219 175.152344 138.164062 175.152344 138.121094 Z M 177.023438 137.289062 C 177.027344 137.28125 177.027344 137.273438 177.027344 137.265625 C 177.027344 137.253906 177.027344 137.246094 177.027344 137.238281 C 177.027344 137.183594 177.007812 137.140625 176.96875 137.117188 C 176.929688 137.089844 176.878906 137.074219 176.824219 137.074219 C 176.738281 137.074219 176.652344 137.097656 176.566406 137.144531 C 176.480469 137.191406 176.402344 137.246094 176.328125 137.316406 C 176.253906 137.386719 176.1875 137.457031 176.128906 137.539062 C 176.070312 137.617188 176.027344 137.6875 175.996094 137.753906 C 176.136719 137.738281 176.269531 137.722656 176.390625 137.695312 C 176.507812 137.667969 176.613281 137.632812 176.703125 137.59375 C 176.789062 137.550781 176.863281 137.503906 176.917969 137.453125 C 176.972656 137.402344 177.007812 137.347656 177.023438 137.289062 Z M 177.023438 137.289062 " fill-opacity="1" fill-rule="nonzero"/><path fill="#2153aa" d="M 178.289062 138.746094 C 178.304688 138.746094 178.320312 138.75 178.332031 138.753906 C 178.34375 138.757812 178.359375 138.761719 178.375 138.765625 C 178.390625 138.769531 178.410156 138.777344 178.429688 138.78125 C 178.449219 138.785156 178.476562 138.785156 178.507812 138.785156 C 178.601562 138.785156 178.707031 138.777344 178.820312 138.757812 C 178.933594 138.734375 179.042969 138.710938 179.144531 138.679688 C 179.246094 138.644531 179.332031 138.609375 179.40625 138.570312 C 179.480469 138.527344 179.519531 138.484375 179.53125 138.441406 C 179.535156 138.417969 179.539062 138.398438 179.539062 138.378906 C 179.539062 138.34375 179.523438 138.3125 179.492188 138.28125 C 179.457031 138.25 179.414062 138.222656 179.367188 138.191406 C 179.316406 138.164062 179.261719 138.140625 179.203125 138.113281 C 179.148438 138.089844 179.09375 138.070312 179.042969 138.050781 L 178.941406 138.007812 C 178.890625 137.988281 178.839844 137.964844 178.789062 137.933594 C 178.738281 137.90625 178.691406 137.871094 178.648438 137.832031 C 178.609375 137.796875 178.570312 137.75 178.535156 137.699219 C 178.503906 137.648438 178.480469 137.589844 178.464844 137.523438 C 178.457031 137.496094 178.449219 137.46875 178.445312 137.441406 C 178.4375 137.414062 178.4375 137.382812 178.4375 137.351562 C 178.4375 137.300781 178.453125 137.238281 178.488281 137.171875 C 178.523438 137.105469 178.570312 137.039062 178.628906 136.972656 C 178.6875 136.910156 178.753906 136.84375 178.828125 136.785156 C 178.90625 136.726562 178.984375 136.675781 179.066406 136.636719 C 179.125 136.59375 179.183594 136.554688 179.238281 136.523438 C 179.292969 136.488281 179.351562 136.460938 179.40625 136.433594 C 179.464844 136.410156 179.523438 136.394531 179.582031 136.378906 C 179.640625 136.363281 179.703125 136.355469 179.765625 136.355469 C 179.828125 136.355469 179.890625 136.359375 179.960938 136.367188 C 180.03125 136.371094 180.09375 136.386719 180.152344 136.410156 C 180.210938 136.429688 180.257812 136.464844 180.296875 136.503906 C 180.335938 136.546875 180.355469 136.605469 180.355469 136.679688 C 180.355469 136.699219 180.351562 136.730469 180.347656 136.765625 C 180.339844 136.800781 180.332031 136.835938 180.316406 136.871094 C 180.304688 136.910156 180.285156 136.9375 180.265625 136.964844 C 180.246094 136.992188 180.222656 137.003906 180.195312 137.003906 C 180.148438 137.003906 180.109375 136.996094 180.082031 136.976562 C 180.050781 136.957031 180.023438 136.9375 180 136.917969 C 179.976562 136.898438 179.953125 136.878906 179.925781 136.859375 C 179.898438 136.839844 179.867188 136.832031 179.828125 136.832031 C 179.785156 136.832031 179.730469 136.839844 179.667969 136.859375 C 179.609375 136.875 179.546875 136.898438 179.484375 136.925781 C 179.417969 136.957031 179.355469 136.988281 179.296875 137.027344 C 179.234375 137.066406 179.179688 137.105469 179.132812 137.144531 C 179.082031 137.183594 179.042969 137.222656 179.015625 137.261719 C 178.984375 137.300781 178.96875 137.335938 178.96875 137.367188 C 178.96875 137.402344 178.980469 137.429688 179 137.453125 C 179.023438 137.476562 179.050781 137.492188 179.085938 137.507812 C 179.128906 137.535156 179.179688 137.558594 179.238281 137.582031 C 179.292969 137.605469 179.351562 137.628906 179.410156 137.652344 C 179.464844 137.679688 179.523438 137.703125 179.578125 137.726562 C 179.632812 137.75 179.679688 137.769531 179.71875 137.792969 C 179.773438 137.820312 179.820312 137.847656 179.863281 137.875 C 179.90625 137.902344 179.945312 137.929688 179.972656 137.960938 C 180.003906 137.992188 180.027344 138.03125 180.042969 138.070312 C 180.058594 138.109375 180.066406 138.15625 180.066406 138.210938 C 180.066406 138.238281 180.0625 138.261719 180.058594 138.289062 C 180.054688 138.316406 180.050781 138.34375 180.042969 138.378906 C 180.035156 138.410156 180.027344 138.445312 180.011719 138.484375 C 179.996094 138.523438 179.980469 138.5625 179.964844 138.601562 C 179.945312 138.640625 179.929688 138.675781 179.910156 138.707031 C 179.890625 138.738281 179.878906 138.757812 179.867188 138.769531 C 179.789062 138.839844 179.695312 138.90625 179.589844 138.96875 C 179.484375 139.035156 179.375 139.089844 179.261719 139.136719 C 179.144531 139.183594 179.03125 139.21875 178.917969 139.246094 C 178.800781 139.277344 178.695312 139.289062 178.601562 139.289062 C 178.554688 139.289062 178.5 139.28125 178.441406 139.261719 C 178.386719 139.242188 178.332031 139.21875 178.28125 139.1875 C 178.234375 139.15625 178.195312 139.121094 178.160156 139.078125 C 178.128906 139.039062 178.109375 139 178.109375 138.960938 C 178.109375 138.941406 178.117188 138.917969 178.128906 138.890625 C 178.140625 138.867188 178.15625 138.84375 178.171875 138.824219 C 178.191406 138.800781 178.210938 138.785156 178.230469 138.769531 C 178.253906 138.753906 178.273438 138.746094 178.289062 138.746094 Z M 178.289062 138.746094 " fill-opacity="1" fill-rule="nonzero"/><path fill="#2153aa" d="M 180.820312 138.746094 C 180.835938 138.746094 180.851562 138.75 180.863281 138.753906 C 180.878906 138.757812 180.890625 138.761719 180.90625 138.765625 C 180.925781 138.769531 180.941406 138.777344 180.960938 138.78125 C 180.980469 138.785156 181.007812 138.785156 181.039062 138.785156 C 181.132812 138.785156 181.238281 138.777344 181.351562 138.757812 C 181.464844 138.734375 181.574219 138.710938 181.675781 138.679688 C 181.777344 138.644531 181.867188 138.609375 181.9375 138.570312 C 182.011719 138.527344 182.050781 138.484375 182.0625 138.441406 C 182.066406 138.417969 182.070312 138.398438 182.070312 138.378906 C 182.070312 138.34375 182.054688 138.3125 182.023438 138.28125 C 181.988281 138.25 181.949219 138.222656 181.898438 138.191406 C 181.847656 138.164062 181.792969 138.140625 181.734375 138.113281 C 181.679688 138.089844 181.625 138.070312 181.574219 138.050781 L 181.472656 138.007812 C 181.421875 137.988281 181.371094 137.964844 181.320312 137.933594 C 181.269531 137.90625 181.226562 137.871094 181.183594 137.832031 C 181.140625 137.796875 181.101562 137.75 181.070312 137.699219 C 181.035156 137.648438 181.011719 137.589844 180.996094 137.523438 C 180.988281 137.496094 180.980469 137.46875 180.976562 137.441406 C 180.972656 137.414062 180.96875 137.382812 180.96875 137.351562 C 180.96875 137.300781 180.984375 137.238281 181.019531 137.171875 C 181.054688 137.105469 181.101562 137.039062 181.160156 136.972656 C 181.21875 136.910156 181.285156 136.84375 181.363281 136.785156 C 181.4375 136.726562 181.515625 136.675781 181.597656 136.636719 C 181.65625 136.59375 181.714844 136.554688 181.769531 136.523438 C 181.824219 136.488281 181.882812 136.460938 181.9375 136.433594 C 181.996094 136.410156 182.054688 136.394531 182.113281 136.378906 C 182.171875 136.363281 182.234375 136.355469 182.296875 136.355469 C 182.359375 136.355469 182.421875 136.359375 182.492188 136.367188 C 182.5625 136.371094 182.625 136.386719 182.683594 136.410156 C 182.742188 136.429688 182.789062 136.464844 182.828125 136.503906 C 182.867188 136.546875 182.886719 136.605469 182.886719 136.679688 C 182.886719 136.699219 182.882812 136.730469 182.878906 136.765625 C 182.871094 136.800781 182.863281 136.835938 182.847656 136.871094 C 182.835938 136.910156 182.816406 136.9375 182.796875 136.964844 C 182.777344 136.992188 182.753906 137.003906 182.726562 137.003906 C 182.679688 137.003906 182.640625 136.996094 182.613281 136.976562 C 182.582031 136.957031 182.554688 136.9375 182.53125 136.917969 C 182.507812 136.898438 182.484375 136.878906 182.457031 136.859375 C 182.429688 136.839844 182.398438 136.832031 182.363281 136.832031 C 182.316406 136.832031 182.261719 136.839844 182.203125 136.859375 C 182.140625 136.875 182.078125 136.898438 182.015625 136.925781 C 181.949219 136.957031 181.890625 136.988281 181.828125 137.027344 C 181.765625 137.066406 181.710938 137.105469 181.664062 137.144531 C 181.613281 137.183594 181.574219 137.222656 181.546875 137.261719 C 181.515625 137.300781 181.5 137.335938 181.5 137.367188 C 181.5 137.402344 181.511719 137.429688 181.535156 137.453125 C 181.554688 137.476562 181.582031 137.492188 181.617188 137.507812 C 181.660156 137.535156 181.710938 137.558594 181.769531 137.582031 C 181.824219 137.605469 181.882812 137.628906 181.941406 137.652344 C 182 137.679688 182.054688 137.703125 182.109375 137.726562 C 182.164062 137.75 182.210938 137.769531 182.25 137.792969 C 182.304688 137.820312 182.351562 137.847656 182.394531 137.875 C 182.4375 137.902344 182.476562 137.929688 182.503906 137.960938 C 182.535156 137.992188 182.558594 138.03125 182.574219 138.070312 C 182.589844 138.109375 182.597656 138.15625 182.597656 138.210938 C 182.597656 138.238281 182.597656 138.261719 182.59375 138.289062 C 182.585938 138.316406 182.582031 138.34375 182.574219 138.378906 C 182.566406 138.410156 182.558594 138.445312 182.542969 138.484375 C 182.527344 138.523438 182.511719 138.5625 182.496094 138.601562 C 182.476562 138.640625 182.460938 138.675781 182.441406 138.707031 C 182.425781 138.738281 182.410156 138.757812 182.398438 138.769531 C 182.320312 138.839844 182.226562 138.90625 182.121094 138.96875 C 182.015625 139.035156 181.90625 139.089844 181.792969 139.136719 C 181.675781 139.183594 181.5625 139.21875 181.449219 139.246094 C 181.332031 139.277344 181.230469 139.289062 181.132812 139.289062 C 181.085938 139.289062 181.03125 139.28125 180.976562 139.261719 C 180.917969 139.242188 180.863281 139.21875 180.816406 139.1875 C 180.765625 139.15625 180.726562 139.121094 180.691406 139.078125 C 180.660156 139.039062 180.644531 139 180.644531 138.960938 C 180.644531 138.941406 180.648438 138.917969 180.660156 138.890625 C 180.671875 138.867188 180.6875 138.84375 180.707031 138.824219 C 180.722656 138.800781 180.742188 138.785156 180.765625 138.769531 C 180.785156 138.753906 180.804688 138.746094 180.820312 138.746094 Z M 180.820312 138.746094 " fill-opacity="1" fill-rule="nonzero"/><path fill="#2153aa" d="M 183.3125 138.128906 C 183.339844 138.007812 183.386719 137.878906 183.449219 137.742188 C 183.511719 137.605469 183.59375 137.46875 183.695312 137.328125 C 183.796875 137.1875 183.921875 137.050781 184.0625 136.917969 C 184.203125 136.785156 184.371094 136.660156 184.558594 136.542969 C 184.585938 136.523438 184.632812 136.503906 184.695312 136.484375 C 184.757812 136.464844 184.820312 136.453125 184.886719 136.445312 C 184.964844 136.363281 185.070312 136.320312 185.199219 136.320312 C 185.355469 136.320312 185.488281 136.359375 185.59375 136.441406 C 185.699219 136.519531 185.789062 136.625 185.859375 136.761719 C 185.878906 136.804688 185.898438 136.847656 185.917969 136.890625 C 185.9375 136.933594 185.953125 136.976562 185.96875 137.023438 C 185.980469 137.070312 185.992188 137.121094 186 137.175781 C 186.007812 137.226562 186.011719 137.289062 186.011719 137.355469 C 186.011719 137.515625 185.984375 137.675781 185.9375 137.839844 C 185.886719 138.003906 185.816406 138.164062 185.722656 138.316406 C 185.632812 138.472656 185.519531 138.625 185.390625 138.765625 C 185.257812 138.910156 185.113281 139.035156 184.953125 139.152344 C 184.847656 139.230469 184.726562 139.289062 184.597656 139.332031 C 184.46875 139.375 184.320312 139.398438 184.160156 139.398438 C 184.007812 139.398438 183.875 139.375 183.761719 139.335938 C 183.648438 139.292969 183.554688 139.234375 183.480469 139.160156 C 183.40625 139.085938 183.347656 138.992188 183.3125 138.886719 C 183.273438 138.78125 183.257812 138.664062 183.257812 138.535156 C 183.257812 138.40625 183.277344 138.273438 183.3125 138.128906 Z M 183.808594 138.167969 C 183.796875 138.214844 183.785156 138.257812 183.78125 138.296875 C 183.777344 138.339844 183.773438 138.378906 183.773438 138.417969 C 183.773438 138.484375 183.785156 138.542969 183.800781 138.601562 C 183.816406 138.660156 183.84375 138.707031 183.882812 138.746094 C 183.921875 138.789062 183.96875 138.820312 184.023438 138.84375 C 184.082031 138.867188 184.148438 138.878906 184.230469 138.878906 C 184.382812 138.878906 184.523438 138.839844 184.65625 138.761719 C 184.785156 138.683594 184.902344 138.589844 185.003906 138.472656 C 185.105469 138.359375 185.191406 138.234375 185.257812 138.101562 C 185.328125 137.96875 185.375 137.84375 185.402344 137.734375 C 185.421875 137.664062 185.4375 137.597656 185.449219 137.535156 C 185.464844 137.472656 185.46875 137.417969 185.46875 137.367188 C 185.46875 137.3125 185.460938 137.265625 185.441406 137.21875 C 185.421875 137.175781 185.398438 137.125 185.367188 137.070312 C 185.351562 137.035156 185.332031 137 185.3125 136.960938 C 185.296875 136.925781 185.28125 136.890625 185.265625 136.851562 C 185.25 136.882812 185.234375 136.90625 185.214844 136.925781 C 185.199219 136.949219 185.171875 136.964844 185.136719 136.984375 C 185.097656 137 185.050781 137.015625 184.988281 137.03125 C 184.925781 137.042969 184.847656 137.054688 184.746094 137.066406 C 184.679688 137.085938 184.613281 137.121094 184.546875 137.167969 C 184.476562 137.214844 184.410156 137.265625 184.347656 137.328125 C 184.28125 137.390625 184.222656 137.457031 184.160156 137.53125 C 184.101562 137.601562 184.050781 137.675781 184.003906 137.75 C 183.957031 137.824219 183.914062 137.898438 183.878906 137.96875 C 183.847656 138.042969 183.820312 138.109375 183.808594 138.167969 Z M 183.808594 138.167969 " fill-opacity="1" fill-rule="nonzero"/><path fill="#2153aa" d="M 188.640625 136.816406 C 188.570312 136.816406 188.496094 136.835938 188.417969 136.867188 C 188.335938 136.902344 188.253906 136.945312 188.167969 137 C 188.082031 137.054688 187.996094 137.121094 187.90625 137.191406 C 187.820312 137.261719 187.730469 137.335938 187.644531 137.410156 C 187.601562 137.449219 187.5625 137.484375 187.519531 137.515625 C 187.480469 137.546875 187.441406 137.566406 187.402344 137.585938 C 187.375 137.628906 187.34375 137.691406 187.3125 137.765625 C 187.28125 137.839844 187.25 137.921875 187.222656 138.011719 C 187.191406 138.101562 187.164062 138.191406 187.136719 138.285156 C 187.109375 138.375 187.085938 138.464844 187.070312 138.542969 C 187.058594 138.585938 187.050781 138.625 187.046875 138.664062 C 187.039062 138.707031 187.03125 138.746094 187.023438 138.792969 C 187.015625 138.839844 187.007812 138.886719 186.996094 138.9375 C 186.984375 138.992188 186.972656 139.046875 186.957031 139.113281 C 186.945312 139.148438 186.929688 139.179688 186.90625 139.203125 C 186.886719 139.226562 186.863281 139.242188 186.839844 139.253906 C 186.816406 139.269531 186.792969 139.273438 186.769531 139.277344 C 186.746094 139.28125 186.730469 139.28125 186.71875 139.28125 C 186.644531 139.28125 186.582031 139.265625 186.535156 139.230469 C 186.484375 139.191406 186.460938 139.121094 186.460938 139.019531 C 186.460938 138.992188 186.464844 138.960938 186.464844 138.929688 C 186.46875 138.898438 186.472656 138.863281 186.484375 138.828125 C 186.527344 138.636719 186.570312 138.46875 186.609375 138.316406 C 186.652344 138.164062 186.691406 138.023438 186.734375 137.894531 C 186.777344 137.761719 186.820312 137.640625 186.863281 137.527344 C 186.902344 137.410156 186.949219 137.296875 186.992188 137.179688 C 187.039062 137.0625 187.085938 136.941406 187.132812 136.816406 C 187.183594 136.691406 187.234375 136.554688 187.289062 136.402344 C 187.300781 136.367188 187.332031 136.339844 187.382812 136.316406 C 187.4375 136.292969 187.488281 136.28125 187.546875 136.28125 C 187.625 136.28125 187.6875 136.300781 187.734375 136.332031 C 187.785156 136.367188 187.808594 136.414062 187.808594 136.480469 C 187.808594 136.484375 187.804688 136.496094 187.800781 136.511719 C 187.796875 136.527344 187.792969 136.546875 187.785156 136.5625 L 187.652344 136.875 C 187.734375 136.808594 187.824219 136.742188 187.914062 136.675781 C 188.003906 136.609375 188.097656 136.550781 188.191406 136.5 C 188.289062 136.445312 188.382812 136.402344 188.480469 136.371094 C 188.578125 136.335938 188.671875 136.320312 188.765625 136.320312 C 188.957031 136.320312 189.109375 136.371094 189.214844 136.472656 C 189.324219 136.578125 189.375 136.738281 189.375 136.953125 C 189.375 137.074219 189.355469 137.21875 189.3125 137.375 C 189.269531 137.53125 189.214844 137.703125 189.152344 137.882812 C 189.085938 138.0625 189.015625 138.253906 188.941406 138.449219 C 188.867188 138.648438 188.796875 138.851562 188.734375 139.058594 C 188.714844 139.113281 188.699219 139.160156 188.679688 139.199219 C 188.660156 139.238281 188.636719 139.265625 188.609375 139.289062 C 188.585938 139.3125 188.554688 139.328125 188.519531 139.339844 C 188.484375 139.347656 188.441406 139.355469 188.394531 139.355469 C 188.316406 139.355469 188.261719 139.339844 188.230469 139.3125 C 188.203125 139.28125 188.1875 139.234375 188.1875 139.171875 C 188.1875 139.117188 188.195312 139.046875 188.210938 138.964844 C 188.226562 138.886719 188.253906 138.796875 188.285156 138.699219 C 188.3125 138.601562 188.351562 138.5 188.390625 138.390625 C 188.433594 138.28125 188.476562 138.167969 188.523438 138.054688 C 188.5625 137.964844 188.597656 137.871094 188.636719 137.777344 C 188.671875 137.6875 188.707031 137.597656 188.734375 137.511719 C 188.761719 137.425781 188.785156 137.34375 188.804688 137.265625 C 188.824219 137.1875 188.832031 137.117188 188.832031 137.050781 C 188.832031 136.988281 188.816406 136.933594 188.792969 136.886719 C 188.765625 136.839844 188.714844 136.816406 188.640625 136.816406 Z M 188.640625 136.816406 " fill-opacity="1" fill-rule="nonzero"/><path fill="#2153aa" d="M 194.261719 135.492188 C 194.203125 135.507812 194.097656 135.546875 193.933594 135.609375 C 193.582031 135.746094 193.359375 135.8125 193.269531 135.8125 C 193.210938 135.8125 193.164062 135.792969 193.128906 135.757812 C 193.097656 135.71875 193.078125 135.675781 193.078125 135.625 C 193.078125 135.488281 193.144531 135.378906 193.269531 135.308594 C 193.394531 135.238281 193.65625 135.152344 194.050781 135.050781 C 194.449219 134.953125 194.6875 134.90625 194.769531 134.90625 C 194.890625 134.90625 194.953125 134.960938 194.953125 135.074219 C 194.953125 135.15625 194.910156 135.273438 194.824219 135.417969 C 194.621094 135.765625 194.375 136.339844 194.085938 137.136719 C 193.796875 137.933594 193.621094 138.578125 193.550781 139.066406 C 193.542969 139.144531 193.507812 139.199219 193.449219 139.242188 C 193.390625 139.28125 193.320312 139.300781 193.246094 139.300781 C 193.070312 139.300781 192.980469 139.222656 192.980469 139.0625 C 192.980469 138.800781 193.125 138.257812 193.414062 137.441406 C 193.703125 136.621094 193.984375 135.972656 194.261719 135.492188 Z M 194.261719 135.492188 " fill-opacity="1" fill-rule="nonzero"/></svg>