<svg xmlns="http://www.w3.org/2000/svg" xmlns:xlink="http://www.w3.org/1999/xlink" width="500" zoomAndPan="magnify" viewBox="0 0 375 374.999991" height="500" preserveAspectRatio="xMidYMid meet" version="1.0"><defs><clipPath id="id1"><path d="M 0.703125 169 L 189 169 L 189 194 L 0.703125 194 Z M 0.703125 169 " clip-rule="nonzero"/></clipPath><clipPath id="id2"><path d="M 180 346 L 368.953125 346 L 368.953125 369.75 L 180 369.75 Z M 180 346 " clip-rule="nonzero"/></clipPath></defs><path fill="#c7d7e5" d="M 22.363281 88.757812 L 167.0625 88.757812 L 94.710938 24.039062 Z M 22.363281 88.757812 " fill-opacity="1" fill-rule="nonzero"/><path fill="#c7d7e5" d="M 163.589844 173.460938 L 25.835938 173.460938 C 21.375 173.460938 17.757812 169.847656 17.757812 165.386719 C 17.757812 160.921875 21.375 157.300781 25.835938 157.300781 L 163.589844 157.300781 C 168.050781 157.300781 171.664062 160.921875 171.664062 165.386719 C 171.664062 169.847656 168.050781 173.460938 163.589844 173.460938 " fill-opacity="1" fill-rule="nonzero"/><path fill="#c7d7e5" d="M 202.59375 265.097656 L 347.292969 265.097656 L 274.941406 200.378906 Z M 202.59375 265.097656 " fill-opacity="1" fill-rule="nonzero"/><path fill="#c7d7e5" d="M 343.820312 349.804688 L 206.066406 349.804688 C 201.605469 349.804688 197.992188 346.191406 197.992188 341.726562 C 197.992188 337.265625 201.605469 333.644531 206.066406 333.644531 L 343.820312 333.644531 C 348.28125 333.644531 351.898438 337.265625 351.898438 341.726562 C 351.898438 346.191406 348.28125 349.804688 343.820312 349.804688 " fill-opacity="1" fill-rule="nonzero"/><path fill="#edf4fc" d="M 103.082031 64.097656 C 103.082031 68.722656 99.335938 72.472656 94.710938 72.472656 C 90.089844 72.472656 86.34375 68.722656 86.34375 64.097656 C 86.34375 59.472656 90.089844 55.722656 94.710938 55.722656 C 99.335938 55.722656 103.082031 59.472656 103.082031 64.097656 " fill-opacity="1" fill-rule="nonzero"/><path fill="#edf4fc" d="M 178.433594 76.878906 L 100.1875 6.882812 C 97.070312 4.09375 92.355469 4.09375 89.238281 6.882812 L 10.984375 76.878906 C 7.339844 80.152344 7.339844 85.867188 10.984375 89.132812 C 14.109375 91.925781 18.824219 91.925781 21.941406 89.132812 L 94.710938 24.039062 L 167.480469 89.132812 C 170.601562 91.925781 175.316406 91.925781 178.433594 89.132812 C 182.085938 85.867188 182.085938 80.152344 178.433594 76.878906 " fill-opacity="1" fill-rule="nonzero"/><path fill="#edf4fc" d="M 177.050781 189.621094 L 12.375 189.621094 C 7.914062 189.621094 4.300781 186.003906 4.300781 181.546875 C 4.300781 177.082031 7.914062 173.460938 12.375 173.460938 L 177.050781 173.460938 C 181.507812 173.460938 185.125 177.082031 185.125 181.546875 C 185.125 186.003906 181.507812 189.621094 177.050781 189.621094 " fill-opacity="1" fill-rule="nonzero"/><path fill="#edf4fc" d="M 131.558594 88.757812 L 131.558594 157.300781 L 162.925781 157.300781 L 162.925781 88.757812 L 131.558594 88.757812 " fill-opacity="1" fill-rule="nonzero"/><path fill="#edf4fc" d="M 79.03125 88.757812 L 79.03125 157.300781 L 110.390625 157.300781 L 110.390625 88.757812 L 79.03125 88.757812 " fill-opacity="1" fill-rule="nonzero"/><path fill="#edf4fc" d="M 26.5 88.757812 L 26.5 157.300781 L 57.859375 157.300781 L 57.859375 88.757812 L 26.5 88.757812 " fill-opacity="1" fill-rule="nonzero"/><path fill="#3a70bf" d="M 110.390625 104.445312 L 131.558594 104.445312 L 131.558594 88.757812 L 110.390625 88.757812 L 110.390625 104.445312 " fill-opacity="1" fill-rule="nonzero"/><path fill="#3a70bf" d="M 57.859375 104.445312 L 79.03125 104.445312 L 79.03125 88.757812 L 57.859375 88.757812 L 57.859375 104.445312 " fill-opacity="1" fill-rule="nonzero"/><path fill="#edf4fc" d="M 283.3125 240.441406 C 283.3125 245.066406 279.566406 248.816406 274.941406 248.816406 C 270.320312 248.816406 266.574219 245.066406 266.574219 240.441406 C 266.574219 235.816406 270.320312 232.066406 274.941406 232.066406 C 279.566406 232.066406 283.3125 235.816406 283.3125 240.441406 " fill-opacity="1" fill-rule="nonzero"/><path fill="#edf4fc" d="M 358.671875 253.222656 L 280.417969 183.226562 C 277.300781 180.4375 272.585938 180.4375 269.46875 183.226562 L 191.222656 253.222656 C 187.570312 256.488281 187.570312 262.210938 191.222656 265.476562 C 194.339844 268.269531 199.054688 268.269531 202.175781 265.476562 L 274.941406 200.378906 L 347.714844 265.476562 C 350.832031 268.269531 355.550781 268.269531 358.671875 265.476562 C 362.324219 262.210938 362.324219 256.488281 358.671875 253.222656 " fill-opacity="1" fill-rule="nonzero"/><path fill="#edf4fc" d="M 357.28125 365.964844 L 192.605469 365.964844 C 188.148438 365.964844 184.53125 362.34375 184.53125 357.886719 C 184.53125 353.425781 188.148438 349.804688 192.605469 349.804688 L 357.28125 349.804688 C 361.738281 349.804688 365.355469 353.425781 365.355469 357.886719 C 365.355469 362.34375 361.738281 365.964844 357.28125 365.964844 " fill-opacity="1" fill-rule="nonzero"/><path fill="#edf4fc" d="M 311.796875 265.097656 L 311.796875 333.644531 L 343.15625 333.644531 L 343.15625 265.097656 L 311.796875 265.097656 " fill-opacity="1" fill-rule="nonzero"/><path fill="#edf4fc" d="M 259.261719 265.097656 L 259.261719 333.644531 L 290.625 333.644531 L 290.625 265.097656 L 259.261719 265.097656 " fill-opacity="1" fill-rule="nonzero"/><path fill="#edf4fc" d="M 206.730469 265.097656 L 206.730469 333.644531 L 238.089844 333.644531 L 238.089844 265.097656 L 206.730469 265.097656 " fill-opacity="1" fill-rule="nonzero"/><path fill="#3a70bf" d="M 290.625 280.785156 L 311.796875 280.785156 L 311.796875 265.097656 L 290.625 265.097656 L 290.625 280.785156 " fill-opacity="1" fill-rule="nonzero"/><path fill="#3a70bf" d="M 238.089844 280.785156 L 259.261719 280.785156 L 259.261719 265.097656 L 238.089844 265.097656 L 238.089844 280.785156 " fill-opacity="1" fill-rule="nonzero"/><path fill="#5290db" d="M 79.03125 104.445312 L 57.859375 104.445312 L 57.859375 157.300781 L 79.03125 157.300781 L 79.03125 104.445312 " fill-opacity="1" fill-rule="nonzero"/><path fill="#5290db" d="M 110.390625 104.445312 L 110.390625 157.300781 L 131.558594 157.300781 L 131.558594 104.445312 L 110.390625 104.445312 " fill-opacity="1" fill-rule="nonzero"/><path fill="#5290db" d="M 259.261719 280.785156 L 238.089844 280.785156 L 238.089844 333.644531 L 259.261719 333.644531 L 259.261719 280.785156 " fill-opacity="1" fill-rule="nonzero"/><path fill="#5290db" d="M 290.625 280.785156 L 290.625 333.644531 L 311.796875 333.644531 L 311.796875 280.785156 L 290.625 280.785156 " fill-opacity="1" fill-rule="nonzero"/><path fill="#70d6f9" d="M 309.679688 115.578125 L 301.652344 118.007812 C 292.484375 86.765625 265.539062 63.121094 233.0625 58.441406 C 229.792969 57.976562 226.515625 57.71875 223.257812 57.652344 C 220.695312 57.59375 218.585938 59.675781 218.566406 62.238281 L 218.507812 68.660156 C 218.484375 71.195312 220.507812 73.238281 223.039062 73.316406 C 250.660156 74.199219 277.667969 91.234375 286.773438 122.515625 L 277.328125 125.371094 C 275.300781 125.984375 274.941406 128.753906 276.726562 129.945312 L 298.851562 144.707031 C 300.136719 145.566406 301.882812 145.039062 302.480469 143.609375 L 312.710938 119.058594 C 313.539062 117.074219 311.699219 114.964844 309.679688 115.578125 " fill-opacity="1" fill-rule="nonzero"/><path fill="#70d6f9" d="M 62.789062 254.105469 L 70.8125 251.675781 C 79.980469 282.917969 106.925781 306.5625 139.398438 311.242188 C 142.675781 311.710938 145.949219 311.972656 149.207031 312.039062 C 151.769531 312.089844 153.878906 310.007812 153.902344 307.445312 L 153.957031 301.023438 C 153.980469 298.488281 151.957031 296.445312 149.429688 296.367188 C 121.808594 295.492188 94.800781 278.453125 85.695312 247.175781 L 95.140625 244.3125 C 97.164062 243.699219 97.523438 240.933594 95.738281 239.738281 L 73.617188 224.976562 C 72.328125 224.125 70.582031 224.652344 69.984375 226.078125 L 59.753906 250.632812 C 58.925781 252.613281 60.765625 254.71875 62.789062 254.105469 " fill-opacity="1" fill-rule="nonzero"/><path fill="#231f20" d="M 94.710938 59.320312 C 92.082031 59.320312 89.9375 61.46875 89.9375 64.097656 C 89.9375 66.734375 92.082031 68.875 94.710938 68.875 C 97.34375 68.875 99.484375 66.734375 99.484375 64.097656 C 99.484375 61.46875 97.34375 59.320312 94.710938 59.320312 Z M 94.710938 76.070312 C 88.113281 76.070312 82.746094 70.695312 82.746094 64.097656 C 82.746094 57.5 88.113281 52.125 94.710938 52.125 C 101.3125 52.125 106.679688 57.5 106.679688 64.097656 C 106.679688 70.695312 101.3125 76.070312 94.710938 76.070312 " fill-opacity="1" fill-rule="nonzero"/><path fill="#000000" d="M 94.710938 20.441406 C 95.570312 20.441406 96.429688 20.742188 97.109375 21.355469 L 169.875 86.457031 C 171.632812 88.027344 174.28125 88.027344 176.039062 86.457031 C 177.027344 85.5625 177.578125 84.34375 177.578125 83.007812 C 177.578125 81.675781 177.027344 80.449219 176.039062 79.558594 L 97.789062 9.5625 C 96.035156 7.996094 93.382812 7.996094 91.628906 9.5625 L 13.386719 79.558594 C 12.390625 80.449219 11.84375 81.675781 11.84375 83.007812 C 11.84375 84.34375 12.390625 85.5625 13.386719 86.453125 C 15.136719 88.027344 17.789062 88.027344 19.542969 86.457031 L 92.316406 21.355469 C 92.996094 20.742188 93.855469 20.441406 94.710938 20.441406 Z M 172.953125 94.828125 C 170.140625 94.828125 167.332031 93.828125 165.082031 91.8125 L 94.710938 28.867188 L 24.34375 91.820312 C 19.851562 95.832031 13.082031 95.832031 8.59375 91.8125 C 6.085938 89.578125 4.652344 86.367188 4.652344 83.007812 C 4.652344 79.652344 6.085938 76.441406 8.59375 74.199219 L 86.835938 4.203125 C 91.328125 0.1875 98.097656 0.1875 102.585938 4.203125 L 180.832031 74.199219 C 183.332031 76.441406 184.773438 79.652344 184.773438 83.007812 C 184.773438 86.367188 183.332031 89.578125 180.832031 91.820312 C 178.585938 93.820312 175.769531 94.828125 172.953125 94.828125 " fill-opacity="1" fill-rule="nonzero"/><path fill="#000000" d="M 31.777344 85.160156 L 157.644531 85.160156 L 94.710938 28.867188 Z M 167.0625 92.355469 L 22.363281 92.355469 C 20.875 92.355469 19.539062 91.4375 19.003906 90.042969 C 18.46875 88.648438 18.851562 87.070312 19.964844 86.074219 L 92.316406 21.355469 C 93.679688 20.132812 95.742188 20.132812 97.109375 21.355469 L 169.460938 86.074219 C 170.574219 87.070312 170.953125 88.648438 170.421875 90.042969 C 169.886719 91.4375 168.550781 92.355469 167.0625 92.355469 " fill-opacity="1" fill-rule="nonzero"/><g clip-path="url(#id1)"><path fill="#000000" d="M 12.375 177.058594 C 9.90625 177.058594 7.894531 179.070312 7.894531 181.546875 C 7.894531 184.011719 9.90625 186.023438 12.375 186.023438 L 177.050781 186.023438 C 179.519531 186.023438 181.53125 184.011719 181.53125 181.546875 C 181.53125 179.070312 179.519531 177.058594 177.050781 177.058594 Z M 177.050781 193.21875 L 12.375 193.21875 C 5.941406 193.21875 0.703125 187.980469 0.703125 181.546875 C 0.703125 175.105469 5.941406 169.863281 12.375 169.863281 L 177.050781 169.863281 C 183.484375 169.863281 188.722656 175.105469 188.722656 181.546875 C 188.722656 187.980469 183.484375 193.21875 177.050781 193.21875 " fill-opacity="1" fill-rule="nonzero"/></g><path fill="#000000" d="M 25.835938 160.898438 C 23.363281 160.898438 21.351562 162.910156 21.351562 165.386719 C 21.351562 167.851562 23.363281 169.863281 25.835938 169.863281 L 163.589844 169.863281 C 166.054688 169.863281 168.066406 167.851562 168.066406 165.386719 C 168.066406 162.910156 166.054688 160.898438 163.589844 160.898438 Z M 163.589844 177.058594 L 25.835938 177.058594 C 19.398438 177.058594 14.160156 171.820312 14.160156 165.386719 C 14.160156 158.945312 19.398438 153.707031 25.835938 153.707031 L 163.589844 153.707031 C 170.023438 153.707031 175.257812 158.945312 175.257812 165.386719 C 175.257812 171.820312 170.023438 177.058594 163.589844 177.058594 " fill-opacity="1" fill-rule="nonzero"/><path fill="#000000" d="M 135.15625 153.707031 L 159.328125 153.707031 L 159.328125 92.355469 L 135.15625 92.355469 Z M 162.925781 160.898438 L 131.558594 160.898438 C 129.574219 160.898438 127.964844 159.292969 127.964844 157.300781 L 127.964844 88.757812 C 127.964844 86.773438 129.574219 85.160156 131.558594 85.160156 L 162.925781 85.160156 C 164.910156 85.160156 166.519531 86.773438 166.519531 88.757812 L 166.519531 157.300781 C 166.519531 159.292969 164.910156 160.898438 162.925781 160.898438 " fill-opacity="1" fill-rule="nonzero"/><path fill="#000000" d="M 82.628906 153.707031 L 106.796875 153.707031 L 106.796875 92.355469 L 82.628906 92.355469 Z M 110.390625 160.898438 L 79.03125 160.898438 C 77.042969 160.898438 75.4375 159.292969 75.4375 157.300781 L 75.4375 88.757812 C 75.4375 86.773438 77.042969 85.160156 79.03125 85.160156 L 110.390625 85.160156 C 112.382812 85.160156 113.988281 86.773438 113.988281 88.757812 L 113.988281 157.300781 C 113.988281 159.292969 112.382812 160.898438 110.390625 160.898438 " fill-opacity="1" fill-rule="nonzero"/><path fill="#000000" d="M 30.097656 153.707031 L 54.265625 153.707031 L 54.265625 92.355469 L 30.097656 92.355469 Z M 57.859375 160.898438 L 26.5 160.898438 C 24.511719 160.898438 22.902344 159.292969 22.902344 157.300781 L 22.902344 88.757812 C 22.902344 86.773438 24.511719 85.160156 26.5 85.160156 L 57.859375 85.160156 C 59.847656 85.160156 61.457031 86.773438 61.457031 88.757812 L 61.457031 157.300781 C 61.457031 159.292969 59.847656 160.898438 57.859375 160.898438 " fill-opacity="1" fill-rule="nonzero"/><path fill="#000000" d="M 147.242188 144.121094 C 145.257812 144.121094 143.644531 142.507812 143.644531 140.523438 L 143.644531 106.011719 C 143.644531 104.027344 145.257812 102.414062 147.242188 102.414062 C 149.230469 102.414062 150.839844 104.027344 150.839844 106.011719 L 150.839844 140.523438 C 150.839844 142.507812 149.230469 144.121094 147.242188 144.121094 " fill-opacity="1" fill-rule="nonzero"/><path fill="#000000" d="M 94.710938 144.121094 C 92.726562 144.121094 91.113281 142.507812 91.113281 140.523438 L 91.113281 106.011719 C 91.113281 104.027344 92.726562 102.414062 94.710938 102.414062 C 96.699219 102.414062 98.304688 104.027344 98.304688 106.011719 L 98.304688 140.523438 C 98.304688 142.507812 96.699219 144.121094 94.710938 144.121094 " fill-opacity="1" fill-rule="nonzero"/><path fill="#000000" d="M 42.183594 144.121094 C 40.195312 144.121094 38.585938 142.507812 38.585938 140.523438 L 38.585938 106.011719 C 38.585938 104.027344 40.195312 102.414062 42.183594 102.414062 C 44.167969 102.414062 45.777344 104.027344 45.777344 106.011719 L 45.777344 140.523438 C 45.777344 142.507812 44.167969 144.121094 42.183594 144.121094 " fill-opacity="1" fill-rule="nonzero"/><path fill="#000000" d="M 113.988281 100.847656 L 127.964844 100.847656 L 127.964844 92.355469 L 113.988281 92.355469 Z M 131.558594 108.042969 L 110.390625 108.042969 C 108.402344 108.042969 106.796875 106.433594 106.796875 104.445312 L 106.796875 88.757812 C 106.796875 86.773438 108.402344 85.160156 110.390625 85.160156 L 131.558594 85.160156 C 133.546875 85.160156 135.15625 86.773438 135.15625 88.757812 L 135.15625 104.445312 C 135.15625 106.433594 133.546875 108.042969 131.558594 108.042969 " fill-opacity="1" fill-rule="nonzero"/><path fill="#000000" d="M 61.457031 100.847656 L 75.4375 100.847656 L 75.4375 92.355469 L 61.457031 92.355469 Z M 79.03125 108.042969 L 57.859375 108.042969 C 55.875 108.042969 54.265625 106.433594 54.265625 104.445312 L 54.265625 88.757812 C 54.265625 86.773438 55.875 85.160156 57.859375 85.160156 L 79.03125 85.160156 C 81.015625 85.160156 82.628906 86.773438 82.628906 88.757812 L 82.628906 104.445312 C 82.628906 106.433594 81.015625 108.042969 79.03125 108.042969 " fill-opacity="1" fill-rule="nonzero"/><path fill="#231f20" d="M 274.941406 235.664062 C 272.3125 235.664062 270.171875 237.808594 270.171875 240.441406 C 270.171875 243.078125 272.3125 245.21875 274.941406 245.21875 C 277.574219 245.21875 279.71875 243.078125 279.71875 240.441406 C 279.71875 237.808594 277.574219 235.664062 274.941406 235.664062 Z M 274.941406 252.414062 C 268.34375 252.414062 262.976562 247.039062 262.976562 240.441406 C 262.976562 233.839844 268.34375 228.46875 274.941406 228.46875 C 281.542969 228.46875 286.910156 233.839844 286.910156 240.441406 C 286.910156 247.039062 281.542969 252.414062 274.941406 252.414062 " fill-opacity="1" fill-rule="nonzero"/><path fill="#000000" d="M 274.941406 196.785156 C 275.800781 196.785156 276.660156 197.085938 277.339844 197.699219 L 350.113281 262.792969 C 351.867188 264.367188 354.511719 264.367188 356.269531 262.792969 C 357.265625 261.90625 357.808594 260.6875 357.808594 259.347656 C 357.808594 258.015625 357.265625 256.796875 356.269531 255.910156 C 356.269531 255.910156 356.269531 255.910156 356.269531 255.902344 L 278.019531 185.90625 C 276.265625 184.339844 273.621094 184.339844 271.867188 185.90625 L 193.617188 255.902344 C 192.628906 256.796875 192.078125 258.015625 192.078125 259.347656 C 192.078125 260.6875 192.628906 261.90625 193.617188 262.792969 C 195.375 264.367188 198.023438 264.367188 199.78125 262.792969 L 272.546875 197.699219 C 273.226562 197.085938 274.085938 196.785156 274.941406 196.785156 Z M 353.191406 271.167969 C 350.375 271.167969 347.5625 270.167969 345.3125 268.15625 L 274.941406 205.203125 L 204.574219 268.15625 C 200.082031 272.175781 193.3125 272.175781 188.824219 268.15625 C 186.324219 265.917969 184.882812 262.710938 184.882812 259.347656 C 184.882812 255.992188 186.324219 252.785156 188.824219 250.542969 L 267.070312 180.542969 C 271.558594 176.53125 278.328125 176.53125 282.820312 180.542969 L 361.0625 250.542969 C 363.570312 252.785156 365.003906 255.992188 365.003906 259.347656 C 365.003906 262.710938 363.570312 265.917969 361.0625 268.15625 C 358.820312 270.164062 356.007812 271.167969 353.191406 271.167969 " fill-opacity="1" fill-rule="nonzero"/><path fill="#000000" d="M 212.011719 261.5 L 337.875 261.5 L 274.941406 205.203125 Z M 347.292969 268.695312 L 202.59375 268.695312 C 201.105469 268.695312 199.769531 267.78125 199.234375 266.386719 C 198.703125 264.992188 199.082031 263.414062 200.195312 262.417969 L 272.546875 197.699219 C 273.914062 196.480469 275.976562 196.472656 277.339844 197.699219 L 349.691406 262.417969 C 350.804688 263.414062 351.1875 264.992188 350.652344 266.386719 C 350.117188 267.78125 348.785156 268.695312 347.292969 268.695312 " fill-opacity="1" fill-rule="nonzero"/><g clip-path="url(#id2)"><path fill="#000000" d="M 192.605469 353.402344 C 190.136719 353.402344 188.125 355.414062 188.125 357.886719 C 188.125 360.355469 190.136719 362.367188 192.605469 362.367188 L 357.28125 362.367188 C 359.75 362.367188 361.761719 360.355469 361.761719 357.886719 C 361.761719 355.414062 359.75 353.402344 357.28125 353.402344 Z M 357.28125 369.5625 L 192.605469 369.5625 C 186.171875 369.5625 180.933594 364.324219 180.933594 357.886719 C 180.933594 351.445312 186.171875 346.207031 192.605469 346.207031 L 357.28125 346.207031 C 363.714844 346.207031 368.953125 351.445312 368.953125 357.886719 C 368.953125 364.324219 363.714844 369.5625 357.28125 369.5625 " fill-opacity="1" fill-rule="nonzero"/></g><path fill="#000000" d="M 206.066406 337.242188 C 203.601562 337.242188 201.589844 339.253906 201.589844 341.726562 C 201.589844 344.195312 203.601562 346.207031 206.066406 346.207031 L 343.820312 346.207031 C 346.292969 346.207031 348.304688 344.195312 348.304688 341.726562 C 348.304688 339.253906 346.292969 337.242188 343.820312 337.242188 Z M 343.820312 353.402344 L 206.066406 353.402344 C 199.632812 353.402344 194.398438 348.164062 194.398438 341.726562 C 194.398438 335.285156 199.632812 330.046875 206.066406 330.046875 L 343.820312 330.046875 C 350.257812 330.046875 355.496094 335.285156 355.496094 341.726562 C 355.496094 348.164062 350.257812 353.402344 343.820312 353.402344 " fill-opacity="1" fill-rule="nonzero"/><path fill="#000000" d="M 315.390625 330.046875 L 339.558594 330.046875 L 339.558594 268.695312 L 315.390625 268.695312 Z M 343.15625 337.242188 L 311.796875 337.242188 C 309.808594 337.242188 308.199219 335.636719 308.199219 333.644531 L 308.199219 265.097656 C 308.199219 263.113281 309.808594 261.5 311.796875 261.5 L 343.15625 261.5 C 345.144531 261.5 346.753906 263.113281 346.753906 265.097656 L 346.753906 333.644531 C 346.753906 335.636719 345.144531 337.242188 343.15625 337.242188 " fill-opacity="1" fill-rule="nonzero"/><path fill="#000000" d="M 262.859375 330.046875 L 287.027344 330.046875 L 287.027344 268.695312 L 262.859375 268.695312 Z M 290.625 337.242188 L 259.261719 337.242188 C 257.273438 337.242188 255.667969 335.636719 255.667969 333.644531 L 255.667969 265.097656 C 255.667969 263.113281 257.273438 261.5 259.261719 261.5 L 290.625 261.5 C 292.613281 261.5 294.21875 263.113281 294.21875 265.097656 L 294.21875 333.644531 C 294.21875 335.636719 292.613281 337.242188 290.625 337.242188 " fill-opacity="1" fill-rule="nonzero"/><path fill="#000000" d="M 210.328125 330.046875 L 234.496094 330.046875 L 234.496094 268.695312 L 210.328125 268.695312 Z M 238.089844 337.242188 L 206.730469 337.242188 C 204.746094 337.242188 203.136719 335.636719 203.136719 333.644531 L 203.136719 265.097656 C 203.136719 263.113281 204.746094 261.5 206.730469 261.5 L 238.089844 261.5 C 240.082031 261.5 241.6875 263.113281 241.6875 265.097656 L 241.6875 333.644531 C 241.6875 335.636719 240.082031 337.242188 238.089844 337.242188 " fill-opacity="1" fill-rule="nonzero"/><path fill="#000000" d="M 327.472656 320.464844 C 325.488281 320.464844 323.878906 318.851562 323.878906 316.867188 L 323.878906 282.355469 C 323.878906 280.371094 325.488281 278.757812 327.472656 278.757812 C 329.460938 278.757812 331.070312 280.371094 331.070312 282.355469 L 331.070312 316.867188 C 331.070312 318.851562 329.460938 320.464844 327.472656 320.464844 " fill-opacity="1" fill-rule="nonzero"/><path fill="#000000" d="M 274.941406 320.464844 C 272.957031 320.464844 271.34375 318.851562 271.34375 316.867188 L 271.34375 282.355469 C 271.34375 280.371094 272.957031 278.757812 274.941406 278.757812 C 276.929688 278.757812 278.535156 280.371094 278.535156 282.355469 L 278.535156 316.867188 C 278.535156 318.851562 276.929688 320.464844 274.941406 320.464844 " fill-opacity="1" fill-rule="nonzero"/><path fill="#000000" d="M 222.414062 320.464844 C 220.425781 320.464844 218.816406 318.851562 218.816406 316.867188 L 218.816406 282.355469 C 218.816406 280.371094 220.425781 278.757812 222.414062 278.757812 C 224.398438 278.757812 226.011719 280.371094 226.011719 282.355469 L 226.011719 316.867188 C 226.011719 318.851562 224.398438 320.464844 222.414062 320.464844 " fill-opacity="1" fill-rule="nonzero"/><path fill="#000000" d="M 294.21875 277.191406 L 308.199219 277.191406 L 308.199219 268.695312 L 294.21875 268.695312 Z M 311.796875 284.382812 L 290.625 284.382812 C 288.640625 284.382812 287.027344 282.777344 287.027344 280.785156 L 287.027344 265.097656 C 287.027344 263.113281 288.640625 261.5 290.625 261.5 L 311.796875 261.5 C 313.78125 261.5 315.390625 263.113281 315.390625 265.097656 L 315.390625 280.785156 C 315.390625 282.777344 313.78125 284.382812 311.796875 284.382812 " fill-opacity="1" fill-rule="nonzero"/><path fill="#000000" d="M 241.6875 277.191406 L 255.667969 277.191406 L 255.667969 268.695312 L 241.6875 268.695312 Z M 259.261719 284.382812 L 238.089844 284.382812 C 236.109375 284.382812 234.496094 282.777344 234.496094 280.785156 L 234.496094 265.097656 C 234.496094 263.113281 236.109375 261.5 238.089844 261.5 L 259.261719 261.5 C 261.253906 261.5 262.859375 263.113281 262.859375 265.097656 L 262.859375 280.785156 C 262.859375 282.777344 261.253906 284.382812 259.261719 284.382812 " fill-opacity="1" fill-rule="nonzero"/><path fill="#000000" d="M 309.679688 115.578125 L 309.695312 115.578125 Z M 280.53125 128.160156 L 299.691406 140.945312 L 308.554688 119.675781 L 302.691406 121.453125 C 301.78125 121.726562 300.789062 121.632812 299.941406 121.171875 C 299.097656 120.714844 298.472656 119.941406 298.203125 119.023438 C 289.347656 88.855469 263.578125 66.476562 232.550781 62.007812 C 229.503906 61.5625 226.351562 61.308594 223.183594 61.246094 C 222.820312 61.226562 222.617188 61.394531 222.480469 61.527344 C 222.363281 61.640625 222.160156 61.886719 222.160156 62.269531 L 222.105469 68.695312 C 222.097656 69.25 222.558594 69.703125 223.15625 69.722656 C 255.03125 70.734375 281.359375 91.0625 290.226562 121.503906 C 290.773438 123.398438 289.703125 125.386719 287.8125 125.953125 Z M 300.203125 148.71875 C 299.03125 148.71875 297.859375 148.371094 296.855469 147.703125 L 274.734375 132.941406 C 272.722656 131.59375 271.691406 129.269531 272.046875 126.871094 C 272.394531 124.503906 274.019531 122.617188 276.285156 121.925781 L 282.238281 120.125 C 273.351562 94.617188 250.429688 77.789062 222.925781 76.914062 C 218.390625 76.765625 214.875 73.128906 214.914062 68.632812 L 214.96875 62.207031 C 214.992188 59.988281 215.878906 57.914062 217.46875 56.367188 C 219.046875 54.828125 221.058594 53.996094 223.328125 54.054688 C 226.792969 54.121094 230.234375 54.402344 233.578125 54.886719 C 266.1875 59.578125 293.460938 82.433594 304.007812 113.539062 L 308.636719 112.140625 C 310.898438 111.449219 313.300781 112.128906 314.902344 113.898438 C 316.527344 115.703125 316.960938 118.210938 316.03125 120.441406 L 305.800781 144.992188 C 305.097656 146.667969 303.703125 147.933594 301.96875 148.457031 C 301.382812 148.636719 300.792969 148.71875 300.203125 148.71875 " fill-opacity="1" fill-rule="nonzero"/><path fill="#000000" d="M 61.75 250.660156 Z M 70.8125 248.078125 C 71.40625 248.078125 71.992188 248.226562 72.527344 248.511719 C 73.367188 248.96875 73.992188 249.742188 74.261719 250.664062 C 83.117188 280.832031 108.886719 303.214844 139.914062 307.683594 C 142.960938 308.121094 146.105469 308.375 149.28125 308.441406 C 149.679688 308.425781 149.847656 308.289062 149.984375 308.160156 C 150.101562 308.042969 150.300781 307.796875 150.304688 307.417969 L 150.359375 300.992188 C 150.367188 300.433594 149.90625 299.980469 149.316406 299.964844 C 117.433594 298.949219 91.101562 278.621094 82.242188 248.179688 C 81.691406 246.285156 82.765625 244.300781 84.652344 243.730469 L 91.933594 241.523438 L 72.773438 228.738281 L 63.910156 250.007812 L 69.773438 248.230469 C 70.117188 248.128906 70.464844 248.078125 70.8125 248.078125 Z M 149.304688 315.636719 C 149.25 315.636719 149.191406 315.636719 149.136719 315.628906 C 145.667969 315.5625 142.222656 315.28125 138.886719 314.804688 C 106.28125 310.105469 79 287.25 68.457031 256.152344 L 63.828125 257.550781 C 61.570312 258.234375 59.164062 257.5625 57.5625 255.785156 C 55.9375 253.988281 55.503906 251.472656 56.4375 249.242188 L 66.664062 224.691406 C 67.367188 223.015625 68.761719 221.757812 70.496094 221.226562 C 72.234375 220.699219 74.097656 220.976562 75.609375 221.988281 L 97.734375 236.746094 C 99.746094 238.089844 100.777344 240.417969 100.417969 242.816406 C 100.070312 245.179688 98.445312 247.074219 96.183594 247.757812 L 90.230469 249.558594 C 99.113281 275.066406 122.03125 291.898438 149.539062 292.777344 C 154.074219 292.917969 157.59375 296.554688 157.554688 301.054688 L 157.496094 307.480469 C 157.472656 309.699219 156.585938 311.773438 154.996094 313.320312 C 153.457031 314.816406 151.441406 315.636719 149.304688 315.636719 " fill-opacity="1" fill-rule="nonzero"/><path fill="#ef4460" d="M 154.316406 256.03125 L 151.191406 256.03125 L 151.191406 252.90625 C 151.191406 250.570312 149.300781 248.675781 146.960938 248.675781 C 144.625 248.675781 142.730469 250.570312 142.730469 252.90625 L 142.730469 256.03125 L 139.605469 256.03125 C 137.269531 256.03125 135.375 257.925781 135.375 260.265625 C 135.375 262.601562 137.269531 264.496094 139.605469 264.496094 L 142.730469 264.496094 L 142.730469 267.621094 C 142.730469 269.960938 144.625 271.859375 146.960938 271.859375 C 149.300781 271.859375 151.191406 269.960938 151.191406 267.621094 L 151.191406 264.496094 L 154.316406 264.496094 C 156.652344 264.496094 158.554688 262.601562 158.554688 260.265625 C 158.554688 257.925781 156.652344 256.03125 154.316406 256.03125 " fill-opacity="1" fill-rule="nonzero"/><path fill="#87d147" d="M 191.996094 48.746094 C 194.789062 49.253906 197.066406 47.167969 197.066406 44.597656 C 197.066406 42.261719 195.179688 40.367188 192.828125 40.367188 C 190.480469 40.367188 188.597656 42.304688 188.597656 44.597656 C 188.597656 46.640625 190.070312 48.386719 191.996094 48.746094 " fill-opacity="1" fill-rule="nonzero"/><path fill="#f5c84c" d="M 44.710938 204.164062 C 42.675781 204.546875 41.304688 206.371094 41.304688 208.3125 C 41.304688 210.578125 43.125 212.542969 45.539062 212.542969 C 47.9375 212.542969 49.773438 210.582031 49.773438 208.3125 C 49.773438 205.789062 47.503906 203.640625 44.710938 204.164062 " fill-opacity="1" fill-rule="nonzero"/><path fill="#3caadc" d="M 226.519531 178.25 C 229.320312 178.757812 231.589844 176.667969 231.589844 174.101562 C 231.589844 171.839844 229.761719 169.871094 227.351562 169.871094 C 225.066406 169.871094 223.121094 171.765625 223.121094 174.101562 C 223.121094 176.117188 224.570312 177.878906 226.519531 178.25 " fill-opacity="1" fill-rule="nonzero"/><path fill="#f5c84c" d="M 260.875 145.328125 C 254.851562 144.207031 250.097656 139.546875 248.953125 133.640625 C 248.890625 133.339844 248.480469 133.339844 248.425781 133.640625 C 247.273438 139.546875 242.523438 144.207031 236.496094 145.328125 C 236.191406 145.386719 236.191406 145.789062 236.496094 145.847656 C 242.523438 146.972656 247.273438 151.625 248.425781 157.539062 C 248.480469 157.832031 248.890625 157.832031 248.953125 157.539062 C 250.097656 151.625 254.851562 146.972656 260.875 145.847656 C 261.179688 145.789062 261.179688 145.386719 260.875 145.328125 " fill-opacity="1" fill-rule="nonzero"/><path fill="#000000" d="M 61.457031 153.707031 L 75.4375 153.707031 L 75.4375 108.042969 L 61.457031 108.042969 Z M 79.03125 160.898438 L 57.859375 160.898438 C 55.875 160.898438 54.265625 159.292969 54.265625 157.300781 L 54.265625 104.445312 C 54.265625 102.453125 55.875 100.847656 57.859375 100.847656 L 79.03125 100.847656 C 81.015625 100.847656 82.628906 102.453125 82.628906 104.445312 L 82.628906 157.300781 C 82.628906 159.292969 81.015625 160.898438 79.03125 160.898438 " fill-opacity="1" fill-rule="nonzero"/><path fill="#000000" d="M 113.988281 153.707031 L 127.964844 153.707031 L 127.964844 108.042969 L 113.988281 108.042969 Z M 131.558594 160.898438 L 110.390625 160.898438 C 108.402344 160.898438 106.796875 159.292969 106.796875 157.300781 L 106.796875 104.445312 C 106.796875 102.453125 108.402344 100.847656 110.390625 100.847656 L 131.558594 100.847656 C 133.546875 100.847656 135.15625 102.453125 135.15625 104.445312 L 135.15625 157.300781 C 135.15625 159.292969 133.546875 160.898438 131.558594 160.898438 " fill-opacity="1" fill-rule="nonzero"/><path fill="#000000" d="M 241.6875 330.046875 L 255.667969 330.046875 L 255.667969 284.382812 L 241.6875 284.382812 Z M 259.261719 337.242188 L 238.089844 337.242188 C 236.109375 337.242188 234.496094 335.636719 234.496094 333.644531 L 234.496094 280.785156 C 234.496094 278.796875 236.109375 277.191406 238.089844 277.191406 L 259.261719 277.191406 C 261.253906 277.191406 262.859375 278.796875 262.859375 280.785156 L 262.859375 333.644531 C 262.859375 335.636719 261.253906 337.242188 259.261719 337.242188 " fill-opacity="1" fill-rule="nonzero"/><path fill="#000000" d="M 294.21875 330.046875 L 308.199219 330.046875 L 308.199219 284.382812 L 294.21875 284.382812 Z M 311.796875 337.242188 L 290.625 337.242188 C 288.640625 337.242188 287.027344 335.636719 287.027344 333.644531 L 287.027344 280.785156 C 287.027344 278.796875 288.640625 277.191406 290.625 277.191406 L 311.796875 277.191406 C 313.78125 277.191406 315.390625 278.796875 315.390625 280.785156 L 315.390625 333.644531 C 315.390625 335.636719 313.78125 337.242188 311.796875 337.242188 " fill-opacity="1" fill-rule="nonzero"/><path fill="#000000" d="M 147.242188 144.121094 C 145.257812 144.121094 143.644531 142.507812 143.644531 140.523438 L 143.644531 106.011719 C 143.644531 104.027344 145.257812 102.414062 147.242188 102.414062 C 149.230469 102.414062 150.839844 104.027344 150.839844 106.011719 L 150.839844 140.523438 C 150.839844 142.507812 149.230469 144.121094 147.242188 144.121094 " fill-opacity="1" fill-rule="nonzero"/><path fill="#000000" d="M 94.710938 144.121094 C 92.726562 144.121094 91.113281 142.507812 91.113281 140.523438 L 91.113281 106.011719 C 91.113281 104.027344 92.726562 102.414062 94.710938 102.414062 C 96.699219 102.414062 98.304688 104.027344 98.304688 106.011719 L 98.304688 140.523438 C 98.304688 142.507812 96.699219 144.121094 94.710938 144.121094 " fill-opacity="1" fill-rule="nonzero"/><path fill="#000000" d="M 42.183594 144.121094 C 40.195312 144.121094 38.585938 142.507812 38.585938 140.523438 L 38.585938 106.011719 C 38.585938 104.027344 40.195312 102.414062 42.183594 102.414062 C 44.167969 102.414062 45.777344 104.027344 45.777344 106.011719 L 45.777344 140.523438 C 45.777344 142.507812 44.167969 144.121094 42.183594 144.121094 " fill-opacity="1" fill-rule="nonzero"/><path fill="#000000" d="M 327.472656 320.464844 C 325.488281 320.464844 323.878906 318.851562 323.878906 316.867188 L 323.878906 282.355469 C 323.878906 280.371094 325.488281 278.757812 327.472656 278.757812 C 329.460938 278.757812 331.070312 280.371094 331.070312 282.355469 L 331.070312 316.867188 C 331.070312 318.851562 329.460938 320.464844 327.472656 320.464844 " fill-opacity="1" fill-rule="nonzero"/><path fill="#000000" d="M 274.941406 320.464844 C 272.957031 320.464844 271.34375 318.851562 271.34375 316.867188 L 271.34375 282.355469 C 271.34375 280.371094 272.957031 278.757812 274.941406 278.757812 C 276.929688 278.757812 278.535156 280.371094 278.535156 282.355469 L 278.535156 316.867188 C 278.535156 318.851562 276.929688 320.464844 274.941406 320.464844 " fill-opacity="1" fill-rule="nonzero"/><path fill="#000000" d="M 222.414062 320.464844 C 220.425781 320.464844 218.816406 318.851562 218.816406 316.867188 L 218.816406 282.355469 C 218.816406 280.371094 220.425781 278.757812 222.414062 278.757812 C 224.398438 278.757812 226.011719 280.371094 226.011719 282.355469 L 226.011719 316.867188 C 226.011719 318.851562 224.398438 320.464844 222.414062 320.464844 " fill-opacity="1" fill-rule="nonzero"/></svg>