<svg xmlns="http://www.w3.org/2000/svg" xmlns:xlink="http://www.w3.org/1999/xlink" width="500" zoomAndPan="magnify" viewBox="0 0 375 374.999991" height="500" preserveAspectRatio="xMidYMid meet" version="1.0"><defs><g><g id="id1"/><g id="id2"/></g><clipPath id="id3"><path d="M 131 136.039062 L 280.910156 136.039062 L 280.910156 223.789062 L 131 223.789062 Z M 131 136.039062 " clip-rule="nonzero"/></clipPath><clipPath id="id4"><path d="M 130.910156 136.039062 L 280.910156 136.039062 L 280.910156 223.789062 L 130.910156 223.789062 Z M 130.910156 136.039062 " clip-rule="nonzero"/></clipPath><clipPath id="id5"><path d="M 241 150 L 262 150 L 262 171 L 241 171 Z M 241 150 " clip-rule="nonzero"/></clipPath><clipPath id="id6"><path d="M 228.457031 168.1875 L 251.792969 144.855469 L 277.246094 170.308594 L 253.914062 193.644531 Z M 228.457031 168.1875 " clip-rule="nonzero"/></clipPath><clipPath id="id7"><path d="M 228.457031 168.1875 L 251.792969 144.855469 L 277.246094 170.308594 L 253.914062 193.644531 Z M 228.457031 168.1875 " clip-rule="nonzero"/></clipPath><clipPath id="id8"><path d="M 228.457031 168.1875 L 251.792969 144.855469 L 277.246094 170.308594 L 253.914062 193.644531 Z M 228.457031 168.1875 " clip-rule="nonzero"/></clipPath><clipPath id="id9"><path d="M 248 176 L 262 176 L 262 191 L 248 191 Z M 248 176 " clip-rule="nonzero"/></clipPath><clipPath id="id10"><path d="M 228.457031 168.1875 L 251.792969 144.855469 L 277.246094 170.308594 L 253.914062 193.644531 Z M 228.457031 168.1875 " clip-rule="nonzero"/></clipPath><clipPath id="id11"><path d="M 228.457031 168.1875 L 251.792969 144.855469 L 277.246094 170.308594 L 253.914062 193.644531 Z M 228.457031 168.1875 " clip-rule="nonzero"/></clipPath><clipPath id="id12"><path d="M 228.457031 168.1875 L 251.792969 144.855469 L 277.246094 170.308594 L 253.914062 193.644531 Z M 228.457031 168.1875 " clip-rule="nonzero"/></clipPath><clipPath id="id13"><path d="M 260 164 L 275 164 L 275 179 L 260 179 Z M 260 164 " clip-rule="nonzero"/></clipPath><clipPath id="id14"><path d="M 228.457031 168.1875 L 251.792969 144.855469 L 277.246094 170.308594 L 253.914062 193.644531 Z M 228.457031 168.1875 " clip-rule="nonzero"/></clipPath><clipPath id="id15"><path d="M 228.457031 168.1875 L 251.792969 144.855469 L 277.246094 170.308594 L 253.914062 193.644531 Z M 228.457031 168.1875 " clip-rule="nonzero"/></clipPath><clipPath id="id16"><path d="M 228.457031 168.1875 L 251.792969 144.855469 L 277.246094 170.308594 L 253.914062 193.644531 Z M 228.457031 168.1875 " clip-rule="nonzero"/></clipPath><clipPath id="id17"><path d="M 168 141 L 183 141 L 183 157 L 168 157 Z M 168 141 " clip-rule="nonzero"/></clipPath><clipPath id="id18"><path d="M 167.566406 142.75 L 181.683594 140.8125 L 183.621094 154.933594 L 169.503906 156.871094 Z M 167.566406 142.75 " clip-rule="nonzero"/></clipPath><clipPath id="id19"><path d="M 167.566406 142.75 L 181.683594 140.8125 L 183.621094 154.933594 L 169.503906 156.871094 Z M 167.566406 142.75 " clip-rule="nonzero"/></clipPath><clipPath id="id20"><path d="M 167.566406 142.75 L 181.683594 140.8125 L 183.621094 154.933594 L 169.503906 156.871094 Z M 167.566406 142.75 " clip-rule="nonzero"/></clipPath></defs><rect x="-37.5" width="450" fill="rgb(100%, 100%, 100%)" y="-37.499999" height="449.999989" fill-opacity="1"/><rect x="-37.5" width="450" fill="rgb(100%, 100%, 100%)" y="-37.499999" height="449.999989" fill-opacity="1"/><rect x="-37.5" width="450" fill="rgb(100%, 100%, 100%)" y="-37.499999" height="449.999989" fill-opacity="1"/><rect x="-37.5" width="450" fill="rgb(100%, 100%, 100%)" y="-37.499999" height="449.999989" fill-opacity="1"/><g clip-path="url(#id3)"><path fill="rgb(0%, 37.249756%, 50.979614%)" d="M 136.503906 223.578125 C 135.730469 223.578125 134.949219 223.527344 134.191406 223.484375 L 133.898438 223.464844 C 132.824219 223.398438 131.554688 222.566406 131.296875 221.289062 C 131.175781 220.691406 131.058594 220.050781 131.0625 219.410156 C 131.101562 214.800781 131.277344 204.304688 131.441406 194.15625 C 131.59375 184.859375 131.753906 175.25 131.800781 170.542969 C 131.847656 165.789062 132.105469 142.554688 132.195312 139.503906 C 132.210938 139.101562 132.253906 138.703125 132.324219 138.316406 C 132.507812 137.304688 133.234375 136.621094 134.308594 136.429688 C 134.984375 136.316406 135.65625 136.300781 136.160156 136.300781 C 136.457031 136.300781 136.753906 136.304688 137.050781 136.3125 C 137.265625 136.316406 137.480469 136.320312 137.695312 136.320312 C 138.664062 136.332031 139.632812 136.347656 140.601562 136.367188 C 142.042969 136.386719 143.539062 136.414062 145.007812 136.414062 C 145.53125 136.414062 146.054688 136.410156 146.578125 136.40625 C 148.503906 136.375 151.414062 136.363281 155.476562 136.363281 C 159.15625 136.363281 163.25 136.371094 167.042969 136.382812 C 170.328125 136.390625 173.390625 136.398438 175.777344 136.398438 C 178.203125 136.398438 179.628906 136.390625 180.269531 136.371094 C 184.015625 136.269531 187.828125 136.269531 191.515625 136.269531 L 194.832031 136.269531 C 198.332031 136.269531 201.832031 136.277344 205.339844 136.289062 C 208.542969 136.300781 211.746094 136.308594 214.953125 136.308594 L 215.015625 136.308594 C 217.960938 136.308594 234.199219 136.222656 241.132812 136.1875 L 243.226562 136.175781 C 243.476562 136.175781 243.757812 136.171875 244.070312 136.171875 C 246.695312 136.171875 251.4375 136.214844 256.023438 136.257812 C 260.070312 136.292969 263.890625 136.324219 265.761719 136.324219 C 265.976562 136.324219 266.367188 136.324219 266.367188 136.324219 C 266.738281 136.324219 267.691406 136.347656 268.789062 136.371094 C 270.359375 136.410156 272.320312 136.453125 273.421875 136.453125 C 273.554688 136.453125 273.675781 136.453125 273.78125 136.449219 C 274.011719 136.445312 274.242188 136.441406 274.472656 136.441406 C 275.3125 136.441406 276.417969 136.464844 277.519531 136.65625 C 279.480469 136.996094 280.011719 137.859375 280.402344 139.542969 C 280.492188 139.9375 280.507812 140.351562 280.523438 140.753906 L 280.523438 140.789062 C 280.609375 143.085938 280.617188 156.398438 280.621094 167.097656 C 280.625 173.429688 280.628906 178.898438 280.648438 180.054688 C 280.753906 186.152344 280.636719 212.671875 280.574219 218.984375 C 280.5625 219.820312 280.46875 220.628906 280.382812 221.304688 C 280.207031 222.640625 279.570312 223.238281 278.320312 223.238281 C 278.265625 223.238281 278.210938 223.238281 278.152344 223.234375 C 275.800781 223.136719 273.667969 223.09375 271.621094 223.09375 C 270.773438 223.09375 269.933594 223.101562 269.121094 223.117188 C 266.199219 223.179688 255.773438 223.25 248.21875 223.25 C 244.714844 223.25 242.183594 223.234375 240.699219 223.203125 C 237.75 223.144531 231.496094 223.109375 223.964844 223.109375 C 215.933594 223.109375 208.628906 223.148438 206.191406 223.207031 C 205.765625 223.199219 205.234375 223.199219 204.613281 223.199219 C 201.460938 223.199219 195.863281 223.265625 189.9375 223.332031 C 182.664062 223.417969 174.421875 223.511719 168.710938 223.511719 C 166.285156 223.511719 164.445312 223.496094 163.234375 223.460938 C 158.914062 223.335938 154.3125 223.214844 149.722656 223.214844 C 148.53125 223.214844 147.363281 223.222656 146.25 223.238281 C 143.617188 223.277344 140.773438 223.375 137.296875 223.546875 C 137.03125 223.570312 136.769531 223.578125 136.503906 223.578125 Z M 136.503906 223.578125 " fill-opacity="1" fill-rule="nonzero"/></g><path fill="rgb(0%, 37.249756%, 50.979614%)" d="M 276.09375 218.980469 C 275.8125 219.109375 275.523438 219.191406 275.203125 219.167969 C 271.402344 218.921875 267.59375 218.949219 263.789062 218.929688 C 261.472656 218.914062 259.152344 218.925781 256.839844 218.921875 C 256.875 218.316406 257.050781 217.726562 256.957031 217.117188 C 257.640625 216.871094 257.847656 216.507812 257.734375 215.75 C 257.644531 215.15625 257.324219 214.878906 256.664062 214.835938 C 255.695312 214.773438 254.730469 214.6875 253.757812 214.660156 C 251.554688 214.605469 249.367188 214.304688 247.164062 214.328125 C 247.019531 214.332031 246.882812 214.304688 246.738281 214.292969 C 245.578125 214.210938 244.417969 214.210938 243.261719 214.203125 C 243.015625 214.203125 242.789062 214.242188 242.632812 214.460938 C 242.207031 215.042969 242.414062 215.894531 243.066406 216.261719 C 242.949219 217.183594 242.785156 218.105469 243.386719 218.941406 C 241.730469 218.964844 240.074219 218.976562 238.417969 218.898438 C 238.75 218.6875 238.75 218.425781 238.554688 218.121094 C 238.265625 217.664062 237.878906 217.445312 237.324219 217.4375 C 235.722656 217.421875 234.128906 217.539062 232.53125 217.667969 C 231.734375 217.734375 231.570312 218.050781 231.8125 218.878906 C 230.808594 218.894531 229.800781 218.957031 228.796875 218.851562 C 228.808594 218.710938 228.847656 218.566406 228.824219 218.433594 C 228.703125 217.75 228.535156 217.621094 227.832031 217.621094 C 227.503906 217.621094 227.171875 217.625 226.839844 217.628906 C 225.46875 217.644531 224.097656 217.6875 222.742188 217.925781 C 222.097656 218.042969 221.988281 218.179688 221.949219 218.867188 C 220.269531 218.9375 218.589844 218.875 216.910156 218.855469 C 210.042969 218.769531 203.171875 218.625 196.308594 218.964844 C 190.507812 219.253906 184.707031 219.296875 178.90625 219.332031 C 174.359375 219.359375 169.8125 219.488281 165.265625 219.425781 C 158.847656 219.335938 152.433594 219.027344 146.011719 219.175781 C 143.125 219.242188 137.65625 219.582031 135.902344 219.171875 C 135.996094 218.621094 135.996094 218.621094 135.351562 218.652344 C 134.984375 218.292969 134.90625 217.839844 134.929688 217.347656 C 135.113281 212.972656 135.039062 208.589844 135.191406 204.210938 C 135.332031 200.09375 135.375 195.972656 135.398438 191.851562 C 135.421875 187.847656 135.4375 183.847656 135.433594 179.847656 C 135.429688 177.40625 135.347656 174.964844 135.375 172.527344 C 135.417969 169.210938 135.5 165.898438 135.582031 162.585938 C 135.675781 158.917969 135.617188 155.246094 135.65625 151.578125 C 135.691406 147.929688 135.761719 144.285156 135.816406 140.636719 C 136.082031 140.605469 136.195312 140.453125 136.179688 140.191406 C 136.378906 139.996094 136.621094 139.929688 136.898438 139.960938 C 140.34375 140.363281 143.808594 140.144531 147.261719 140.15625 C 156.167969 140.1875 165.078125 140.210938 173.984375 140.179688 C 181.398438 140.15625 188.816406 140.070312 196.230469 139.980469 C 201.820312 139.910156 207.410156 140.070312 213 139.992188 C 217.925781 139.921875 222.851562 139.832031 227.777344 139.699219 C 232.492188 139.570312 237.203125 139.667969 241.914062 139.613281 C 243.855469 139.59375 245.800781 139.5625 247.738281 139.546875 C 250.816406 139.527344 253.898438 139.527344 256.972656 139.703125 C 259.285156 139.835938 261.601562 139.953125 263.925781 139.917969 C 266.367188 139.882812 268.808594 139.984375 271.246094 140.042969 C 272.546875 140.070312 273.847656 140.136719 275.148438 140.199219 C 275.871094 140.230469 276.277344 140.566406 276.441406 141.277344 C 276.550781 141.738281 276.589844 142.214844 276.570312 142.6875 C 276.433594 146.003906 276.472656 149.328125 276.699219 152.628906 C 277.03125 157.527344 276.890625 162.429688 276.917969 167.328125 C 276.964844 174.3125 276.929688 181.300781 276.875 188.285156 C 276.832031 193.804688 276.699219 199.320312 276.613281 204.839844 C 276.570312 207.441406 276.523438 210.050781 276.480469 212.652344 C 276.464844 213.578125 276.484375 214.503906 276.578125 215.421875 C 276.664062 216.277344 276.523438 217.125 276.503906 217.976562 C 276.5 218.316406 276.324219 218.609375 276.175781 218.90625 C 276.15625 218.949219 276.132812 218.972656 276.09375 218.980469 Z M 276.09375 218.980469 " fill-opacity="1" fill-rule="nonzero"/><path fill="rgb(48.239136%, 81.17981%, 98.429871%)" d="M 238.417969 218.898438 C 236.769531 218.976562 235.117188 219.066406 233.46875 219.132812 C 232.910156 219.15625 232.332031 219.191406 231.816406 218.882812 C 231.578125 218.050781 231.742188 217.738281 232.535156 217.671875 C 234.128906 217.539062 235.722656 217.425781 237.328125 217.441406 C 237.882812 217.445312 238.269531 217.667969 238.558594 218.121094 C 238.753906 218.425781 238.75 218.6875 238.417969 218.898438 Z M 238.417969 218.898438 " fill-opacity="1" fill-rule="nonzero"/><path fill="rgb(99.21875%, 88.238525%, 48.239136%)" d="M 228.800781 218.851562 C 228.453125 219.160156 228.007812 219.167969 227.59375 219.179688 C 226.054688 219.21875 224.515625 219.230469 222.976562 219.246094 C 222.589844 219.25 222.21875 219.195312 221.949219 218.867188 C 221.988281 218.179688 222.097656 218.039062 222.742188 217.925781 C 224.097656 217.6875 225.46875 217.644531 226.839844 217.628906 C 227.171875 217.625 227.503906 217.621094 227.832031 217.621094 C 228.535156 217.621094 228.703125 217.75 228.824219 218.433594 C 228.851562 218.566406 228.8125 218.710938 228.800781 218.851562 Z M 228.800781 218.851562 " fill-opacity="1" fill-rule="nonzero"/><g clip-path="url(#id4)"><path fill="rgb(94.119263%, 46.269226%, 17.248535%)" d="M 280.617188 140.792969 C 280.601562 140.367188 280.585938 139.941406 280.492188 139.527344 C 280.070312 137.707031 279.460938 136.898438 277.527344 136.5625 C 276.289062 136.347656 275.03125 136.335938 273.777344 136.351562 C 272.144531 136.371094 267.175781 136.21875 266.320312 136.226562 C 263.003906 136.246094 247.605469 136.050781 243.222656 136.074219 C 238.9375 136.097656 218.074219 136.210938 214.949219 136.210938 C 207.769531 136.207031 200.589844 136.164062 193.414062 136.167969 C 189.03125 136.171875 184.648438 136.152344 180.265625 136.273438 C 177.09375 136.359375 154.636719 136.191406 146.578125 136.300781 C 143.617188 136.34375 140.65625 136.253906 137.699219 136.222656 C 136.5625 136.214844 135.421875 136.140625 134.292969 136.335938 C 133.179688 136.527344 132.414062 137.253906 132.222656 138.300781 C 132.148438 138.695312 132.109375 139.097656 132.097656 139.5 C 132.003906 142.578125 131.746094 165.851562 131.699219 170.539062 C 131.601562 180.34375 131.039062 210.539062 130.964844 219.410156 C 130.957031 220.050781 131.074219 220.679688 131.199219 221.308594 C 131.460938 222.601562 132.75 223.496094 133.894531 223.566406 C 135.027344 223.636719 136.160156 223.71875 137.296875 223.65625 C 140.28125 223.507812 143.261719 223.394531 146.246094 223.351562 C 151.90625 223.265625 157.566406 223.40625 163.230469 223.570312 C 170.925781 223.789062 199.917969 223.238281 206.191406 223.316406 C 211.082031 223.199219 233.730469 223.171875 240.691406 223.3125 C 246.1875 223.421875 265.140625 223.308594 269.117188 223.226562 C 272.125 223.167969 275.132812 223.222656 278.140625 223.34375 C 279.574219 223.398438 280.285156 222.757812 280.472656 221.328125 C 280.578125 220.554688 280.660156 219.777344 280.667969 218.992188 C 280.730469 212.539062 280.84375 186.167969 280.742188 180.0625 C 280.691406 177.003906 280.753906 144.484375 280.617188 140.792969 Z M 275.582031 139.660156 C 275.6875 139.417969 275.859375 139.222656 276.050781 139.042969 C 276.710938 138.417969 277.503906 137.984375 278.269531 137.519531 C 278.375 137.457031 278.488281 137.433594 278.597656 137.527344 C 278.640625 137.667969 278.550781 137.746094 278.464844 137.824219 C 277.742188 138.476562 277.023438 139.125 276.300781 139.773438 C 276.195312 139.867188 276.089844 139.964844 275.964844 140.035156 C 275.859375 140.09375 275.734375 140.089844 275.640625 139.988281 C 275.542969 139.894531 275.527344 139.78125 275.582031 139.660156 Z M 278.945312 222.605469 C 278.824219 222.675781 278.71875 222.597656 278.636719 222.503906 C 278.507812 222.367188 278.382812 222.21875 278.269531 222.070312 C 277.621094 221.230469 276.980469 220.382812 276.328125 219.539062 C 276.199219 219.371094 276.046875 219.214844 276.097656 218.976562 C 275.816406 219.105469 275.527344 219.1875 275.207031 219.167969 C 271.402344 218.917969 267.597656 218.945312 263.792969 218.925781 C 261.476562 218.910156 259.15625 218.921875 256.84375 218.917969 C 256.523438 219.539062 255.992188 219.726562 255.324219 219.742188 C 251.832031 219.828125 248.351562 219.667969 244.878906 219.34375 C 244.359375 219.296875 243.851562 219.203125 243.390625 218.9375 C 241.734375 218.960938 240.078125 218.972656 238.421875 218.894531 C 236.769531 218.972656 235.121094 219.0625 233.472656 219.128906 C 232.910156 219.152344 232.335938 219.191406 231.820312 218.878906 C 230.816406 218.894531 229.808594 218.957031 228.804688 218.851562 C 228.457031 219.160156 228.011719 219.167969 227.59375 219.179688 C 226.058594 219.21875 224.519531 219.230469 222.980469 219.246094 C 222.59375 219.25 222.222656 219.195312 221.953125 218.867188 C 220.269531 218.9375 218.59375 218.875 216.914062 218.855469 C 210.046875 218.769531 203.175781 218.625 196.3125 218.964844 C 190.511719 219.253906 184.710938 219.296875 178.910156 219.332031 C 174.363281 219.359375 169.816406 219.488281 165.269531 219.425781 C 158.851562 219.335938 152.4375 219.027344 146.015625 219.175781 C 143.128906 219.242188 136.144531 219.273438 135.90625 219.171875 C 134.914062 220.183594 133.925781 221.195312 132.921875 222.195312 C 132.761719 222.351562 132.605469 222.75 132.324219 222.519531 C 132.035156 222.273438 132.351562 221.992188 132.511719 221.789062 C 133.335938 220.730469 134.128906 219.636719 135.222656 218.820312 C 135.273438 218.777344 135.308594 218.710938 135.351562 218.652344 C 134.984375 218.292969 134.90625 217.839844 134.929688 217.347656 C 135.113281 212.972656 135.039062 208.589844 135.191406 204.210938 C 135.332031 200.09375 135.375 195.972656 135.398438 191.851562 C 135.421875 187.847656 135.4375 183.847656 135.433594 179.847656 C 135.429688 177.40625 135.347656 174.964844 135.375 172.527344 C 135.417969 169.210938 135.5 165.898438 135.582031 162.585938 C 135.675781 158.917969 135.617188 155.246094 135.65625 151.578125 C 135.691406 147.929688 135.761719 144.285156 135.816406 140.636719 C 135.015625 139.707031 134.371094 138.660156 133.632812 137.683594 C 133.511719 137.539062 133.390625 137.347656 133.605469 137.195312 C 133.800781 137.0625 133.957031 137.214844 134.09375 137.347656 C 134.503906 137.742188 134.851562 138.191406 135.164062 138.664062 C 135.503906 139.175781 135.832031 139.6875 136.167969 140.199219 C 136.371094 140.003906 136.613281 139.9375 136.886719 139.96875 C 140.335938 140.371094 143.796875 140.152344 147.253906 140.164062 C 156.160156 140.195312 165.066406 140.21875 173.976562 140.1875 C 181.386719 140.160156 188.804688 140.074219 196.21875 139.984375 C 201.808594 139.917969 207.398438 140.078125 212.992188 140 C 217.917969 139.929688 222.84375 139.839844 227.769531 139.703125 C 232.480469 139.578125 237.191406 139.675781 241.90625 139.621094 C 243.847656 139.601562 245.792969 139.570312 247.730469 139.554688 C 250.804688 139.535156 253.886719 139.535156 256.960938 139.710938 C 259.277344 139.84375 261.59375 139.960938 263.917969 139.925781 C 266.355469 139.890625 268.796875 139.988281 271.234375 140.050781 C 272.535156 140.078125 273.839844 140.144531 275.136719 140.203125 C 275.863281 140.238281 276.265625 140.570312 276.433594 141.285156 C 276.542969 141.746094 276.582031 142.222656 276.5625 142.695312 C 276.421875 146.011719 276.460938 149.335938 276.6875 152.636719 C 277.023438 157.535156 276.878906 162.433594 276.910156 167.335938 C 276.957031 174.320312 276.917969 181.308594 276.863281 188.292969 C 276.820312 193.8125 276.691406 199.328125 276.601562 204.847656 C 276.558594 207.449219 276.515625 210.058594 276.472656 212.660156 C 276.457031 213.585938 276.476562 214.507812 276.570312 215.429688 C 276.65625 216.285156 276.511719 217.132812 276.496094 217.984375 C 276.488281 218.320312 276.3125 218.617188 276.164062 218.914062 C 276.402344 218.839844 276.570312 218.957031 276.722656 219.121094 C 277.636719 220.0625 278.285156 221.195312 278.964844 222.300781 C 279.035156 222.402344 279.066406 222.527344 278.945312 222.605469 Z M 244.679688 216.390625 C 247.902344 216.59375 251.109375 216.984375 254.347656 216.964844 C 255.21875 216.960938 256.089844 217.0625 256.957031 217.117188 C 257.640625 216.871094 257.847656 216.507812 257.734375 215.75 C 257.644531 215.15625 257.324219 214.878906 256.664062 214.835938 C 255.695312 214.773438 254.730469 214.6875 253.757812 214.660156 C 251.554688 214.605469 249.367188 214.304688 247.164062 214.328125 C 247.019531 214.332031 246.882812 214.304688 246.738281 214.292969 C 245.578125 214.210938 244.417969 214.210938 243.261719 214.203125 C 243.015625 214.203125 242.789062 214.242188 242.632812 214.460938 C 242.207031 215.042969 242.414062 215.894531 243.066406 216.261719 C 243.597656 216.371094 244.140625 216.355469 244.679688 216.390625 Z M 253.660156 216.324219 C 251.066406 216.199219 248.46875 216.066406 245.875 215.921875 C 245.628906 215.90625 245.1875 216.074219 245.1875 215.6875 C 245.1875 215.417969 245.625 215.511719 245.867188 215.511719 C 247.972656 215.523438 250.070312 215.667969 252.167969 215.847656 C 253.039062 215.921875 253.90625 216.007812 254.777344 216.09375 C 254.980469 216.113281 255.203125 216.054688 255.425781 216.332031 C 254.789062 216.441406 254.226562 216.355469 253.660156 216.324219 Z M 254.199219 215.460938 C 251.945312 215.226562 249.6875 215.046875 247.425781 214.949219 C 246.714844 214.917969 246.007812 214.921875 245.300781 214.910156 C 245.140625 214.90625 244.96875 214.953125 244.828125 214.742188 C 248.117188 214.46875 251.375 214.808594 254.667969 215.234375 C 254.574219 215.550781 254.359375 215.476562 254.199219 215.460938 Z M 254.199219 215.460938 " fill-opacity="1" fill-rule="nonzero"/></g><path fill="rgb(16.079712%, 9.799194%, 34.509277%)" d="M 256.839844 218.921875 C 256.519531 219.539062 255.992188 219.730469 255.320312 219.746094 C 251.832031 219.832031 248.347656 219.667969 244.875 219.347656 C 244.355469 219.296875 243.847656 219.207031 243.386719 218.941406 C 242.785156 218.105469 242.949219 217.183594 243.066406 216.261719 C 243.597656 216.375 244.140625 216.355469 244.679688 216.390625 C 247.902344 216.59375 251.109375 216.984375 254.347656 216.964844 C 255.21875 216.960938 256.089844 217.0625 256.957031 217.117188 C 257.050781 217.726562 256.878906 218.316406 256.839844 218.921875 Z M 135.347656 218.660156 C 135.304688 218.714844 135.269531 218.785156 135.21875 218.824219 C 134.125 219.640625 133.332031 220.738281 132.507812 221.796875 C 132.347656 222 132.03125 222.28125 132.324219 222.523438 C 132.597656 222.757812 132.757812 222.359375 132.917969 222.199219 C 133.921875 221.203125 134.910156 220.191406 135.902344 219.179688 C 135.988281 218.621094 135.988281 218.621094 135.347656 218.660156 Z M 136.167969 140.195312 C 135.832031 139.683594 135.503906 139.171875 135.164062 138.660156 C 134.851562 138.1875 134.503906 137.742188 134.09375 137.347656 C 133.957031 137.214844 133.804688 137.058594 133.605469 137.195312 C 133.390625 137.347656 133.511719 137.539062 133.625 137.6875 C 134.363281 138.664062 135.003906 139.714844 135.808594 140.640625 C 136.074219 140.613281 136.1875 140.457031 136.167969 140.195312 Z M 276.730469 219.117188 C 276.574219 218.953125 276.410156 218.835938 276.171875 218.910156 C 276.160156 218.949219 276.136719 218.972656 276.097656 218.980469 C 276.050781 219.21875 276.199219 219.375 276.328125 219.542969 C 276.980469 220.386719 277.625 221.230469 278.269531 222.074219 C 278.386719 222.222656 278.507812 222.367188 278.636719 222.507812 C 278.714844 222.597656 278.820312 222.679688 278.945312 222.609375 C 279.066406 222.53125 279.039062 222.40625 278.972656 222.296875 C 278.289062 221.1875 277.640625 220.0625 276.730469 219.117188 Z M 275.960938 140.035156 C 276.085938 139.964844 276.191406 139.871094 276.296875 139.773438 C 277.019531 139.125 277.742188 138.476562 278.460938 137.824219 C 278.550781 137.746094 278.636719 137.667969 278.59375 137.527344 C 278.488281 137.433594 278.375 137.457031 278.269531 137.519531 C 277.5 137.984375 276.710938 138.421875 276.046875 139.042969 C 275.859375 139.222656 275.683594 139.417969 275.578125 139.660156 C 275.523438 139.78125 275.542969 139.894531 275.632812 139.988281 C 275.730469 140.089844 275.855469 140.09375 275.960938 140.035156 Z M 254.777344 216.09375 C 253.90625 216.011719 253.039062 215.925781 252.167969 215.851562 C 250.070312 215.671875 247.972656 215.527344 245.867188 215.515625 C 245.625 215.515625 245.1875 215.417969 245.1875 215.691406 C 245.183594 216.074219 245.628906 215.910156 245.875 215.921875 C 248.46875 216.070312 251.066406 216.203125 253.660156 216.328125 C 254.226562 216.355469 254.792969 216.441406 255.425781 216.335938 C 255.203125 216.058594 254.980469 216.117188 254.777344 216.09375 Z M 244.824219 214.742188 C 244.964844 214.953125 245.140625 214.90625 245.296875 214.910156 C 246.007812 214.921875 246.714844 214.917969 247.421875 214.949219 C 249.683594 215.046875 251.941406 215.226562 254.195312 215.460938 C 254.359375 215.476562 254.570312 215.550781 254.664062 215.230469 C 251.371094 214.808594 248.113281 214.46875 244.824219 214.742188 Z M 244.824219 214.742188 " fill-opacity="1" fill-rule="nonzero"/><g fill="rgb(100%, 100%, 100%)" fill-opacity="1"><g transform="translate(138.711353, 186.138097)"><g><path d="M 15.515625 0.640625 C 12.890625 0.640625 10.535156 0.0078125 8.453125 -1.25 C 6.378906 -2.507812 4.757812 -4.222656 3.59375 -6.390625 C 2.425781 -8.554688 1.84375 -10.96875 1.84375 -13.625 C 1.84375 -16.25 2.375 -18.710938 3.4375 -21.015625 C 4.5 -23.316406 6.078125 -25.1875 8.171875 -26.625 C 10.273438 -28.0625 12.816406 -28.78125 15.796875 -28.78125 C 18.742188 -28.78125 21.445312 -27.960938 23.90625 -26.328125 L 23.703125 -28.5 L 25.875 -28.5 L 25.875 -19.171875 L 24.4375 -19.171875 C 24.164062 -21.660156 23.285156 -23.609375 21.796875 -25.015625 C 20.316406 -26.421875 18.410156 -27.125 16.078125 -27.125 C 14.171875 -27.125 12.429688 -26.59375 10.859375 -25.53125 C 9.296875 -24.476562 8.054688 -22.972656 7.140625 -21.015625 C 6.234375 -19.054688 5.78125 -16.789062 5.78125 -14.21875 C 5.78125 -11.757812 6.265625 -9.554688 7.234375 -7.609375 C 8.203125 -5.671875 9.5 -4.160156 11.125 -3.078125 C 12.757812 -1.992188 14.570312 -1.453125 16.5625 -1.453125 C 18.351562 -1.453125 20.078125 -1.851562 21.734375 -2.65625 C 23.398438 -3.457031 24.769531 -4.59375 25.84375 -6.0625 L 26.890625 -5.21875 C 25.328125 -3.050781 23.539062 -1.53125 21.53125 -0.65625 C 19.53125 0.207031 17.523438 0.640625 15.515625 0.640625 Z M 15.515625 0.640625 "/></g></g></g><g fill="rgb(100%, 100%, 100%)" fill-opacity="1"><g transform="translate(166.798387, 186.138097)"><g><path d="M 2.203125 -1.328125 C 3.140625 -1.347656 3.8125 -1.5625 4.21875 -1.96875 C 4.625 -2.375 4.851562 -2.847656 4.90625 -3.390625 C 4.957031 -3.941406 4.984375 -4.898438 4.984375 -6.265625 L 4.984375 -23.625 C 4.984375 -24.75 5.023438 -25.71875 5.109375 -26.53125 L 2.203125 -26.359375 L 2.203125 -28.125 L 11.25 -28.125 L 11.25 -26.8125 C 10.3125 -26.78125 9.640625 -26.5625 9.234375 -26.15625 C 8.835938 -25.757812 8.613281 -25.285156 8.5625 -24.734375 C 8.507812 -24.179688 8.484375 -23.222656 8.484375 -21.859375 L 8.484375 -4.78125 C 8.484375 -3.363281 8.441406 -2.304688 8.359375 -1.609375 L 11.25 -1.765625 L 11.25 0 L 2.203125 0 Z M 2.203125 -1.328125 "/></g></g></g><g fill="rgb(100%, 100%, 100%)" fill-opacity="1"><g transform="translate(180.259266, 186.138097)"><g><path d="M 15.109375 -4.625 C 13.078125 -9.144531 11.5 -12.710938 10.375 -15.328125 C 9.25 -17.941406 8.148438 -20.695312 7.078125 -23.59375 L 7.03125 -21.828125 C 6.789062 -13.972656 6.644531 -8.375 6.59375 -5.03125 C 6.59375 -4.625 6.578125 -4.328125 6.546875 -4.140625 C 6.546875 -3.222656 6.507812 -2.378906 6.4375 -1.609375 L 9.4375 -1.765625 L 9.4375 0 L 1.765625 0 L 1.765625 -1.328125 C 2.890625 -1.347656 3.617188 -1.660156 3.953125 -2.265625 C 4.285156 -2.867188 4.484375 -3.789062 4.546875 -5.03125 L 5.421875 -26.53125 L 2.53125 -26.40625 L 2.53125 -28.125 L 8.6875 -28.125 L 14.140625 -15.515625 C 16.128906 -10.847656 17.660156 -7.3125 18.734375 -4.90625 L 18.8125 -4.90625 C 19.132812 -5.707031 19.816406 -7.4375 20.859375 -10.09375 C 21.878906 -12.65625 23.046875 -15.476562 24.359375 -18.5625 C 25.878906 -22.15625 27.191406 -25.34375 28.296875 -28.125 L 34.234375 -28.125 L 34.234375 -26.8125 C 33.273438 -26.832031 32.566406 -26.566406 32.109375 -26.015625 C 31.648438 -25.472656 31.421875 -24.546875 31.421875 -23.234375 L 31.46875 -22.421875 L 32.515625 -4.140625 C 32.566406 -3.523438 32.59375 -2.691406 32.59375 -1.640625 L 35.53125 -1.765625 L 35.53125 0 L 26.53125 0 L 26.53125 -1.328125 C 27.570312 -1.347656 28.28125 -1.644531 28.65625 -2.21875 C 29.03125 -2.800781 29.21875 -3.707031 29.21875 -4.9375 C 29.21875 -5.445312 29.203125 -5.835938 29.171875 -6.109375 L 28.125 -23.234375 C 28.070312 -23.097656 28 -22.921875 27.90625 -22.703125 C 27.8125 -22.492188 27.710938 -22.238281 27.609375 -21.9375 L 18.5625 0.40625 L 17.359375 0.40625 Z M 15.109375 -4.625 "/></g></g></g><g fill="rgb(100%, 100%, 100%)" fill-opacity="1"><g transform="translate(217.146099, 186.138097)"><g><path d="M -0.234375 -1.328125 C 0.429688 -1.328125 0.960938 -1.476562 1.359375 -1.78125 C 1.765625 -2.09375 2.09375 -2.492188 2.34375 -2.984375 C 2.601562 -3.484375 2.90625 -4.226562 3.25 -5.21875 L 3.65625 -6.34375 L 11.9375 -28.890625 L 12.90625 -28.890625 L 21.859375 -6.03125 C 22.148438 -5.300781 22.40625 -4.515625 22.625 -3.671875 C 22.84375 -2.828125 22.9375 -2.140625 22.90625 -1.609375 L 25.640625 -1.765625 L 25.640625 0 L 16.4375 0 L 16.4375 -1.328125 C 18.019531 -1.347656 18.8125 -1.988281 18.8125 -3.25 C 18.8125 -3.757812 18.675781 -4.390625 18.40625 -5.140625 L 17 -8.921875 L 6.546875 -8.6875 C 6.148438 -7.582031 5.679688 -6.144531 5.140625 -4.375 C 4.867188 -3.488281 4.535156 -2.566406 4.140625 -1.609375 L 7.28125 -1.765625 L 7.28125 0 L -0.234375 0 Z M 16.4375 -10.40625 L 13.578125 -18.078125 L 11.78125 -23.03125 L 11.6875 -23.03125 L 10 -18.484375 L 7.84375 -12.375 L 7.15625 -10.40625 Z M 16.4375 -10.40625 "/></g></g></g><g fill="rgb(99.21875%, 74.508667%, 6.669617%)" fill-opacity="1"><g transform="translate(138.711353, 210.462616)"><g/></g></g><g fill="rgb(99.21875%, 74.508667%, 6.669617%)" fill-opacity="1"><g transform="translate(141.905923, 210.462616)"><g/></g></g><g fill="rgb(99.21875%, 74.508667%, 6.669617%)" fill-opacity="1"><g transform="translate(145.100493, 210.462616)"><g/></g></g><g fill="rgb(99.21875%, 74.508667%, 6.669617%)" fill-opacity="1"><g transform="translate(148.295063, 210.462616)"><g/></g></g><g fill="rgb(99.21875%, 74.508667%, 6.669617%)" fill-opacity="1"><g transform="translate(151.487888, 210.462616)"><g><path d="M 1.984375 -1.015625 L 4.84375 -1.015625 L 4.84375 0 L 0.875 0 L 0.875 -6.609375 L 1.984375 -6.609375 Z M 1.984375 -1.015625 "/></g></g></g><g fill="rgb(99.21875%, 74.508667%, 6.669617%)" fill-opacity="1"><g transform="translate(157.290649, 210.462616)"><g><path d="M 5.59375 -5.609375 L 1.984375 -5.609375 L 1.984375 -3.828125 L 5.21875 -3.828125 L 5.21875 -2.828125 L 1.984375 -2.828125 L 1.984375 -1 L 5.703125 -1 L 5.703125 0 L 0.875 0 L 0.875 -6.609375 L 5.59375 -6.609375 Z M 5.59375 -5.609375 "/></g></g></g><g fill="rgb(99.21875%, 74.508667%, 6.669617%)" fill-opacity="1"><g transform="translate(164.246312, 210.462616)"><g><path d="M 5.390625 -5.609375 L 3.296875 -5.609375 L 3.296875 0 L 2.171875 0 L 2.171875 -5.609375 L 0.078125 -5.609375 L 0.078125 -6.609375 L 5.390625 -6.609375 Z M 5.390625 -5.609375 "/></g></g></g><g fill="rgb(99.21875%, 74.508667%, 6.669617%)" fill-opacity="1"><g transform="translate(170.47432, 210.462616)"><g><path d="M 1.40625 -4.296875 L 0.5625 -4.296875 L 0.5625 -6.609375 L 1.40625 -6.609375 Z M 1.40625 -4.296875 "/></g></g></g><g fill="rgb(99.21875%, 74.508667%, 6.669617%)" fill-opacity="1"><g transform="translate(173.196393, 210.462616)"><g><path d="M 3.046875 -6.671875 C 3.898438 -6.671875 4.671875 -6.441406 5.359375 -5.984375 L 4.890625 -5 C 4.222656 -5.40625 3.578125 -5.609375 2.953125 -5.609375 C 2.617188 -5.609375 2.351562 -5.546875 2.15625 -5.421875 C 1.96875 -5.304688 1.875 -5.140625 1.875 -4.921875 C 1.875 -4.703125 1.960938 -4.515625 2.140625 -4.359375 C 2.316406 -4.203125 2.535156 -4.085938 2.796875 -4.015625 C 3.066406 -3.941406 3.351562 -3.847656 3.65625 -3.734375 C 3.96875 -3.628906 4.253906 -3.515625 4.515625 -3.390625 C 4.785156 -3.273438 5.003906 -3.082031 5.171875 -2.8125 C 5.347656 -2.550781 5.4375 -2.238281 5.4375 -1.875 C 5.4375 -1.289062 5.207031 -0.828125 4.75 -0.484375 C 4.289062 -0.140625 3.691406 0.03125 2.953125 0.03125 C 2.441406 0.03125 1.953125 -0.0625 1.484375 -0.25 C 1.015625 -0.4375 0.601562 -0.691406 0.25 -1.015625 L 0.734375 -1.96875 C 1.066406 -1.664062 1.429688 -1.429688 1.828125 -1.265625 C 2.222656 -1.097656 2.601562 -1.015625 2.96875 -1.015625 C 3.351562 -1.015625 3.65625 -1.082031 3.875 -1.21875 C 4.09375 -1.363281 4.203125 -1.5625 4.203125 -1.8125 C 4.203125 -2.039062 4.113281 -2.234375 3.9375 -2.390625 C 3.757812 -2.546875 3.539062 -2.65625 3.28125 -2.71875 C 3.019531 -2.789062 2.734375 -2.878906 2.421875 -2.984375 C 2.109375 -3.085938 1.816406 -3.195312 1.546875 -3.3125 C 1.285156 -3.4375 1.066406 -3.625 0.890625 -3.875 C 0.722656 -4.132812 0.640625 -4.453125 0.640625 -4.828125 C 0.640625 -5.378906 0.859375 -5.820312 1.296875 -6.15625 C 1.734375 -6.5 2.316406 -6.671875 3.046875 -6.671875 Z M 3.046875 -6.671875 "/></g></g></g><g fill="rgb(99.21875%, 74.508667%, 6.669617%)" fill-opacity="1"><g transform="translate(179.830754, 210.462616)"><g/></g></g><g fill="rgb(99.21875%, 74.508667%, 6.669617%)" fill-opacity="1"><g transform="translate(183.025324, 210.462616)"><g><path d="M 5.390625 -3.25 L 6.375 -3.25 L 6.375 -0.8125 C 6.03125 -0.550781 5.625 -0.34375 5.15625 -0.1875 C 4.695312 -0.03125 4.242188 0.046875 3.796875 0.046875 C 2.816406 0.046875 1.992188 -0.273438 1.328125 -0.921875 C 0.660156 -1.566406 0.328125 -2.359375 0.328125 -3.296875 C 0.328125 -4.242188 0.664062 -5.035156 1.34375 -5.671875 C 2.019531 -6.316406 2.859375 -6.640625 3.859375 -6.640625 C 4.328125 -6.640625 4.785156 -6.554688 5.234375 -6.390625 C 5.691406 -6.222656 6.082031 -6 6.40625 -5.71875 L 5.78125 -4.890625 C 5.238281 -5.398438 4.597656 -5.65625 3.859375 -5.65625 C 3.191406 -5.65625 2.625 -5.425781 2.15625 -4.96875 C 1.6875 -4.519531 1.453125 -3.96875 1.453125 -3.3125 C 1.453125 -2.644531 1.6875 -2.082031 2.15625 -1.625 C 2.625 -1.175781 3.195312 -0.953125 3.875 -0.953125 C 4.382812 -0.953125 4.890625 -1.101562 5.390625 -1.40625 Z M 5.390625 -3.25 "/></g></g></g><g fill="rgb(99.21875%, 74.508667%, 6.669617%)" fill-opacity="1"><g transform="translate(190.859828, 210.462616)"><g><path d="M 1.328125 -5.671875 C 2.003906 -6.316406 2.835938 -6.640625 3.828125 -6.640625 C 4.816406 -6.640625 5.644531 -6.316406 6.3125 -5.671875 C 6.988281 -5.035156 7.328125 -4.242188 7.328125 -3.296875 C 7.328125 -2.359375 6.988281 -1.566406 6.3125 -0.921875 C 5.644531 -0.273438 4.816406 0.046875 3.828125 0.046875 C 2.835938 0.046875 2.003906 -0.273438 1.328125 -0.921875 C 0.660156 -1.566406 0.328125 -2.359375 0.328125 -3.296875 C 0.328125 -4.242188 0.660156 -5.035156 1.328125 -5.671875 Z M 3.84375 -5.640625 C 3.1875 -5.640625 2.625 -5.414062 2.15625 -4.96875 C 1.6875 -4.519531 1.453125 -3.96875 1.453125 -3.3125 C 1.453125 -2.65625 1.6875 -2.097656 2.15625 -1.640625 C 2.625 -1.179688 3.179688 -0.953125 3.828125 -0.953125 C 4.484375 -0.953125 5.039062 -1.179688 5.5 -1.640625 C 5.957031 -2.097656 6.1875 -2.65625 6.1875 -3.3125 C 6.1875 -3.96875 5.957031 -4.519531 5.5 -4.96875 C 5.039062 -5.414062 4.488281 -5.640625 3.84375 -5.640625 Z M 3.84375 -5.640625 "/></g></g></g><g fill="rgb(99.21875%, 74.508667%, 6.669617%)" fill-opacity="1"><g transform="translate(199.270781, 210.462616)"><g/></g></g><g fill="rgb(99.21875%, 74.508667%, 6.669617%)" fill-opacity="1"><g transform="translate(202.46535, 210.462616)"><g><path d="M 5.390625 -5.609375 L 3.296875 -5.609375 L 3.296875 0 L 2.171875 0 L 2.171875 -5.609375 L 0.078125 -5.609375 L 0.078125 -6.609375 L 5.390625 -6.609375 Z M 5.390625 -5.609375 "/></g></g></g><g fill="rgb(99.21875%, 74.508667%, 6.669617%)" fill-opacity="1"><g transform="translate(208.693357, 210.462616)"><g><path d="M 1.328125 -5.671875 C 2.003906 -6.316406 2.835938 -6.640625 3.828125 -6.640625 C 4.816406 -6.640625 5.644531 -6.316406 6.3125 -5.671875 C 6.988281 -5.035156 7.328125 -4.242188 7.328125 -3.296875 C 7.328125 -2.359375 6.988281 -1.566406 6.3125 -0.921875 C 5.644531 -0.273438 4.816406 0.046875 3.828125 0.046875 C 2.835938 0.046875 2.003906 -0.273438 1.328125 -0.921875 C 0.660156 -1.566406 0.328125 -2.359375 0.328125 -3.296875 C 0.328125 -4.242188 0.660156 -5.035156 1.328125 -5.671875 Z M 3.84375 -5.640625 C 3.1875 -5.640625 2.625 -5.414062 2.15625 -4.96875 C 1.6875 -4.519531 1.453125 -3.96875 1.453125 -3.3125 C 1.453125 -2.65625 1.6875 -2.097656 2.15625 -1.640625 C 2.625 -1.179688 3.179688 -0.953125 3.828125 -0.953125 C 4.484375 -0.953125 5.039062 -1.179688 5.5 -1.640625 C 5.957031 -2.097656 6.1875 -2.65625 6.1875 -3.3125 C 6.1875 -3.96875 5.957031 -4.519531 5.5 -4.96875 C 5.039062 -5.414062 4.488281 -5.640625 3.84375 -5.640625 Z M 3.84375 -5.640625 "/></g></g></g><g fill="rgb(99.21875%, 74.508667%, 6.669617%)" fill-opacity="1"><g transform="translate(217.10431, 210.462616)"><g><path d="M 5.390625 -3.25 L 6.375 -3.25 L 6.375 -0.8125 C 6.03125 -0.550781 5.625 -0.34375 5.15625 -0.1875 C 4.695312 -0.03125 4.242188 0.046875 3.796875 0.046875 C 2.816406 0.046875 1.992188 -0.273438 1.328125 -0.921875 C 0.660156 -1.566406 0.328125 -2.359375 0.328125 -3.296875 C 0.328125 -4.242188 0.664062 -5.035156 1.34375 -5.671875 C 2.019531 -6.316406 2.859375 -6.640625 3.859375 -6.640625 C 4.328125 -6.640625 4.785156 -6.554688 5.234375 -6.390625 C 5.691406 -6.222656 6.082031 -6 6.40625 -5.71875 L 5.78125 -4.890625 C 5.238281 -5.398438 4.597656 -5.65625 3.859375 -5.65625 C 3.191406 -5.65625 2.625 -5.425781 2.15625 -4.96875 C 1.6875 -4.519531 1.453125 -3.96875 1.453125 -3.3125 C 1.453125 -2.644531 1.6875 -2.082031 2.15625 -1.625 C 2.625 -1.175781 3.195312 -0.953125 3.875 -0.953125 C 4.382812 -0.953125 4.890625 -1.101562 5.390625 -1.40625 Z M 5.390625 -3.25 "/></g></g></g><g fill="rgb(99.21875%, 74.508667%, 6.669617%)" fill-opacity="1"><g transform="translate(224.938812, 210.462616)"><g><path d="M 5.59375 -5.609375 L 1.984375 -5.609375 L 1.984375 -3.828125 L 5.21875 -3.828125 L 5.21875 -2.828125 L 1.984375 -2.828125 L 1.984375 -1 L 5.703125 -1 L 5.703125 0 L 0.875 0 L 0.875 -6.609375 L 5.59375 -6.609375 Z M 5.59375 -5.609375 "/></g></g></g><g fill="rgb(99.21875%, 74.508667%, 6.669617%)" fill-opacity="1"><g transform="translate(231.894479, 210.462616)"><g><path d="M 5.390625 -5.609375 L 3.296875 -5.609375 L 3.296875 0 L 2.171875 0 L 2.171875 -5.609375 L 0.078125 -5.609375 L 0.078125 -6.609375 L 5.390625 -6.609375 Z M 5.390625 -5.609375 "/></g></g></g><g fill="rgb(99.21875%, 74.508667%, 6.669617%)" fill-opacity="1"><g transform="translate(238.122486, 210.462616)"><g><path d="M 6.609375 0 L 5.5 0 L 5.5 -2.734375 L 1.984375 -2.734375 L 1.984375 0 L 0.875 0 L 0.875 -6.609375 L 1.984375 -6.609375 L 1.984375 -3.75 L 5.5 -3.75 L 5.5 -6.609375 L 6.609375 -6.609375 Z M 6.609375 0 "/></g></g></g><g fill="rgb(99.21875%, 74.508667%, 6.669617%)" fill-opacity="1"><g transform="translate(246.353886, 210.462616)"><g><path d="M 5.59375 -5.609375 L 1.984375 -5.609375 L 1.984375 -3.828125 L 5.21875 -3.828125 L 5.21875 -2.828125 L 1.984375 -2.828125 L 1.984375 -1 L 5.703125 -1 L 5.703125 0 L 0.875 0 L 0.875 -6.609375 L 5.59375 -6.609375 Z M 5.59375 -5.609375 "/></g></g></g><g fill="rgb(99.21875%, 74.508667%, 6.669617%)" fill-opacity="1"><g transform="translate(253.309548, 210.462616)"><g><path d="M 5.0625 0 L 3.859375 -2 C 3.796875 -2 3.691406 -2 3.546875 -2 L 1.984375 -2 L 1.984375 0 L 0.875 0 L 0.875 -6.609375 L 3.546875 -6.609375 C 4.398438 -6.609375 5.054688 -6.410156 5.515625 -6.015625 C 5.984375 -5.628906 6.21875 -5.078125 6.21875 -4.359375 C 6.21875 -3.828125 6.097656 -3.378906 5.859375 -3.015625 C 5.628906 -2.648438 5.289062 -2.382812 4.84375 -2.21875 L 6.328125 0 Z M 1.984375 -3 L 3.546875 -3 C 4.617188 -3 5.15625 -3.441406 5.15625 -4.328125 C 5.15625 -5.179688 4.617188 -5.609375 3.546875 -5.609375 L 1.984375 -5.609375 Z M 1.984375 -3 "/></g></g></g><g clip-path="url(#id5)"><g clip-path="url(#id6)"><g clip-path="url(#id7)"><g clip-path="url(#id8)"><path fill="rgb(100%, 100%, 100%)" d="M 254.484375 163.140625 C 255.300781 163.308594 256.179688 163.324219 256.984375 163.359375 C 258.3125 163.421875 259.671875 163.394531 260.875 162.769531 C 261.296875 162.550781 261.539062 161.972656 261.410156 161.523438 C 260.695312 159.144531 258.21875 157.425781 255.996094 156.46875 C 255.933594 154.320312 255.953125 152.027344 254.023438 150.664062 C 253.667969 150.410156 253.1875 150.578125 252.890625 150.824219 C 251.570312 151.921875 250.65625 153.566406 249.773438 155.097656 C 249.460938 154.828125 249.050781 154.714844 248.652344 154.53125 C 248.113281 154.28125 247.59375 154.007812 247.046875 153.773438 C 245.960938 153.3125 244.851562 152.953125 243.667969 153.191406 C 243.402344 153.242188 243.171875 153.496094 243.105469 153.753906 C 242.773438 155.089844 243.128906 156.410156 243.652344 157.632812 C 244.070312 158.617188 244.554688 159.6875 245.316406 160.457031 C 244.5 160.753906 243.765625 161.378906 243.136719 161.9375 C 242.359375 162.621094 241.65625 163.5 241.335938 164.5 C 241.238281 164.820312 241.402344 165.304688 241.730469 165.445312 C 243.832031 166.328125 246.535156 166.773438 248.785156 166.128906 C 249.027344 166.894531 249.550781 167.71875 249.925781 168.257812 C 250.59375 169.203125 251.355469 169.984375 252.476562 170.355469 C 252.875 170.484375 253.414062 170.253906 253.605469 169.878906 C 254.21875 168.664062 254.410156 167.355469 254.464844 166.011719 C 254.496094 165.167969 254.589844 164.089844 254.484375 163.140625 Z M 252.460938 165.4375 C 252.445312 166.292969 252.421875 167.171875 252.199219 168.011719 C 251.707031 167.621094 251.328125 167.066406 250.925781 166.605469 C 250.53125 166.148438 250.070312 165.472656 249.5 165.15625 C 249.453125 164.65625 249.035156 164.199219 248.398438 164.363281 C 246.785156 164.765625 244.90625 164.65625 243.269531 164.199219 C 243.914062 163.007812 245.210938 161.988281 246.148438 161.136719 C 246.335938 160.972656 246.324219 160.757812 246.222656 160.597656 C 246.195312 158.613281 244.445312 156.933594 244.507812 154.941406 C 245.296875 155.175781 246.035156 155.484375 246.800781 155.878906 C 247.722656 156.347656 248.71875 157.117188 249.761719 156.671875 C 249.886719 156.621094 249.976562 156.539062 250.046875 156.429688 C 251.425781 156.003906 252.410156 154.046875 253.429688 152.882812 C 253.988281 154.03125 253.605469 155.640625 253.734375 156.863281 C 253.789062 157.367188 254.097656 157.699219 254.476562 157.847656 C 254.507812 157.890625 254.53125 157.925781 254.566406 157.960938 C 255.773438 159.230469 257.820312 159.753906 258.828125 161.203125 C 258.046875 161.375 257.222656 161.355469 256.4375 161.339844 C 255.425781 161.316406 254.3125 161.179688 253.394531 161.679688 C 253.125 161.71875 252.878906 161.863281 252.753906 162.097656 C 252.257812 163.03125 252.480469 164.402344 252.460938 165.4375 Z M 252.460938 165.4375 " fill-opacity="1" fill-rule="nonzero"/></g></g></g></g><g clip-path="url(#id9)"><g clip-path="url(#id10)"><g clip-path="url(#id11)"><g clip-path="url(#id12)"><path fill="rgb(100%, 100%, 100%)" d="M 256.5 180.496094 C 256.328125 179.972656 256.136719 179.460938 256.007812 178.898438 C 255.839844 178.203125 255.523438 177.636719 255.011719 177.132812 C 254.78125 176.914062 254.496094 176.957031 254.253906 177.136719 C 253.78125 177.5 253.398438 177.855469 253.042969 178.332031 C 252.679688 178.824219 252.390625 179.550781 251.871094 179.917969 C 251.359375 180.277344 250.574219 180.089844 249.964844 180.160156 C 248.964844 180.277344 247.625 180.902344 248.273438 181.902344 C 248.574219 182.683594 249.355469 183.238281 249.480469 184.105469 C 249.636719 185.15625 249.035156 186.175781 249.1875 187.234375 C 249.457031 189.148438 251.824219 188.648438 253.261719 188.03125 C 254.25 188.839844 255.121094 189.867188 256.289062 190.417969 C 256.675781 190.597656 257.070312 190.488281 257.316406 190.128906 C 257.886719 189.273438 257.90625 188.292969 257.671875 187.328125 C 257.570312 186.910156 257.429688 186.503906 257.367188 186.078125 C 257.34375 185.921875 257.335938 185.761719 257.316406 185.609375 C 258.925781 185.71875 261.570312 185.011719 261.082031 183.175781 C 260.839844 182.230469 259.75 181.6875 258.9375 181.320312 C 258.199219 180.980469 257.34375 180.535156 256.5 180.496094 Z M 259.246094 183.742188 C 258.882812 183.953125 258.441406 184.058594 258.046875 184.191406 C 257.566406 184.347656 257.132812 184.464844 256.78125 184.765625 C 256.710938 184.753906 256.648438 184.753906 256.585938 184.777344 C 255.683594 185.050781 255.882812 186.222656 256.023438 186.925781 C 256.136719 187.5 256.320312 188.078125 256.269531 188.640625 C 255.570312 188.117188 254.96875 187.441406 254.164062 187.121094 C 254.132812 186.773438 253.863281 186.441406 253.460938 186.441406 C 252.925781 186.429688 252.433594 186.585938 251.925781 186.734375 C 251.578125 186.839844 251.0625 187.09375 250.699219 187.039062 C 250.683594 187.035156 250.667969 187.039062 250.660156 187.039062 C 250.660156 187.007812 250.660156 186.96875 250.660156 186.917969 C 250.640625 186.660156 250.675781 186.410156 250.714844 186.160156 C 250.785156 185.675781 250.90625 185.1875 250.898438 184.699219 C 250.890625 183.46875 249.921875 182.34375 248.816406 181.824219 C 248.855469 181.269531 249.539062 181.386719 250.035156 181.398438 C 250.589844 181.421875 251.164062 181.480469 251.710938 181.410156 C 253.320312 181.210938 253.765625 179.445312 254.628906 178.304688 C 255.253906 179.265625 254.636719 180.585938 255.269531 181.585938 C 255.425781 181.835938 255.679688 181.945312 255.9375 181.933594 C 256.382812 182.269531 256.984375 182.378906 257.511719 182.554688 C 258.21875 182.800781 258.898438 183.085938 259.492188 183.546875 C 259.5 183.558594 259.507812 183.5625 259.511719 183.566406 C 259.433594 183.644531 259.335938 183.691406 259.246094 183.742188 Z M 259.546875 183.613281 C 259.578125 183.644531 259.558594 183.644531 259.546875 183.613281 Z M 259.546875 183.613281 " fill-opacity="1" fill-rule="nonzero"/></g></g></g></g><g clip-path="url(#id13)"><g clip-path="url(#id14)"><g clip-path="url(#id15)"><g clip-path="url(#id16)"><path fill="rgb(100%, 100%, 100%)" d="M 269.683594 164.410156 C 268.882812 164.328125 268.074219 165.21875 267.535156 165.707031 C 267.035156 166.164062 266.109375 166.808594 265.8125 167.507812 C 264.863281 166.765625 263.792969 166.105469 262.566406 166.855469 C 261.296875 167.628906 262.171875 169.050781 262.53125 170.058594 C 262.597656 170.238281 262.699219 170.398438 262.824219 170.535156 C 262.726562 170.929688 262.371094 171.164062 261.953125 171.492188 C 261.207031 172.074219 260.332031 173.140625 260.582031 174.160156 C 260.804688 175.09375 261.824219 175.355469 262.65625 175.425781 C 263.179688 175.472656 263.703125 175.457031 264.226562 175.433594 C 264.570312 175.414062 265.027344 175.453125 265.40625 175.347656 C 265.996094 176.769531 267.113281 178.871094 268.714844 177.949219 C 269.53125 177.476562 269.652344 176.3125 269.675781 175.476562 C 269.6875 175.085938 269.675781 174.449219 269.542969 173.890625 C 271.113281 174.117188 273.011719 174.058594 274.039062 172.816406 C 274.285156 172.519531 274.367188 172.167969 274.183594 171.820312 C 273.566406 170.628906 272.152344 169.019531 270.734375 168.84375 C 270.722656 168.84375 270.722656 168.84375 270.714844 168.84375 C 271.230469 167.28125 271.492188 164.59375 269.683594 164.410156 Z M 262.117188 173.691406 C 262.101562 173.675781 262.105469 173.671875 262.117188 173.691406 Z M 269.8125 167.222656 C 269.816406 167.964844 269.765625 168.675781 269.832031 169.410156 C 269.832031 169.429688 269.835938 169.445312 269.839844 169.460938 C 269.820312 169.65625 269.875 169.863281 270.027344 170.058594 C 270.40625 170.542969 271.003906 170.777344 271.476562 171.148438 C 271.820312 171.421875 272.117188 171.714844 272.363281 172.054688 C 271.304688 172.648438 269.757812 172.125 268.660156 172.804688 C 268.519531 172.796875 268.378906 172.84375 268.261719 172.949219 C 267.804688 173.375 267.949219 174.105469 267.925781 174.667969 C 267.910156 175.058594 267.914062 175.441406 267.898438 175.824219 C 267.890625 175.980469 267.828125 176.175781 267.792969 176.34375 C 267.777344 176.328125 267.761719 176.324219 267.746094 176.308594 C 267.507812 176.058594 267.292969 175.804688 267.070312 175.542969 C 266.757812 175.15625 266.46875 174.734375 266.082031 174.429688 C 266.066406 174.34375 266.035156 174.261719 265.984375 174.179688 C 265.714844 173.722656 265.152344 173.765625 264.6875 173.792969 C 264.152344 173.828125 263.617188 173.855469 263.082031 173.84375 C 262.804688 173.835938 262.554688 173.800781 262.296875 173.757812 C 262.183594 173.738281 262.128906 173.714844 262.105469 173.691406 C 262.019531 173.121094 263.023438 172.492188 263.371094 172.183594 C 263.804688 171.800781 264.085938 171.398438 264.152344 170.816406 C 264.175781 170.609375 264.160156 170.402344 264.125 170.203125 C 264.296875 169.652344 263.984375 169.011719 263.785156 168.511719 C 263.757812 168.457031 263.726562 168.367188 263.699219 168.285156 C 263.804688 168.257812 263.929688 168.214844 264.027344 168.199219 C 264.699219 168.125 265.335938 168.320312 266.007812 168.351562 C 266.167969 168.441406 266.363281 168.480469 266.53125 168.445312 C 267.054688 168.339844 267.519531 167.601562 267.867188 167.242188 C 268.324219 166.773438 268.902344 166.023438 269.511719 165.761719 C 269.53125 165.75 269.550781 165.738281 269.566406 165.734375 C 269.625 165.789062 269.660156 165.886719 269.675781 165.941406 C 269.773438 166.382812 269.808594 166.773438 269.8125 167.222656 Z M 269.8125 167.222656 " fill-opacity="1" fill-rule="nonzero"/></g></g></g></g><g clip-path="url(#id17)"><g clip-path="url(#id18)"><g clip-path="url(#id19)"><g clip-path="url(#id20)"><path fill="rgb(100%, 100%, 100%)" d="M 180.921875 155.289062 L 176.230469 153.480469 L 172.199219 156.488281 L 172.332031 151.273438 L 168.308594 148.148438 L 173.082031 146.734375 L 174.628906 141.796875 L 177.445312 146.132812 L 182.425781 146.207031 L 179.390625 150.304688 Z M 169.15625 148.3125 L 172.71875 151.082031 L 172.597656 155.695312 L 176.167969 153.035156 L 180.320312 154.636719 L 178.964844 150.222656 L 181.652344 146.597656 L 177.246094 146.53125 L 174.75 142.691406 L 173.382812 147.058594 Z M 169.15625 148.3125 " fill-opacity="1" fill-rule="nonzero"/></g></g></g></g></svg>